<svg width="16" height="16" viewBox="0 0 16 16" fill="none" xmlns="http://www.w3.org/2000/svg">
<path d="M14.3702 1.01766C14.742 0.917774 15.0824 1.25773 14.9831 1.62958L11.1028 14.2827C10.8615 15.1809 9.6174 15.257 9.27111 14.3936L7.43901 8.58153L1.60966 6.75301C0.782091 6.42434 0.813385 5.26731 1.60422 4.95525L1.71676 4.91809L14.3702 1.01766ZM12.844 2.502L2.06801 5.85853L8.00937 7.73307C8.11094 7.77365 8.19567 7.84609 8.25157 7.93842L8.2879 8.0112L10.162 13.9275L13.451 3.309L10.6642 6.09673C10.3037 6.45721 9.73651 6.48494 9.34421 6.17992L9.25001 6.09673L12.844 2.502Z" fill="#040B29"/>
</svg>
