<svg width="36" height="36" viewBox="0 0 36 36" fill="none" xmlns="http://www.w3.org/2000/svg">
<path fill-rule="evenodd" clip-rule="evenodd" d="M18.7792 4H17.2367L17.0511 4.00334L17.0493 4.00341C14.6911 4.08936 12.7637 5.79568 12.7637 7.94761V9.60596H9.17635L9.04899 9.61118L9.04486 9.61152C8.30749 9.67317 7.70756 10.2489 7.64438 10.9912L6.00549 30.332L6.00005 30.4498L6.00002 30.4538C5.99534 31.3019 6.6962 31.9999 7.56812 31.9999L28.4323 32L28.5518 31.9955L28.5555 31.9952C29.4094 31.9301 30.0671 31.1935 29.9945 30.3329L28.3709 10.9926L28.355 10.8677L28.3543 10.8634C28.2298 10.141 27.5917 9.60605 26.8388 9.60605H23.2523L23.2523 7.94761L23.2484 7.78139L23.2483 7.77904C23.1477 5.65074 21.1601 4 18.7792 4ZM23.2522 13.1612L23.2523 10.8281L26.8348 10.8285L26.8953 10.8334C27.0305 10.8575 27.1308 10.9653 27.1417 11.0942L28.765 30.4302L28.7648 30.4924C28.7483 30.6474 28.6108 30.7775 28.4323 30.7775H7.57215L7.50591 30.7721C7.33738 30.7422 7.22102 30.5948 7.23465 30.4345L8.8731 11.0981L8.88285 11.0422C8.91708 10.921 9.03375 10.8285 9.17635 10.8285H12.7637V13.1083H12.8629C13.4893 13.1083 13.9971 12.5999 13.9971 11.9727V10.8285H17.4278C18.0474 10.8285 18.5497 10.3256 18.5497 9.70534V9.60596H13.9971V7.94909L14.0014 7.80818C14.0869 6.39572 15.4757 5.22245 17.2367 5.22245H18.7782L18.9491 5.22612C20.6867 5.30152 22.0188 6.51955 22.0188 7.94761V9.60605H20.5406L20.457 9.61159L20.4498 9.61264C20.1531 9.65611 19.9239 9.90935 19.9239 10.2173V14.0301L18.5658 15.2533C18.3529 15.4614 18.2417 15.7237 18.2417 15.9978V20.432C18.2417 21.0017 18.7116 21.4613 19.2884 21.4613H21.8116C22.3884 21.4613 22.8587 21.0018 22.8587 20.432V15.9978C22.8587 15.7237 22.7475 15.4614 22.5505 15.2683L21.1573 14.013L21.1569 10.8279L22.0188 10.828V12.0256C22.0188 12.6527 22.5266 13.1612 23.1531 13.1612H23.2522ZM21.8236 15.9978L20.5499 14.851L19.2771 15.9971L19.2768 20.432C19.2768 20.432 19.2806 20.4374 19.2884 20.4374H21.8116C21.8196 20.4374 21.8236 20.432 21.8236 20.432V15.9978Z" fill="#040B29"/>
</svg>
