<svg width="36" height="36" viewBox="0 0 36 36" fill="none" xmlns="http://www.w3.org/2000/svg">
<path fill-rule="evenodd" clip-rule="evenodd" d="M15.3165 5.68942L15.3234 5.68913V5.68359L15.426 5.68631L15.5284 5.68359V5.68913L15.5353 5.68942C18.2814 5.80502 20.0256 5.9138 20.7002 6.02019C21.1925 6.09816 21.7685 6.21842 22.3048 6.44628C22.8432 6.67503 23.3886 7.03219 23.7568 7.61049L23.772 7.63495L24.1187 8.27178C26.1234 8.35841 27.4139 8.44065 27.9329 8.52249C28.3249 8.58466 28.7936 8.68188 29.2336 8.86883C29.6757 9.05667 30.136 9.355 30.4491 9.8459C30.673 10.1975 30.9262 10.6667 31.1939 11.1674L31.2767 11.3223C31.4639 11.6728 31.6498 12.0243 31.8358 12.3758L31.8363 12.3767C32.3475 13.3431 32.8591 14.3101 33.3976 15.2578C33.4985 15.435 33.5984 15.5975 33.6959 15.7561L33.6974 15.7586C34.0245 16.2906 34.3211 16.7731 34.4914 17.5559C34.6324 18.1982 34.7243 19.133 34.7795 20.3289L34.7804 20.3483L34.7803 22.5591C34.7803 22.909 34.7188 23.2551 34.5996 23.5826C34.5394 23.7496 34.5086 23.9247 34.5086 24.0994V27.2271C34.5086 27.9853 33.8939 28.6 33.1357 28.6H31.4997C30.7347 28.6 30.1118 27.9798 30.114 27.214L30.1143 27.1143H33.0229V24.0994C33.0229 23.7498 33.0845 23.4039 33.2025 23.0774L33.2032 23.0755C33.2636 22.9097 33.2946 22.7351 33.2946 22.5591V20.3803C33.24 19.2096 33.1523 18.3845 33.0402 17.8739L33.0399 17.8725C32.9266 17.3516 32.7787 17.1093 32.4917 16.6406C32.3839 16.4645 32.2568 16.2568 32.1063 15.9926C31.5602 15.0315 31.041 14.0504 30.5236 13.0725L29.8837 11.8679C29.6092 11.3546 29.384 10.9393 29.1964 10.6446C29.0972 10.4893 28.9249 10.3519 28.6526 10.2362C28.3781 10.1196 28.0496 10.0453 27.7011 9.99002C27.347 9.93422 26.4418 9.8687 24.9488 9.79684L26.9102 13.4006H29.6717V13.5006C29.6717 14.1566 29.1399 14.6885 28.4838 14.6885H27.6193C27.7094 14.8406 27.7978 14.9843 27.8838 15.1242L27.8853 15.1267C28.2965 15.7955 28.6524 16.3744 28.8613 17.331C29.0352 18.1281 29.1525 19.3002 29.2204 20.8179L29.2211 20.8368V23.6384C29.2211 24.0558 29.1505 24.4724 29.0059 24.8695C28.9217 25.1029 28.8784 25.348 28.8784 25.5933V29.7327C28.8784 30.491 28.2638 31.1056 27.5056 31.1056H24.1539C23.3957 31.1056 22.7811 30.491 22.7811 29.7327V26.754H8.07072V29.7327C8.07072 30.491 7.45607 31.1056 6.69786 31.1056H3.3462C2.58799 31.1056 1.97334 30.491 1.97334 29.7327V25.5933C1.97334 25.348 1.93019 25.1032 1.84599 24.8698C1.70135 24.4726 1.63065 24.0559 1.63065 23.6384L1.63075 20.8323L1.63139 20.8179C1.69928 19.3002 1.81661 18.1281 1.99045 17.331C2.19936 16.3743 2.55526 15.7955 2.96646 15.1267L2.96802 15.1242C3.05403 14.9843 3.14235 14.8406 3.23252 14.6885H2.37346C1.71739 14.6885 1.18555 14.1566 1.18555 13.5006V13.4006H3.94154L7.08321 7.62905L7.09503 7.61049C7.46318 7.03219 8.00859 6.67503 8.54698 6.44628C9.08326 6.21842 9.6594 6.09815 10.1517 6.02018C10.8263 5.91379 12.5704 5.80502 15.3165 5.68942ZM9.12797 7.81368C9.49858 7.65621 9.93449 7.55883 10.3831 7.48776C10.9527 7.39797 12.5906 7.29133 15.3641 7.17444H15.4877C18.2612 7.29133 19.8991 7.39797 20.4687 7.48776C20.9173 7.55883 21.3532 7.65621 21.7238 7.81368C22.0829 7.96626 22.3361 8.15628 22.4913 8.38975L26.2 15.2032L26.201 15.2049C26.3855 15.5288 26.544 15.7874 26.6805 16.0101C26.9821 16.5023 27.1752 16.8178 27.3184 17.2923L25.8618 18.0074C24.241 18.5812 22.5341 18.8744 20.8145 18.8744H10.9121C9.39311 18.8744 7.88229 18.6455 6.43196 18.1954L3.61945 17.0402C3.7527 16.6934 3.92634 16.4098 4.1715 16.0098L4.17218 16.0087C4.30849 15.7863 4.46664 15.5282 4.65084 15.2049L8.36044 8.38975C8.51569 8.15627 8.76886 7.96626 9.12797 7.81368ZM24.2668 26.6411C24.2668 25.8829 23.6521 25.2682 22.8939 25.2682H7.95786C7.19965 25.2682 6.585 25.8829 6.585 26.6411V29.6199H3.45906V25.5933C3.45906 25.2422 3.40728 24.8939 3.30744 24.5596L3.32753 24.5645H3.41633C4.97851 24.5645 5.98733 23.4516 6.59129 22.3308C6.81714 21.9117 7.32331 21.3172 7.82672 20.7855C8.05404 20.5454 8.26712 20.3321 8.42929 20.1735C9.24993 20.2975 10.0799 20.3601 10.9121 20.3601H20.8145C21.3989 20.3601 21.982 20.3293 22.5614 20.268C22.7077 20.4128 22.8831 20.5903 23.0679 20.7855C23.5713 21.3172 24.0775 21.9117 24.3034 22.3308C24.9073 23.4516 25.9161 24.5645 27.4783 24.5645H27.5429C27.444 24.8973 27.3927 25.2439 27.3927 25.5933V29.6199H24.2668V26.6411ZM5.92346 19.5927L3.29925 18.5148C3.22168 19.1282 3.15952 19.91 3.11636 20.8678V22.9844L3.49683 23.0767C4.20259 23.0412 4.79416 22.5339 5.28339 21.626C5.60262 21.0336 6.20729 20.3386 6.69824 19.8166C6.45014 19.7515 6.2034 19.6806 5.95825 19.604L5.92346 19.5927ZM27.7354 20.8678V22.9949L27.3978 23.0767C26.6921 23.0412 26.1005 22.5339 25.6113 21.626C25.3243 21.0935 24.8067 20.478 24.3483 19.9799C25.0431 19.8286 25.7287 19.6326 26.4007 19.3927L26.4353 19.381L27.5878 18.8151C27.6491 19.3772 27.699 20.0599 27.7354 20.8678Z" fill="#040B29"/>
</svg>
