<svg width="28" height="28" viewBox="0 0 28 28" fill="none" xmlns="http://www.w3.org/2000/svg">
<path d="M14 4C14 4.55228 13.5523 5 13 5H5.50011C5.28192 5 5.10046 5.15722 5.06282 5.36455L5.05566 5.44444V22.5556C5.05566 22.7737 5.21289 22.9552 5.42022 22.9928L5.50011 23H22.5556C22.7737 23 22.9552 22.8428 22.9928 22.6354L23 22.5556V14.998C23 14.4852 23.386 14.0625 23.8834 14.0048L24 13.998V22.5556C24 23.3064 23.4271 23.9234 22.6947 23.9934L22.5556 24H5.50011C4.74929 24 4.13227 23.4271 4.06228 22.6947L4.05566 22.5556V5.44444C4.05566 4.69363 4.62852 4.07661 5.361 4.00661L5.50011 4H14ZM23.5 4C23.8905 4.39052 23.8905 5.02369 23.5 5.41421L12.1863 16.7279C11.7958 17.1184 11.1626 17.1184 10.7721 16.7279L23.5 4Z" fill="#040B29"/>
</svg>
