<svg width="36" height="36" viewBox="0 0 36 36" fill="none" xmlns="http://www.w3.org/2000/svg">
<path d="M15 1.4C15 0.626801 14.3284 0 13.5 0V2.8C12.6716 2.8 12 3.4268 12 4.2V5.6C12 6.3732 12.6716 7 13.5 7V4.2C14.3284 4.2 15 3.5732 15 2.8V1.4Z" fill="white"/>
<path d="M18.5 2C19.3284 2 20 2.6268 20 3.4V4.8C20 5.5732 19.3284 6.2 18.5 6.2V9C17.6716 9 17 8.3732 17 7.6V6.2C17 5.4268 17.6716 4.8 18.5 4.8V2Z" fill="white"/>
<path fill-rule="evenodd" clip-rule="evenodd" d="M20 34C24.0862 34 27.4569 30.9364 27.9405 26.9809L27.9792 26.9773L28 26.9753C30.5267 26.7244 32.5 24.5927 32.5 22V16C32.5 15.4477 32.0523 15 31.5 15H28V11C28 10.4477 27.5523 10 27 10H5C4.44772 10 4 10.4477 4 11V26C4 30.4183 7.58172 34 12 34H20ZM5.5 16.5V26C5.5 29.5899 8.41015 32.5 12 32.5H20C23.5899 32.5 26.5 29.5899 26.5 26V11.5H5.5V15H21C21 15.8284 20.3284 16.5 19.5 16.5H5.5ZM31 22C31 23.7632 29.6961 25.2219 28 25.4646V16.5H31V22Z" fill="white"/>
</svg>
