<svg width="28" height="28" viewBox="0 0 28 28" fill="none" xmlns="http://www.w3.org/2000/svg">
<path d="M13.9167 1.5L14.2228 1.5037C20.9391 1.66623 26.3333 7.16131 26.3333 13.9167C26.3333 20.7744 20.7744 26.3333 13.9167 26.3333C7.05895 26.3333 1.5 20.7744 1.5 13.9167C1.5 7.16131 6.89425 1.66623 13.6105 1.5037L13.9167 1.5ZM13.9167 3L13.6258 3.0038C7.73099 3.15795 3 7.98463 3 13.9167C3 19.946 7.88738 24.8333 13.9167 24.8333C19.946 24.8333 24.8333 19.946 24.8333 13.9167C24.8333 7.98463 20.1023 3.15795 14.2075 3.0038L13.9167 3ZM13.9167 8.5L14.1345 8.5043C17.025 8.61864 19.3333 10.9981 19.3333 13.9167C19.3333 16.9082 16.9082 19.3333 13.9167 19.3333C10.9252 19.3333 8.5 16.9082 8.5 13.9167C8.5 10.9981 10.8083 8.61864 13.6988 8.5043L13.9167 8.5ZM13.9167 10L13.7151 10.0051C11.6457 10.11 10 11.8212 10 13.9167C10 16.0798 11.7536 17.8333 13.9167 17.8333C16.0798 17.8333 17.8333 16.0798 17.8333 13.9167C17.8333 11.8212 16.1876 10.11 14.1182 10.0051L13.9167 10Z" fill="#040B29"/>
</svg>
