<svg width="36" height="36" viewBox="0 0 36 36" fill="none" xmlns="http://www.w3.org/2000/svg">
<path d="M17.8998 3C22.4939 3 25.7894 5.61471 25.7886 9.68734L25.9116 11.2915H25.4137C24.7289 11.2915 24.1364 10.7366 24.1364 10.01V9.90955C24.1364 6.653 21.6105 4.65829 17.8998 4.65829C14.5386 4.65829 11.6633 7.84953 11.6633 11.4171V14.1558H21.5816V14.4322C21.5816 15.1878 20.9574 15.8141 20.2041 15.8141H6.87941C6.49077 15.8141 6.15306 16.1303 6.15306 16.5427V30.7136C6.15306 31.1034 6.46826 31.4422 6.87941 31.4422H29.2208C29.6094 31.4422 29.9471 31.126 29.9471 30.7136V16.5427C29.9471 16.1529 29.6319 15.8141 29.2208 15.8141H25.1132C24.6605 15.8141 24.2365 15.3888 24.2365 14.9347V14.0553H29.1206C30.475 14.0553 31.5 15.0835 31.5 16.4422V30.6131C31.5 31.9398 30.4079 33 29.1206 33H6.87941C5.52502 33 4.5 31.9717 4.5 30.6131V16.5427C4.5 15.184 5.52502 14.1558 6.87941 14.1558H10.0102V11.4171C10.0102 7.03519 13.4894 3.14656 17.6629 3.00404L17.8998 3ZM18.3401 18.5913L18.5178 18.5962C20.1648 18.6888 21.4767 20.059 21.4767 21.73C21.4767 23.104 20.5835 24.2969 19.316 24.7124L19.1615 24.7575V26.8691L19.1662 26.8693V27.229C19.1645 27.9551 18.6103 28.5495 17.9034 28.6154L17.7691 28.6214L17.5186 28.6208L17.5214 27.1748L17.5177 27.1373L17.5174 24.7575L17.3641 24.7124C16.1543 24.3158 15.2854 23.2108 15.2089 21.9162L15.2035 21.73C15.2035 20.059 16.5153 18.6888 18.1624 18.5962L18.3401 18.5913ZM18.3401 20.2333C17.5178 20.2333 16.8482 20.9053 16.8482 21.73C16.8482 22.5066 17.4411 23.1472 18.1966 23.2198L18.34 23.2258L18.4835 23.2198C19.1918 23.1517 19.7572 22.5845 19.8251 21.8739L19.832 21.73C19.832 20.9053 19.1623 20.2333 18.3401 20.2333Z" fill="#009292"/>
</svg>
