<svg width="28" height="28" viewBox="0 0 28 28" fill="none" xmlns="http://www.w3.org/2000/svg">
<path fill-rule="evenodd" clip-rule="evenodd" d="M24.5 14C24.5 19.799 19.799 24.5 14 24.5C8.20101 24.5 3.5 19.799 3.5 14C3.5 8.20101 8.20101 3.5 14 3.5C19.799 3.5 24.5 8.20101 24.5 14ZM26 14C26 20.6274 20.6274 26 14 26C7.37258 26 2 20.6274 2 14C2 7.37258 7.37258 2 14 2C20.6274 2 26 7.37258 26 14ZM14.0002 19.75C13.4191 19.75 12.8417 19.6522 12.3 19.4603C11.7583 19.2685 11.2593 18.9849 10.8339 18.6211C10.4083 18.2571 10.0633 17.8186 9.82518 17.3269C9.64462 16.9541 9.80045 16.5056 10.1732 16.325C10.546 16.1444 10.9946 16.3003 11.1752 16.6731C11.3178 16.9676 11.5309 17.2434 11.8088 17.4811C12.087 17.719 12.4233 17.9127 12.8009 18.0464C13.1784 18.1802 13.5862 18.25 14.0002 18.25C14.4141 18.25 14.8219 18.1802 15.1995 18.0464C15.5771 17.9127 15.9133 17.719 16.1915 17.4811C16.4695 17.2434 16.6825 16.9676 16.8252 16.6731C17.0057 16.3003 17.4543 16.1444 17.8271 16.325C18.1999 16.5056 18.3557 16.9541 18.1752 17.3269C17.937 17.8186 17.592 18.2571 17.1664 18.6211C16.741 18.9849 16.242 19.2685 15.7003 19.4603C15.1587 19.6522 14.5812 19.75 14.0002 19.75ZM17.5 10.25C17.5 9.83579 17.8358 9.5 18.25 9.5C18.6642 9.5 19 9.83579 19 10.25V11.75C19 12.1642 18.6642 12.5 18.25 12.5C17.8358 12.5 17.5 12.1642 17.5 11.75V10.25ZM9.75 9.5C9.33579 9.5 9 9.83579 9 10.25V11.75C9 12.1642 9.33579 12.5 9.75 12.5C10.1642 12.5 10.5 12.1642 10.5 11.75V10.25C10.5 9.83579 10.1642 9.5 9.75 9.5Z" fill="white"/>
</svg>
