<svg width="48" height="48" viewBox="0 0 48 48" fill="none" xmlns="http://www.w3.org/2000/svg">
<path fill-rule="evenodd" clip-rule="evenodd" d="M39 7H17C15.8954 7 15 7.89543 15 9V23.5C15 24.0523 14.5523 24.5 14 24.5V9C14 7.34315 15.3431 6 17 6H39C40.6569 6 42 7.34315 42 9V37C42 38.6569 40.6569 40 39 40H24.5C24.5 39.4477 24.9477 39 25.5 39H39C40.1046 39 41 38.1046 41 37V9C41 7.89543 40.1046 7 39 7ZM21 10H35C36.6569 10 38 11.3431 38 13C38 14.6569 36.6569 16 35 16H21C19.3431 16 18 14.6569 18 13C18 11.3431 19.3431 10 21 10ZM21 11C19.8954 11 19 11.8954 19 13C19 14.1046 19.8954 15 21 15H35C36.1046 15 37 14.1046 37 13C37 11.8954 36.1046 11 35 11H21ZM33.5 24H31C31 24.5523 31.4477 25 32 25H33.5V27.5C34.0523 27.5 34.5 27.0523 34.5 26.5V25H36C36.5523 25 37 24.5523 37 24H34.5V22.5C34.5 21.9477 34.0523 21.5 33.5 21.5V24ZM31 32H37C37 32.5523 36.5523 33 36 33H32C31.4477 33 31 32.5523 31 32Z" fill="white"/>
<path fill-rule="evenodd" clip-rule="evenodd" d="M10.3265 28.4546C10.482 28.2994 10.7003 28.1068 10.9845 27.9133C11.6477 27.4618 12.6762 27 14.125 27C15.5728 27 16.5668 27.4611 17.1946 27.9075C17.4696 28.1031 17.6765 28.2975 17.821 28.4524L16.1767 30H12.0651L10.3265 28.4546ZM18.5 28.5C18.924 28.235 18.9238 28.2348 18.9237 28.2345L18.9226 28.2328L18.9207 28.2298L18.9155 28.2217C18.9114 28.2154 18.9059 28.2072 18.8992 28.1972C18.8857 28.1773 18.867 28.1504 18.8427 28.1175C18.7943 28.0518 18.7239 27.9619 18.6302 27.856C18.4429 27.6445 18.1612 27.3678 17.7741 27.0925C16.9956 26.5389 15.8021 26 14.125 26C12.4487 26 11.2273 26.5382 10.4217 27.0867C10.0206 27.3598 9.72422 27.6342 9.52577 27.8435C9.42645 27.9483 9.35132 28.0371 9.29955 28.1019C9.27366 28.1343 9.25357 28.1608 9.23918 28.1802L9.22184 28.2041L9.21635 28.2118L9.21439 28.2147L9.2136 28.2158C9.21345 28.216 9.21295 28.2167 9.62497 28.5L9.21295 28.2167L8.96289 28.5805L11.6849 31H16.5733L19.1414 28.5829L18.9237 28.2345L18.5 28.5ZM18.0775 28.7673C18.0776 28.7675 18.0775 28.7675 18.0775 28.7673V28.7673Z" fill="white"/>
<path fill-rule="evenodd" clip-rule="evenodd" d="M11.9119 30H16.0881L16.1709 30.0301L16 30.5C16.1709 30.0301 16.1709 30.0301 16.1709 30.0301L16.1732 30.031L16.1775 30.0326L16.1921 30.038C16.2044 30.0426 16.2217 30.0492 16.2438 30.0579C16.288 30.0752 16.3512 30.1005 16.4308 30.1341C16.5897 30.2012 16.8144 30.3013 17.083 30.4356C17.6188 30.7035 18.3358 31.1106 19.0557 31.6669C20.4853 32.7715 22 34.5258 22 37C22 38.2125 21.6954 39.1551 21.2129 39.8789C20.7324 40.5996 20.0954 41.0738 19.4736 41.3847C18.8537 41.6946 18.2399 41.8471 17.7853 41.9229C17.5568 41.961 17.3653 41.9802 17.229 41.9899C17.1607 41.9948 17.1061 41.9973 17.0672 41.9986C17.0478 41.9993 17.0323 41.9996 17.021 41.9998L17.0072 42L17.0028 42L17.0012 42C17.0012 42 17 42 17 41.5V42H11V41.5C11 42 11 42 11 42L10.9988 42L10.9972 42L10.9928 42L10.979 41.9998C10.9677 41.9996 10.9522 41.9993 10.9328 41.9986C10.8939 41.9973 10.8393 41.9948 10.771 41.9899C10.6347 41.9802 10.4432 41.961 10.2147 41.9229C9.76005 41.8471 9.14625 41.6946 8.52639 41.3847C7.90458 41.0738 7.26755 40.5996 6.7871 39.8789C6.30456 39.1551 6 38.2125 6 37C6 34.5258 7.51473 32.7715 8.94428 31.6669C9.66416 31.1106 10.3812 30.7035 10.917 30.4356C11.1856 30.3013 11.4103 30.2012 11.5692 30.1341C11.6488 30.1005 11.712 30.0752 11.7562 30.0579C11.7783 30.0492 11.7956 30.0426 11.8079 30.038L11.8225 30.0326L11.8268 30.031L11.8282 30.0304C11.8282 30.0304 11.8291 30.0301 12 30.5L11.8282 30.0304L11.9119 30ZM12.093 31C12.0584 31.0137 12.013 31.0322 11.9581 31.0554C11.8163 31.1152 11.6113 31.2065 11.3642 31.33C10.8688 31.5777 10.2108 31.9519 9.55572 32.4581C8.23527 33.4785 7 34.9742 7 37C7 38.0375 7.25794 38.7824 7.61915 39.3242C7.98245 39.8692 8.47042 40.2387 8.97361 40.4903C9.47875 40.7429 9.98995 40.8716 10.3791 40.9365C10.5725 40.9687 10.7325 40.9846 10.8423 40.9925C10.8971 40.9964 10.9391 40.9983 10.9661 40.9992C10.9796 40.9996 10.9894 40.9998 10.9952 40.9999L11 41L16.9992 41L17.0048 40.9999C17.0106 40.9998 17.0204 40.9996 17.0339 40.9992C17.0609 40.9983 17.1029 40.9964 17.1577 40.9925C17.2675 40.9846 17.4275 40.9687 17.6209 40.9365C18.0101 40.8716 18.5213 40.7429 19.0264 40.4903C19.5296 40.2387 20.0176 39.8692 20.3808 39.3242C20.7421 38.7824 21 38.0375 21 37C21 34.9742 19.7647 33.4785 18.4443 32.4581C17.7892 31.9519 17.1312 31.5777 16.6358 31.33C16.3887 31.2065 16.1837 31.1152 16.0419 31.0554C15.987 31.0322 15.9416 31.0137 15.907 31H12.093Z" fill="white"/>
</svg>
