<svg width="28" height="28" viewBox="0 0 28 28" fill="none" xmlns="http://www.w3.org/2000/svg">
<path d="M15.1557 3.78993L13.4364 2.5L6.46583 8.07218C5.86203 8.44056 5.5 9.14916 5.5 9.97479V23.4485C5.5 24.415 6.2835 25.1985 7.25 25.1985H21.0932C21.9164 25.1985 22.6284 24.6248 22.8032 23.8203L25.7193 10.4067C25.9246 9.46228 25.3254 8.53022 24.381 8.3249L24.2581 8.30274C24.1757 8.29091 24.0926 8.28496 24.0092 8.28496L14.678 8.28454L15.9095 5.88812V5.42425C15.9095 4.88689 15.6711 4.39312 15.2899 3.91955L15.1557 3.78993Z" fill="#009499"/>
<path d="M3.75 24.4485V10.4485C2.92157 10.4485 2.25 11.1201 2.25 11.9485V22.9485C2.25 23.7282 2.84489 24.369 3.60554 24.4417L3.75 24.4485Z" fill="#009499"/>
</svg>
