<svg width="16" height="16" viewBox="0 0 16 16" fill="none" xmlns="http://www.w3.org/2000/svg">
<path d="M3.84744 1C3.41034 1.30691 3.30404 1.91114 3.61001 2.34959L3.6274 2.37372L3.78049 2.58045C2.78378 3.50313 2.145 4.77712 2.02416 6.17111C1.86142 8.04835 2.52705 9.89799 3.83663 11.2365L4.02807 11.4242L4.33 11.708L7.99485 15L11.0462 12.337L12.5687 14.3832C13.0058 14.0763 13.1121 13.4721 12.8061 13.0336C12.8005 13.0255 12.7947 13.0174 12.7888 13.0095L11.7993 11.6794L12.0212 11.4612C13.4289 10.0799 14.1458 8.1389 13.9752 6.17111C13.8127 4.29627 12.7133 2.6385 11.0663 1.76053L10.8484 1.65048L10.829 1.64121C9.12857 0.829011 7.16747 0.788401 5.441 1.51938L5.17042 1.64121L4.93311 1.76053C4.80901 1.82668 4.68802 1.89726 4.5703 1.97203L3.84744 1ZM4.38053 3.38645L5.61034 5.03779C5.23404 5.53925 5.01099 6.16298 5.01099 6.83896C5.01099 8.49464 6.34908 9.83683 7.99969 9.83683C8.367 9.83683 8.71883 9.77037 9.04389 9.64878L10.4494 11.5345L8.00468 13.6661L5.00299 10.9713L4.70943 10.6952C3.4966 9.55469 2.87263 7.91898 3.01665 6.25768C3.1126 5.15083 3.60697 4.13629 4.38053 3.38645ZM10.1453 2.42923L10.4007 2.54343L10.6237 2.65638C11.9597 3.37934 12.8504 4.73066 12.9827 6.25768C13.1199 7.83967 12.5811 9.40124 11.5083 10.5579L11.3246 10.7468L11.1976 10.871L9.91064 9.14407C10.5692 8.59416 10.9884 7.76566 10.9884 6.83896C10.9884 5.18328 9.65031 3.84108 7.99969 3.84108C7.38523 3.84108 6.81408 4.02708 6.33914 4.34601L5.1685 2.77565C5.23629 2.7342 5.30535 2.69442 5.37564 2.65638L5.57933 2.5527L5.59873 2.54343C7.03328 1.85822 8.68647 1.82015 10.1453 2.42923ZM6.2459 5.88965L8.40792 8.79555C8.27615 8.82307 8.13961 8.83754 7.99969 8.83754C6.89928 8.83754 6.00722 7.94274 6.00722 6.83896C6.00722 6.49538 6.09366 6.17205 6.2459 5.88965ZM7.99969 4.84037C9.1001 4.84037 9.99216 5.73517 9.99216 6.83896C9.99216 7.43807 9.72935 7.97561 9.31306 8.34192L6.93615 5.1486C7.2439 4.95337 7.60864 4.84037 7.99969 4.84037Z" fill="#696D7F"/>
</svg>
