<svg width="38" height="36" viewBox="0 0 38 36" fill="none" xmlns="http://www.w3.org/2000/svg">
<path fill-rule="evenodd" clip-rule="evenodd" d="M18.9979 3C19.561 3 20.0728 3.28273 20.3351 3.73661L35.7955 30.6739C36.0681 31.1542 36.0681 31.7476 35.796 32.2237C35.5201 32.7031 35.0091 33 34.4602 33H29.6368C29.6368 32.4322 30.0946 31.9722 30.6586 31.9722H34.4602C34.6453 31.9722 34.8183 31.8719 34.9104 31.7107C35.0021 31.5504 35.0016 31.3485 34.909 31.1854L19.451 4.25195C19.356 4.08695 19.1549 4.02785 18.9993 4.02785C18.8437 4.02832 18.6444 4.08695 18.549 4.25242L3.08816 31.1878C2.99791 31.3476 2.99791 31.5504 3.09051 31.715C3.18075 31.8719 3.35372 31.9722 3.54032 31.9722H25.9156L26.9107 31.9688C26.8355 32.4861 26.7838 33 25.3009 33H3.54032C2.98992 33 2.4776 32.7031 2.20358 32.2246C1.93191 31.7438 1.93285 31.1519 2.20217 30.6758L17.6644 3.73803C17.9258 3.2832 18.4357 3.00047 18.9979 3ZM19.3525 25.3978V27.0526C19.3525 27.4445 19.0367 27.7617 18.6475 27.7617V26.107C18.6475 25.7155 18.9633 25.3978 19.3525 25.3978ZM19.3313 13.8394V22.0613C19.3313 22.3822 19.0194 22.5783 18.7062 22.6686L18.6683 22.6769L18.6686 14.5061C18.6686 14.1382 18.9656 13.8394 19.3313 13.8394Z" fill="#040B29" stroke="#040B29" stroke-width="0.5"/>
</svg>
