<svg width="28" height="28" viewBox="0 0 28 28" fill="none" xmlns="http://www.w3.org/2000/svg">
<path fill-rule="evenodd" clip-rule="evenodd" d="M9.13561 6.5L2.94514 14L9.13561 21.5H25.5002V6.5H9.13561ZM8.78218 5C8.55836 5 8.34624 5.09996 8.20376 5.27258L1.39424 13.5226C1.16546 13.7997 1.16546 14.2003 1.39424 14.4774L8.20376 22.7274C8.34624 22.9 8.55836 23 8.78218 23H26.2502C26.6644 23 27.0002 22.6642 27.0002 22.25V5.75C27.0002 5.33579 26.6644 5 26.2502 5H8.78218Z" fill="white"/>
<path d="M20.2125 11.3483C20.7983 10.7626 20.7983 9.81281 20.2125 9.22702L16.5002 12.9393L12.7879 9.22702C12.2021 9.81281 12.2021 10.7626 12.7879 11.3483L15.4395 14L11.7272 17.7123C12.313 18.2981 13.2627 18.2981 13.8485 17.7123L16.5002 15.0607L19.1518 17.7123C19.7376 18.2981 20.6874 18.2981 21.2731 17.7123L17.5608 14L20.2125 11.3483Z" fill="white"/>
</svg>
