<svg width="28" height="28" viewBox="0 0 28 28" fill="none" xmlns="http://www.w3.org/2000/svg">
<path fill-rule="evenodd" clip-rule="evenodd" d="M13.4364 2.5L15.1557 3.78993L15.2899 3.91955C15.6711 4.39312 15.9095 4.88689 15.9095 5.42425V5.88812L14.678 8.28454L24.0092 8.28496C24.0926 8.28496 24.1757 8.29091 24.2581 8.30274L24.381 8.3249C25.3254 8.53022 25.9246 9.46228 25.7193 10.4067L22.8032 23.8203C22.6284 24.6248 21.9164 25.1985 21.0932 25.1985H7.25C6.2835 25.1985 5.5 24.415 5.5 23.4485V9.97479C5.5 9.14916 5.86203 8.44056 6.46583 8.07218L13.4364 2.5ZM3.75 10.4485V24.4485L3.60554 24.4417C2.84489 24.369 2.25 23.7282 2.25 22.9485V11.9485C2.25 11.1201 2.92157 10.4485 3.75 10.4485ZM13.465 4.39654L7.32954 9.2953C7.11192 9.43033 7 9.64939 7 9.97479V23.4485C7 23.5866 7.11193 23.6985 7.25 23.6985H21.0932C21.2108 23.6985 21.3125 23.6166 21.3375 23.5016L24.2535 10.0881C24.2829 9.95315 24.1973 9.82 24.0624 9.79066C24.0449 9.78687 24.0271 9.78496 24.0092 9.78496H12.2229L14.409 5.52554L14.4095 5.42425C14.4095 5.3196 14.3349 5.15021 14.1961 4.95798L14.174 4.92854L13.465 4.39654Z" fill="#040B29"/>
</svg>
