<svg width="28" height="28" viewBox="0 0 28 28" fill="none" xmlns="http://www.w3.org/2000/svg">
<path fill-rule="evenodd" clip-rule="evenodd" d="M14.002 7.893C12.9072 7.893 12.0328 8.75381 12.0328 9.80005C12.0328 10.8463 12.9072 11.7071 14.002 11.7071C15.0968 11.7071 15.9712 10.8463 15.9712 9.80005C15.9712 8.75381 15.0968 7.893 14.002 7.893ZM12.9289 9.80005C12.9289 9.21279 13.4166 8.74937 14.002 8.74937C14.5874 8.74937 15.075 9.21279 15.075 9.80005C15.075 10.3873 14.5874 10.8507 14.002 10.8507C13.4166 10.8507 12.9289 10.3873 12.9289 9.80005Z" fill="white"/>
<path fill-rule="evenodd" clip-rule="evenodd" d="M14.0024 19.5916C14.1433 19.5916 14.6774 18.9086 15.3347 17.8618H20.2716L22.837 22.1518H5.16304L7.72838 17.8618H10.0996C10.5898 17.8618 10.9872 17.482 10.9872 17.0136H7.59465C7.35881 17.0136 7.14106 17.1343 7.02405 17.33L4.06766 22.274C3.87421 22.5975 4.11866 23 4.50857 23H23.4914C23.8813 23 24.1258 22.5975 23.9323 22.274L20.9759 17.33C20.8589 17.1343 20.6412 17.0136 20.4053 17.0136H15.8464C17.1321 14.7997 18.6046 11.6329 18.6046 9.47427C18.6046 7.0032 16.5441 5 14.0024 5C11.4607 5 9.4003 7.0032 9.4003 9.47427C9.4003 13.106 13.5683 19.5916 14.0024 19.5916ZM17.098 12.3119C17.4826 11.2295 17.7084 10.2458 17.7084 9.47427C17.7084 7.46218 16.0347 5.85637 14.0024 5.85637C11.9702 5.85637 10.2965 7.46218 10.2965 9.47427C10.2965 10.2458 10.5223 11.2295 10.9069 12.3119C11.2873 13.3825 11.8034 14.4958 12.3386 15.5089C12.8735 16.5216 13.4192 17.4186 13.8517 18.055C13.9042 18.1322 13.9545 18.2049 14.0024 18.2727C14.0503 18.2049 14.1006 18.1322 14.1531 18.055C14.5856 17.4186 15.1314 16.5216 15.6663 15.5089C16.2015 14.4958 16.7176 13.3825 17.098 12.3119ZM13.515 18.8911C13.5136 18.8924 13.5138 18.892 13.5157 18.8904L13.515 18.8911ZM14.4892 18.8904C14.491 18.892 14.4913 18.8924 14.4899 18.8911L14.4892 18.8904Z" fill="white"/>
<path fill-rule="evenodd" clip-rule="evenodd" d="M14.002 7.893C12.9072 7.893 12.0328 8.75381 12.0328 9.80005C12.0328 10.8463 12.9072 11.7071 14.002 11.7071C15.0968 11.7071 15.9712 10.8463 15.9712 9.80005C15.9712 8.75381 15.0968 7.893 14.002 7.893ZM12.9289 9.80005C12.9289 9.21279 13.4166 8.74937 14.002 8.74937C14.5874 8.74937 15.075 9.21279 15.075 9.80005C15.075 10.3873 14.5874 10.8507 14.002 10.8507C13.4166 10.8507 12.9289 10.3873 12.9289 9.80005Z" stroke="white" stroke-width="0.3" stroke-miterlimit="10"/>
<path fill-rule="evenodd" clip-rule="evenodd" d="M14.0024 19.5916C14.1433 19.5916 14.6774 18.9086 15.3347 17.8618H20.2716L22.837 22.1518H5.16304L7.72838 17.8618H10.0996C10.5898 17.8618 10.9872 17.482 10.9872 17.0136H7.59465C7.35881 17.0136 7.14106 17.1343 7.02405 17.33L4.06766 22.274C3.87421 22.5975 4.11866 23 4.50857 23H23.4914C23.8813 23 24.1258 22.5975 23.9323 22.274L20.9759 17.33C20.8589 17.1343 20.6412 17.0136 20.4053 17.0136H15.8464C17.1321 14.7997 18.6046 11.6329 18.6046 9.47427C18.6046 7.0032 16.5441 5 14.0024 5C11.4607 5 9.4003 7.0032 9.4003 9.47427C9.4003 13.106 13.5683 19.5916 14.0024 19.5916ZM17.098 12.3119C17.4826 11.2295 17.7084 10.2458 17.7084 9.47427C17.7084 7.46218 16.0347 5.85637 14.0024 5.85637C11.9702 5.85637 10.2965 7.46218 10.2965 9.47427C10.2965 10.2458 10.5223 11.2295 10.9069 12.3119C11.2873 13.3825 11.8034 14.4958 12.3386 15.5089C12.8735 16.5216 13.4192 17.4186 13.8517 18.055C13.9042 18.1322 13.9545 18.2049 14.0024 18.2727C14.0503 18.2049 14.1006 18.1322 14.1531 18.055C14.5856 17.4186 15.1314 16.5216 15.6663 15.5089C16.2015 14.4958 16.7176 13.3825 17.098 12.3119ZM13.515 18.8911C13.5136 18.8924 13.5138 18.892 13.5157 18.8904L13.515 18.8911ZM14.4892 18.8904C14.491 18.892 14.4913 18.8924 14.4899 18.8911L14.4892 18.8904Z" stroke="white" stroke-width="0.3" stroke-miterlimit="10"/>
</svg>
