<svg width="16" height="16" viewBox="0 0 16 16" fill="none" xmlns="http://www.w3.org/2000/svg">
<path fill-rule="evenodd" clip-rule="evenodd" d="M2.35351 3.0607C1.96299 2.67017 1.96299 2.03701 2.35352 1.64648L5.01544 4.30841C5.91093 3.82869 6.91894 3.5 8 3.5C12 3.5 15 8 15 8C15 8 13.7811 9.82836 11.8612 11.1542L14.3535 13.6465C13.963 14.037 13.3298 14.037 12.9393 13.6465L10.9845 11.6916C10.089 12.1713 9.08102 12.5 8 12.5C4 12.5 1 8 1 8C1 8 2.21887 6.1717 4.13866 4.84584L2.35351 3.0607ZM5.75897 5.05194C6.46353 4.71304 7.21855 4.5 8 4.5C9.63189 4.5 11.1485 5.42904 12.331 6.49329C12.9086 7.01307 13.3734 7.53562 13.6935 7.92855C13.7134 7.9529 13.7326 7.97673 13.7513 8C13.7326 8.02327 13.7134 8.0471 13.6935 8.07145C13.3734 8.46438 12.9086 8.98693 12.331 9.50671C11.9643 9.83672 11.5655 10.1537 11.1411 10.4341L10.0858 9.37874C10.3475 8.98351 10.5 8.50956 10.5 8C10.5 6.61929 9.38071 5.5 8 5.5C7.49044 5.5 7.01649 5.65245 6.62126 5.91423L5.75897 5.05194ZM5.91417 6.62135L4.85879 5.56598C4.43441 5.84631 4.03562 6.1633 3.66896 6.49329C3.09143 7.01307 2.62665 7.53562 2.30649 7.92855C2.28664 7.9529 2.26737 7.97673 2.2487 8C2.26737 8.02327 2.28664 8.0471 2.30649 8.07145C2.62665 8.46438 3.09143 8.98693 3.66896 9.50671C4.85147 10.571 6.36811 11.5 8 11.5C8.78141 11.5 9.5364 11.287 10.2409 10.9481L9.37865 10.0858C8.98344 10.3476 8.50952 10.5 8 10.5C6.61929 10.5 5.5 9.38071 5.5 8C5.5 7.49048 5.65243 7.01656 5.91417 6.62135ZM7.35324 6.64621C7.54907 6.55248 7.76841 6.5 8 6.5C8.82843 6.5 9.5 7.17157 9.5 8C9.5 8.23159 9.44752 8.45093 9.35379 8.64676L7.35324 6.64621ZM8.64666 9.35384L6.64616 7.35334C6.55247 7.54915 6.5 7.76845 6.5 8C6.5 8.82843 7.17157 9.5 8 9.5C8.23155 9.5 8.45085 9.44753 8.64666 9.35384Z" fill="white"/>
</svg>
