<svg width="16" height="16" viewBox="0 0 16 16" fill="none" xmlns="http://www.w3.org/2000/svg">
<path d="M8.00009 1C11.8601 1 15 4.13988 15 7.99992C15 11.6987 12.1125 14.7492 8.45491 14.9854L8.22042 14.9966L7.99858 15L7.77826 14.9965C4.01185 14.8787 1 11.7773 1 7.99992C1 4.13993 4.14 1 8.00009 1ZM8.00013 1.99008L7.7938 1.99446C4.568 2.10383 1.99115 4.76373 1.99115 7.99992C1.99115 11.3131 4.68698 14.009 8.00009 14.009C11.3132 14.009 14.009 11.3131 14.009 7.99992C14.009 4.83728 11.548 2.22503 8.42683 2.00589L8.20802 1.99451L8.00013 1.99008ZM7.80338 3.81861C8.08902 3.81861 8.32855 3.99385 8.3736 4.22702L8.38121 4.30673V8.16016C8.38121 8.19989 8.37565 8.23844 8.36516 8.27529L11.0825 10.3231C11.2861 10.4703 11.3493 10.7393 11.2444 10.9582L11.1972 11.0376L10.9416 11.3071L7.44044 8.68235L7.43026 8.61544L7.43736 8.60385L7.39389 8.59998V3.8669L7.44219 3.81861H7.80338Z" fill="white"/>
</svg>
