<svg width="28" height="28" viewBox="0 0 28 28" fill="none" xmlns="http://www.w3.org/2000/svg">
<path fill-rule="evenodd" clip-rule="evenodd" d="M25 4C25.5523 4 26 4.44772 26 5V11.004C25.4477 11.004 25 10.5563 25 10.004V5H3V19.966L7.96623 15.3754L12.1657 18.1905L12.0792 18.289C11.7478 18.6663 11.1881 18.7393 10.771 18.4597L8.033 16.624L3 21.272V23H12C12.5523 23 13 23.4477 13 24H3C2.44772 24 2 23.5523 2 23V5C2 4.44772 2.44772 4 3 4H25ZM8 8C8.82843 8 9.5 8.67157 9.5 9.5C9.5 10.3284 8.82843 11 8 11C7.17157 11 6.5 10.3284 6.5 9.5C6.5 8.67157 7.17157 8 8 8ZM27 19C27 22.3137 24.3137 25 21 25C17.6863 25 15 22.3137 15 19C15 15.6863 17.6863 13 21 13C24.3137 13 27 15.6863 27 19ZM28 19C28 22.866 24.866 26 21 26C17.134 26 14 22.866 14 19C14 15.134 17.134 12 21 12C24.866 12 28 15.134 28 19ZM21.5 16C21.5 15.4477 21.0523 15 20.5 15V20C21.0523 20 21.5 19.5523 21.5 19V16ZM21.75 21.75C21.75 22.1642 21.4142 22.5 21 22.5C20.5858 22.5 20.25 22.1642 20.25 21.75C20.25 21.3358 20.5858 21 21 21C21.4142 21 21.75 21.3358 21.75 21.75Z" fill="white"/>
</svg>
