<svg width="16" height="16" viewBox="0 0 16 16" fill="none" xmlns="http://www.w3.org/2000/svg">
<path d="M15 8C15 4.13401 11.866 1 8 1C4.13401 1 1 4.13401 1 8C1 11.866 4.13401 15 8 15C11.866 15 15 11.866 15 8Z" fill="#009292"/>
<path d="M7.19056 7.06566V3.06641L11.592 6.00066L8.59256 8.00066L11.592 10.0007L7.19056 12.9349V8.93466L4.96791 10.4167C4.66153 9.95712 4.78561 9.3362 5.24509 9.02968L6.78756 8.00066L5.24509 6.97165C4.78561 6.66513 4.66153 6.04421 4.96791 5.58464L7.19056 7.06566ZM8.19056 8.93567V11.0647L9.78756 10.0007L8.19056 8.93567ZM8.19056 4.93566V7.06466L9.78756 6.00066L8.19056 4.93566Z" fill="white"/>
</svg>
