<svg width="28" height="28" viewBox="0 0 28 28" fill="none" xmlns="http://www.w3.org/2000/svg">
<path d="M8.5 6.99957C8.50002 7.77927 7.90513 8.42002 7.14448 8.4927L7 8.49955L4.5 8.49951V24.4996H23.4991V8.49951L20.9991 8.49955C20.2194 8.49958 19.5786 7.9047 19.5059 7.14405L19.4991 6.99957H24C24.5523 6.99957 25 7.44729 25 7.99957V24.9996C25 25.5519 24.5523 25.9996 24 25.9996H4C3.44772 25.9996 3 25.5519 3 24.9996V7.99957C3 7.44729 3.44772 6.99957 4 6.99957H8.5ZM14 2.00391L19.3698 5.04707C18.9855 5.72524 18.1522 5.98933 17.4547 5.6776L17.3254 5.61219L14.6991 4.12291L14.7 14.7996C14.7 15.5273 14.1448 16.1253 13.4348 16.1932L13.3 16.1996L13.2991 4.12291L10.6746 5.61219C9.95415 6.02113 9.03871 5.7682 8.63008 5.04756L14 2.00391Z" fill="white"/>
</svg>
