<svg width="36" height="36" viewBox="0 0 36 36" fill="none" xmlns="http://www.w3.org/2000/svg">
<path fill-rule="evenodd" clip-rule="evenodd" d="M33.4288 9.10522H33.5288V6.42868C33.5288 5.66337 32.9084 5.04297 32.1431 5.04297H3.85739C3.09209 5.04297 2.47168 5.66337 2.47168 6.42868V29.5715C2.47168 30.3369 3.09209 30.9573 3.85739 30.9573H32.1431C32.9084 30.9573 33.5288 30.3369 33.5288 29.5715V10.9362L32.076 12.3204L17.9302 24.8016L10.2327 19.6414L3.95739 25.4421V6.52868H32.0431V7.71951C32.0431 8.48482 32.6635 9.10522 33.4288 9.10522ZM3.95739 27.3936L10.3383 21.5008L18.0701 26.6847L32.0431 14.3095V29.4715H3.95739V27.3936Z" fill="#040B29"/>
<path fill-rule="evenodd" clip-rule="evenodd" d="M12.3145 12.2144C12.3145 11.094 11.4063 10.1858 10.286 10.1858C9.16562 10.1858 8.25739 11.094 8.25739 12.2144C8.25739 13.3347 9.16562 14.243 10.286 14.243C11.4063 14.243 12.3145 13.3347 12.3145 12.2144Z" fill="#040B29"/>
</svg>
