<svg width="36" height="36" viewBox="0 0 36 36" fill="none" xmlns="http://www.w3.org/2000/svg">
<path fill-rule="evenodd" clip-rule="evenodd" d="M7.99995 7C7.44767 7 6.99995 7.44772 6.99995 8V15C6.99995 15.5523 7.44767 16 7.99995 16H15C15.5522 16 16 15.5523 16 15V8C16 7.44772 15.5522 7 15 7H7.99995ZM14.2928 8H7.99995V14.2929L14.2928 8ZM15 8.70709L8.70705 15H15V8.70709Z" fill="white"/>
<path fill-rule="evenodd" clip-rule="evenodd" d="M21 20C20.4477 20 20 20.4477 20 21V28C20 28.5523 20.4477 29 21 29H28C28.5523 29 29 28.5523 29 28V21C29 20.4477 28.5523 20 28 20H21ZM28 21H21V28H28V21Z" fill="white"/>
<path d="M23 7H17.5C17.5 7.55228 17.9477 8 18.5 8H23C25.4852 8 27.5 10.0147 27.5 12.5V16.7929C27.5 17.6838 28.5771 18.13 29.2071 17.5L31.7071 15C31.3165 14.6095 30.6834 14.6095 30.2928 15L28.5 16.7929V12.5C28.5 9.46243 26.0375 7 23 7Z" fill="white"/>
<path d="M18.5001 29H13.0001C9.96251 29 7.50008 26.5376 7.50008 23.5V19.2071L5.70718 21C5.31666 21.3905 4.68349 21.3905 4.29297 21L6.79297 18.5C7.42293 17.87 8.50008 18.3162 8.50008 19.2071V23.5C8.50008 25.9853 10.5148 28 13.0001 28H17.5001C18.0524 28 18.5001 28.4477 18.5001 29Z" fill="white"/>
</svg>
