<svg width="48" height="48" viewBox="0 0 48 48" fill="none" xmlns="http://www.w3.org/2000/svg">
<path fill-rule="evenodd" clip-rule="evenodd" d="M28 5C29.2249 5 30.2222 5.42524 30.9949 6.13076C31.2272 6.34291 31.416 6.55586 31.5645 6.75386L31.6684 6.8993L31.733 7H34C34.9319 7 35.715 7.63739 35.937 8.5H39C40.6569 8.5 42 9.84315 42 11.5V37C42 38.6569 40.6569 40 39 40H24.5C24.5 39.4477 24.9477 39 25.5 39H39C40.1046 39 41 38.1046 41 37V11.5C41 10.3954 40.1046 9.5 39 9.5H35.937C35.7269 10.3161 35.0147 10.9307 34.1493 10.9945L34 11H22C21.0681 11 20.285 10.3626 20.063 9.5H17C15.8954 9.5 15 10.3954 15 11.5V25C15 25.5523 14.5523 26 14 26V11.5C14 9.84315 15.3431 8.5 17 8.5H20.063C20.2731 7.68386 20.9853 7.06933 21.8507 7.00549L22 7H24.266L24.3316 6.8993C24.4281 6.75715 24.5467 6.60438 24.6889 6.44762L24.839 6.28978L25.0051 6.13076C25.7778 5.42524 26.7751 5 28 5ZM28 6C27.0374 6 26.2757 6.32476 25.6794 6.86924C25.3673 7.15422 25.1607 7.43677 25.0524 7.6338L25.012 7.71277L24.8769 8H22C21.4477 8 21 8.44771 21 9C21 9.51284 21.386 9.93551 21.8834 9.99327L22 10H34C34.5523 10 35 9.55228 35 9C35 8.48717 34.6139 8.06449 34.1166 8.00673L34 8H31.1231L30.988 7.71277C30.8962 7.51745 30.6773 7.19493 30.3206 6.86924C29.7243 6.32476 28.9626 6 28 6ZM10.4543 28.8971C10.7758 28.6679 11.193 28.5 11.729 28.5H17.271C17.8028 28.5 18.2161 28.6667 18.5359 28.8947C18.9979 29.224 19.2658 29.6943 19.3666 29.9893L20.6746 33.4907L20.8695 33.5753C21.1724 33.7067 21.437 33.92 21.6339 34.1899C21.8636 34.5046 22 34.8937 22 35.3141V37.8302C22 38.153 21.871 38.4459 21.6635 38.6585C21.485 38.8413 21.2975 39.0012 20.9381 39.0032L20.4409 39.0061V40.3935C20.4258 40.5505 20.3562 40.6938 20.2507 40.8019C20.1284 40.9271 19.9639 41 19.7885 41C19.613 41 19.4485 40.9271 19.3263 40.8019C19.2064 40.6791 19.1329 40.5111 19.1329 40.3284V39.0032H9.86713V40.3284C9.86713 40.5111 9.79358 40.6791 9.67373 40.8019C9.55148 40.9271 9.38696 41 9.21154 41C9.03611 41 8.8716 40.9271 8.74934 40.8019C8.6295 40.6791 8.55594 40.5111 8.55594 40.3284V39.0302L8.10979 38.9818C7.8554 38.9543 7.69895 38.9038 7.59469 38.8529C7.49365 38.8035 7.41853 38.7425 7.33654 38.6585C7.12898 38.4459 7 38.153 7 37.8302V35.3141C7 34.8937 7.13638 34.5046 7.36606 34.1899C7.56303 33.92 7.82756 33.7067 8.13045 33.5753L8.32543 33.4907L9.6308 29.9962L9.63424 29.9855C9.72951 29.6909 9.99383 29.2253 10.4543 28.8971ZM11.729 27.5C10.9673 27.5 10.35 27.7435 9.87389 28.0828C9.21839 28.55 8.83988 29.2002 8.68642 29.6666L7.53319 32.7538C7.14809 32.9581 6.81472 33.249 6.55827 33.6004C6.20822 34.0801 6 34.6742 6 35.3141V37.8302C6 38.4242 6.23823 38.965 6.62098 39.357C6.75472 39.494 6.92061 39.6364 7.15544 39.7512C7.27622 39.8103 7.40859 39.8588 7.55594 39.897V40.3284C7.55594 40.7835 7.7397 41.1992 8.03378 41.5004C8.33411 41.8081 8.75259 42 9.21154 42C9.67048 42 10.089 41.8081 10.3893 41.5004C10.6834 41.1992 10.8671 40.7835 10.8671 40.3284V40.0032H18.1329V40.3284C18.1329 40.7835 18.3166 41.1992 18.6107 41.5004C18.911 41.8081 19.3295 42 19.7885 42C20.2474 42 20.6659 41.8081 20.9662 41.5004C21.2337 41.2264 21.4099 40.8579 21.4396 40.4506L21.4409 40.4324V39.9393C21.9007 39.8177 22.1923 39.5483 22.379 39.357C22.7618 38.965 23 38.4242 23 37.8302V35.3141C23 34.6742 22.7918 34.0801 22.4417 33.6004C22.1853 33.249 21.8519 32.9581 21.4668 32.7538L20.3106 29.6587C20.1541 29.2054 19.7761 28.5506 19.1164 28.0804C18.6426 27.7427 18.0292 27.5 17.271 27.5H11.729ZM27.7071 27L35.8536 18.8536C35.4631 18.4631 34.8299 18.4631 34.4394 18.8536L27 26.2929L23.5607 22.8536C23.1702 22.4631 22.537 22.4631 22.1465 22.8536L26.2929 27C26.6835 27.3906 27.3166 27.3906 27.7071 27Z" fill="white"/>
</svg>
