<svg width="28" height="28" viewBox="0 0 28 28" fill="none" xmlns="http://www.w3.org/2000/svg">
<path d="M12.793 8.3554H12.643V8.5054V14.589L12.5763 14.6532L12.643 14.7198V14.8075L12.7274 14.8042L17.0304 19.1072L17.1432 19.2201L17.2489 19.1004L17.317 19.0232L17.3172 19.0234L17.323 19.016C17.6187 18.6357 17.5919 18.0861 17.2425 17.7366L13.7618 14.256L13.7621 9.32456C13.7621 8.78931 13.3282 8.3554 12.793 8.3554ZM6.97317 5.26469L6.97318 5.26469C7.35165 4.88621 7.35166 4.27258 6.97318 3.89411L6.86712 3.78804L6.76105 3.8941L3.89394 6.76103L3.78786 6.86709L3.89393 6.97316C4.00744 7.08667 4.20853 7.2214 4.45376 7.26132C4.70829 7.30275 4.99825 7.23942 5.26451 6.97317C5.26451 6.97316 5.26451 6.97316 5.26452 6.97316L6.97317 5.26469ZM23.9351 6.97326L24.0412 6.86719L23.9351 6.76113L21.0682 3.89401L20.9621 3.78794L20.8561 3.89401C20.7425 4.00752 20.6078 4.20861 20.5679 4.45384C20.5265 4.70837 20.5898 4.99833 20.8561 5.26459L22.5645 6.97325L22.6706 6.86719L22.5645 6.97326C22.943 7.35173 23.5566 7.35173 23.9351 6.97326ZM23.9784 14.1702C23.9784 8.65854 19.5103 4.19044 13.9986 4.19044C8.48692 4.19044 4.01882 8.65854 4.01882 14.1702C4.01882 19.6819 8.48692 24.15 13.9986 24.15C19.5103 24.15 23.9784 19.6819 23.9784 14.1702ZM5.13797 14.1702C5.13797 9.27663 9.10501 5.30959 13.9986 5.30959C18.8922 5.30959 22.8592 9.27663 22.8592 14.1702C22.8592 19.0638 18.8922 23.0309 13.9986 23.0309C9.10501 23.0309 5.13797 19.0638 5.13797 14.1702Z" fill="white" stroke="white" stroke-width="0.3"/>
</svg>
