<svg width="16" height="16" viewBox="0 0 16 16" fill="none" xmlns="http://www.w3.org/2000/svg">
<path d="M14.5 1.5C15.0523 1.5 15.5 1.94772 15.5 2.5V13.5C15.5 13.7652 15.3946 14.0196 15.2071 14.2071C15.0196 14.3946 14.7652 14.5 14.5 14.5H1.5C0.947715 14.5 0.5 14.0523 0.5 13.5V2.5C0.5 1.94772 0.947715 1.5 1.5 1.5H14.5ZM14.5 2.5H1.5V13.5H14.5V2.5ZM12.2675 4.37688C12.4876 4.39766 12.6932 4.49059 12.8535 4.63925L12.944 4.735L8.059 8.773L3.174 4.735C3.34307 4.53064 3.5864 4.40182 3.85045 4.37688C4.11451 4.35194 4.37765 4.43291 4.582 4.602L8.059 7.476L11.536 4.602C11.7403 4.43291 12.0035 4.35194 12.2675 4.37688Z" fill="white"/>
</svg>
