<svg width="36" height="36" viewBox="0 0 36 36" fill="none" xmlns="http://www.w3.org/2000/svg">
<mask id="mask0_5731_26077" style="mask-type:alpha" maskUnits="userSpaceOnUse" x="0" y="0" width="36" height="36">
<path d="M0 36H35.9986V0H0V36Z" fill="white"/>
</mask>
<g mask="url(#mask0_5731_26077)">
<path fill-rule="evenodd" clip-rule="evenodd" d="M11.8525 9C12.3501 9.15424 12.6997 9.62982 12.6997 10.2082C12.6997 10.2982 12.686 10.3882 12.6736 10.4653C12.6499 10.5553 12.6362 10.6067 12.6001 10.7095L11.7405 13.3059L15 13.3188L13.7186 16.6221L12.7855 19L12.6306 18.9214C12.2537 18.7012 12.0017 18.2789 12.0017 17.8046C12.0017 17.6375 12.0391 17.4833 12.0888 17.3278C12.1013 17.2995 13.1625 14.5938 13.1625 14.5938L10 14.5913L11.0562 11.4165L11.8525 9Z" fill="white" stroke="white" stroke-width="0.2"/>
<path fill-rule="evenodd" clip-rule="evenodd" d="M25.7171 22.8186C25.0643 22.7218 24.5668 22.1716 24.5668 21.5144L24.5669 20.2511H24.4738C22.7417 20.2511 21.3342 18.8985 21.3342 17.2329V9.07276C21.3342 7.39601 22.7417 6.04343 24.4738 6.04343H28.3603C30.0924 6.04343 31.5 7.39601 31.5 9.07276V17.2218C30.8602 17.2218 30.3367 16.7187 30.3367 16.1039V9.07276C30.3367 8.02199 29.4422 7.16126 28.3603 7.16126H24.4738C23.392 7.16126 22.4974 8.02199 22.4974 9.07276V17.2329C22.4974 18.2837 23.392 19.1333 24.4738 19.1333H24.5669L24.5668 17.4119L24.312 17.0084C24.2888 16.9637 24.1026 16.5847 24.1026 16.3723V14.4385C24.1026 13.2647 25.0914 12.3135 26.3117 12.3135H26.4292C27.639 12.3135 28.6278 13.2647 28.6278 14.4385V16.2706C28.6278 16.4282 28.5917 16.5735 28.5347 16.7077L28.2206 17.3113V21.5032C28.2206 22.1739 27.7088 22.7328 27.0225 22.7999C27.0446 23.6153 27.162 27.4495 26.8131 28.7909C26.2547 30.926 24.8937 32.5692 22.9731 33.3964C22.0425 33.7988 21.0304 34 20.0068 34C18.833 34 17.6465 33.7317 16.5635 33.2063C15.1454 32.5133 14.0508 31.3295 13.6553 30.0429C13.1503 28.4628 13.1568 26.8355 13.1903 26.1456L11.2353 26.1463L11.2362 32.8378C11.2362 33.4087 10.7958 33.8832 10.2104 33.9481L10.0729 33.9556L10.0721 26.1463H9.88944C6.99984 26.1463 4.63472 23.9497 4.50556 21.204L4.5 20.9674V7.17892C4.5 4.32398 6.91728 2 9.88944 2H14.8089C17.7811 2 20.1984 4.32398 20.1984 7.17892V20.9674C20.1984 23.8223 17.7811 26.1463 14.8089 26.1463L14.3522 26.1468C14.3256 26.7179 14.3057 28.2646 14.7616 29.7187C15.0757 30.7024 15.9714 31.6537 17.0881 32.2126C18.797 33.051 20.8106 33.1169 22.4973 32.3791C23.6141 31.8884 25.0798 30.8254 25.6835 28.5114C25.9522 27.4618 25.9057 24.1742 25.8592 22.8328L25.7171 22.8186ZM14.8089 3.11783H9.88944C7.55824 3.11783 5.66327 4.9399 5.66327 7.17892V20.9674C5.66327 23.2064 7.55824 25.0285 9.88944 25.0285H14.8089C17.1389 25.0285 19.0351 23.2064 19.0351 20.9674V7.17892C19.0351 4.9399 17.1389 3.11783 14.8089 3.11783ZM26.4292 13.4313H26.3117C25.7429 13.4313 25.2659 13.8896 25.2659 14.4385V16.3723L25.5567 16.8418L25.7301 17.0989V21.5144C25.7301 21.625 25.8126 21.7145 25.9278 21.7145L26.8596 21.7044C26.9643 21.7044 27.0574 21.615 27.0574 21.5032V17.0542L27.1841 16.8195L27.4645 16.2706V14.4385C27.4645 13.8896 26.9992 13.4313 26.4292 13.4313Z" fill="white" stroke="white" stroke-width="0.2"/>
</g>
</svg>
