<svg width="28" height="28" viewBox="0 0 28 28" fill="none" xmlns="http://www.w3.org/2000/svg">
<path fill-rule="evenodd" clip-rule="evenodd" d="M14 1C21.1686 1 27 6.83137 27 14C27 21.0583 21.3467 26.8203 14.3299 26.9959L14 27L13.6701 26.9959C6.65333 26.8203 1 21.0583 1 14C1 6.83137 6.83137 1 14 1ZM14 2.66288L13.6884 2.6671C7.58108 2.83275 2.66288 7.8533 2.66288 14C2.66288 20.2507 7.74932 25.3371 14 25.3371C20.2507 25.3371 25.3371 20.2507 25.3371 14C25.3371 7.8533 20.4189 2.83275 14.3116 2.6671L14 2.66288ZM16.1671 9.99162L15.4136 15.945H15.4111C15.3071 16.514 14.7981 16.9475 14.1826 16.9475C13.5676 16.9475 13.0586 16.514 12.9551 15.945H12.9521L12.1936 9.99162H12.2081C12.2057 9.97288 12.203 9.95421 12.2003 9.93556C12.1915 9.87393 12.1826 9.81242 12.1826 9.74863C12.1826 8.6746 13.0781 7.80469 14.1826 7.80469C15.2876 7.80469 16.1826 8.6746 16.1826 9.74863C16.1826 9.81358 16.1738 9.87616 16.1649 9.93891C16.1624 9.95645 16.1599 9.974 16.1576 9.99162H16.1671ZM12.8877 19.7845C12.8877 20.5209 13.485 21.1178 14.221 21.1178C14.9575 21.1178 15.5544 20.5209 15.5544 19.7845C15.5544 19.0481 14.9575 18.4512 14.221 18.4512C13.485 18.4512 12.8877 19.0481 12.8877 19.7845Z" fill="#D6820D"/>
</svg>
