<svg width="36" height="36" viewBox="0 0 36 36" fill="none" xmlns="http://www.w3.org/2000/svg">
<path d="M18.1859 4.05078C22.2967 4.07225 25.6233 7.5412 25.6208 11.741L25.6244 11.8L25.6254 11.9682C25.593 13.7122 24.8584 16.4734 22.9537 20.1775L20.8638 24.0638L26.4538 24.0639L29.3338 31.6249L6.63379 31.5849L9.29379 24.0639H13.5038C13.5038 24.6139 13.0538 25.0639 12.5038 25.0639H9.99379L8.04379 30.5849L27.8838 30.6249L25.7638 25.0639L20.3258 25.0638L19.1758 27.2028L23.9333 27.2035C24.444 27.2035 24.8685 27.5915 24.9265 28.0873L24.9333 28.2035H18.0633L18.0624 28.1933C17.8101 28.1566 17.5966 28.008 17.4531 27.768L13.3583 20.1688C12.2412 17.9882 11.5067 16.0662 11.0851 14.4048C10.8033 13.2942 10.6972 12.4618 10.6929 11.8722L10.6971 11.5447C10.8244 7.40819 14.1089 4.07184 18.1433 4.05078H18.1859ZM18.1807 5.05077H18.1459C14.5916 5.06933 11.6933 8.08562 11.6933 11.7908L11.6962 12.014C11.7154 12.5135 11.8163 13.2204 12.0544 14.1588C12.4572 15.7461 13.1649 17.5979 14.2435 19.7036L18.1622 26.9777L22.0686 19.7121C23.0319 17.8386 23.7003 16.1691 24.1212 14.7063L24.2212 14.345C24.5001 13.2969 24.6155 12.4913 24.6255 11.9585L24.6257 11.8534L24.6192 11.55C24.4973 7.95379 21.6556 5.06892 18.1807 5.05077ZM17.9547 9.43298C18.3237 9.57298 18.5947 9.94298 18.5947 10.363C18.5947 10.483 18.5737 10.593 18.5347 10.704C18.5237 10.733 17.4147 13.633 17.4147 13.633H21.2337L19.5547 17.363L18.7337 19.183C18.3847 19.023 18.1437 18.673 18.1437 18.273C18.1437 18.133 18.1747 18.003 18.2247 17.883L19.6837 14.633H15.9547L17.2337 11.293L17.9547 9.43298Z" fill="#040B29"/>
</svg>
