<svg width="36" height="36" viewBox="0 0 36 36" fill="none" xmlns="http://www.w3.org/2000/svg">
<mask id="mask0_5595_23964" style="mask-type:alpha" maskUnits="userSpaceOnUse" x="0" y="0" width="36" height="36">
<path d="M0 36H35.9986V0H0V36Z" fill="white"/>
</mask>
<g mask="url(#mask0_5595_23964)">
<path fill-rule="evenodd" clip-rule="evenodd" d="M24.8094 22.7022C24.2483 22.6156 23.8206 22.1234 23.8206 21.5354L23.8207 20.4053H23.7407C22.2517 20.4053 21.0417 19.1953 21.0417 17.7053V10.4053C21.0417 8.90533 22.2517 7.69533 23.7407 7.69533H27.0817C28.5707 7.69533 29.7807 8.90533 29.7807 10.4053V17.6953C29.2307 17.6953 28.7807 17.2453 28.7807 16.6953V10.4053C28.7807 9.46533 28.0117 8.69533 27.0817 8.69533H23.7407C22.8107 8.69533 22.0417 9.46533 22.0417 10.4053V17.7053C22.0417 18.6453 22.8107 19.4053 23.7407 19.4053H23.8207L23.8206 17.8654L23.6016 17.5044C23.5816 17.4644 23.4216 17.1254 23.4216 16.9354V15.2054C23.4216 14.1554 24.2716 13.3044 25.3206 13.3044H25.4216C26.4616 13.3044 27.3116 14.1554 27.3116 15.2054V16.8444C27.3116 16.9854 27.2806 17.1154 27.2316 17.2354L26.9616 17.7754V21.5254C26.9616 22.1254 26.5216 22.6254 25.9316 22.6854C25.9506 23.4149 26.0516 26.8449 25.7516 28.0449C25.2716 29.9549 24.1016 31.4249 22.4506 32.1649C21.6506 32.5249 20.7806 32.7049 19.9006 32.7049C18.8916 32.7049 17.8716 32.4649 16.9406 31.9949C15.7216 31.3749 14.7806 30.3159 14.4406 29.1649C14.0065 27.7514 14.012 26.2957 14.0409 25.6784L12.3603 25.6791L12.361 31.6652C12.361 32.1759 11.9825 32.6004 11.4792 32.6585L11.361 32.6652L11.3603 25.6791H11.2033C8.71928 25.6791 6.68612 23.714 6.57509 21.2578L6.57031 21.0461V8.71112C6.57031 6.15712 8.64831 4.07812 11.2033 4.07812H15.4323C17.9873 4.07812 20.0653 6.15712 20.0653 8.71112V21.0461C20.0653 23.6001 17.9873 25.6791 15.4323 25.6791L15.0397 25.6796C15.0168 26.1904 14.9998 27.5741 15.3916 28.8749C15.6616 29.7549 16.4316 30.6059 17.3916 31.1059C18.8606 31.8559 20.5916 31.9149 22.0416 31.2549C23.0016 30.8159 24.2616 29.8649 24.7806 27.7949C25.0116 26.8559 24.9716 23.9149 24.9316 22.7149L24.8094 22.7022ZM15.4323 5.07812H11.2033C9.19931 5.07812 7.57031 6.70812 7.57031 8.71112V21.0461C7.57031 23.0491 9.19931 24.6791 11.2033 24.6791H15.4323C17.4353 24.6791 19.0653 23.0491 19.0653 21.0461V8.71112C19.0653 6.70812 17.4353 5.07812 15.4323 5.07812ZM25.4216 14.3044H25.3206C24.8316 14.3044 24.4216 14.7144 24.4216 15.2054V16.9354L24.6716 17.3554L24.8206 17.5854V21.5354C24.8206 21.6344 24.8916 21.7144 24.9906 21.7144L25.7916 21.7054C25.8816 21.7054 25.9616 21.6254 25.9616 21.5254V17.5454L26.0706 17.3354L26.3116 16.8444V15.2054C26.3116 14.7144 25.9116 14.3044 25.4216 14.3044ZM12.8209 10.9951C13.2209 11.1151 13.5019 11.4851 13.5019 11.9351C13.5019 12.0051 13.4909 12.0751 13.4809 12.1351C13.4619 12.2051 13.4509 12.2451 13.4219 12.3251L12.7309 14.3451L15.3509 14.3551L14.3209 16.9251L13.5709 18.7751L13.4464 18.714C13.1434 18.5426 12.9409 18.2141 12.9409 17.8451C12.9409 17.7151 12.9709 17.5951 13.0109 17.4741C13.0209 17.4521 13.8739 15.3471 13.8739 15.3471L11.3319 15.3451L12.1809 12.8751L12.8209 10.9951Z" fill="#040B29"/>
</g>
</svg>
