<svg width="16" height="16" viewBox="0 0 16 16" fill="none" xmlns="http://www.w3.org/2000/svg">
<path d="M5.17103 1.64121C6.96093 0.786264 9.03969 0.786264 10.8296 1.64121L11.0669 1.76053C12.7139 2.6385 13.8133 4.29627 13.9758 6.17111C14.1463 8.13775 13.4077 10.0741 11.9719 11.4242L11.67 11.708L8.00515 15L4.21496 11.6929L3.97876 11.4612C2.57113 10.0799 1.85418 8.1389 2.02477 6.17111C2.19437 4.21476 3.38406 2.49476 5.15162 1.65048L5.17103 1.64121ZM10.4013 2.54343C8.88234 1.81791 7.11828 1.81791 5.59935 2.54343L5.37625 2.65638C4.04033 3.37934 3.14964 4.73066 3.01726 6.25768C2.8725 7.92755 3.4809 9.57469 4.67542 10.7468L4.89015 10.9587L7.99532 13.6661L10.997 10.9713L11.2906 10.6952C12.5034 9.55469 13.1274 7.91898 12.9834 6.25768C12.8444 4.65431 11.8693 3.24465 10.4207 2.5527L10.4013 2.54343ZM8.00031 3.84108C9.65092 3.84108 10.989 5.18328 10.989 6.83896C10.989 8.49464 9.65092 9.83683 8.00031 9.83683C6.34969 9.83683 5.0116 8.49464 5.0116 6.83896C5.0116 5.18328 6.34969 3.84108 8.00031 3.84108ZM8.00031 4.84037C6.8999 4.84037 6.00784 5.73517 6.00784 6.83896C6.00784 7.94274 6.8999 8.83754 8.00031 8.83754C9.10072 8.83754 9.99278 7.94274 9.99278 6.83896C9.99278 5.73517 9.10072 4.84037 8.00031 4.84037Z" fill="#696D7F"/>
</svg>
