<svg width="36" height="36" viewBox="0 0 36 36" fill="none" xmlns="http://www.w3.org/2000/svg">
<path d="M18 11.2929L21.1464 8.14648C21.5369 8.53701 21.5369 9.17017 21.1464 9.5607L18.7071 12L21.8535 15.1465C21.463 15.537 20.8298 15.537 20.4393 15.1465L18 12.7072L15.5606 15.1465C15.1701 15.537 14.5369 15.537 14.1464 15.1465L17.2929 12L14.8535 9.5607C14.463 9.17017 14.463 8.53701 14.8535 8.14648L18 11.2929Z" fill="#040B29"/>
<path fill-rule="evenodd" clip-rule="evenodd" d="M25 12C25 15.866 21.866 19 18 19C14.134 19 11 15.866 11 12C11 8.13401 14.134 5 18 5C21.866 5 25 8.13401 25 12ZM24 12C24 15.3137 21.3137 18 18 18C14.6863 18 12 15.3137 12 12C12 8.68629 14.6863 6 18 6C21.3137 6 24 8.68629 24 12Z" fill="#040B29"/>
<path fill-rule="evenodd" clip-rule="evenodd" d="M18 3C12.1568 3 8.5 7.79608 8.5 13.5C8.5 18.0447 9.00599 21.5855 10.0149 25.6213C10.7022 28.3704 11.6132 30.127 12.9495 31.1769C14.2908 32.2306 15.9691 32.5 18 32.5C20.0309 32.5 21.7092 32.2306 23.0505 31.1769C24.3868 30.127 25.2978 28.3704 25.9851 25.6213C26.994 21.5855 27.5 18.0447 27.5 13.5C27.5 7.79608 23.8432 3 18 3ZM9.5 13.5C9.5 8.20392 12.8432 4 18 4C23.1568 4 26.5 8.20392 26.5 13.5C26.5 17.9553 26.006 21.4145 25.0149 25.3787C24.3464 28.0529 23.5074 29.5462 22.4327 30.3905C21.3628 31.231 19.9691 31.5 18 31.5C16.0309 31.5 14.6372 31.231 13.5673 30.3905C12.4926 29.5462 11.6536 28.0529 10.9851 25.3787C9.99401 21.4145 9.5 17.9553 9.5 13.5Z" fill="#040B29"/>
</svg>
