<svg width="36" height="36" viewBox="0 0 36 36" fill="none" xmlns="http://www.w3.org/2000/svg">
<path d="M30.2138 6C31.4238 6 32.4143 6.94802 32.4947 8.1476L32.5 8.30543V27.6946C32.5 28.9147 31.5599 29.9136 30.3704 29.9947L30.2138 30H5.78615C4.5759 30 3.58569 29.0521 3.50527 27.8524L3.5 27.6946V19.4736C3.5 18.6241 3.86045 17.8187 4.47505 17.2657L4.62135 17.1426L15.9827 7.19296C16.8446 6.51561 18.3781 6.05979 19.6945 6.00546L19.9546 6H30.2138ZM30.8525 17.1828H7.11827L6.05457 18.121C5.52931 18.5339 5.20404 19.1496 5.15348 19.8139L5.14656 19.9962V27.6303C5.14656 27.9891 5.41141 28.2861 5.75455 28.3331L5.84993 28.3396H30.1501C30.5062 28.3396 30.8005 28.0726 30.847 27.7265L30.8534 27.6303L30.8525 17.1828ZM28.8309 19.5724V19.8187C28.8309 20.4483 28.3351 21.0537 27.7944 21.1269L27.6858 21.1343L24.1309 21.1347V19.5728L28.8309 19.5724ZM30.1501 7.66094H20.3188C19.1539 7.66094 17.7187 8.04034 16.8888 8.59659L16.7205 8.71841L8.88979 15.621H13.108L16.1565 12.9947C16.9685 12.3137 18.412 11.8556 19.6521 11.801L19.8972 11.7956H30.244C30.4558 11.7956 30.6603 11.828 30.8534 11.8884V8.37025C30.8534 7.97829 30.5387 7.66094 30.1501 7.66094ZM30.1995 13.3721H20.2409C19.1549 13.3721 17.8154 13.7551 17.0341 14.3227L16.8756 14.4471L15.5313 15.621H30.8407L30.8414 14.0963C30.8414 13.6912 30.5489 13.3721 30.1995 13.3721Z" fill="#009292"/>
</svg>
