<svg width="36" height="36" viewBox="0 0 36 36" fill="none" xmlns="http://www.w3.org/2000/svg">
<path d="M31.7515 10.1763L32.0028 10.5888C33.6009 13.2315 34.285 16.2948 33.891 19.2526C33.3708 23.1576 31.2326 26.5212 27.9807 28.5693C26.0851 29.7633 23.9542 30.42 21.7657 30.4931L21.3547 30.5L20.9211 30.4924C19.7649 30.4517 18.6102 30.2485 17.4825 29.8848C14.7048 28.9893 12.295 27.0646 10.6388 24.4841L10.4003 24.0996L10.1931 23.7568L10.5287 23.5453C10.9838 23.2585 11.5793 23.391 11.8759 23.845L12.2245 24.3796C12.4436 24.6803 12.6834 24.9806 12.9532 25.2837C13.2818 25.6505 13.7478 26.1198 14.2738 26.5512C14.4817 26.7217 14.7015 26.8864 14.9317 27.0454C15.5514 27.4733 16.2177 27.841 16.8841 28.1473L17.0494 28.222L17.3433 28.3487L17.6806 28.4817L17.7621 28.5107C19.6823 29.1693 21.4619 29.2291 23.0983 28.965C25.06 28.6481 26.9157 27.7997 28.5106 26.4775C30.0147 25.2311 31.1799 23.587 31.8693 21.7383C32.601 19.7765 32.8101 17.7096 32.4911 15.7062L32.4253 15.3347L32.351 14.9786L32.2756 14.6632C32.0356 13.7229 31.704 12.8948 31.3161 12.1543L31.0852 11.7517C30.8351 11.3165 30.9414 10.7665 31.3175 10.4586L31.4172 10.3869L31.7515 10.1763ZM24.5983 17.4129C26.4308 17.4129 27.3794 18.2442 27.3794 19.8716C27.3794 21.4459 26.4936 22.2864 24.7952 22.3487L24.5875 22.3524L22.4968 22.3516L22.4978 26.1195H22.3499C21.8212 26.1195 21.3861 25.7111 21.3304 25.1863L21.3244 25.0722V17.4129H24.5983ZM29.347 5.50095L29.5588 5.51245C30.4847 5.59123 31.5588 6.04254 32.8047 6.84785C32.9555 6.94507 33.0823 7.07561 33.1798 7.23348C33.5263 7.80324 33.3555 8.55167 32.7978 8.90649L29.3536 11.0958L9.67601 23.5046C9.13088 23.8488 8.43875 23.8365 7.90534 23.4738L2.53077 19.8168C2.35434 19.697 2.21273 19.531 2.12029 19.337C1.83239 18.7334 2.07908 18.0055 2.6703 17.7124L3.7919 17.1563C4.14879 16.9795 4.55708 16.9404 4.93921 17.0471L8.32486 17.9907C8.37043 18.0035 8.4192 17.9949 8.45828 17.9672L13.6722 14.2684C13.6908 14.2553 13.7067 14.2376 13.7182 14.2173C13.7625 14.1388 13.7361 14.038 13.6591 13.9926L7.46129 10.3391C7.19661 10.1835 6.97982 9.95551 6.83551 9.68076C6.40734 8.86629 6.70611 7.85152 7.50348 7.41357L9.13865 6.51569C9.45532 6.34182 9.8187 6.27891 10.1728 6.33681L22.7408 8.37865C22.7756 8.38434 22.8121 8.37772 22.8438 8.35971L25.0267 7.11803C26.8115 6.02147 28.2344 5.47393 29.347 5.50095ZM29.3135 7.01084C28.5454 6.99224 27.3541 7.45067 25.7677 8.42483L23.5633 9.6792C23.2421 9.86187 22.8699 9.92939 22.5077 9.87012L9.93978 7.82829C9.90549 7.82269 9.87025 7.82879 9.83893 7.84598L8.20385 8.74381C8.12566 8.78675 8.09636 8.88627 8.13856 8.96654C8.15251 8.99311 8.1734 9.01508 8.19979 9.03059L14.3984 12.6846C15.1824 13.1468 15.4515 14.1706 14.9988 14.9726C14.8775 15.1869 14.7115 15.3709 14.514 15.5101L9.30179 19.2078C8.90299 19.4905 8.40232 19.5784 7.93482 19.4476L4.54954 18.5041C4.51302 18.4939 4.47268 18.4977 4.43762 18.5151L3.77085 18.8455L8.72511 22.2167C8.76418 22.2433 8.81227 22.2506 8.85639 22.2384L8.89871 22.2197L28.5744 9.8121L31.6166 7.87725L31.2934 7.691C30.5617 7.2869 29.9464 7.06572 29.4577 7.0195L29.3135 7.01084ZM24.5444 18.4949L22.4968 18.4941V21.2691L24.5444 21.27C25.1265 21.27 25.5471 21.1506 25.8187 20.9216C26.0749 20.6976 26.206 20.3527 26.206 19.8716C26.206 19.3866 26.073 19.0481 25.8076 18.843C25.5722 18.636 25.2205 18.522 24.7335 18.4992L24.5444 18.4949Z" fill="white"/>
</svg>
