<svg width="28" height="28" viewBox="0 0 28 28" fill="none" xmlns="http://www.w3.org/2000/svg">
<path fill-rule="evenodd" clip-rule="evenodd" d="M16.6394 7C16.6746 7.00004 16.7079 7.0001 16.7392 7.00016L17.0577 7.00192C17.0914 7.00243 17.107 7.00304 17.1046 7.00374C16.7737 10.3854 15.7015 12.8856 13.888 14.5044L17.7941 20.2063H14.2785L9.98184 13.8477C12.6639 12.2936 14.0859 10.0122 14.248 7.00374C14.5101 7.00304 14.7542 7.00243 14.9802 7.00192L15.9601 7.00016C16.0154 7.0001 16.0687 7.00004 16.12 7H16.6394ZM9.32353 7.00374V20.1802H6.5V7.00374H9.32353ZM20.6176 16.4155C21.6572 16.4155 22.5 17.2583 22.5 18.2979C22.5 19.3375 21.6572 20.1802 20.6176 20.1802C19.5781 20.1802 18.7353 19.3375 18.7353 18.2979C18.7353 17.2583 19.5781 16.4155 20.6176 16.4155Z" fill="#040B29"/>
</svg>
