<svg width="28" height="28" viewBox="0 0 28 28" fill="none" xmlns="http://www.w3.org/2000/svg">
<path fill-rule="evenodd" clip-rule="evenodd" d="M6.25955 4.5678C5.95053 3.35829 4.8582 2.5 3.59546 2.5H1.74414C1.74414 3.24724 2.61329 4 3.21428 4H3.59546L3.72263 4.00643C4.2671 4.06175 4.71896 4.46851 4.82333 5.01584L7.06392 16.7651L7.10115 16.9322C7.41017 18.1417 8.5025 19 9.76524 19H20.8786C21.6898 19 22.2501 18.2443 22.2501 17.5C20.0001 17.4936 9.76524 17.5 9.76524 17.5L9.63807 17.4936C9.09361 17.4383 8.64175 17.0315 8.53737 16.4842L6.91944 8H22.5741L21.6203 12.5089L21.5883 12.6301C21.4247 13.1436 20.9458 13.5 20.3974 13.5H10.9553C10.0001 13.5 9.52812 14.25 9.52812 15H20.3974L20.5734 14.9944C21.7969 14.9166 22.8309 14.0329 23.0878 12.8195L24.2338 7.40532L24.2482 7.30595C24.2811 6.87847 23.9428 6.5 23.5001 6.5H6.63339L6.29678 4.73486L6.25955 4.5678ZM12.7501 23C12.7501 21.5375 11.6083 20.3416 10.1676 20.255L10.0001 20.25L9.83259 20.255C8.39187 20.3416 7.2501 21.5375 7.2501 23C7.2501 24.5187 8.48139 25.75 10.0001 25.75C11.5188 25.75 12.7501 24.5187 12.7501 23ZM8.7501 23C8.7501 22.3529 9.24204 21.8205 9.87231 21.7565L10.0001 21.75L10.1279 21.7565C10.7582 21.8205 11.2501 22.3529 11.2501 23C11.2501 23.6903 10.6904 24.25 10.0001 24.25C9.30982 24.25 8.7501 23.6903 8.7501 23ZM20.1676 20.255C21.6083 20.3416 22.7501 21.5375 22.7501 23C22.7501 24.5187 21.5188 25.75 20.0001 25.75C18.4814 25.75 17.2501 24.5187 17.2501 23C17.2501 21.5375 18.3919 20.3416 19.8326 20.255L20.0001 20.25L20.1676 20.255ZM19.8723 21.7565C19.242 21.8205 18.7501 22.3529 18.7501 23C18.7501 23.6903 19.3098 24.25 20.0001 24.25C20.6904 24.25 21.2501 23.6903 21.2501 23C21.2501 22.3529 20.7582 21.8205 20.1279 21.7565L20.0001 21.75L19.8723 21.7565Z" fill="white"/>
</svg>
