<svg width="28" height="28" viewBox="0 0 28 28" fill="none" xmlns="http://www.w3.org/2000/svg">
<path fill-rule="evenodd" clip-rule="evenodd" d="M19.0002 4C19.453 4 19.82 4.36704 19.82 4.8198C19.82 4.87379 19.8147 4.92764 19.8041 4.98058L18.8002 10H18.9843H21H24.0002C24.0002 10.5523 23.5525 11 23.0002 11H21H19.8041H18.6002L16.161 23.1961C16.0675 23.6635 15.6571 24 15.1804 24H15.0002C15.4708 21.6467 15.8447 19.7768 16.2042 17.9791C16.1383 17.9928 16.07 18 16 18H10.2002L9.16097 23.1961C9.06748 23.6635 8.65707 24 8.18039 24H8.00019L9.19999 18H9V17.999L5.00019 17.9998C4.44791 18.0001 4.00011 17.5525 4 17.0002L9.40019 16.999L10.6002 11H5.00019C4.44791 11 4.00019 10.5523 4.00019 10H10.8002L12.0002 4C12.453 4 12.82 4.36704 12.82 4.8198C12.82 4.87379 12.8147 4.92764 12.8041 4.98058L10.4002 17H16.4001C16.7692 15.1546 17.1389 13.3061 17.6002 11H17H13.62C13.1583 11 12.784 10.6257 12.784 10.164C12.784 10.1089 12.7894 10.054 12.8002 10H17H17.8002L19.0002 4ZM18.4002 16.999L24.0002 17C24.0002 17.5522 23.5526 17.9998 23.0004 17.9998L19.22 17.9992C18.7582 17.9991 18.3839 17.6247 18.384 17.1628C18.384 17.1078 18.3894 17.0529 18.4002 16.999Z" fill="white"/>
</svg>
