<svg width="36" height="36" viewBox="0 0 36 36" fill="none" xmlns="http://www.w3.org/2000/svg">
<path fill-rule="evenodd" clip-rule="evenodd" d="M18.0117 3C22.3081 3.01085 25.8039 6.52192 25.8039 10.8264L25.8044 10.8427C25.8046 10.8477 25.8047 10.8538 25.8049 10.861L25.8049 10.9563C25.7958 11.5838 25.5994 14.4733 22.9659 19.4373L21.1638 22.677H28.6901C29.215 22.677 29.6778 22.9918 29.8679 23.4812L32.9136 31.2711C33.0653 31.6609 33.0151 32.102 32.7797 32.4484C32.5434 32.7938 32.1524 33 31.7339 33H4.26672C3.83639 33 3.44053 32.7849 3.20616 32.4247C2.97179 32.0655 2.93437 31.6145 3.10867 31.2208L6.54737 23.4319C6.74924 22.973 7.20419 22.677 7.70443 22.677H12.7788V22.7747C12.7788 23.4447 12.2352 23.9894 11.5675 23.9894L7.76844 23.9904L4.33861 31.6866H31.667L28.6714 24.022L20.4311 23.9914L19.2363 26.1397L25.8121 26.1407C26.456 26.1407 26.9908 26.6271 27.0552 27.2483L27.0616 27.3742V27.6209L18.1958 27.6216C18.1332 27.6448 18.07 27.6564 18.0057 27.6564L17.9121 27.649C17.7893 27.6292 17.6743 27.5698 17.5656 27.4719L17.5449 27.4531C17.5222 27.4324 17.4966 27.4097 17.476 27.3791C17.4582 27.3673 17.4385 27.3505 17.4218 27.3249L13.0407 19.4472C10.0668 13.845 10.1909 10.9142 10.1978 10.7918C10.1968 6.50909 13.6916 3.01085 17.989 3H18.0117ZM17.9998 4.31344C14.4203 4.31739 11.5084 7.23933 11.5084 10.8264L11.5085 10.8824C11.5149 11.3855 11.6711 14.0708 14.1938 18.8186L17.9998 25.6611L21.8127 18.8077C24.3223 14.0807 24.4842 11.4062 24.4919 10.9239L24.4922 10.8708C24.4912 7.25118 21.5793 4.31739 17.9998 4.31344ZM17.9632 7.50321L18.0489 7.55156C18.6328 7.88214 18.8396 8.62817 18.5087 9.21532L17.0385 11.8008L20.0883 11.7998C20.3197 11.7998 20.5373 11.9241 20.6555 12.1254C20.7717 12.3277 20.7727 12.5794 20.6584 12.7817L18.0371 17.4108L17.9514 17.3624C17.6678 17.2026 17.463 16.9411 17.3763 16.6263C17.2896 16.3125 17.329 15.9829 17.4895 15.6996L18.9598 13.1132L15.911 13.1142C15.6786 13.1142 15.462 12.9899 15.3448 12.7886C15.2266 12.5853 15.2266 12.3336 15.3409 12.1323L17.9632 7.50321Z" fill="white"/>
</svg>
