<svg width="36" height="36" viewBox="0 0 36 36" fill="none" xmlns="http://www.w3.org/2000/svg">
<path d="M23.2167 26.3429C22.4667 27.4548 21.3058 28.2235 19.9893 28.4799L19.8193 28.4099V28.2199C19.7894 28.0714 19.7894 27.9184 19.8193 27.7699C19.8576 27.5792 19.9424 27.4008 20.0663 27.2508C20.1902 27.1007 20.3492 26.9836 20.5293 26.9099C21.1893 26.6183 21.7542 26.1471 22.1593 25.5499C22.5613 24.9584 22.7867 24.2647 22.8093 23.5499C22.8178 23.2744 22.9224 23.0106 23.1051 22.8042C23.2877 22.5978 23.5369 22.4618 23.8093 22.4199H23.9893V22.5499C24.2447 23.8667 23.9668 25.2309 23.2167 26.3429Z" fill="#040B29"/>
<path fill-rule="evenodd" clip-rule="evenodd" d="M8 22.57C8 13.69 18 3 18 3C18 3 28 13.73 28 22.57C28 28.87 23.52 33 18 33C12.48 33 8 28.87 8 22.57ZM21.91 10.44C20.7098 8.65062 19.4041 6.93426 18 5.3C16.6044 6.94766 15.3088 8.67742 14.12 10.48C11.05 15.12 9.43 19.3 9.43 22.57C9.41731 23.8045 9.64135 25.0299 10.09 26.18C10.4938 27.2057 11.1029 28.1382 11.88 28.92C13.5312 30.493 15.7244 31.3705 18.005 31.3705C20.2856 31.3705 22.4788 30.493 24.13 28.92C24.9073 28.1403 25.5136 27.2071 25.91 26.18C26.3758 25.0333 26.6168 23.8077 26.62 22.57C26.62 19.29 24.99 15.1 21.91 10.44Z" fill="#040B29"/>
</svg>
