<svg width="28" height="28" viewBox="0 0 28 28" fill="none" xmlns="http://www.w3.org/2000/svg">
<path fill-rule="evenodd" clip-rule="evenodd" d="M27 14C27 6.83137 21.1686 1 14 1C6.83137 1 1 6.83137 1 14C1 21.0583 6.65333 26.8203 13.6701 26.9959L14 27L14.3299 26.9959C21.3467 26.8203 27 21.0583 27 14ZM13.6884 2.6671L14 2.66288L14.3116 2.6671C20.4189 2.83275 25.3371 7.8533 25.3371 14C25.3371 20.2507 20.2507 25.3371 14 25.3371C7.74932 25.3371 2.66288 20.2507 2.66288 14C2.66288 7.8533 7.58108 2.83275 13.6884 2.6671ZM12.5907 16.6732L11.1745 14.2483L10.5441 15.2782H8.83405C8.03201 15.2782 7.38184 14.6281 7.38184 13.826L8.35777 13.8263L9.72988 13.826L10.5226 12.5343C10.8109 12.0644 11.47 12.0398 11.7986 12.4535L11.8638 12.5489L13.2548 14.9324L15.213 11.4587C15.4906 10.9654 16.1721 10.9295 16.5068 11.3565L16.5689 11.4481L17.9567 13.826L20.8627 13.8263C20.8627 14.6282 20.2127 15.2782 19.4108 15.2782H17.1237L15.9044 13.1893L13.9464 16.6628C13.6688 17.1556 12.9876 17.1915 12.6528 16.7648L12.5907 16.6732Z" fill="#CDCED4"/>
</svg>
