<svg width="48" height="48" viewBox="0 0 48 48" fill="none" xmlns="http://www.w3.org/2000/svg">
<g filter="url(#filter0_d_5595_27670)">
<path d="M28.276 34.6541L30.9639 29.8113C35.166 21.8771 35.0058 17.6909 34.9973 17.5576C34.9973 11.4686 30.0725 6.51492 24.0155 6.50107C24.0123 6.50107 24.0113 6.5 24.0091 6.5H23.9996H23.99C23.9879 6.5 23.9869 6.50107 23.9847 6.50107C17.9266 6.51492 13.0019 11.4686 13.0029 17.5171C12.9934 17.6909 12.8342 21.8771 17.0438 29.8252L23.295 41.0896C23.313 41.1205 23.3459 41.1344 23.3671 41.1621C23.3958 41.2047 23.4361 41.2356 23.4733 41.2708C23.6208 41.4051 23.7948 41.5 23.9911 41.5C23.9943 41.5 23.9964 41.4979 23.9996 41.4979C24.0028 41.4979 24.0049 41.5 24.0081 41.5C24.2044 41.5 24.3784 41.4051 24.5259 41.2708C24.5631 41.2356 24.6034 41.2047 24.632 41.1621C24.6533 41.1344 24.6872 41.1205 24.7042 41.0896L27.3889 36.2531L28.276 34.6541Z" fill="white"/>
</g>
<path d="M28.276 34.6541L30.9639 29.8113C35.166 21.8771 35.0058 17.6909 34.9973 17.5576C34.9973 11.4686 30.0725 6.51492 24.0155 6.50107C24.0123 6.50107 24.0113 6.5 24.0091 6.5H23.9996H23.99C23.9879 6.5 23.9869 6.50107 23.9847 6.50107C17.9266 6.51492 13.0019 11.4686 13.0029 17.5171C12.9934 17.6909 12.8342 21.8771 17.0438 29.8252L23.295 41.0896C23.313 41.1205 23.3459 41.1344 23.3671 41.1621C23.3958 41.2047 23.4361 41.2356 23.4733 41.2708C23.6208 41.4051 23.7948 41.5 23.9911 41.5C23.9943 41.5 23.9964 41.4979 23.9996 41.4979C24.0028 41.4979 24.0049 41.5 24.0081 41.5C24.2044 41.5 24.3784 41.4051 24.5259 41.2708C24.5631 41.2356 24.6034 41.2047 24.632 41.1621C24.6533 41.1344 24.6872 41.1205 24.7042 41.0896L27.3889 36.2531L28.276 34.6541Z" fill="#00BEBE"/>
<path d="M24.1354 27.0603C29.2389 27.0603 33.3762 22.9041 33.3762 17.7772C33.3762 12.6503 29.2389 8.49414 24.1354 8.49414C19.0318 8.49414 14.8945 12.6503 14.8945 17.7772C14.8945 22.9041 19.0318 27.0603 24.1354 27.0603Z" fill="white"/>
<defs>
<filter id="filter0_d_5595_27670" x="8" y="1.5" width="32" height="45" filterUnits="userSpaceOnUse" color-interpolation-filters="sRGB">
<feFlood flood-opacity="0" result="BackgroundImageFix"/>
<feColorMatrix in="SourceAlpha" type="matrix" values="0 0 0 0 0 0 0 0 0 0 0 0 0 0 0 0 0 0 127 0" result="hardAlpha"/>
<feOffset/>
<feGaussianBlur stdDeviation="2.5"/>
<feColorMatrix type="matrix" values="0 0 0 0 0 0 0 0 0 0 0 0 0 0 0 0 0 0 0.15 0"/>
<feBlend mode="normal" in2="BackgroundImageFix" result="effect1_dropShadow_5595_27670"/>
<feBlend mode="normal" in="SourceGraphic" in2="effect1_dropShadow_5595_27670" result="shape"/>
</filter>
</defs>
</svg>
