<svg width="48" height="48" viewBox="0 0 48 48" fill="none" xmlns="http://www.w3.org/2000/svg">
<path fill-rule="evenodd" clip-rule="evenodd" d="M23.9986 6L24.0006 6C29.2479 6.00542 33.4927 10.3092 33.4996 15.6098C33.5059 15.9575 33.4904 19.6979 29.9132 26.484L29.9087 26.4926L24.9756 35.4236C24.5511 36.1922 23.448 36.1921 23.0236 35.4236L18.0972 26.5042L18.0927 26.4956C14.5007 19.6826 14.4932 15.9403 14.5006 15.5751C14.507 10.3059 18.7553 6.00542 23.9986 6ZM15.5006 15.587C15.4986 15.6604 15.3999 19.2439 18.9773 26.0293L23.8989 34.9401C23.943 35.02 24.0562 35.02 24.1003 34.9401L29.0286 26.0176C32.5972 19.248 32.5007 15.6647 32.4996 15.6209C32.4986 10.8556 28.6873 7.00484 23.9996 7C19.3129 7.00484 15.5006 10.8556 15.5006 15.587Z" fill="white"/>
<path fill-rule="evenodd" clip-rule="evenodd" d="M21.2974 17.6923L24.2065 12.8438C24.6801 13.1279 24.8336 13.7422 24.5495 14.2157L22.5183 17.601H26.4586C26.925 17.601 27.2131 18.1098 26.9731 18.5097L24.064 23.3582C23.5904 23.0741 23.4368 22.4598 23.721 21.9863L25.7521 18.601H21.8119C21.3455 18.601 21.0574 18.0922 21.2974 17.6923Z" fill="white"/>
<path fill-rule="evenodd" clip-rule="evenodd" d="M10.0821 32.5529C10.2505 32.2141 10.5947 32.0001 10.9712 32.0001H17.0397C17.0397 32.5524 16.592 33.0001 16.0397 33.0001H10.9712L6.99526 41.0001L41.0049 41L37.4707 33L26.5 33.0001V32.0001L37.4707 32C37.8636 32 38.2195 32.2327 38.3791 32.5939L41.9132 40.5939C42.2053 41.2551 41.7242 42 41.0049 42L6.99526 42.0001C6.25636 42.0001 5.77577 41.2178 6.10622 40.5529L10.0821 32.5529Z" fill="white"/>
</svg>
