<svg width="36" height="36" viewBox="0 0 36 36" fill="none" xmlns="http://www.w3.org/2000/svg">
<path fill-rule="evenodd" clip-rule="evenodd" d="M18.0031 7.06732C16.1706 7.06732 14.707 8.57509 14.707 10.4077C14.707 12.2403 16.1706 13.748 18.0031 13.748C19.8356 13.748 21.2992 12.2403 21.2992 10.4077C21.2992 8.57509 19.8356 7.06732 18.0031 7.06732ZM16.207 10.4077C16.207 9.37903 17.0233 8.56732 18.0031 8.56732C18.9829 8.56732 19.7992 9.37903 19.7992 10.4077C19.7992 11.4363 18.9829 12.248 18.0031 12.248C17.0233 12.248 16.207 11.4363 16.207 10.4077Z" fill="#040B29"/>
<path fill-rule="evenodd" clip-rule="evenodd" d="M18.0039 27.5583C18.2397 27.5583 19.1337 26.362 20.2338 24.5284H28.4973L32.7911 32.0427H3.20843L7.5023 24.5284H11.4712C12.2917 24.5284 12.9569 23.8633 12.9569 23.0427H7.27846C6.88372 23.0427 6.51924 23.2542 6.3234 23.597L1.37497 32.2567C1.05116 32.8234 1.46033 33.5284 2.11297 33.5284H33.8866C34.5392 33.5284 34.9484 32.8234 34.6246 32.2567L29.6762 23.597C29.4803 23.2542 29.1158 23.0427 28.7211 23.0427H21.0904C23.2424 19.1649 25.7069 13.618 25.7069 9.83704C25.7069 5.50876 22.2581 2 18.0039 2C13.7496 2 10.3008 5.50876 10.3008 9.83704C10.3008 16.1984 17.2771 27.5583 18.0039 27.5583ZM23.1852 14.8074C23.829 12.9114 24.2069 11.1885 24.2069 9.83704C24.2069 6.3127 21.4054 3.5 18.0039 3.5C14.6023 3.5 11.8008 6.3127 11.8008 9.83704C11.8008 11.1885 12.1787 12.9114 12.8225 14.8074C13.4593 16.6826 14.3231 18.6326 15.2189 20.4072C16.1143 22.1811 17.0277 23.7523 17.7516 24.8669C17.8395 25.0022 17.9237 25.1294 18.0039 25.2482C18.084 25.1294 18.1682 25.0022 18.2561 24.8669C18.98 23.7523 19.8935 22.1811 20.7888 20.4072C21.6846 18.6326 22.5484 16.6826 23.1852 14.8074ZM17.1879 26.3314C17.1856 26.3336 17.186 26.333 17.1892 26.3302L17.1879 26.3314ZM18.8185 26.3302C18.8217 26.333 18.8221 26.3336 18.8198 26.3314L18.8185 26.3302Z" fill="#040B29"/>
</svg>
