<svg width="26" height="14" viewBox="0 0 26 14" fill="none" xmlns="http://www.w3.org/2000/svg">
<path d="M18.9011 3.5C20.9012 3.5 22.5284 5.10744 22.5284 7.08328C22.5284 9.0592 20.9012 10.6668 18.9011 10.6668C16.9011 10.6668 15.2739 9.0592 15.2739 7.08328C15.2739 5.10744 16.9011 3.5 18.9011 3.5ZM14.2408 3.67562V10.4689H12.5433V4.2505C12.5433 4.1511 12.5448 4.08078 12.5678 4.00458C12.5896 3.93246 12.6286 3.8679 12.6822 3.81442C12.7356 3.76086 12.8002 3.7219 12.8724 3.70002C12.9232 3.68469 12.9713 3.67896 13.0272 3.67684L13.1182 3.67562H14.2408ZM5.48808 3.67562C5.64724 3.67562 5.77428 3.68018 5.91064 3.74202C6.01288 3.78834 6.08751 3.85192 6.16272 3.93132L6.23916 4.01594L9.601 7.84938V4.2505C9.601 4.1511 9.60248 4.08078 9.62552 4.00458C9.64732 3.93246 9.68636 3.8679 9.73984 3.81442C9.79332 3.76086 9.85792 3.7219 9.93004 3.70002C9.98084 3.68469 10.029 3.67895 10.0849 3.67684L10.1759 3.67562H11.3029V10.4689H10.0649C9.90568 10.4689 9.77864 10.4643 9.64228 10.4025C9.50596 10.3407 9.41868 10.2483 9.3138 10.1286L7.63288 8.21183L5.95196 6.2951V9.89406C5.95196 9.99346 5.95052 10.0637 5.92748 10.1399C5.9056 10.212 5.86664 10.2766 5.81316 10.3301C5.7596 10.3836 5.69504 10.4226 5.62296 10.4444C5.57213 10.4598 5.52394 10.4656 5.468 10.4677L5.377 10.4689H4.25V3.67562H5.48808ZM18.9091 5.20652C17.8741 5.20652 17.032 6.04856 17.032 7.08364C17.032 8.11868 17.8741 8.96068 18.9091 8.96068C19.944 8.96068 20.7861 8.11868 20.7861 7.08364C20.7861 6.04856 19.944 5.20652 18.9091 5.20652Z" fill="white"/>
<path d="M19 0.5C22.5899 0.5 25.5 3.41015 25.5 7C25.5 10.5899 22.5899 13.5 19 13.5H7C3.41015 13.5 0.5 10.5899 0.5 7C0.5 3.41015 3.41015 0.5 7 0.5H19Z" stroke="white"/>
</svg>
