<svg width="28" height="28" viewBox="0 0 28 28" fill="none" xmlns="http://www.w3.org/2000/svg">
<path d="M22.9167 9.31038V25.0271C22.9167 25.5644 22.469 26 21.9167 26H6.08333C5.53105 26 5.08333 25.5644 5.08333 25.0271V9.31038C5.91174 9.31038 6.5833 9.96375 6.5833 10.7697L6.583 24.5403H9.75V9.31038C10.5784 9.31038 11.25 9.96376 11.25 10.7697V24.5403H16.75V10.7697C16.75 9.96376 17.4216 9.31038 18.25 9.31038V24.5403H21.416L21.4166 10.7697C21.4166 10.0112 22.0115 9.38778 22.7722 9.31706L22.9167 9.31038ZM24.5 5.74304C24.5 6.54902 23.8284 7.2024 23 7.2024H5C4.2203 7.2024 3.57955 6.62363 3.50687 5.88359L3.5 5.74304H24.5ZM16 2.5C16.7797 2.5 17.4204 3.07877 17.4931 3.81882L17.5 3.95937H10.5C10.5 3.15338 11.1716 2.5 12 2.5H16Z" fill="white"/>
</svg>
