<svg width="28" height="28" viewBox="0 0 28 28" fill="none" xmlns="http://www.w3.org/2000/svg">
<path d="M14 2C20.6274 2 26 7.37258 26 14C26 20.6274 20.6274 26 14 26C7.37258 26 2 20.6274 2 14C2 7.37258 7.37258 2 14 2ZM14 3C7.92487 3 3 7.92487 3 14C3 20.0751 7.92487 25 14 25C20.0751 25 25 20.0751 25 14C25 7.92487 20.0751 3 14 3ZM12.5282 7.0845C13.0805 7.0845 13.5282 7.53222 13.5282 8.0845L13.5278 14.1805L17.8306 18.4833C18.1911 18.8437 18.2188 19.411 17.9138 19.8033L17.8306 19.8975L12.5251 14.592L12.5298 14.5875L12.5282 14.5876V7.0845Z" fill="white"/>
</svg>
