<svg width="28" height="28" viewBox="0 0 28 28" fill="none" xmlns="http://www.w3.org/2000/svg">
<path fill-rule="evenodd" clip-rule="evenodd" d="M12.7499 6.5C12.9794 6.5 13.1794 6.65615 13.235 6.87873C13.4129 7.5903 14.27 8.75 16.9999 8.75V9.75C14.7561 9.75 13.4192 9.01858 12.7439 8.11696C12.5456 8.36494 12.2902 8.59064 11.9692 8.77646C11.2573 9.18862 10.268 9.3793 8.9502 9.24752L9.0497 8.25248C10.2319 8.3707 10.9926 8.18638 11.4682 7.91104C11.9352 7.64067 12.1699 7.25868 12.2649 6.87873C12.3205 6.65615 12.5205 6.5 12.7499 6.5Z" fill="#040B29"/>
<path fill-rule="evenodd" clip-rule="evenodd" d="M6.87525 19.0886C7.66595 18.6904 8.64465 18.1933 9.54923 17.7223C9.79415 17.5948 9.888 17.2924 9.75947 17.048C9.63094 16.8036 9.32872 16.7097 9.08379 16.8372C8.18627 17.3045 7.21364 17.7985 6.42543 18.1955C5.96564 18.4271 5.56911 18.6254 5.28757 18.7658C5.1468 18.836 5.0348 18.8917 4.95803 18.9298L4.84035 18.9882L4.82721 18.995C4.01056 19.4288 3.5001 20.278 3.5001 21.2028V23.5005C3.5001 24.0528 3.94781 24.5005 4.5001 24.5005V21.2028C4.5001 20.6501 4.80396 20.1424 5.29056 19.8812L5.40294 19.8254C5.48012 19.7871 5.59257 19.7311 5.73382 19.6607C6.0163 19.5198 6.41405 19.3209 6.87525 19.0886Z" fill="#040B29"/>
<path fill-rule="evenodd" clip-rule="evenodd" d="M12.25 3.75C10.317 3.75 8.75 5.317 8.75 7.25V12.75C8.75 14.683 10.75 15.85 11.5 16.1C11.7955 16.1985 12.1686 16.2815 12.5122 16.3459C13.035 16.4438 13.5 16.0319 13.5 15.5C13.5 15.5 12.6455 15.45 12 15.2C11.3545 14.95 9.75 14.1307 9.75 12.75V7.25C9.75 5.86929 10.8693 4.75 12.25 4.75H14.25C15.6307 4.75 16.75 5.86929 16.75 7.25V8H17.75V7.25C17.75 5.317 16.183 3.75 14.25 3.75H12.25Z" fill="#040B29"/>
<path fill-rule="evenodd" clip-rule="evenodd" d="M14.25 4.75C15.6307 4.75 16.75 5.86929 16.75 7.25V12.75C16.75 12.8186 16.719 12.9473 16.6137 13.1485C16.5127 13.3414 16.367 13.5572 16.1937 13.7896C16.0527 13.9786 15.9024 14.1668 15.7518 14.3554L15.6488 14.4846C15.4695 14.7099 15.2893 14.9403 15.1521 15.1492C15.0489 15.3063 14.8894 15.5663 14.8862 15.8722C14.8824 16.2431 15.097 16.5236 15.3956 16.7196C16.0167 17.1273 17.3067 17.8331 18.5 18.4676V17.9321C18.5 17.5637 18.2972 17.2255 17.9735 17.0496C17.1283 16.5902 16.3614 16.1573 15.9444 15.8836C15.9252 15.8711 15.9107 15.8602 15.8997 15.8513C15.9162 15.8142 15.9439 15.7653 15.9879 15.6982C16.0967 15.5327 16.2494 15.3358 16.4313 15.1073L16.5293 14.9844C16.6804 14.7952 16.8434 14.5911 16.9952 14.3875C17.1804 14.1393 17.3625 13.8743 17.4997 13.6122C17.6325 13.3584 17.75 13.0582 17.75 12.75V7.25C17.75 5.317 16.183 3.75 14.25 3.75V4.75Z" fill="#040B29"/>
<path fill-rule="evenodd" clip-rule="evenodd" d="M22 17C22 16.4477 21.5523 16 21 16L21 20H17C17 20.5523 17.4477 21 18 21H21L21 25C21.5523 25 22 24.5523 22 24V21H25C25.5523 21 26 20.5523 26 20H22V17Z" fill="#040B29"/>
</svg>
