<svg width="16" height="16" viewBox="0 0 16 16" fill="none" xmlns="http://www.w3.org/2000/svg">
<path fill-rule="evenodd" clip-rule="evenodd" d="M8 0C12.4183 0 16 3.58172 16 8C16 12.4183 12.4183 16 8 16C3.58172 16 0 12.4183 0 8C0 3.58172 3.58172 0 8 0ZM11.4078 5.05582C11.0551 4.78735 10.5494 4.8142 10.2273 5.13636L8 7.363L5.77273 5.13636C5.42127 4.78491 4.85145 4.78491 4.5 5.13636L7.364 8L4.5 10.8636L4.59216 10.9442C4.94491 11.2126 5.45056 11.1858 5.77273 10.8636L8 8.636L10.2273 10.8636C10.5787 11.2151 11.1485 11.2151 11.5 10.8636L8.636 8L11.5 5.13636L11.4078 5.05582Z" fill="white"/>
</svg>
