<svg width="28" height="28" viewBox="0 0 28 28" fill="none" xmlns="http://www.w3.org/2000/svg">
<path d="M14.0387 2L15.0075 2.0423L16.6363 2.12457L17.4953 2.17794L18.0213 2.21731L18.4467 2.2562L18.7719 2.29468L19.1073 2.34992C20.3287 2.57372 21.18 2.97278 21.703 3.79265L21.7585 3.88295L21.9137 4.15064L22.116 4.51084L23.4125 6.88067L23.885 7.72253L24.1139 8.14466L24.416 8.734L27 8.73436L26.9931 8.87882C26.925 9.59193 26.3576 10.1593 25.6445 10.2275L25.5 10.2344L25.218 10.234L25.8737 11.3362C26.0818 11.7152 26.2286 12.0692 26.3389 12.4857L26.4009 12.7437C26.4253 12.8547 26.4485 12.9738 26.4705 13.1012L26.5027 13.2985L26.5621 13.7312L26.6149 14.2156L26.6388 14.4776L26.6918 15.1914L26.735 15.9914V18.5534C26.735 18.9458 26.6661 19.3351 26.5323 19.702C26.4756 19.859 26.4397 20.0217 26.4252 20.1859L26.418 20.3504V24.2444C26.418 24.8786 25.936 25.4003 25.3182 25.463L25.193 25.4694H21.934C21.2997 25.4694 20.7781 24.9873 20.7153 24.3696L20.709 24.2444L20.7083 21.469H7.28833L7.289 24.2444C7.289 24.8363 6.86909 25.3302 6.31088 25.4445L6.18925 25.463L6.064 25.4694H2.805C2.17074 25.4694 1.64906 24.9873 1.58632 24.3696L1.58 24.2444V20.3504C1.58 20.1858 1.55821 20.0211 1.51576 19.8616L1.3941 19.4813C1.35815 19.3556 1.32966 19.2277 1.3087 19.0984L1.28099 19.0929L1.29572 19.0112C1.28576 18.9376 1.27822 18.8636 1.2731 18.7893L1.265 18.5534L1.26573 15.9585L1.30128 15.2787L1.32195 14.9604L1.36915 14.3673L1.42421 13.8318L1.48725 13.3539C1.52077 13.1293 1.55731 12.9262 1.59692 12.7445C1.69432 12.2986 1.82298 11.9335 2.00799 11.5608L2.12597 11.3356L2.782 10.234L2.5 10.2344C1.7203 10.2344 1.07955 9.63947 1.00687 8.87882L1 8.73436L3.582 8.734L3.88603 8.14238L4.11378 7.72166L4.38301 7.24539L5.8813 4.51293L6.16907 4.00415L6.29598 3.79265C6.81792 2.97277 7.66933 2.57363 8.892 2.34983L9.22765 2.2946L9.4332 2.26901L9.84338 2.22867L10.2062 2.19931L10.8571 2.15472L12.2278 2.07866L13.9592 2H14.0387ZM7.82465 15.4715C7.10165 16.1893 6.58132 16.8335 6.26232 17.3967C5.50508 18.7337 4.69425 19.3994 3.49582 19.4658L3.29243 19.4713L3.14875 19.4574L2.915 19.412L2.92042 19.4262C2.98472 19.6518 3.02546 19.8832 3.04181 20.1165L3.05 20.3504L3.04933 23.999H5.81833L5.819 21.2244C5.819 20.6324 6.23891 20.1385 6.79712 20.0242L6.91875 20.0057L7.044 19.9994H20.954C21.5883 19.9994 22.1099 20.4814 22.1727 21.0991L22.179 21.2244L22.1783 23.999H24.9473L24.948 20.3504C24.948 20.1161 24.9727 19.8826 25.0213 19.6531L25.066 19.471L24.8641 19.4641C23.75 19.3869 22.8686 18.6982 22.2176 17.5946L22.0982 17.3829C21.8446 16.9124 21.3229 16.2864 20.5379 15.5241C20.1688 15.5628 19.7996 15.5877 19.4295 15.5993L18.9506 15.6068H9.84837C9.17236 15.6068 8.49799 15.562 7.82465 15.4715ZM2.893 13.933L2.85491 14.2695L2.80819 14.7889L2.78732 15.0693L2.76815 15.3633L2.735 15.9914L2.734 17.848L3.35333 17.969L3.41747 17.9674C3.98766 17.9306 4.37809 17.6276 4.85379 16.8349L4.95713 16.6575C5.23034 16.1751 5.60465 15.6672 6.08015 15.1311C5.96328 15.1032 5.8453 15.0718 5.72734 15.039L5.21356 14.8866L2.893 13.933ZM25.136 14.21L24.1079 14.7136C23.5284 14.9205 22.9379 15.0921 22.3397 15.2276C22.7656 15.6934 23.0926 16.1174 23.3227 16.5026L23.4187 16.6713C23.8498 17.4714 24.3554 17.9065 24.9395 17.9646L25.0013 17.967L25.265 17.903L25.2658 16.0253L25.2494 15.6947L25.2117 15.0788C25.198 14.8836 25.1834 14.6984 25.1676 14.5233L25.1432 14.2682L25.136 14.21ZM14.008 3.46936L12.5026 3.537L11.7249 3.57683L10.6539 3.641L10.1478 3.678L9.74521 3.71376L9.44702 3.74816L9.15312 3.79667C8.37855 3.94038 7.86984 4.15914 7.60257 4.4897L7.53565 4.58265L7.41963 4.77687L7.14628 5.26205L5.86761 7.60011L5.40121 8.43127L5.18302 8.8344L4.41437 10.3271L4.13862 10.8272L3.41397 12.0441C3.33759 12.183 3.27381 12.3136 3.21922 12.4467L5.72231 13.477C6.90903 13.848 8.14044 14.057 9.38226 14.0989L9.84837 14.1068H18.9506C20.5363 14.1068 22.1102 13.8342 23.5251 13.334L24.8634 12.6764C24.8145 12.5252 24.7572 12.3843 24.687 12.24L24.5851 12.0436L23.861 10.8265L23.6388 10.4262L23.4235 10.0181L23.1655 9.51231L22.7444 8.70065L22.598 8.43277L22.2833 7.8766L21.0776 5.67087L20.5787 4.77602L20.4633 4.58265C20.219 4.19968 19.6903 3.95353 18.8461 3.79674L18.6285 3.75938L18.4646 3.7369L18.1316 3.70202L17.6952 3.66584L17.1567 3.62848L16.0359 3.56387L14.008 3.46936Z" fill="white"/>
</svg>
