<svg width="28" height="28" viewBox="0 0 28 28" fill="none" xmlns="http://www.w3.org/2000/svg">
<path d="M20.5 10.5005C21.0523 10.5005 21.5 10.9483 21.5 11.5005V24.5005C21.5 25.0528 21.0523 25.5005 20.5 25.5005H3.5C2.94772 25.5005 2.5 25.0528 2.5 24.5005V11.5005C2.5 10.9483 2.94772 10.5005 3.5 10.5005H20.5ZM20.5 11.4995H3.5V24.4995H20.5V11.4995ZM15.0452 1.56055C15.4356 1.95114 15.4357 2.58422 15.0454 2.97488L13.7708 4.24986C16.4174 4.27792 18.7363 4.88539 20.7195 6.07595C22.9045 7.38765 24.5086 9.28753 25.5241 11.7613C25.6047 11.9657 25.5043 12.1967 25.2998 12.2773L25.2946 12.2793C25.1086 12.3496 24.9226 12.4199 24.7366 12.4902C23.8103 10.0395 22.3027 8.19271 20.2048 6.93332C18.3772 5.83615 16.2267 5.27368 13.7454 5.24962L15.0226 6.52915C15.3831 6.88958 15.4109 7.45681 15.1059 7.84911L15.0226 7.94333L12.5497 5.47035C12.1591 5.07983 12.1591 4.44666 12.5497 4.05614L15.0452 1.56055Z" fill="#040B29"/>
</svg>
