<svg width="16" height="16" viewBox="0 0 16 16" fill="none" xmlns="http://www.w3.org/2000/svg">
<path d="M14 1C14.5523 1 15 1.44772 15 2V11.992C15 12.5443 14.5523 12.992 14 12.992H11.58C11.3967 12.9917 11.2168 13.0419 11.06 13.137L8 15L4.922 13.14C4.76476 13.0442 4.58412 12.9937 4.4 12.994L2 13L1.88338 12.9933C1.38604 12.9355 1 12.5128 1 12V2C1 1.44772 1.44772 1 2 1H14ZM14 2H2V12L4.405 11.993L4.58815 12.0014C4.8918 12.0292 5.186 12.1259 5.448 12.285L8 13.83L10.54 12.284C10.8534 12.0935 11.2132 11.9928 11.58 11.993H14V2ZM5.5 7C5.77614 7 6 7.22386 6 7.5C6 7.77614 5.77614 8 5.5 8H4.5C4.22386 8 4 7.77614 4 7.5C4 7.22386 4.22386 7 4.5 7H5.5ZM8.5 7C8.77614 7 9 7.22386 9 7.5C9 7.77614 8.77614 8 8.5 8H7.5C7.22386 8 7 7.77614 7 7.5C7 7.22386 7.22386 7 7.5 7H8.5ZM11.5 7C11.7761 7 12 7.22386 12 7.5C12 7.77614 11.7761 8 11.5 8H10.5C10.2239 8 10 7.77614 10 7.5C10 7.22386 10.2239 7 10.5 7H11.5Z" fill="white"/>
</svg>
