<svg width="28" height="28" viewBox="0 0 28 28" fill="none" xmlns="http://www.w3.org/2000/svg">
<path fill-rule="evenodd" clip-rule="evenodd" d="M7.25 11.5C7.25 7.77208 10.2721 4.75 14 4.75C17.7279 4.75 20.75 7.77256 20.75 11.5005V17C20.75 19.3074 19.9496 20.7397 19.0947 21.5947C18.721 21.9683 18.3299 22.2387 17.9766 22.4242C17.5951 21.7246 16.853 21.25 16 21.25H13C11.7574 21.25 10.75 22.2574 10.75 23.5C10.75 24.7426 11.7574 25.75 13 25.75H16C17.0805 25.75 17.9831 24.9884 18.2003 23.9727C18.2804 23.9401 18.3612 23.9049 18.4422 23.8671C18.985 23.6138 19.5897 23.221 20.1553 22.6553C21.1907 21.62 22.0662 20.0347 22.2245 17.75H23.5C25.0188 17.75 26.25 16.5188 26.25 15V13C26.25 11.4812 25.0188 10.25 23.5 10.25H22.1559C21.5535 6.28682 18.1314 3.25 14 3.25C9.86859 3.25 6.44646 6.28682 5.84408 10.25H4.5C2.98122 10.25 1.75 11.4812 1.75 13V15C1.75 16.5188 2.98122 17.75 4.5 17.75H6.5C6.91421 17.75 7.25 17.4142 7.25 17V11.5ZM22.25 11.75V16.25H23.5C24.1904 16.25 24.75 15.6904 24.75 15V13C24.75 12.3096 24.1904 11.75 23.5 11.75H22.25ZM4.5 11.75H5.75V16.25H4.5C3.80964 16.25 3.25 15.6904 3.25 15V13C3.25 12.3096 3.80964 11.75 4.5 11.75ZM12.25 23.5C12.25 23.0858 12.5858 22.75 13 22.75H16C16.4142 22.75 16.75 23.0858 16.75 23.5C16.75 23.9142 16.4142 24.25 16 24.25H13C12.5858 24.25 12.25 23.9142 12.25 23.5Z" fill="white"/>
</svg>
