<svg width="36" height="36" viewBox="0 0 36 36" fill="none" xmlns="http://www.w3.org/2000/svg">
<path fill-rule="evenodd" clip-rule="evenodd" d="M17.9999 26.6962L11.0285 30.3862C10.5476 30.6408 9.95324 30.4538 9.70096 29.9686C9.60058 29.7756 9.56602 29.5545 9.60262 29.3397L10.9335 21.5273L5.29768 15.9964C4.90841 15.6143 4.8998 14.9863 5.27844 14.5935C5.42954 14.4368 5.62772 14.3348 5.84217 14.3034L13.6326 13.1637L17.1186 6.05248C17.3593 5.56136 17.9491 5.36014 18.4358 5.60303C18.6292 5.6995 18.7857 5.85742 18.8813 6.05248L22.3672 13.1637L30.1577 14.3034C30.6951 14.3821 31.0676 14.8854 30.9897 15.4276C30.9586 15.644 30.8575 15.8439 30.7022 15.9964L25.0664 21.5273L26.3973 29.3397C26.4892 29.8797 26.1299 30.3927 25.5947 30.4855C25.3818 30.5224 25.1627 30.4875 24.9714 30.3862L17.9999 26.6962Z" fill="#CDCED4"/>
</svg>
