<svg width="16" height="16" viewBox="0 0 16 16" fill="none" xmlns="http://www.w3.org/2000/svg">
<path d="M3.5 11C3.5 11.7032 5.49196 12.5 8 12.5C10.4244 12.5 12.3666 11.7554 12.4934 11.0706L12.5 11H13.5C13.5 12.5059 11.0148 13.5 8 13.5C5.07386 13.5 2.64665 12.5635 2.5064 11.1315L2.5 11H3.5ZM3.5 8C3.5 8.70321 5.49196 9.5 8 9.5C10.4244 9.5 12.3666 8.75545 12.4934 8.0706L12.5 8H13.5C13.5 9.50592 11.0148 10.5 8 10.5C5.07386 10.5 2.64665 9.56354 2.5064 8.13154L2.5 8H3.5ZM8 2.5C11.0148 2.5 13.5 3.49408 13.5 5C13.5 6.50592 11.0148 7.5 8 7.5C4.98519 7.5 2.5 6.50592 2.5 5C2.5 3.49408 4.98519 2.5 8 2.5ZM8 3.5C5.49196 3.5 3.5 4.29679 3.5 5C3.5 5.70321 5.49196 6.5 8 6.5C10.508 6.5 12.5 5.70321 12.5 5C12.5 4.29679 10.508 3.5 8 3.5Z" fill="white"/>
</svg>
