<svg width="70" height="15" viewBox="0 0 70 15" fill="none" xmlns="http://www.w3.org/2000/svg">
<path fill-rule="evenodd" clip-rule="evenodd" d="M29.8433 0.130448C33.9171 0.130448 37.2325 3.4655 37.2325 7.56484C37.2325 11.6649 33.9171 15 29.8433 15C25.7696 15 22.4548 11.6649 22.4548 7.56484C22.4548 3.4655 25.7696 0.130448 29.8433 0.130448ZM65.3063 3.90917C68.3726 3.90917 70.0958 6.18911 69.9959 9.63019H61.3784C61.4988 12.2771 63.443 13.967 65.5667 13.967C67.1105 13.967 68.172 13.3363 68.9336 12.5417L69.6151 13.1932C68.8534 14.1093 67.4709 14.9855 65.5266 14.9855C62.3407 14.9855 60.3366 12.4809 60.3366 9.46788C60.3366 6.41297 62.2407 3.90917 65.3063 3.90917ZM41.8445 0.488458V13.7432H47.8765V14.7408H40.8027V0.488458H41.8445ZM51.1011 4.21455V14.7408H50.079V4.21455H51.1011ZM58.8753 0C59.2561 0 59.6771 0.0200218 60.1177 0.101559L60.0177 1.09926C59.6369 1.03847 59.2765 0.997703 58.9358 0.997703C57.012 0.997703 56.3102 2.13765 56.3102 3.41997V4.21456H59.3167V5.19147H56.3102V14.7408H55.288V5.19147H53.2044V4.21456H55.288V3.41997C55.288 1.28232 56.6108 0 58.8753 0ZM20.3512 0.494872V14.5895H16.8931V1.68727C16.8931 1.48085 16.8961 1.3351 16.9431 1.17722C16.9872 1.02696 17.0671 0.893373 17.1755 0.782548C17.2845 0.671764 17.416 0.590509 17.5632 0.545752C17.7186 0.497168 17.8613 0.494872 18.0637 0.494872H20.3512ZM2.52209 0.494432C2.84632 0.494432 3.10477 0.504302 3.38269 0.631845C3.66061 0.760113 3.83836 0.952113 4.05205 1.20031C6.33432 3.85152 8.61739 6.50269 10.8997 9.15462V1.68683C10.8997 1.48114 10.9026 1.33539 10.9497 1.17678C10.9938 1.02728 11.0737 0.893659 11.182 0.782109C11.2911 0.671285 11.4233 0.590835 11.5698 0.545313C11.7251 0.497494 11.8686 0.494432 12.0703 0.494432H14.366V14.5891H11.8439C11.5204 14.5891 11.2612 14.58 10.984 14.4517C10.7062 14.3234 10.5284 14.1314 10.3147 13.8832L3.46635 5.92963V13.3967C3.46635 13.6031 3.46338 13.7489 3.41706 13.9067C3.37222 14.0562 3.29303 14.1906 3.18395 14.3014C3.07491 14.4122 2.94339 14.4934 2.79628 14.539C2.6416 14.586 2.49818 14.5891 2.29571 14.5891H0V0.494432H2.52209ZM29.8598 3.67043C27.7515 3.67043 26.0363 5.41764 26.0363 7.56561C26.0363 9.71281 27.7515 11.46 29.8598 11.46C31.9679 11.46 33.6832 9.71281 33.6832 7.56561C33.6832 5.41764 31.9679 3.67043 29.8598 3.67043ZM65.3063 4.88608C63.3423 4.88608 61.7993 6.3722 61.4389 8.63216H68.9139C68.8534 6.61682 67.5512 4.88608 65.3063 4.88608ZM50.5999 0.488454C51.0807 0.488454 51.482 0.916162 51.482 1.40462C51.482 1.91383 51.0807 2.34153 50.5999 2.34153C50.0987 2.34153 49.6982 1.91383 49.6982 1.40462C49.6982 0.916162 50.0987 0.488454 50.5999 0.488454Z" fill="white"/>
</svg>
