<svg width="36" height="36" viewBox="0 0 36 36" fill="none" xmlns="http://www.w3.org/2000/svg">
<path fill-rule="evenodd" clip-rule="evenodd" d="M14.5 15V18C14.5 19.1046 13.6046 20 12.5 20C11.3954 20 10.5 19.1046 10.5 18V15C10.5 13.8954 11.3954 13 12.5 13C13.6046 13 14.5 13.8954 14.5 15ZM12.5 14C11.9477 14 11.5 14.4477 11.5 15V18C11.5 18.5523 11.9477 19 12.5 19C13.0523 19 13.5 18.5523 13.5 18V15C13.5 14.4477 13.0523 14 12.5 14Z" fill="white"/>
<path fill-rule="evenodd" clip-rule="evenodd" d="M25.5 15V18C25.5 19.1046 24.6046 20 23.5 20C22.3954 20 21.5 19.1046 21.5 18V15C21.5 13.8954 22.3954 13 23.5 13C24.6046 13 25.5 13.8954 25.5 15ZM23.5 14C22.9477 14 22.5 14.4477 22.5 15V18C22.5 18.5523 22.9477 19 23.5 19C24.0523 19 24.5 18.5523 24.5 18V15C24.5 14.4477 24.0523 14 23.5 14Z" fill="white"/>
<path fill-rule="evenodd" clip-rule="evenodd" d="M33 18C33 26.2843 26.2843 33 18 33C9.71573 33 3 26.2843 3 18C3 9.71573 9.71573 3 18 3C26.2843 3 33 9.71573 33 18ZM32 18C32 25.732 25.732 32 18 32C10.268 32 4 25.732 4 18C4 10.268 10.268 4 18 4C25.732 4 32 10.268 32 18Z" fill="white"/>
</svg>
