<svg width="131" height="45" viewBox="0 0 131 45" fill="none" xmlns="http://www.w3.org/2000/svg">
<path fill-rule="evenodd" clip-rule="evenodd" d="M49.2511 10.5C42.5276 10.5 37.058 15.8822 37.058 22.5C37.058 29.1178 42.5276 34.5 49.2511 34.5C55.9746 34.5 61.4429 29.1164 61.4429 22.5C61.4429 15.8836 55.9733 10.5 49.2511 10.5ZM49.273 28.7868C48.0248 28.787 46.8046 28.4185 45.7666 27.7279C44.7287 27.0373 43.9196 26.0555 43.4418 24.9068C42.964 23.758 42.8388 22.494 43.0821 21.2744C43.3255 20.0548 43.9264 18.9344 44.8089 18.0551C45.6914 17.1757 46.8158 16.5768 48.04 16.3341C49.2642 16.0915 50.5331 16.2159 51.6863 16.6917C52.8394 17.1675 53.8251 17.9732 54.5186 19.0071C55.212 20.041 55.5822 21.2565 55.5822 22.5C55.5804 24.1666 54.9151 25.7644 53.7323 26.9429C52.5496 28.1215 50.9459 28.7846 49.273 28.7868ZM0 33.8366V11.0871H4.16238C4.69566 11.0871 5.12503 11.1048 5.58311 11.3105C6.04119 11.5162 6.33381 11.8268 6.68797 12.2273L17.9937 25.0596V13.0065C17.9794 12.7315 18.0071 12.4559 18.0757 12.1892C18.15 11.9488 18.2821 11.7301 18.4606 11.5523C18.6391 11.3745 18.8586 11.2428 19.0999 11.1688C19.3677 11.1004 19.6443 11.0729 19.9203 11.0871H23.7039V33.8366H19.5416C19.0069 33.8366 18.5789 33.8216 18.1208 33.6145C17.6628 33.4075 17.3701 33.0982 17.0173 32.6977L5.71575 19.86V31.9185C5.73051 32.1936 5.70284 32.4692 5.6337 32.7359C5.55945 32.9763 5.42731 33.1949 5.24879 33.3727C5.07028 33.5506 4.85081 33.6822 4.60952 33.7562C4.34166 33.824 4.06506 33.8511 3.78908 33.8366H0ZM27.8786 33.8379V13.0133L27.8841 13.0079C27.87 12.7329 27.8976 12.4573 27.9661 12.1905C28.0401 11.9502 28.1722 11.7316 28.3508 11.5539C28.5294 11.3763 28.7489 11.245 28.9903 11.1716C29.2579 11.1021 29.5346 11.0741 29.8108 11.0885H33.5848V33.8379H27.8786ZM67.1505 11.1064V33.8953H68.8501V25.0734H74.3731C78.2934 25.0734 81.8227 22.3381 81.8227 18.0415C81.8227 14.1346 78.85 11.1064 74.209 11.1064H67.1505ZM79.9931 18.1056C79.9931 20.6775 78.4247 23.4456 73.5226 23.4456H68.8501V12.7015H73.4296C78.1635 12.7015 79.9931 14.9479 79.9931 18.1056ZM85.1222 12.572C85.1163 12.378 85.1495 12.1848 85.2198 12.0038C85.2902 11.8229 85.3964 11.6578 85.532 11.5185C85.6677 11.3792 85.83 11.2684 86.0094 11.1928C86.1888 11.1171 86.3816 11.0782 86.5765 11.0782C86.7713 11.0782 86.9641 11.1171 87.1435 11.1928C87.3229 11.2684 87.4853 11.3792 87.6209 11.5185C87.7565 11.6578 87.8627 11.8229 87.9331 12.0038C88.0035 12.1848 88.0367 12.378 88.0307 12.572C88.0307 13.3894 87.3771 14.0705 86.5936 14.0705C86.1994 14.0647 85.8236 13.904 85.548 13.6233C85.2723 13.3426 85.1193 12.9647 85.1222 12.572ZM85.743 33.8952V17.0647H87.4099V33.8952H85.743ZM97.0173 34.2208C97.7572 34.2225 98.4863 34.0439 99.1409 33.7004L98.6828 32.4308C98.1536 32.6838 97.5712 32.8062 96.9845 32.7877C95.4804 32.7877 94.6312 31.5835 94.6312 29.6954V11.1103H92.9643V29.5006C92.9643 33.1147 94.958 34.2208 97.0173 34.2208ZM100.839 25.4315C100.839 19.8313 105.121 16.5769 109.499 16.5769C113.846 16.5769 118.159 19.8326 118.159 25.4315C118.159 31.0303 113.846 34.286 109.499 34.286C105.121 34.286 100.839 31.0303 100.839 25.4315ZM116.428 25.4315C116.428 21.0028 112.93 18.1707 109.499 18.1707C106.068 18.1707 102.539 21.0028 102.539 25.4315C102.539 29.8601 106.068 32.6909 109.499 32.6909C112.93 32.6909 116.428 29.8588 116.428 25.4315ZM127.863 34.2863C128.964 34.2761 130.044 33.9849 131 33.4403L130.379 32.0727C129.612 32.5052 128.745 32.7297 127.863 32.7238C126.262 32.7238 124.792 31.6817 124.792 28.9477V18.6273H130.706V17.0648H124.792V12.3433H123.125V17.0648H120.053V18.6273H123.125V28.9477C123.125 32.9241 125.413 34.2863 127.863 34.2863Z" fill="white"/>
</svg>
