<svg width="28" height="28" viewBox="0 0 28 28" fill="none" xmlns="http://www.w3.org/2000/svg">
<path d="M5 12.5C5.82843 12.5 6.5 13.1716 6.5 14C6.5 14.8284 5.82843 15.5 5 15.5C4.17157 15.5 3.5 14.8284 3.5 14C3.5 13.1716 4.17157 12.5 5 12.5ZM14 12.5C14.8284 12.5 15.5 13.1716 15.5 14C15.5 14.8284 14.8284 15.5 14 15.5C13.1716 15.5 12.5 14.8284 12.5 14C12.5 13.1716 13.1716 12.5 14 12.5ZM23 12.5C23.8284 12.5 24.5 13.1716 24.5 14C24.5 14.8284 23.8284 15.5 23 15.5C22.1716 15.5 21.5 14.8284 21.5 14C21.5 13.1716 22.1716 12.5 23 12.5Z" fill="#040B29"/>
</svg>
