<svg width="48" height="48" viewBox="0 0 48 48" fill="none" xmlns="http://www.w3.org/2000/svg">
<path fill-rule="evenodd" clip-rule="evenodd" d="M37 10.4998C37 9.94762 36.5523 9.5 36 9.5H12C11.4477 9.5 11 9.94762 11 10.4998V16.4123C11 16.6663 11.0967 16.9108 11.2705 17.0961L18.5 24.8061V37.5002C18.5 38.0524 18.9477 38.5 19.5 38.5H28.5C29.0523 38.5 29.5 38.0524 29.5 37.5002V24.8051L36.7295 17.0961C36.9033 16.9108 37 16.6663 37 16.4122V10.4998ZM24.5 27.9985C24.5 27.4463 24.0523 26.9987 23.5 26.9987V26.9996V32.9974V32.9983C24.0523 32.9983 24.5 32.5507 24.5 31.9985V31.9976V27.9994V27.9985ZM33 15.502C33 15.5017 33 15.5014 33 15.5011H15C15 15.5014 15 15.5017 15 15.502C15 16.0541 15.4477 16.5017 16 16.5017H32C32.5523 16.5017 33 16.0541 33 15.502Z" fill="white"/>
<path d="M24.433 4C24.433 3.44772 23.9853 3 23.433 3V7C23.9853 7 24.433 6.55228 24.433 6V4Z" fill="white"/>
<path d="M17.866 5.61602L16.866 3.88397C16.5899 3.40568 15.9783 3.24181 15.5 3.51795L17.5 6.98205C17.9783 6.70591 18.1422 6.09432 17.866 5.61602Z" fill="white"/>
<path d="M32.366 3.51795C31.8877 3.24181 31.2761 3.40568 31 3.88397L30 5.61602C29.7239 6.09432 29.8877 6.70591 30.366 6.98205L32.366 3.51795Z" fill="white"/>
</svg>
