<svg width="29" height="29" viewBox="0 0 29 29" fill="none" xmlns="http://www.w3.org/2000/svg">
<path fill-rule="evenodd" clip-rule="evenodd" d="M24.4843 4.13058C24.5765 3.78528 24.2895 3.4675 23.9546 3.50267L23.8767 3.5172L23.7507 3.55779L23.7437 3.55078L23.73 3.56446L4.46308 9.77177L4.33585 9.81197C3.28554 10.1981 3.21592 11.6608 4.17889 12.1614L4.30465 12.2188L12.2075 15.6751L12.361 15.8284L15.8197 23.6917C16.2646 24.8008 17.8204 24.7483 18.2239 23.6675L24.44 4.26861L24.4508 4.25789L24.4452 4.25237L24.4843 4.13058ZM22.2596 5.0348L15.2584 12.0361C15.6489 12.4266 16.2821 12.4266 16.6726 12.0361L22.9718 5.73681L17.2979 23.2848C17.2323 23.529 16.9182 23.5741 16.7799 23.376L16.7441 23.3093L13.1672 15.1485C13.1264 15.047 13.0539 14.9623 12.9666 14.9085L12.8987 14.8741L4.68507 11.2936C4.44718 11.1992 4.44563 10.8782 4.64623 10.767L4.71244 10.7404L22.2596 5.0348Z" fill="#040B29"/>
</svg>
