<svg width="36" height="36" viewBox="0 0 36 36" fill="none" xmlns="http://www.w3.org/2000/svg">
<path d="M24.1403 4.5L24.1892 4.54947L24.1883 6.72698L30.1151 6.72791C31.649 6.72791 32.9072 7.94499 32.9951 9.47449L33 9.64567V28.5822C33 30.1336 31.7966 31.4061 30.2844 31.495L30.1151 31.5H5.88487C4.35043 31.5 3.09278 30.2832 3.0049 28.7534L3 28.5822V9.64567C3 8.09399 4.20285 6.82176 5.71556 6.73287L5.88487 6.72791L11.2186 6.72698L11.2194 5.8311C11.2194 5.09632 11.809 4.5 12.5355 4.5L12.5844 4.54947L12.5842 6.72698H22.8238L22.8242 5.8311C22.8242 5.09632 23.4138 4.5 24.1403 4.5ZM22.8238 8.10809H12.5842L12.5844 9.00528C12.5844 9.83069 12.254 10.2843 11.3795 10.2905L11.2194 10.2869L11.2186 8.10809L5.88487 8.10847C5.09337 8.10847 4.44124 8.72357 4.37123 9.50596L4.365 9.64567L4.36695 13.7768C4.80232 13.8853 5.19193 13.9834 5.53453 14.0705C7.11514 14.4686 10.0567 17.1002 11.0071 17.9803C11.1 17.9777 11.1896 17.9786 11.2622 17.9777C12.3799 17.9914 17.3624 18.6049 18.9 19.5892C20.0497 20.3197 19.6417 21.8568 19.3435 22.9787C19.3207 23.0624 19.2987 23.147 19.2767 23.2282C19.5792 23.5503 19.6797 24.0219 19.5327 24.4466L19.0748 25.7538C18.9853 26.0033 18.818 26.2161 18.6034 26.3579C18.4303 26.4722 17.9133 26.8141 16.0132 26.84C15.3994 27.9063 14.258 28.6237 12.9534 28.6237C11.0011 28.6237 9.41457 27.0174 9.41457 25.0428C9.41457 23.0691 11.0011 21.4636 12.9534 21.4636C14.9057 21.4636 16.4922 23.0691 16.4922 25.0428C16.4922 25.2131 16.4804 25.3807 16.4576 25.5447C17.5374 25.4928 17.8531 25.323 17.9116 25.2848L18.3196 24.074L18.1413 23.904C17.98 23.7511 17.9099 23.5238 17.9563 23.3051C17.9952 23.1162 18.0585 22.871 18.1194 22.648C18.3162 21.9098 18.5832 20.9016 18.2233 20.6726C17.0592 19.9275 12.4382 19.2739 11.247 19.2594C11.127 19.2602 10.9665 19.2636 10.7993 19.2705C10.6337 19.2901 10.4647 19.2175 10.3389 19.1005C9.0835 17.9196 6.3996 15.6093 5.22619 15.3137C4.96622 15.2473 4.67951 15.1752 4.36632 15.0968L4.36456 25.6509L7.07864 25.6515C7.77813 25.6515 8.34583 26.2257 8.34583 26.9331L4.36456 26.9331L4.365 28.5822C4.365 29.3828 4.97316 30.0423 5.74673 30.1131L5.88487 30.1194H30.1151C30.9066 30.1194 31.5588 29.5043 31.6288 28.7219L31.635 28.5822V9.64567C31.635 8.79806 30.9532 8.10847 30.1151 8.10847L24.1883 8.10809L24.1892 9.00528C24.1892 9.67631 23.6284 10.2633 22.9522 10.2888L22.8242 10.2869L22.8238 8.10809ZM12.9534 22.7452C11.7006 22.7452 10.6818 23.7757 10.6818 25.0428C10.6818 26.3108 11.7006 27.342 12.9534 27.342C14.2062 27.342 15.225 26.3108 15.225 25.0428C15.225 23.7757 14.2062 22.7452 12.9534 22.7452ZM22.6393 11.8103C22.8573 11.9171 22.995 12.1409 22.995 12.3861V16.5267L25.3503 16.9402C25.591 16.9829 25.7862 17.1615 25.8521 17.3999C25.9171 17.6391 25.8411 17.8938 25.6578 18.0561L22.2989 21.0047C21.8402 20.4707 21.8959 19.6616 22.4239 19.1976L23.8195 17.9724L22.2533 17.6972C21.95 17.6434 21.7278 17.3777 21.7278 17.0658V13.7002L18.8462 15.9773C18.5877 16.1806 18.2194 16.1524 17.9947 15.9106L16.9074 14.7384V15.7714C16.9074 16.4788 16.3397 17.053 15.6402 17.053V13.1192C15.6402 12.8561 15.7991 12.6203 16.0407 12.5229C16.2831 12.428 16.5577 12.4887 16.7359 12.6809L18.5227 14.6068L21.9711 11.8812C22.1629 11.7299 22.4222 11.7035 22.6393 11.8103Z" fill="white"/>
</svg>
