<svg width="28" height="28" viewBox="0 0 28 28" fill="none" xmlns="http://www.w3.org/2000/svg">
<path fill-rule="evenodd" clip-rule="evenodd" d="M2.75 6.5C2.33579 6.5 2 6.83579 2 7.25V23.75C2 24.1642 2.33579 24.5 2.75 24.5H25.25C25.6642 24.5 26 24.1642 26 23.75V7.25C26 6.83579 25.6642 6.5 25.25 6.5H20.4014C20.1506 6.5 19.9164 6.37467 19.7773 6.16603L18.2227 3.83397C18.0836 3.62533 17.8494 3.5 17.5986 3.5H10.4014C10.1506 3.5 9.91645 3.62533 9.77735 3.83397L8.22265 6.16603C8.08355 6.37467 7.84938 6.5 7.59861 6.5H2.75ZM10.8177 12.318C12.4067 10.7291 14.8883 10.5768 16.6483 11.8612L16.4048 12.1047C15.914 12.5955 15.1498 12.6428 14.464 12.5359C13.5499 12.3935 12.5827 12.6744 11.8784 13.3787C11.1741 14.0829 10.8932 15.0502 11.0357 15.9643C11.1425 16.6501 11.0952 17.4143 10.6044 17.9051L10.3609 18.1486C9.07652 16.3885 9.22879 13.907 10.8177 12.318ZM13.5961 18.4729C12.9274 18.3826 12.1897 18.4411 11.7125 18.9183L11.4334 19.1974C13.1878 20.4181 15.6173 20.2463 17.1817 18.682C18.746 17.1176 18.9179 14.6881 17.6971 12.9337L17.418 13.2128C16.9409 13.6899 16.8823 14.4277 16.9726 15.0964C17.0936 15.9924 16.8097 16.9326 16.121 17.6213C15.4324 18.31 14.4922 18.5938 13.5961 18.4729Z" fill="white"/>
</svg>
