<svg width="36" height="36" viewBox="0 0 36 36" fill="none" xmlns="http://www.w3.org/2000/svg">
<path fill-rule="evenodd" clip-rule="evenodd" d="M9 4C7.89543 4 7 4.89543 7 6V10C7 11.1046 7.89543 12 9 12H26C27.1046 12 28 11.1046 28 10V8.5H29.5C29.7761 8.5 30 8.72386 30 9V12.4232C30 13.1168 29.5245 13.7199 28.8501 13.8818L19.4166 16.1458C18.2925 16.4156 17.5 17.4208 17.5 18.5768V20H16C15.4477 20 15 20.4477 15 21V31C15 31.5523 15.4477 32 16 32H20C20.5523 32 21 31.5523 21 31V21C21 20.4477 20.5523 20 20 20H18.5V18.5768C18.5 17.8832 18.9755 17.2801 19.6499 17.1182L29.0834 14.8542C30.2075 14.5844 31 13.5792 31 12.4232V9C31 8.17157 30.3284 7.5 29.5 7.5H28V6C28 4.89543 27.1046 4 26 4H9ZM26 5H9C8.44772 5 8 5.44772 8 6V10C8 10.5523 8.44772 11 9 11H26C26.5523 11 27 10.5523 27 10V6C27 5.44772 26.5523 5 26 5ZM16 21V31H20V21H16Z" fill="#040B29"/>
<path d="M12 13.5C12.2761 13.5 12.5 13.7239 12.5 14V16.5C12.5 17.0523 12.0523 17.5 11.5 17.5V14C11.5 13.7239 11.7239 13.5 12 13.5Z" fill="#040B29"/>
<path d="M9.5 14C9.5 13.7239 9.27614 13.5 9 13.5C8.72386 13.5 8.5 13.7239 8.5 14L8.5 20.5C9.05228 20.5 9.5 20.0523 9.5 19.5L9.5 14Z" fill="#040B29"/>
</svg>
