<svg width="28" height="28" viewBox="0 0 28 28" fill="none" xmlns="http://www.w3.org/2000/svg">
<path d="M23 4C23.5523 4 24 4.44772 24 5V23C24 23.5523 23.5523 24 23 24H5C4.44772 24 4 23.5523 4 23V5C4 4.44772 4.44772 4 5 4H23ZM23 5H5V23H23V5ZM13.5 6.5C14.0523 6.5 14.5 6.94772 14.5 7.5V13.5H21.5C21.5 14.0523 21.0523 14.5 20.5 14.5H14.5V20.5C14.5 21.0128 14.114 21.4355 13.6166 21.4933L13.5 21.5V14.499L7.5 14.5C6.98716 14.5 6.56449 14.114 6.50673 13.6166L6.5 13.5L13.5 13.499V6.5Z" fill="white"/>
</svg>
