<svg width="16" height="16" viewBox="0 0 16 16" fill="none" xmlns="http://www.w3.org/2000/svg">
<path d="M8 16C12.4183 16 16 12.4183 16 8C16 3.58172 12.4183 0 8 0C3.58172 0 0 3.58172 0 8C0 12.4183 3.58172 16 8 16Z" fill="#00BEBE"/>
<path d="M8 0C12.4183 0 16 3.58172 16 8C16 12.4183 12.4183 16 8 16C3.58172 16 0 12.4183 0 8C0 3.58172 3.58172 0 8 0ZM8 1.06667C4.17083 1.06667 1.06667 4.17083 1.06667 8C1.06667 11.8292 4.17083 14.9333 8 14.9333C11.8292 14.9333 14.9333 11.8292 14.9333 8C14.9333 4.17083 11.8292 1.06667 8 1.06667ZM5.67716 5.33333C5.97261 5.33333 6.23998 5.50839 6.35813 5.77919L7.99332 9.52709L9.64125 5.77737C9.75983 5.50755 10.0267 5.33333 10.3214 5.33333H12L9.06223 11.5735C8.93966 11.8338 8.67778 12 8.39003 12H7.60997C7.32222 12 7.06034 11.8338 6.93777 11.5735L4 5.33333H5.67716Z" fill="white"/>
</svg>
