<svg width="36" height="36" viewBox="0 0 36 36" fill="none" xmlns="http://www.w3.org/2000/svg">
<path d="M32.8546 21.8954C33.2444 22.1706 33.4662 22.5865 33.4982 23.0958C33.6263 25.17 26.937 28.1944 23.9078 29.4536C23.8318 29.4906 23.7605 29.5244 23.6853 29.5614C23.1129 29.8849 21.0147 30.9783 19.8195 30.7264L19.4617 30.646C11.7654 28.8888 8.41513 29.6853 6.96216 30.6637L6.46343 31L6.44582 30.9743C6.08958 30.4392 6.24249 29.7135 6.78525 29.3715L6.79645 29.3651C6.82287 29.3498 6.8653 29.3273 6.91813 29.2999C8.19258 28.637 9.56709 28.3827 11.4668 28.4012C14.9387 28.435 19.2719 29.3699 19.7282 29.4697L20.0669 29.5453C20.6649 29.6749 22.1931 29.0175 23.1537 28.4817C23.2258 28.4463 23.2946 28.4133 23.3683 28.3779C28.1402 26.3866 32.2686 23.9785 32.299 23.1691C32.2878 22.9937 32.2269 22.9269 32.1621 22.881C31.4136 22.3476 28.6726 23.1369 27.0347 23.6092L26.6681 23.7138C26.6488 23.7194 25.0774 24.1643 25.0774 24.1643L25.0458 24.173C24.9617 24.1961 24.7104 24.2652 24.2993 24.3791C23.6605 24.5553 22.9944 24.1796 22.8199 23.5367L23.7901 23.2672C24.5923 23.0468 25.2319 22.8697 26.3398 22.5527L26.7041 22.4482C29.4971 21.6436 31.7242 21.0932 32.8546 21.8954ZM11.9519 20.9146C12.6924 21.1528 12.8549 21.4843 14.1998 21.9332C15.134 22.2438 15.7208 22.3049 15.9473 22.3242C16.5725 22.3765 16.7623 22.3001 17.4996 22.3041C17.6549 22.3049 18.5851 22.3138 19.4817 22.5021C20.6689 22.7507 21.9529 23.0202 22.302 23.9744C22.5725 24.7146 22.2499 25.7879 21.5831 26.2377C21.499 26.2948 21.4422 26.3415 21.3373 26.3689C21.2589 26.3898 20.6993 26.5121 18.5274 26.5121C17.4243 26.5121 16.4164 26.5024 14.3359 26.4099L13.2247 26.3616C13.2495 26.1355 13.3288 25.7517 13.6258 25.5023C13.9524 25.2296 14.3759 25.2585 14.6593 25.2754C14.6593 25.2754 16.3732 25.3768 19.0806 25.3028C19.3856 25.2939 19.7595 25.2803 19.7595 25.2803C20.2534 25.261 20.6817 25.2392 21.0243 25.2199C21.3445 24.8595 21.3653 24.6189 21.3333 24.4717C21.1292 23.5223 18.0856 23.2431 17.0897 23.379C16.9952 23.3927 16.6718 23.4434 16.2371 23.4161C15.9818 23.4008 15.74 23.3613 15.3774 23.2736C15.0485 23.1934 14.7584 23.1067 14.5357 23.0344L14.3366 22.9678C14.1911 22.9175 14.0992 22.8821 14.0773 22.8738C11.8118 21.9895 11.8718 21.856 11.3411 21.8093C10.8295 21.7651 10.2363 21.9509 9.04755 22.3242C8.47757 22.5037 7.80592 22.7161 6.97097 23.1288C5.39152 23.9109 4.67905 24.2979 4.67905 24.2979C4.302 24.5151 3.92415 24.7476 3.41341 24.7114C3.00914 24.6825 2.69533 24.4982 2.5 24.355C2.61848 24.2745 2.79059 24.1571 3.00193 24.0219C3.7096 23.5689 4.29479 23.2584 4.69826 23.0516C6.24569 22.2567 7.0206 21.8592 7.81873 21.5784C9.69998 20.9178 10.7631 20.5325 11.9519 20.9146ZM24.5273 5C25.1867 5 25.811 5.30049 26.2191 5.81606L29.3458 9.77696C29.977 10.5792 29.9472 11.7114 29.2465 12.5085L21.9785 19.7577C20.9771 20.7568 19.3628 20.7568 18.3615 19.7577L11.0667 12.4791C10.393 11.7107 10.3625 10.578 10.9956 9.77613L14.1229 5.8154C14.5305 5.3006 15.1547 5 15.8135 5H24.5273ZM24.5273 6.20865H15.8135C15.52 6.20865 15.2427 6.34222 15.0645 6.56733L11.9376 10.5274C11.6668 10.8705 11.6797 11.3501 11.9414 11.6506L19.2087 18.8999C19.7411 19.4312 20.5988 19.4312 21.1313 18.8999L28.3718 11.68C28.6605 11.3508 28.6731 10.8706 28.4031 10.5274L25.2776 6.56793C25.0988 6.34217 24.8215 6.20865 24.5273 6.20865ZM23.6631 10.4554L20.6851 14.1396C20.5722 14.2788 20.4025 14.3609 20.224 14.3625H20.2192C20.0415 14.3625 19.8734 14.2836 19.7597 14.1468L16.6833 10.4691C17.1916 10.0403 17.9481 10.1063 18.3748 10.6172L20.2112 12.8112L21.974 10.6308C22.3927 10.1143 23.1484 10.0347 23.6631 10.4554Z" fill="white"/>
</svg>
