<svg width="28" height="28" viewBox="0 0 28 28" fill="none" xmlns="http://www.w3.org/2000/svg">
<path fill-rule="evenodd" clip-rule="evenodd" d="M20 2C20.5523 2 21 2.44772 21 3L21.0007 8.03565C22.6945 8.27913 24 9.74006 24 11.5C24 13.2599 22.6945 14.7209 21.0007 14.9644L21 25C21 25.5128 20.614 25.9355 20.1166 25.9933L20 26L19.9999 14.9644C18.3055 14.7209 17 13.2599 17 11.5C17 9.74006 18.3055 8.27913 19.9999 8.03565L20 2ZM7 2L7.11662 2.00673C7.61396 2.06449 8 2.48716 8 3L8.00068 13.0356C9.69446 13.2791 11 14.7401 11 16.5C11 18.2599 9.69446 19.7209 8.00068 19.9643L8 25C8 25.5523 7.55228 26 7 26L6.99993 19.9643C5.30555 19.7209 4 18.2599 4 16.5C4 14.7401 5.30555 13.2791 6.99993 13.0356L7 2ZM7.50044 13.9991C6.12089 13.9991 5 15.1209 5 16.4996C5 17.8782 6.12089 19 7.50044 19C8.87911 19 10.0009 17.8782 10.0009 16.4996C10.0009 15.1209 8.87911 13.9991 7.50044 13.9991ZM20.5004 9C19.1209 9 18 10.1218 18 11.5004C18 12.8791 19.1209 14.0009 20.5004 14.0009C21.8791 14.0009 23.0009 12.8791 23.0009 11.5004C23.0009 10.1218 21.8791 9 20.5004 9Z" fill="#040B29"/>
</svg>
