<svg width="36" height="36" viewBox="0 0 36 36" fill="none" xmlns="http://www.w3.org/2000/svg">
<path fill-rule="evenodd" clip-rule="evenodd" d="M6.10781 9.96471C6.03748 10.2987 6.00049 10.6451 6.00049 11C6.00049 13.7614 8.23907 16 11.0005 16C11.4154 16 11.8186 15.9495 12.2041 15.8542C12.5902 15.7588 13.0095 15.8375 13.2908 16.1187L20.3818 23.2097C20.663 23.491 20.7417 23.9103 20.6463 24.2964C20.551 24.6819 20.5005 25.0851 20.5005 25.5C20.5005 28.2614 22.7391 30.5 25.5005 30.5C25.855 30.5 26.201 30.4631 26.5347 30.3929C27.1953 30.254 27.3269 29.449 26.8495 28.9716L24.9063 27.0284C24.5158 26.6379 24.5158 26.0047 24.9063 25.6142L25.6134 24.9071C26.0039 24.5166 26.6371 24.5166 27.0276 24.9071L28.9716 26.8511C29.4489 27.3284 30.2537 27.197 30.3929 26.5366C30.4634 26.2022 30.5005 25.8554 30.5005 25.5C30.5005 22.7386 28.2619 20.5 25.5005 20.5C25.0855 20.5 24.6824 20.5505 24.2969 20.6458C23.9108 20.7412 23.4915 20.6625 23.2102 20.3813L16.1192 13.2903C15.838 13.009 15.7592 12.5897 15.8547 12.2036C15.9499 11.8181 16.0005 11.4149 16.0005 11C16.0005 8.23858 13.7619 6 11.0005 6C10.6455 6 10.2991 6.037 9.96501 6.10736C9.30448 6.24645 9.17303 7.05132 9.65033 7.52863L11.5967 9.47495C11.9872 9.86548 11.9872 10.4986 11.5967 10.8892L10.8896 11.5963C10.499 11.9868 9.86586 11.9868 9.47534 11.5963L7.52908 9.65001C7.05176 9.1727 6.24688 9.30417 6.10781 9.96471ZM7.02438 10.5595C7.00861 10.7039 7.00049 10.8509 7.00049 11C7.00049 13.2091 8.79135 15 11.0005 15C11.3339 15 11.6565 14.9594 11.9642 14.8834C12.6169 14.7221 13.4197 14.8334 13.9979 15.4116L21.0889 22.5026C21.667 23.0808 21.7784 23.8836 21.6171 24.5363C21.5411 24.8439 21.5005 25.1665 21.5005 25.5C21.5005 27.7091 23.2914 29.5 25.5005 29.5C25.6493 29.5 25.7958 29.4919 25.9399 29.4762L24.1992 27.7355C23.4181 26.9545 23.4181 25.6882 24.1992 24.9071L24.9063 24.2C25.6873 23.419 26.9537 23.419 27.7347 24.2L29.4765 25.9417C29.4923 25.797 29.5005 25.6496 29.5005 25.5C29.5005 23.2909 27.7096 21.5 25.5005 21.5C25.167 21.5 24.8444 21.5406 24.5368 21.6166C23.8841 21.7779 23.0813 21.6666 22.5031 21.0884L15.4121 13.9974C14.8339 13.4192 14.7226 12.6164 14.8839 11.9637C14.9599 11.6561 15.0005 11.3335 15.0005 11C15.0005 8.79086 13.2096 7 11.0005 7C10.8513 7 10.7043 7.00813 10.5598 7.02391L12.3038 8.76784C13.0848 9.54889 13.0848 10.8152 12.3038 11.5963L11.5967 12.3034C10.8156 13.0844 9.54928 13.0844 8.76823 12.3034L7.02438 10.5595Z" fill="#040B29"/>
<path d="M12.8541 23.8536C13.0493 23.6583 13.0493 23.3417 12.8541 23.1464C12.6588 22.9512 12.3422 22.9512 12.147 23.1464L8.64697 26.6464C8.4517 26.8417 8.4517 27.1583 8.64697 27.3536C8.84223 27.5488 9.15881 27.5488 9.35407 27.3536L12.8541 23.8536Z" fill="#040B29"/>
<path fill-rule="evenodd" clip-rule="evenodd" d="M11.578 20.3292C11.4307 20.3782 11.2969 20.461 11.1871 20.5707L5.69719 26.0607C5.30667 26.4512 5.30667 27.0843 5.69719 27.4749L8.52562 30.3033C8.91614 30.6938 9.54931 30.6938 9.93983 30.3033L15.4298 24.8134C15.5395 24.7036 15.6222 24.5698 15.6713 24.4225L16.1084 23.1114C16.2281 22.7521 16.1346 22.3559 15.8668 22.0881L15.2431 21.4645L15.8541 20.8536C16.0493 20.6583 16.0493 20.3417 15.8541 20.1464C15.6588 19.9512 15.3422 19.9512 15.147 20.1464L14.536 20.7574L13.9124 20.1337C13.6445 19.8659 13.2484 19.7724 12.889 19.8921L11.578 20.3292ZM9.23272 29.5962L14.7227 24.1063L15.1597 22.7952L13.2053 20.8408L11.8942 21.2778L6.4043 26.7678L9.23272 29.5962Z" fill="#040B29"/>
<path fill-rule="evenodd" clip-rule="evenodd" d="M28.1439 6.93629C27.8068 6.59923 27.2787 6.54693 26.8821 6.81135L24.4458 8.43554C24.1676 8.62101 24.0005 8.93324 24.0005 9.26759V11.2929L20.147 15.1464C19.9517 15.3417 19.9517 15.6583 20.147 15.8536C20.3422 16.0488 20.6588 16.0488 20.8541 15.8536L24.7076 12H26.7329C27.0673 12 27.3795 11.8329 27.565 11.5547L29.1892 9.11841C29.4536 8.72179 29.4013 8.19367 29.0642 7.8566L28.1439 6.93629ZM26.7329 11H25.0005V9.26759L27.4368 7.6434L28.3571 8.56371L26.7329 11Z" fill="#040B29"/>
</svg>
