<svg width="36" height="36" viewBox="0 0 36 36" fill="none" xmlns="http://www.w3.org/2000/svg">
<path d="M14 10H6C6 10.8284 6.67157 11.5 7.5 11.5H12.5C13.3284 11.5 14 10.8284 14 10Z" fill="#040B29"/>
<path fill-rule="evenodd" clip-rule="evenodd" d="M2.25 7.5C2.25 6.80964 2.80964 6.25 3.5 6.25H27.5C28.1904 6.25 28.75 6.80964 28.75 7.5V12.7865L33.3028 10.5101C33.9677 10.1776 34.75 10.6611 34.75 11.4045V24.5868C34.75 25.3385 33.9518 25.8214 33.286 25.4727L28.75 23.0967V28.5C28.75 29.1904 28.1904 29.75 27.5 29.75H3.5C2.80964 29.75 2.25 29.1904 2.25 28.5V7.5ZM27.25 7.75V17.7857C27.25 18.6142 27.9216 19.2857 28.75 19.2857V14.4635L33.25 12.2135V23.7605L28.714 21.3845C28.0482 21.0357 27.25 21.5187 27.25 22.2703V28.25H3.75V7.75H27.25Z" fill="#040B29"/>
</svg>
