<svg width="28" height="28" viewBox="0 0 28 28" fill="none" xmlns="http://www.w3.org/2000/svg">
<path d="M14 2C20.59 2 26 7.00662 26 13.2081C26 19.4096 20.59 24.4162 14 24.4162C12.8853 24.4162 11.8291 24.2206 10.816 23.9444L10.438 23.8373L6 26V21.4924C3.57 19.4476 2 16.5121 2 13.2081C2 7.00662 7.41 2 14 2ZM14 3C7.92986 3 3 7.59141 3 13.2081C3 15.9869 4.23911 18.5858 6.39146 20.5084L6.64385 20.7272L7 21.0269V24.4L10.3433 22.7711L11.079 22.9797C12.1398 23.2688 13.0763 23.4162 14 23.4162C20.0701 23.4162 25 18.8248 25 13.2081C25 7.59141 20.0701 3 14 3ZM12.878 10.487L15.769 13.3345L19.817 11.116L15.124 15.5L12.2991 12.5368L8.158 15.35L12.878 10.487Z" fill="white"/>
</svg>
