<svg width="16" height="16" viewBox="0 0 16 16" fill="none" xmlns="http://www.w3.org/2000/svg">
<path d="M14.4421 14.997C10.9391 14.9751 7.58141 13.5944 5.07642 11.1458C2.5928 8.73839 1.13583 5.46428 1.01 2.00778V1.99479L1 1.9318V1H4.40551C5.13588 0.999527 5.77611 1.48816 5.96829 2.19275L5.99229 2.29272L6.48222 4.7182C6.5673 5.13279 6.48461 5.5642 6.25225 5.91795L6.18726 6.00993L4.64748 8.03649L4.59949 7.9975C4.40166 7.84868 4.27118 7.62726 4.23685 7.3821C4.20253 7.13695 4.26717 6.88821 4.41651 6.69078L5.39137 5.40906C5.48216 5.2887 5.52621 5.13951 5.51536 4.98915L5.49936 4.91116L5.01343 2.49068C4.96048 2.22586 4.74117 2.02643 4.4725 1.99879H4.40151H2.00786V2.01178C2.13324 5.14271 3.43589 8.11095 5.65533 10.323C7.87395 12.5471 10.8466 13.8576 13.9851 13.9952H13.9981V11.5567V11.4858C13.9677 11.2185 13.7673 11.002 13.5032 10.9509L11.0676 10.464L10.9896 10.453H10.9456C10.8106 10.4534 10.6794 10.4976 10.5716 10.5789L9.23482 11.5847C8.82223 11.8955 8.23603 11.8147 7.92301 11.4038L7.88502 11.3538L10.0617 9.72013C10.3244 9.54999 10.6306 9.45937 10.9436 9.45919C11.0514 9.45889 11.1589 9.46961 11.2645 9.49118L13.8002 10.0011C14.506 10.1898 14.9977 10.8282 15 11.5587V14.949H14.959V15L14.4421 14.997Z" fill="white"/>
</svg>
