<svg width="28" height="28" viewBox="0 0 28 28" fill="none" xmlns="http://www.w3.org/2000/svg">
<path d="M19 7.5C19.5128 7.5 19.9355 7.88604 19.9933 8.38338L20 8.5V20.5613C20 21.0741 19.614 21.4968 19.1166 21.5546L19 21.5613H8.0315L2 25.5V8.5C2 7.98716 2.38604 7.56449 2.88338 7.50673L3 7.5H19ZM24.25 2.5C25.1682 2.5 25.9212 3.20711 25.9942 4.10647L26 4.25V21.4964L21.499 18.386L21.5 8.5L21.4908 8.29699C21.3374 6.95473 20.2725 6 19 6H5.996L5.99667 4.5L6.00567 4.497L6.00667 4.2462C6.00866 3.32944 6.71531 2.57858 7.61335 2.50578L7.75666 2.5H24.25ZM16.5 11.5H5.5C5.5 12.2797 6.09489 12.9204 6.85554 12.9931L7 13H15C15.8284 13 16.5 12.3284 16.5 11.5Z" fill="white"/>
</svg>
