<svg width="145" height="45" viewBox="0 0 145 45" fill="none" xmlns="http://www.w3.org/2000/svg">
<path fill-rule="evenodd" clip-rule="evenodd" d="M51.5242 10.5039C44.818 10.5039 39.3629 15.8851 39.3629 22.4988C39.3629 29.1126 44.818 34.4951 51.5242 34.4951C58.2303 34.4951 63.6855 29.114 63.6855 22.4988C63.6855 15.8837 58.2303 10.5039 51.5242 10.5039ZM51.5514 28.7841C50.3064 28.7844 49.0894 28.416 48.0542 27.7257C47.0189 27.0354 46.212 26.0541 45.7354 24.9059C45.2588 23.7577 45.1339 22.4941 45.3766 21.2751C45.6194 20.0561 46.2187 18.9362 47.0989 18.0573C47.9791 17.1783 49.1006 16.5797 50.3216 16.3371C51.5426 16.0946 52.8082 16.2189 53.9583 16.6945C55.1085 17.1701 56.0916 17.9755 56.7833 19.0089C57.4749 20.0423 57.8441 21.2573 57.8441 22.5002C57.8438 24.1669 57.1809 25.7654 56.001 26.9446C54.8212 28.1238 53.2208 28.7874 51.5514 28.7895V28.7841ZM0 33.8701V11.1291H4.15121C4.68422 11.1291 5.10846 11.1454 5.56668 11.3517C6.0249 11.5581 6.31724 11.8622 6.66941 12.2694L17.9415 25.1006V13.0541C17.9261 12.7773 17.9536 12.4998 18.023 12.2314C18.0968 11.9911 18.2284 11.7724 18.4064 11.5947C18.5845 11.4169 18.8034 11.2855 19.0442 11.2119C19.313 11.1422 19.5909 11.1142 19.8682 11.1291H23.6468V33.8741H19.497C18.9626 33.8741 18.5357 33.8578 18.0788 33.6515C17.6219 33.4452 17.3296 33.1357 16.9774 32.7352L5.70537 19.9027V31.9451C5.72075 32.2223 5.69323 32.5003 5.62379 32.7691C5.55008 33.0095 5.41844 33.2281 5.24041 33.4059C5.06237 33.5836 4.84339 33.715 4.60264 33.7886C4.33368 33.8572 4.05586 33.8847 3.77865 33.8701H0ZM28.6612 33.872V13.056C28.6458 12.7792 28.6733 12.5017 28.7428 12.2334C28.8159 11.9929 28.9472 11.7742 29.1251 11.5964C29.3029 11.4186 29.5218 11.2872 29.7626 11.2139C30.0318 11.1441 30.3102 11.1162 30.5879 11.1311H34.353V33.872H28.6612ZM80.9543 10.5039C83.6465 10.5039 85.9349 10.8908 87.7528 11.6551C90.9169 12.9406 92.2141 14.9918 92.2086 18.7277C92.2086 19.7064 92.0727 21.0056 91.8007 22.5898L91.6933 23.2224H70.6816C70.804 27.8705 72.1175 30.4688 74.8831 31.6009C76.3707 32.2349 78.5122 32.5512 81.2561 32.5512C84.6377 32.5512 87.6862 32.0272 90.3173 30.9941L91.0298 30.7145L91.7327 32.5335L91.0189 32.805C90.2778 33.086 89.5314 33.3399 88.7155 33.5815C88.1485 33.7621 87.2402 33.9413 85.6942 34.1829C84.2059 34.4043 82.7024 34.5087 81.1976 34.4951C78.262 34.4951 75.9505 34.1707 74.3188 33.5313C70.4301 32.0204 68.6951 28.6171 68.6951 22.4988C68.6951 16.5611 70.6326 12.828 74.4521 11.4026C76.077 10.7971 78.2036 10.5039 80.9543 10.5039ZM75.102 13.2203C72.2793 14.2642 70.8298 16.9059 70.683 21.2852H90.0766C90.2019 20.4508 90.2633 19.6081 90.2602 18.7643C90.2602 15.809 89.4294 14.4597 86.9819 13.4198C85.4971 12.7642 83.5581 12.4465 81.044 12.4465C78.5013 12.4465 76.5012 12.7071 75.102 13.2203ZM115.528 11.8555C114.491 11.3559 113.31 11.1115 111.912 11.1115H97.219V33.8878H99.1661V24.3852H110.208C111.556 24.3852 112.792 24.3337 113.903 24.2305C116.802 23.9441 118.603 21.5155 118.603 17.8869C118.603 15.0592 117.422 12.7487 115.528 11.8555ZM99.1661 13.0555H111.851C113.081 13.0555 114.026 13.2374 114.693 13.608C115.904 14.2365 116.656 15.8642 116.656 17.8543C116.656 20.2109 115.897 21.6254 114.326 22.182C114.033 22.2906 113.238 22.4698 111.212 22.4698H99.1661V13.0555ZM141.632 12.0018C142.736 12.6426 143.587 13.8453 144.167 15.5802C144.717 17.2296 144.997 19.8143 145 23.2569C145 26.2733 144.702 28.4711 144.092 29.9793C143.438 31.5961 142.398 32.7432 141 33.3894C140.15 33.798 139.19 34.0708 137.99 34.2419C136.854 34.4088 135.286 34.493 133.319 34.493C130.434 34.5094 127.564 34.077 124.812 33.2115L124.081 32.9767L124.72 31.0599L126.421 31.6585C126.602 31.6925 126.849 31.7603 127.207 31.8622L127.274 31.8809C127.469 31.9357 127.66 31.9894 127.801 32.0223C129.609 32.3776 131.447 32.554 133.289 32.5491C135.368 32.5491 136.751 32.4812 137.64 32.3454C138.531 32.2034 139.402 31.955 140.234 31.6056C142.09 30.8114 143.042 28.2254 143.064 23.9153C142.308 24.18 141.31 24.476 140.051 24.8099C138.037 25.3123 135.97 25.5658 133.894 25.5647H130.231L128.858 25.4208C128.727 25.3846 128.553 25.3509 128.368 25.315L128.34 25.3095C128.115 25.266 127.868 25.2172 127.596 25.1506C125.789 24.742 123.613 23.3072 123.613 18.8274C123.613 16.6404 123.854 15.044 124.35 13.958C124.908 12.7349 125.902 11.8539 127.306 11.3421C128.773 10.7882 131.013 10.5059 133.955 10.5059C135.822 10.5059 137.356 10.6226 138.514 10.8547C139.609 11.0671 140.662 11.4545 141.632 12.0018ZM130.435 23.6248H133.894C135.753 23.6085 137.604 23.4001 139.42 23.0031C141.041 22.6406 142.245 22.2999 143.008 21.9877C142.929 17.3287 142.119 14.5268 140.596 13.6553C139.844 13.2167 139.024 12.9062 138.17 12.7362C137.266 12.5435 135.885 12.4485 133.955 12.4485C131.12 12.4485 129.145 12.6833 128.084 13.1449L128.047 13.1598C127.42 13.3946 127.344 13.4326 126.697 13.9933C125.983 14.6327 125.641 16.1192 125.559 18.9699C125.559 20.6519 125.99 22.7818 128.04 23.2488C128.256 23.3024 128.476 23.344 128.668 23.3804L128.733 23.3927L128.777 23.401C128.967 23.4373 129.149 23.4719 129.315 23.5135L130.435 23.6248Z" fill="white"/>
</svg>
