<svg width="161" height="45" viewBox="0 0 161 45" fill="none" xmlns="http://www.w3.org/2000/svg">
<path d="M49.0141 10.5001C46.6492 10.5289 44.3457 11.2571 42.3933 12.5931C40.4408 13.929 38.9268 15.8131 38.0416 18.0083C37.1565 20.2035 36.9397 22.6116 37.4187 24.9298C37.8976 27.2479 39.0508 29.3725 40.7333 31.0362C42.4157 32.7 44.5521 33.8285 46.8738 34.2798C49.1955 34.7312 51.5987 34.4852 53.781 33.5728C55.9633 32.6604 57.8273 31.1223 59.1384 29.1522C60.4495 27.182 61.1492 24.8677 61.1493 22.5005C61.1265 19.2996 59.8359 16.2385 57.5609 13.9887C55.2859 11.739 52.2122 10.4844 49.0141 10.5001ZM49.0414 28.8105C47.7991 28.8105 46.5846 28.4418 45.5516 27.7509C44.5186 27.0601 43.7135 26.0781 43.2381 24.9293C42.7626 23.7805 42.6382 22.5163 42.8806 21.2967C43.123 20.0771 43.7212 18.9568 44.5997 18.0776C45.4782 17.1983 46.5975 16.5995 47.816 16.3569C49.0345 16.1143 50.2975 16.2388 51.4453 16.7147C52.5931 17.1905 53.5741 17.9964 54.2643 19.0303C54.9546 20.0642 55.323 21.2798 55.323 22.5233C55.3218 24.1904 54.6596 25.7889 53.4818 26.9677C52.3041 28.1465 50.707 28.8093 49.0414 28.8105Z" fill="white"/>
<path d="M27.748 13.015V33.822H33.4241V11.0879H29.6688C29.3916 11.0727 29.1138 11.1004 28.845 11.1699C28.6055 11.2443 28.3878 11.3762 28.2109 11.5541C28.034 11.7319 27.9032 11.9504 27.8299 12.1904C27.7605 12.4594 27.7328 12.7376 27.748 13.015Z" fill="white"/>
<path d="M0 11.0879V33.822H3.77347C4.04918 33.8372 4.32556 33.8096 4.5928 33.74C4.8333 33.6666 5.05209 33.5351 5.22988 33.3572C5.40768 33.1792 5.53905 32.9602 5.61242 32.7195C5.6819 32.452 5.70954 32.1754 5.69435 31.8994V19.8626L16.9419 32.6967C17.2169 33.0981 17.5965 33.4164 18.0394 33.6172C18.4823 33.818 18.9717 33.8936 19.4545 33.8357H23.5967V11.0879H19.8278C19.5506 11.0727 19.2727 11.1004 19.0039 11.1699C18.7632 11.2429 18.5443 11.3744 18.3666 11.5526C18.1895 11.7311 18.0583 11.9499 17.9843 12.1904C17.9148 12.4594 17.8872 12.7376 17.9024 13.015V25.0655L6.65933 12.2314C6.38383 11.8303 6.00435 11.5119 5.56166 11.3104C5.11897 11.109 4.62982 11.032 4.14673 11.0879H0Z" fill="white"/>
<path d="M82.9845 33.8676V22.2864H68.4869V33.8676H66.83V11.0879H68.4869V20.6918H82.9845V11.0879H84.6413V33.8676H82.9845Z" fill="white"/>
<path d="M97.8371 34.2776C96.747 34.2763 95.6666 34.0723 94.6508 33.6763C93.6056 33.2792 92.6512 32.6751 91.8448 31.9C91.0384 31.125 90.3966 30.1951 89.9579 29.1659C88.9884 26.7603 88.9884 24.0723 89.9579 21.6668C90.4073 20.6171 91.0655 19.67 91.8924 18.8831C92.6941 18.1365 93.6323 17.5518 94.6554 17.1609C95.6709 16.7635 96.7513 16.558 97.8417 16.555C100.034 16.5705 102.143 17.4001 103.759 18.8831C104.596 19.6653 105.261 20.6133 105.712 21.6668C106.681 24.0723 106.681 26.7603 105.712 29.1659C105.258 30.2126 104.593 31.1541 103.759 31.9313C102.146 33.4189 100.035 34.2492 97.8417 34.2594L97.8371 34.2776ZM97.8371 32.6831C98.6981 32.6803 99.5502 32.5085 100.345 32.1773C101.175 31.8436 101.928 31.3463 102.562 30.7149C103.226 30.0613 103.762 29.2885 104.141 28.4369C104.541 27.4897 104.747 26.4719 104.747 25.4437C104.747 24.4154 104.541 23.3976 104.141 22.4504C103.761 21.5991 103.226 20.8265 102.562 20.1724C101.927 19.5411 101.174 19.0425 100.345 18.7054C99.5502 18.3743 98.6981 18.2024 97.8371 18.1997C96.9717 18.2032 96.1153 18.375 95.3154 18.7054C94.4805 19.0411 93.7207 19.5398 93.0804 20.1724C92.418 20.8277 91.8825 21.6 91.501 22.4504C91.1041 23.3983 90.8997 24.4159 90.8997 25.4437C90.8997 26.4715 91.1041 27.489 91.501 28.4369C91.8819 29.2876 92.4174 30.0601 93.0804 30.7149C94.3538 31.9592 96.0576 32.6642 97.8371 32.6831Z" fill="white"/>
<path d="M124.165 33.8676V30.9062C123.354 31.8966 122.361 32.7211 121.238 33.3346C120.274 33.8346 119.221 34.1391 118.139 34.2305C117.057 34.322 115.968 34.1987 114.934 33.8676C114.091 33.6028 113.315 33.16 112.658 32.5692C111.939 31.9103 111.368 31.1058 110.983 30.2092C110.519 29.0804 110.297 27.8666 110.332 26.6464V17.047H111.989V26.4642C111.966 27.4153 112.12 28.3624 112.444 29.257C112.715 29.985 113.142 30.6445 113.696 31.1887C114.222 31.696 114.855 32.079 115.548 32.3095C116.282 32.5521 117.051 32.6721 117.824 32.6648C119.106 32.6584 120.357 32.2681 121.416 31.5441C122.538 30.7913 123.472 29.7906 124.147 28.6192V17.047H125.804V33.8676H124.165Z" fill="white"/>
<path d="M130.729 31.298C131.497 31.7077 132.302 32.0463 133.132 32.3095C133.966 32.5535 134.831 32.6733 135.699 32.6648C136.303 32.6671 136.904 32.5905 137.488 32.437C138.034 32.3033 138.552 32.0735 139.018 31.7582C139.444 31.4613 139.804 31.0779 140.074 30.6329C140.35 30.1496 140.49 29.5999 140.479 29.0429C140.497 28.5784 140.359 28.1212 140.087 27.7444C139.806 27.3798 139.445 27.0851 139.031 26.8833C138.555 26.6419 138.054 26.4511 137.538 26.3138C136.983 26.1635 136.418 26.0314 135.831 25.922C135.139 25.7945 134.466 25.6304 133.783 25.4391C133.145 25.258 132.533 24.9945 131.962 24.6555C131.432 24.341 130.981 23.9074 130.647 23.3889C130.289 22.7931 130.114 22.1059 130.141 21.4116C130.129 20.7343 130.272 20.063 130.56 19.45C130.848 18.8369 131.273 18.2984 131.803 17.8762C132.345 17.4431 132.962 17.1127 133.624 16.9013C134.349 16.6689 135.106 16.5535 135.868 16.5596C136.818 16.5649 137.763 16.6936 138.681 16.9423C139.663 17.2095 140.589 17.6542 141.412 18.2544L140.729 19.7487C140.031 19.2503 139.264 18.8559 138.453 18.5778C137.6 18.2892 136.704 18.1459 135.804 18.1541C134.765 18.1185 133.745 18.4401 132.913 19.0653C132.549 19.3368 132.255 19.6922 132.057 20.1014C131.859 20.5107 131.763 20.9617 131.776 21.4162C131.757 21.8554 131.882 22.2886 132.131 22.6509C132.391 22.9955 132.73 23.2735 133.118 23.4618C133.582 23.6961 134.07 23.8765 134.575 23.9994C135.126 24.1407 135.727 24.2773 136.373 24.4049C137.019 24.5325 137.738 24.6965 138.398 24.8924C139.048 25.0733 139.669 25.3415 140.247 25.6897C140.798 26.0143 141.265 26.4637 141.612 27.0018C141.978 27.6196 142.158 28.3298 142.131 29.0474C142.139 29.7948 141.961 30.5324 141.612 31.1933C141.268 31.8413 140.789 32.4071 140.206 32.8516C139.584 33.3181 138.886 33.6741 138.144 33.904C137.358 34.155 136.538 34.2811 135.713 34.2776C134.755 34.2765 133.801 34.1478 132.877 33.8949C131.918 33.6316 130.989 33.2698 130.105 32.8152L130.729 31.298Z" fill="white"/>
<path d="M160.37 31.4302C159.642 32.2471 158.762 32.9154 157.78 33.3983C156.525 34.0066 155.141 34.3021 153.747 34.2594C152.547 34.2793 151.357 34.0416 150.256 33.5624C149.254 33.1129 148.353 32.4651 147.607 31.658C146.863 30.8453 146.287 29.8929 145.914 28.8561C145.52 27.7603 145.323 26.6035 145.331 25.4391C145.319 24.2629 145.502 23.0929 145.873 21.9766C146.216 20.9357 146.764 19.9738 147.484 19.1473C148.19 18.3403 149.059 17.6914 150.033 17.2429C151.084 16.7649 152.228 16.5253 153.383 16.5413C154.517 16.5219 155.642 16.744 156.683 17.1928C157.624 17.6127 158.454 18.2478 159.105 19.0471C159.782 19.9164 160.279 20.9124 160.566 21.9766C160.899 23.1955 161.042 24.4588 160.989 25.7216H146.979C147.007 26.7189 147.228 27.7012 147.63 28.6146C148.344 30.2381 149.659 31.5215 151.298 32.1956C152.089 32.5192 152.934 32.6848 153.788 32.6831C154.898 32.7092 155.998 32.4751 157.002 31.9997C157.841 31.5864 158.609 31.042 159.278 30.3869L160.37 31.4302ZM159.232 24.1088C159.209 23.3293 159.055 22.5592 158.777 21.8308C158.52 21.1288 158.128 20.4846 157.621 19.9355C157.108 19.3852 156.488 18.945 155.8 18.6416C155.03 18.3059 154.196 18.1397 153.356 18.1541C151.833 18.1469 150.365 18.7278 149.259 19.7761C148.697 20.3163 148.235 20.9518 147.894 21.6531C147.511 22.4291 147.249 23.2586 147.115 24.1133L159.232 24.1088Z" fill="white"/>
</svg>
