<svg width="36" height="36" viewBox="0 0 36 36" fill="none" xmlns="http://www.w3.org/2000/svg">
<mask id="mask0_5595_23858" style="mask-type:alpha" maskUnits="userSpaceOnUse" x="0" y="0" width="36" height="36">
<path d="M0 36H35.9986V0H0V36Z" fill="white"/>
</mask>
<g mask="url(#mask0_5595_23858)">
<path fill-rule="evenodd" clip-rule="evenodd" d="M18.3829 6C20.4128 6.04 23.8526 6.32 23.8526 6.32C25.0926 6.41 26.1826 7.14 26.7525 8.25L29.0324 12.75L31.9823 12.799C32.2023 14.53 30.5204 16.19 30.5204 16.19C31.7663 18.038 31.5423 22.9 31.3924 24.169C31.3694 24.304 31.3414 24.477 31.3024 24.58C31.2134 24.812 30.8824 25.48 30.8824 25.48L30.9524 28.96C30.9624 29.519 30.5124 29.979 29.9624 29.979L26.7825 30C26.2226 30 25.7726 29.54 25.7826 28.99L25.7926 27.27V26.25C25.7926 25.69 26.2426 25.25 26.7925 25.25H26.8125L26.7925 27.25L26.7825 29L29.9524 28.979L29.8824 25.5L29.8734 25.27L29.9624 25.07L29.9724 25.06L30.3924 24.169C30.4324 23.86 30.4624 23.53 30.4924 23.179C30.6924 20.759 30.4144 18.013 29.7704 16.86L29.1104 16.121L29.8514 15.384C30.1014 15.154 30.6324 14.469 30.8734 13.78L29.0224 13.75L28.4125 13.74L28.1425 13.2L25.8526 8.7C25.4526 7.91 24.6626 7.379 23.7826 7.31C23.762 7.31 22.1439 7.18238 20.4912 7.08962L20.0408 7.06531C19.4422 7.03437 18.8578 7.01 18.3629 7H17.9329C15.843 7 12.5131 7.219 12.4831 7.219C11.5531 7.28 10.7331 7.83 10.3332 8.66L8.17325 13.14L7.90326 13.71H5.02337C5.07337 14.24 5.26336 14.91 5.81334 15.4L6.62331 16.14L5.97333 16.71C5.87333 17.009 5.46335 18.46 5.59335 23.14C5.60334 23.45 5.61334 23.78 5.62334 24.129L5.99333 24.719L6.15332 24.969V24.99L6.14332 25.27L6.07333 28.939L9.2332 28.95L9.2732 26.62L9.2832 25.86L10.0232 25.669L11.8631 25.19L11.9931 25.16H12.1131L23.7926 25.179C24.3426 25.179 24.7926 25.629 24.7926 26.179H22.7927L12.1131 26.16L10.2732 26.64L10.2332 28.96C10.2332 29.51 9.78318 29.95 9.2332 29.95L6.07333 29.939C5.51335 29.939 5.06337 29.479 5.07337 28.92L5.14336 25.259L4.80338 24.71C4.79438 24.7 4.79438 24.69 4.78338 24.679C4.68338 24.52 4.62338 24.339 4.62338 24.14C4.40339 18.7021 4.84394 16.8707 5.04284 16.3355L5.06838 16.2703C5.07634 16.2512 5.08371 16.2344 5.09042 16.2199L5.11579 16.1692C5.1203 16.161 5.12402 16.1546 5.12685 16.15L5.13262 16.1411C5.13311 16.1403 5.13336 16.14 5.13336 16.14C3.66342 14.81 4.0444 12.71 4.0444 12.71H7.27328L9.4232 8.23C9.98318 7.07 11.1231 6.299 12.4131 6.219C12.4131 6.219 12.4427 6.21708 12.4982 6.21359L12.7382 6.19879C13.3239 6.16334 14.6177 6.08926 15.9315 6.04223L16.3949 6.02685C16.8569 6.01282 17.3113 6.00311 17.7279 6.00063L18.3829 6ZM13.5067 13.0001C14.2097 13.0001 14.6987 13.2375 15.1776 13.8345L15.258 13.9239L14.7089 14.6878L14.5754 14.519C14.2505 14.1226 13.9448 13.9736 13.4864 13.9736C12.8955 13.9736 12.5491 14.3997 12.5491 15.1259C12.5491 15.4438 12.6102 15.6921 12.7426 15.8401C12.8741 15.9901 13.1094 16.1193 13.3641 16.1689L13.9244 16.2881C14.4338 16.3974 14.7191 16.5454 14.9636 16.8434C15.2794 17.202 15.4424 17.7186 15.4424 18.3444C15.4424 19.6546 14.6783 20.5 13.4864 20.5C12.6509 20.5 12.0906 20.2119 11.571 19.4967L11.4997 19.4063L12.0804 18.6325L12.2129 18.8013C12.6 19.3169 12.9464 19.5066 13.4965 19.5066C14.1791 19.5066 14.5663 19.0894 14.5663 18.3643C14.5663 18.0166 14.4939 17.7384 14.3523 17.5785C14.2199 17.4305 14.1384 17.3798 13.7706 17.3004L13.1603 17.1712C12.7111 17.063 12.3453 16.8643 12.11 16.5762C11.8257 16.2385 11.6831 15.7716 11.6831 15.1557C11.6831 13.8445 12.3962 13.0001 13.5067 13.0001ZM22.5645 13.0001C23.2665 13.0001 23.7565 13.2375 24.2343 13.8345L24.3158 13.9239L23.7565 14.6789L23.6241 14.519C23.3072 14.1226 23.0016 13.9736 22.5329 13.9736C21.9522 13.9736 21.6058 14.3997 21.6058 15.1259C21.6058 15.4438 21.667 15.6812 21.8004 15.8312C21.9319 15.9901 22.1662 16.1193 22.4107 16.1689L22.9812 16.2881C23.4906 16.3865 23.7657 16.5365 24.0204 16.8335C24.3362 17.1921 24.4992 17.7186 24.4992 18.3444C24.4992 19.6546 23.7249 20.5 22.5329 20.5C21.6975 20.5 21.1474 20.2119 20.6176 19.5066L20.5565 19.4063L21.1372 18.6215L21.2696 18.8013C21.6466 19.3169 21.993 19.5066 22.5533 19.5066C23.2257 19.5066 23.6129 19.0894 23.6129 18.3643C23.6129 18.0166 23.5426 17.7384 23.4091 17.5785C23.2767 17.4196 23.1952 17.3709 22.8192 17.2904L22.2069 17.1623C21.7597 17.063 21.4123 16.8643 21.1576 16.5762C20.8723 16.2176 20.7297 15.7607 20.7297 15.1557C20.7297 13.8445 21.453 13.0001 22.5645 13.0001ZM18.071 13C18.6416 13 19.151 13.2771 19.5279 13.8046C20.0246 14.4658 20.0556 15.162 20.0576 16.4815V17.0249C20.0556 18.3383 20.0246 19.044 19.5279 19.7052C19.151 20.2218 18.6416 20.4999 18.071 20.4999C17.4995 20.4999 16.9901 20.2218 16.604 19.7052C16.1169 19.044 16.0864 18.3383 16.0845 17.0249V16.4815C16.0864 15.162 16.1169 14.4658 16.604 13.8046C16.9901 13.2771 17.4995 13 18.071 13ZM18.071 13.9934C17.7858 13.9934 17.4995 14.1513 17.3069 14.4304C17.0279 14.8151 16.976 15.2166 16.9711 16.5153V16.9912C16.976 18.2823 17.0279 18.6839 17.3069 19.0695C17.4995 19.3476 17.7858 19.5065 18.071 19.5065C18.3553 19.5065 18.6416 19.3476 18.8351 19.0695C19.1142 18.6839 19.166 18.2823 19.1709 16.9912V16.5153C19.166 15.2166 19.1142 14.8151 18.8351 14.4304C18.6416 14.1513 18.3553 13.9934 18.071 13.9934Z" fill="#040B29"/>
</g>
</svg>
