<svg width="36" height="36" viewBox="0 0 36 36" fill="none" xmlns="http://www.w3.org/2000/svg">
<path d="M21.8625 14.843L21.5031 15.2024C21.1049 15.6006 20.4868 15.6151 20.0063 15.3684C19.4048 15.0597 18.7229 14.8854 18 14.8854C15.5699 14.8854 13.6 16.8554 13.6 19.2854C13.6 20.0084 13.7742 20.6903 14.083 21.2918C14.3296 21.7723 14.3151 22.3904 13.917 22.7885L13.5575 23.148L13.4874 23.0643C12.6304 22.0419 12.1143 20.7238 12.1143 19.2854C12.1143 16.0348 14.7494 13.3997 18 13.3997C19.4384 13.3997 20.7565 13.9158 21.7788 14.7728L21.8625 14.843Z" fill="#040B29"/>
<path d="M22.9899 16.1601L23.0557 16.2703C23.5828 17.1522 23.8857 18.1836 23.8857 19.2854C23.8857 22.536 21.2506 25.1712 18 25.1712C16.8981 25.1712 15.8667 24.8683 14.9848 24.3412L14.8747 24.2754L15.4011 23.7489C15.7384 23.4117 16.2432 23.347 16.6811 23.4844C17.0974 23.615 17.5403 23.6854 18 23.6854C20.43 23.6854 22.4 21.7155 22.4 19.2854C22.4 18.8258 22.3295 18.3828 22.1989 17.9666C22.0615 17.5287 22.1262 17.0238 22.4635 16.6866L22.9899 16.1601Z" fill="#040B29"/>
<path fill-rule="evenodd" clip-rule="evenodd" d="M12.2483 5.14258C11.8394 5.14258 11.4717 5.39153 11.3198 5.77119L10.0284 8.99972H3.57129C3.019 8.99972 2.57129 9.44744 2.57129 9.99972V29.8569C2.57129 30.4091 3.01901 30.8569 3.57129 30.8569H32.4284C32.9807 30.8569 33.4284 30.4091 33.4284 29.8569V9.99972C33.4284 9.44744 32.9807 8.99972 32.4284 8.99972H25.9713L24.6799 5.77119C24.528 5.39153 24.1603 5.14258 23.7514 5.14258H12.2483ZM4.07129 10.4997H11.044L12.5868 6.64258H23.4129L24.9557 10.4997H31.9284V29.3569H4.07129V10.4997Z" fill="#040B29"/>
</svg>
