<svg width="28" height="28" viewBox="0 0 28 28" fill="none" xmlns="http://www.w3.org/2000/svg">
<path d="M25 4C25.5523 4 26 4.44772 26 5V7.00398C25.4477 7.00398 25 6.55626 25 6.00398V5H3V19.966L7.96623 15.3754L13.952 19.388L25.0004 8.86201L25.1662 8.70399L26 7.90963V23C26 23.5523 25.5523 24 25 24H3C2.44772 24 2 23.5523 2 23V5C2 4.44772 2.44772 4 3 4H25ZM25 10.179L14.0477 20.6566L8.033 16.624L3 21.272V23H25V10.179ZM8 8C8.82843 8 9.5 8.67157 9.5 9.5C9.5 10.3284 8.82843 11 8 11C7.17157 11 6.5 10.3284 6.5 9.5C6.5 8.67157 7.17157 8 8 8Z" fill="white"/>
</svg>
