<svg width="36" height="36" viewBox="0 0 36 36" fill="none" xmlns="http://www.w3.org/2000/svg">
<path fill-rule="evenodd" clip-rule="evenodd" d="M4 7.76297L4.33974 7.8047C5.13064 7.9129 5.90224 8.09684 6.51952 8.35653C9.44217 9.04901 16.1945 14.2921 16.4968 14.49H17.6054C19.9234 14.49 28.7921 15.6771 31.2109 17.161C32.3806 17.8676 32.0239 19.5206 31.5754 21.1342L31.4667 21.5201L31.4124 21.7116C31.3116 22.1073 31.2109 22.602 31.1101 22.8987L31.7148 23.2945C31.9163 23.4923 32.0171 23.888 31.9163 24.1848L31.1101 26.4601C31.0093 26.559 31.0093 26.658 30.9085 26.7569C30.2031 27.4494 27.8851 27.5483 26.1718 27.5483H25.3656C24.8617 30.0215 22.5437 32 19.8226 32C17.0007 32 14.7836 30.0215 14.2797 27.4494L5.41093 27.3504C4.60469 27.3504 4 26.7569 4 25.9655V25.7676L14.2797 25.8665L14.3097 25.6374C14.7167 22.9828 17.0791 21.0191 19.8226 21.0191C22.6445 21.0191 25.0632 23.0966 25.3656 25.8665L25.6687 25.8655C27.2884 25.8546 28.9344 25.756 29.5984 25.5698L30.1023 24.0859L29.6991 23.6902C29.4976 23.5912 29.3968 23.2945 29.3968 23.0966C29.3968 22.602 29.5984 22.0084 29.7999 21.217C30.0015 20.5245 30.5054 18.8428 30.3038 18.447L30.144 18.3558C27.9639 17.1998 19.9622 16.0728 17.6054 16.0728C16.6984 16.0728 15.5898 16.1717 14.3804 16.2707C13.5742 16.2707 12.7679 16.3696 12.0625 16.3696C10.9905 16.4505 9.04155 16.4652 6.7675 16.4679L5.20937 16.4685C4.60469 16.4685 4 15.9739 4 15.2814V14.8857L4.40301 14.8852C7.49094 14.8776 10.5172 14.7868 12.0625 14.7868C12.7679 14.6878 13.4734 14.6878 14.1789 14.5889C11.7601 12.9072 8.03124 10.2361 6.21718 9.84043C5.81406 9.7415 5.31015 9.64257 4.90703 9.54365C4.40312 9.44472 4 9.04901 4 8.55438V7.76297ZM23.6523 26.559C23.6523 24.1848 21.4351 22.2063 18.8148 22.7998C17.4039 23.0966 16.1945 24.2837 15.8922 25.6687C15.2875 28.1419 17.2023 30.4172 19.7218 30.4172C21.939 30.4172 23.7531 28.6365 23.6523 26.559ZM17.2672 9.41536L17.3881 9.42113L18.2753 9.60624C19.5323 9.8685 20.6178 10.5171 21.3443 11.4903L21.4944 11.7038L21.9737 12.4281L21.752 12.6406C21.3369 13.0383 20.726 12.9432 20.3586 12.4937L20.2838 12.3921L20.1657 12.2236C19.6808 11.5697 19.0105 11.1041 18.289 10.9634L18.091 10.9331C18.0182 10.9179 17.9424 10.9095 17.8353 10.904L17.4638 10.8901L17.3684 10.881L17.1829 10.8448C16.7648 10.7576 16.4219 10.4287 16.3228 10.0204L16.3006 9.8957L16.2583 9.52706L17.2672 9.41536ZM17.1351 6.71904C17.7765 6.70916 18.4628 6.77579 19.0796 6.90449C20.9357 7.29175 22.562 8.38474 23.7077 9.98607L23.8846 10.2431L24.3638 10.9675L24.1421 11.1799C23.727 11.5777 23.1162 11.4825 22.7458 11.0285L22.6703 10.9258L22.5183 10.6866C21.6625 9.40491 20.3863 8.54247 18.8954 8.23139C18.326 8.1126 17.7534 8.06552 17.2358 8.09497L16.9818 8.11609L16.8609 8.11032L16.811 8.0993L16.7694 8.1024C16.3519 8.10689 15.9435 7.88597 15.794 7.52433L15.7598 7.42227L15.7396 7.31362L15.7029 6.9939L16.0201 6.91299L16.7538 6.7345L17.1351 6.71904ZM19.2837 4.13082L19.6657 4.20255C22.3208 4.75652 24.6454 6.40182 26.154 8.78376L26.3311 9.07311L26.8056 10.0008L26.4225 10.1504C25.9223 10.3457 25.3643 10.2087 25.1168 9.76798L25.0887 9.70826C23.8715 7.62376 21.9354 6.14145 19.7472 5.68051L19.4604 5.62621C18.4766 5.42094 17.6536 5.35566 16.8443 5.45196L16.6858 5.47351L16.6694 5.54956L16.4693 5.50723L16.2956 5.53733L16.2445 5.46034L16.2003 5.46332C15.8013 5.45598 15.4746 5.19001 15.2786 4.79631L15.2237 4.6745L15.0324 4.20226L15.5489 4.16729L16.2052 4.1242L16.2193 4.05962L16.2588 4.11921L16.6136 4.06777C17.4848 3.9593 18.3903 3.98155 19.2837 4.13082Z" fill="#009292"/>
</svg>
