<svg width="28" height="28" viewBox="0 0 28 28" fill="none" xmlns="http://www.w3.org/2000/svg">
<path fill-rule="evenodd" clip-rule="evenodd" d="M25.39 5C25.731 5 26.008 5.277 26.008 5.618V22.247C26.008 22.661 25.672 22.997 25.258 22.997H2.753C2.337 22.997 2 22.66 2 22.244V5.748C2 5.335 2.335 5 2.748 5H25.39ZM24.5081 12.4975L3.5 12.497V21.497H24.508L24.5081 12.4975ZM22.9966 17.4975C22.9966 17.4975 22.9966 18.9975 21.4996 18.9975H18.4976C16.9996 18.9975 16.9996 17.4975 16.9996 17.4975H22.9966ZM24.508 6.5H3.5V10.997H24.508V6.5Z" fill="white"/>
</svg>
