<svg width="28" height="28" viewBox="0 0 28 28" fill="none" xmlns="http://www.w3.org/2000/svg">
<path d="M7.06667 10.9494C7.62908 10.9494 8.085 10.4789 8.085 9.89859C8.085 9.31823 7.62908 8.84775 7.06667 8.84775C6.50426 8.84775 6.04834 9.31823 6.04834 9.89859C6.04834 10.4789 6.50426 10.9494 7.06667 10.9494Z" fill="#040B29"/>
<path d="M12.7 10.9494C13.2624 10.9494 13.7183 10.4789 13.7183 9.89859C13.7183 9.31823 13.2624 8.84775 12.7 8.84775C12.1376 8.84775 11.6817 9.31823 11.6817 9.89859C11.6817 10.4789 12.1376 10.9494 12.7 10.9494Z" fill="#040B29"/>
<path d="M25.2667 23.1694C25.2058 23.1806 25.1434 23.1806 25.0825 23.1694L22.9158 22.3569C21.8429 22.8099 20.6897 23.0421 19.525 23.0394C15.4083 23.0394 12.05 20.2336 12.05 16.7886C12.05 13.3436 15.4083 10.5378 19.525 10.5378C23.6417 10.5378 27 13.3436 27 16.7886C26.9831 18.2519 26.3962 19.651 25.3642 20.6886L25.83 22.5303C25.8506 22.6278 25.8455 22.7291 25.8151 22.8241C25.7847 22.919 25.7301 23.0045 25.6567 23.0719C25.544 23.1532 25.4044 23.1882 25.2667 23.1694ZM19.4925 11.6211C15.9717 11.6211 13.1008 13.9394 13.1008 16.7886C13.1008 19.6378 15.9717 21.9561 19.4925 21.9561C20.579 21.9574 21.6534 21.7284 22.645 21.2844C22.7769 21.2302 22.9248 21.2302 23.0567 21.2844L24.4975 21.8261L24.205 20.6778C24.1837 20.5845 24.1876 20.4872 24.2161 20.3958C24.2447 20.3045 24.2969 20.2224 24.3675 20.1578C24.8336 19.7314 25.2083 19.2149 25.469 18.6395C25.7297 18.0641 25.871 17.4418 25.8842 16.8103C25.9167 13.9069 23.0133 11.6211 19.4925 11.6211Z" fill="#040B29"/>
<path d="M18.2683 9.35692C18.1192 9.46109 17.9491 9.53134 17.77 9.56275C17.5659 9.60028 17.3552 9.57838 17.1632 9.49963C16.9711 9.42089 16.8057 9.28863 16.6867 9.11859C15.8648 8.14414 14.8346 7.36667 13.672 6.84354C12.5095 6.32042 11.2444 6.06498 9.97 6.09609C5.57167 6.09609 1.98584 9.01026 1.98584 12.5961C1.99879 13.39 2.17472 14.1727 2.5027 14.8957C2.83068 15.6188 3.30373 16.2668 3.8925 16.7994C3.96305 16.8662 4.01436 16.9507 4.04104 17.0441C4.06772 17.1375 4.0688 17.2363 4.04416 17.3303L3.64334 18.9661L5.61263 18.2294C5.69253 18.192 5.74382 18.1636 5.82083 18.1636C5.89785 18.1636 5.95888 18.1886 6.04834 18.2294C7.27924 18.7909 8.61711 19.0792 9.97 19.0744H10.4575C10.7281 19.0923 10.9841 19.2036 11.1817 19.3894C11.3793 19.5751 11.5063 19.8238 11.5408 20.0928L10.5442 20.1578H9.94834C8.51531 20.1602 7.09659 19.8727 5.7775 19.3128L3.10167 20.2878C3.00163 20.3121 2.91276 20.3121 2.91276 20.3121C2.84682 20.3135 2.75923 20.2855 2.69786 20.2613C2.6365 20.2371 2.565 20.1806 2.5177 20.1347C2.47039 20.0887 2.41991 19.999 2.39115 19.905C2.36239 19.8111 2.36084 19.7109 2.38667 19.6161L2.96083 17.2761C1.72938 16.0221 1.02732 14.3426 1 12.5853C1 8.41442 5.07334 5.00192 10.0675 5.00192C11.5107 4.97305 12.9419 5.26972 14.2548 5.86988C15.5676 6.47003 16.7284 7.35826 17.6508 8.46859C17.6508 8.46859 18.3333 9.34609 18.2683 9.35692Z" fill="#040B29"/>
<path d="M17.2283 15.7811C17.689 15.7811 18.0625 15.3931 18.0625 14.9144C18.0625 14.4358 17.689 14.0478 17.2283 14.0478C16.7676 14.0478 16.3942 14.4358 16.3942 14.9144C16.3942 15.3931 16.7676 15.7811 17.2283 15.7811Z" fill="#040B29"/>
<path d="M21.8542 15.7811C22.3149 15.7811 22.6883 15.3931 22.6883 14.9144C22.6883 14.4358 22.3149 14.0478 21.8542 14.0478C21.3935 14.0478 21.02 14.4358 21.02 14.9144C21.02 15.3931 21.3935 15.7811 21.8542 15.7811Z" fill="#040B29"/>
</svg>
