<svg width="36" height="36" viewBox="0 0 36 36" fill="none" xmlns="http://www.w3.org/2000/svg">
<path d="M23.7946 15.0027C22.8619 13.6727 21.1214 12.0727 18.143 11.9827C15.1124 11.9137 13.208 13.7227 12.1739 15.1727C11.564 16.0091 11.2565 16.7331 11.1906 16.8884C11.1856 16.9002 11.182 16.9087 11.1798 16.9137C11.2217 16.9407 11.4767 17.0127 11.621 17.0127C11.9691 17.0127 12.2855 16.8427 12.4708 16.5727C13.1159 15.3827 14.8359 12.9827 17.9167 12.9827H18.1123C21.2442 13.0837 22.7503 15.0627 23.3738 16.2227C23.3738 16.2276 23.3763 16.2301 23.3788 16.2327C23.3814 16.2353 23.3841 16.2381 23.3841 16.2437C23.5387 16.6027 23.9073 16.8527 24.327 16.8527C24.3977 16.8527 24.4704 16.8427 24.5308 16.8337C24.6035 16.8227 24.6639 16.8027 24.7161 16.7727C24.7138 16.7668 24.7104 16.7572 24.7056 16.744C24.6457 16.5775 24.3828 15.8468 23.7946 15.0027Z" fill="white"/>
<path d="M27.8383 12.8931C26.4357 10.8431 23.446 7.71312 18.2653 7.61212C13.0437 7.53312 9.77861 10.8221 8.23157 12.9231C7.59795 13.7895 7.25297 14.4565 7.17631 14.6047C7.17245 14.6122 7.16927 14.6183 7.16677 14.6231C7.21898 14.6831 7.51488 14.7531 7.65822 14.7531C8.00633 14.7531 8.32372 14.5721 8.50801 14.3131C8.51825 14.2981 8.52593 14.2856 8.53361 14.2731C8.54129 14.2606 8.54897 14.2481 8.55921 14.2331C9.6752 12.4731 12.8092 8.48312 18.2448 8.61212C23.876 8.72312 26.6199 12.6431 27.5414 14.2931C27.7257 14.5531 28.0329 14.7331 28.3912 14.7331C28.5011 14.7331 28.606 14.7035 28.712 14.6737C28.7245 14.6701 28.737 14.6666 28.7496 14.6631C28.7681 14.658 28.7821 14.6523 28.7962 14.6465C28.8071 14.642 28.8181 14.6375 28.8315 14.6331C28.8212 14.6031 28.5141 13.8731 27.8383 12.8931Z" fill="white"/>
<path d="M32.0262 10.7932C30.2856 8.07222 26.0663 3.15222 18.2646 3.00322C10.3922 2.85322 5.87702 7.98222 4.02385 10.7632C3.33787 11.7722 3.01024 12.4632 3 12.4932C3.01058 12.4984 3.02048 12.5036 3.03004 12.5085C3.05751 12.5229 3.08225 12.5358 3.11262 12.5432C3.22525 12.5832 3.34811 12.6122 3.48121 12.6122C3.82932 12.6122 4.14671 12.4332 4.33101 12.1732C4.34125 12.1532 4.35404 12.1332 4.36684 12.1132C4.37964 12.0932 4.39244 12.0732 4.40268 12.0532C5.74392 9.78322 10.0646 3.83322 18.2451 4.00322C26.354 4.15222 30.3358 9.83322 31.5962 12.0432C31.6154 12.0804 31.6311 12.1085 31.6462 12.1356C31.6599 12.1603 31.6732 12.1841 31.6883 12.2132C31.8716 12.4732 32.19 12.6522 32.5381 12.6522C32.6804 12.6522 32.8146 12.6232 32.9364 12.5722C32.9508 12.5662 32.9642 12.5597 32.978 12.5531C32.9848 12.5498 32.9917 12.5465 32.9988 12.5432C32.9927 12.531 32.9827 12.5103 32.969 12.4815C32.8688 12.2719 32.5654 11.6373 32.0262 10.7932Z" fill="white"/>
<path fill-rule="evenodd" clip-rule="evenodd" d="M25.5696 31.0014C26.6596 31.0014 27.5796 30.2514 27.8596 29.2314L28.0101 29.2308L29.5701 29.1808C29.9901 29.1718 30.3701 28.8908 30.4901 28.4808L30.8601 27.3008C30.8644 27.2879 30.8685 27.2733 30.8726 27.2584C30.8782 27.2386 30.8838 27.2184 30.8901 27.2018C30.9001 27.1718 30.9001 27.1318 30.9001 27.1008C30.9001 27.0018 30.8701 26.9018 30.8101 26.8218C30.8004 26.8121 30.7912 26.8006 30.782 26.789C30.7712 26.7755 30.7604 26.762 30.7491 26.7518L30.5501 26.4708L30.7401 25.6518C30.8501 25.1518 30.5801 24.6518 30.0891 24.4808C29.3501 24.2308 28.2801 23.8818 27.5601 23.7208C26.7491 23.5608 24.3001 23.3318 24.3001 23.3318L21.2301 21.2418C21.2301 21.2418 20.2001 20.3508 15.5701 20.3008H15.1601C11.8501 20.3008 8.7091 20.7308 7.4301 20.9418C7.2001 20.9918 7.0301 21.1918 7.0301 21.4308C7.0301 21.5018 7.0391 21.5718 7.0701 21.6318L7.1101 21.7118L7.1901 21.9018C7.1901 21.9018 6.4401 22.3218 6.0501 22.6218C5.7601 22.8418 5.5301 23.1218 5.3901 23.3218C5.2801 23.4618 5.2091 23.6318 5.2091 23.8108C5.2001 24.5208 5.6001 25.4808 5.6001 25.4808L5.3201 25.7118C5.29364 25.7374 5.27593 25.7484 5.25265 25.7629C5.24866 25.7654 5.24449 25.768 5.2401 25.7708C5.1601 25.8618 5.1001 25.9918 5.1001 26.1218C5.1001 26.1518 5.1001 26.1918 5.1101 26.2208C5.2491 27.1318 5.4801 27.6518 5.6291 27.9308C5.7301 28.1118 5.8791 28.2518 6.0701 28.3218C6.8391 28.6408 8.4901 28.9518 8.4901 28.9518L8.5295 28.9514C8.6995 30.1114 9.6805 31.0014 10.8695 31.0014C12.0395 31.0014 13.0105 30.1414 13.2001 29.0208L23.2696 29.1614C23.5196 30.2114 24.4496 31.0014 25.5696 31.0014ZM9.6495 27.9714C9.8695 27.5114 10.3295 27.2014 10.8695 27.2014C11.4195 27.2014 11.8905 27.5314 12.1095 28.0114C12.1905 28.1914 12.2395 28.3914 12.2395 28.6014C12.2395 28.7414 12.2205 28.8714 12.1695 29.0014C12.0105 29.5814 11.4805 30.0014 10.8695 30.0014C10.2395 30.0014 9.7095 29.5614 9.5605 28.9714C9.5205 28.8614 9.4995 28.7304 9.4995 28.6014C9.4995 28.3714 9.5505 28.1614 9.6495 27.9714ZM24.2696 28.1814C24.4396 27.6114 24.9496 27.2014 25.5696 27.2014C26.1996 27.2014 26.7206 27.6214 26.8796 28.2114C26.9196 28.3314 26.9396 28.4614 26.9396 28.6014C26.9396 28.8214 26.8906 29.0314 26.7896 29.2114C26.5796 29.6814 26.1096 30.0014 25.5696 30.0014C25.0106 30.0014 24.5396 29.6614 24.3296 29.1814C24.2396 29.0014 24.1996 28.8114 24.1996 28.6014C24.1996 28.4514 24.2206 28.3114 24.2696 28.1814ZM17.0462 21.3506L17.0501 21.3508C19.5701 21.5108 20.4591 21.9418 20.6001 22.0208L20.6601 22.0608L22.6986 23.4729C21.1927 23.5084 19.2761 23.5337 17.8907 23.4808L17.7384 23.4819L17.0462 21.3506ZM15.1601 21.3008H15.5601C15.708 21.3008 15.8481 21.3008 15.9871 21.3106L15.9997 21.3674C16.0129 21.4099 16.4308 22.695 16.6826 23.4673C16.2087 23.4447 15.5795 23.3839 14.6197 23.2208C13.9555 23.1076 13.2942 23.0622 12.6794 23.0567L13.043 21.362L13.0501 21.3618C13.7301 21.3218 14.4401 21.3008 15.1601 21.3008ZM28.0201 28.2308H27.9101L27.9126 28.2492C27.9116 28.2432 27.9111 28.2367 27.9101 28.2308C27.7401 27.0808 26.7606 26.2014 25.5696 26.2014L25.4052 26.207C24.319 26.282 23.4301 27.0947 23.2396 28.1614L13.1691 28.0198C12.9185 26.9706 11.9799 26.2014 10.8695 26.2014C9.84005 26.2014 8.96224 26.8614 8.63201 27.7941L8.5801 27.9618C7.7301 27.7918 6.8501 27.5608 6.4901 27.4218C6.4101 27.2608 6.2601 26.9218 6.1401 26.3318L6.2301 26.2608L6.8101 25.7918L6.5201 25.0918C6.3501 24.6918 6.2201 24.1808 6.2091 23.8908L6.21153 23.8877C6.32243 23.7489 6.48141 23.5498 6.6601 23.4118C6.9301 23.2118 7.4901 22.8818 7.6801 22.7818L8.4701 22.3318L8.2491 21.8318L8.48544 21.7985C9.38265 21.6739 10.6156 21.5228 12.0081 21.4219L11.6511 23.0828L11.5197 23.0908C10.399 23.1712 9.61136 23.3482 9.5519 23.3615L9.5507 23.3618C9.5507 23.3618 9.5637 23.4368 9.5697 23.4618C9.6757 23.8838 10.0697 24.1918 10.5297 24.1918C10.5897 24.1918 10.7397 24.1718 10.7397 24.1718C11.6297 24.0608 13.0397 23.9618 14.4497 24.2118C16.0017 24.4817 16.7545 24.4812 17.3442 24.4808C17.3662 24.4808 17.3881 24.4808 17.4097 24.4808H17.8597C18.3997 24.5018 19.0297 24.5108 19.6897 24.5108C19.7707 24.5108 19.852 24.5107 19.9336 24.5104L20.4259 24.5079C22.3746 24.4934 24.3579 24.4275 24.9444 24.4072L24.9801 24.4118L24.9981 24.4058L25.0035 24.4045C25.0098 24.4051 25.0158 24.4075 25.0201 24.4118C25.8391 24.4918 26.9101 24.6118 27.3501 24.7018C28.0201 24.8418 29.0501 25.1808 29.7601 25.4308L29.5701 26.2418L29.4701 26.7018L29.7491 27.0718L29.8501 27.2018L29.5391 28.1808L28.0201 28.2308ZM27.9267 28.3518L27.9126 28.2492C27.9182 28.2832 27.9229 28.3174 27.9267 28.3518Z" fill="white"/>
</svg>
