<svg width="87" height="31" viewBox="0 0 87 31" fill="none" xmlns="http://www.w3.org/2000/svg">
<path fill-rule="evenodd" clip-rule="evenodd" d="M8.58059 15.7008C8.86576 15.3947 8.94676 15.1181 9.07783 14.6704C9.15547 14.4053 9.25067 14.0802 9.41627 13.6534C9.81899 12.6161 10.4473 11.6996 11.2375 10.9598C12.6318 9.65494 14.4465 8.97159 16.2816 8.97139C18.1163 8.97159 19.931 9.65494 21.3256 10.9598C22.1155 11.6996 22.7443 12.6161 23.1468 13.6534C23.3124 14.0801 23.4075 14.4052 23.4851 14.6703C23.6162 15.118 23.6972 15.3947 23.9824 15.7008C24.4244 16.1754 24.8892 16.2872 26.3347 16.2872H32.5633C32.5633 11.6095 30.5424 7.32715 27.2886 4.35881C24.2219 1.56168 20.2728 0.100011 16.2816 0.0996094C12.2901 0.100011 8.34108 1.56168 5.27428 4.35881C2.02021 7.32715 0 11.6095 0 16.2872H6.2284C7.67377 16.2872 8.13885 16.1754 8.58059 15.7008ZM30.8699 23.4747C29.8531 22.4636 27.2526 19.8782 25.7916 18.4257L24.8541 17.4935L24.7291 17.3691C24.1868 16.8289 23.9147 16.5579 23.5866 16.422C23.2563 16.2852 22.8692 16.2856 22.0923 16.2862L21.922 16.2863H10.6409L10.4706 16.2862C9.69369 16.2856 9.3066 16.2852 8.97626 16.422C8.64822 16.5578 8.37614 16.8288 7.83388 17.3688L7.70853 17.4935C7.02758 18.1706 3.01727 22.1579 1.69307 23.4747C3.08104 26.259 5.21788 28.5356 7.7918 30.0996C9.33248 28.5684 13.9523 23.975 14.7219 23.2098C15.3527 22.5822 15.6326 22.3396 15.9741 22.2354C16.0834 22.2022 16.1721 22.1791 16.2814 22.1791C16.3933 22.1791 16.4794 22.2022 16.5887 22.2354C16.9304 22.3396 17.2101 22.5822 17.8409 23.2098L24.7706 30.0996C27.3451 28.5356 29.4819 26.259 30.8699 23.4747ZM73.3128 16.2805C73.3128 18.8432 75.4096 20.9278 77.9872 20.9278C80.5643 20.9278 82.6612 18.8432 82.6612 16.2805C82.6612 13.7178 80.5643 11.633 77.9872 11.633C75.4096 11.633 73.3128 13.7178 73.3128 16.2805ZM68.9347 16.2796C68.9347 11.3877 72.9868 7.40787 77.9673 7.40787C82.948 7.40787 87 11.3877 87 16.2796C87 21.1718 82.948 25.1518 77.9673 25.1518C72.9868 25.1518 68.9347 21.1718 68.9347 16.2796ZM62.1353 9.26486V24.6609H66.3624V7.84158H63.5668C63.3193 7.84158 63.1444 7.845 62.9546 7.90207C62.775 7.95622 62.6141 8.05268 62.4809 8.18522C62.3478 8.31765 62.2506 8.47751 62.1963 8.65596C62.1389 8.84466 62.1353 9.01879 62.1353 9.26486ZM41.4829 24.6609V7.84158H44.566C44.9623 7.84158 45.2788 7.85283 45.6182 8.00596C45.9577 8.15889 46.1751 8.38768 46.4364 8.68409L54.8081 18.1752V9.26486C54.8081 9.01879 54.8118 8.84466 54.8691 8.65596C54.9233 8.47751 55.0205 8.31765 55.1537 8.18522C55.2869 8.05268 55.4479 7.95622 55.6274 7.90207C55.8172 7.845 55.9922 7.84158 56.2398 7.84158H59.0462V24.6609H55.9632C55.5668 24.6609 55.2504 24.6494 54.9109 24.4965C54.5714 24.3434 54.3541 24.1146 54.0928 23.8184L45.7212 14.327V23.2376C45.7212 23.4837 45.7175 23.6576 45.6602 23.8462C45.6057 24.0249 45.5087 24.1848 45.3756 24.3173C45.2421 24.4496 45.0814 24.5463 44.9018 24.6002C44.7121 24.6572 44.537 24.6609 44.2895 24.6609H41.4829Z" fill="white"/>
</svg>
