<svg width="48" height="48" viewBox="0 0 48 48" fill="none" xmlns="http://www.w3.org/2000/svg">
<path fill-rule="evenodd" clip-rule="evenodd" d="M28.2805 5.2428C27.4575 4.91907 26.5425 4.91907 25.7195 5.2428L12.6341 10.39C12.2516 10.5405 12 10.9099 12 11.3212V23.4891L12 23.4904L12 23.4941L12.0001 23.5057L12.0009 23.5453C12.0018 23.579 12.0034 23.6271 12.0067 23.6889C12.0131 23.8123 12.0259 23.9904 12.0511 24.217C12.1013 24.6702 12.2012 25.3178 12.3995 26.1112C12.9353 25.9771 13.2566 25.4342 13.1594 24.8902C13.1046 24.5828 13.0686 24.3194 13.0449 24.1066C13.022 23.9002 13.0108 23.7415 13.0053 23.6364C13.0025 23.5839 13.0012 23.5448 13.0006 23.5199L13.0001 23.4932L13 23.4876V11.3212L26.0854 6.17406C26.6732 5.94283 27.3268 5.94283 27.9146 6.17406L41 11.3212L41 23.4887L40.9999 23.4964L40.9992 23.5329C40.9983 23.5665 40.9965 23.6184 40.9929 23.6875C40.9856 23.8258 40.9707 24.0328 40.9406 24.3C40.8805 24.8344 40.7594 25.6085 40.5159 26.5527C40.0288 28.4411 39.0527 31.0079 37.0956 33.7006C35.1573 36.3675 32.4796 38.1998 30.2663 39.3686C29.1625 39.9515 28.1815 40.3655 27.478 40.6333C27.1264 40.7672 26.8446 40.8643 26.652 40.9276C26.5625 40.957 26.4924 40.9791 26.4434 40.9941L26.4341 40.993L26.4086 40.9899C26.3259 40.9789 26.1904 40.9556 26.002 40.9058C25.7844 40.8484 25.4958 40.7556 25.1361 40.6059C24.6262 40.3937 24.0238 40.5737 23.7662 41.0626C24.6301 41.5183 25.2904 41.7528 25.7469 41.8734C25.9751 41.9336 26.1521 41.9653 26.2777 41.9819C26.3405 41.9902 26.3903 41.9947 26.4273 41.9972C26.4458 41.9984 26.461 41.9991 26.473 41.9995L26.4885 41.9999L26.4945 42L26.497 42L26.4987 42L26.5693 42L26.6376 41.9805L26.6391 41.98L26.644 41.9786L26.6614 41.9735C26.6762 41.9691 26.6976 41.9627 26.7253 41.9543C26.7807 41.9373 26.861 41.9121 26.964 41.8783C27.1699 41.8106 27.4663 41.7084 27.8335 41.5686C28.5676 41.2892 29.5867 40.8589 30.7331 40.2536C33.0201 39.0458 35.8427 37.1258 37.9044 34.2892C39.9473 31.4784 40.9712 28.7919 41.4841 26.8028C41.7406 25.8083 41.8695 24.9877 41.9344 24.412C41.9668 24.1241 41.9832 23.8973 41.9915 23.7404C41.9956 23.662 41.9978 23.601 41.9989 23.5586L41.9995 23.5293L41.9998 23.5091L42 23.495L42 23.4907L42 23.4893V11.3212C42 10.9099 41.7484 10.5405 41.3659 10.39L28.2805 5.2428ZM24.3293 14.8595L20.5053 18.2076C20.2082 18.4678 19.7603 18.4528 19.4811 18.1735L18.1465 16.838C18.537 16.4472 19.1702 16.4472 19.5607 16.838L20.0228 17.3004L22.9182 14.7653C23.3338 14.4014 23.9656 14.4436 24.3293 14.8595ZM36 15.9836H28C28 16.5362 28.4477 16.9842 29 16.9842H35C35.5523 16.9842 36 16.5362 36 15.9836ZM20.5053 25.212L24.3293 21.8639C23.9656 21.448 23.3338 21.4059 22.9182 21.7698L20.0228 24.3049L19.5607 23.8424C19.1702 23.4517 18.537 23.4517 18.1465 23.8424L19.4811 25.1779C19.7603 25.4573 20.2082 25.4722 20.5053 25.212ZM34 22.988H28C28 23.5407 28.4477 23.9887 29 23.9887H33C33.5523 23.9887 34 23.5407 34 22.988ZM10.4543 28.8971C10.7758 28.6679 11.193 28.5 11.729 28.5H17.271C17.8028 28.5 18.2161 28.6667 18.5359 28.8947C18.9979 29.224 19.2658 29.6943 19.3666 29.9893L20.6746 33.4907L20.8695 33.5753C21.1724 33.7067 21.437 33.92 21.6339 34.1899C21.8636 34.5046 22 34.8937 22 35.3141V37.8302C22 38.153 21.871 38.4459 21.6635 38.6585C21.485 38.8413 21.2975 39.0012 20.9381 39.0032L20.4409 39.0061V40.3935C20.4258 40.5505 20.3562 40.6938 20.2507 40.8019C20.1284 40.9271 19.9639 41 19.7885 41C19.613 41 19.4485 40.9271 19.3263 40.8019C19.2064 40.6791 19.1329 40.5111 19.1329 40.3284V39.0032H9.86713V40.3284C9.86713 40.5111 9.79358 40.6791 9.67373 40.8019C9.55148 40.9271 9.38696 41 9.21154 41C9.03611 41 8.8716 40.9271 8.74934 40.8019C8.6295 40.6791 8.55594 40.5111 8.55594 40.3284V39.0302L8.10979 38.9818C7.8554 38.9543 7.69894 38.9038 7.59469 38.8529C7.49365 38.8035 7.41853 38.7425 7.33654 38.6585C7.12898 38.4459 7 38.153 7 37.8302V35.3141C7 34.8937 7.13638 34.5046 7.36606 34.1899C7.56303 33.92 7.82756 33.7067 8.13045 33.5753L8.32543 33.4907L9.6308 29.9962L9.63424 29.9855C9.72951 29.6909 9.99383 29.2253 10.4543 28.8971ZM11.729 27.5C10.9673 27.5 10.35 27.7435 9.87389 28.0828C9.21839 28.55 8.83988 29.2002 8.68642 29.6666L7.53319 32.7538C7.14809 32.9581 6.81472 33.249 6.55827 33.6004C6.20822 34.0801 6 34.6742 6 35.3141V37.8302C6 38.4242 6.23823 38.965 6.62098 39.357C6.75472 39.494 6.92061 39.6364 7.15544 39.7512C7.27622 39.8103 7.40859 39.8588 7.55594 39.897V40.3284C7.55594 40.7835 7.7397 41.1992 8.03378 41.5004C8.33411 41.8081 8.75259 42 9.21154 42C9.67048 42 10.089 41.8081 10.3893 41.5004C10.6834 41.1992 10.8671 40.7835 10.8671 40.3284V40.0032H18.1329V40.3284C18.1329 40.7835 18.3166 41.1992 18.6107 41.5004C18.911 41.8081 19.3295 42 19.7885 42C20.2474 42 20.6659 41.8081 20.9662 41.5004C21.2337 41.2264 21.4099 40.8579 21.4396 40.4506L21.4409 40.4324V39.9393C21.9007 39.8177 22.1923 39.5483 22.379 39.357C22.7618 38.965 23 38.4242 23 37.8302V35.3141C23 34.6742 22.7918 34.0801 22.4417 33.6004C22.1853 33.249 21.8519 32.9581 21.4668 32.7538L20.3106 29.6587C20.1541 29.2054 19.7761 28.5506 19.1164 28.0804C18.6426 27.7427 18.0292 27.5 17.271 27.5H11.729Z" fill="#040B29"/>
</svg>
