<svg width="28" height="28" viewBox="0 0 28 28" fill="none" xmlns="http://www.w3.org/2000/svg">
<path d="M5 17.8333C5.55228 17.8333 6 18.281 6 18.8333V21.5556C6 21.7737 6.15722 21.9552 6.36455 21.9928L6.44444 22H21.5556C21.7737 22 21.9552 21.8428 21.9928 21.6354L22 21.5556V19.5C22 18.9872 22.386 18.5645 22.8834 18.5067L23 18.5V21.5556C23 22.3064 22.4271 22.9234 21.6947 22.9934L21.5556 23H6.44444C5.69363 23 5.07661 22.4271 5.00661 21.6947L5 21.5556V17.8333ZM21 13.5C21 14.0523 20.5523 14.5 20 14.5H8C7.44772 14.5 7 14.0523 7 13.5H21ZM21.5556 5C22.3064 5 22.9234 5.57285 22.9934 6.30533L23 6.44444V10.1667C22.4477 10.1667 22 9.71895 22 9.16667V6.44444C22 6.22626 21.8428 6.04479 21.6354 6.00716L21.5556 6H6.44444C6.22626 6 6.04479 6.15722 6.00716 6.36455L6 6.44444V8.5C6 9.01284 5.61396 9.43551 5.11662 9.49327L5 9.5V6.44444C5 5.69363 5.57285 5.07661 6.30533 5.00661L6.44444 5H21.5556Z" fill="#040B29"/>
</svg>
