<svg width="36" height="36" viewBox="0 0 36 36" fill="none" xmlns="http://www.w3.org/2000/svg">
<path d="M17.923 3.5C22.2178 3.5 25.7266 6.87144 25.8574 11.0658L25.8612 11.3087L25.861 13.9725L29.1247 13.9732C30.3253 13.9732 31.3207 14.853 31.4783 15.9913L31.4945 16.1481L31.5 16.3077V30.1654C31.5 31.3993 30.5214 32.4123 29.2871 32.4946L29.1247 32.5H6.87526C5.62014 32.5 4.58922 31.5384 4.50549 30.3251L4.5 30.1654V16.3077C4.5 15.0739 5.47863 14.0608 6.71288 13.9786L6.87526 13.9732L9.98372 13.9725L9.98408 11.3087C9.98408 7.16658 13.2793 3.7681 17.4263 3.51511L17.6761 3.50372L17.923 3.5ZM17.923 5.15371C14.5517 5.15371 11.7945 7.79362 11.6736 11.0834L11.6695 11.3087L11.6695 13.9725L20.0489 13.9732L20.0684 13.9744L21.5006 13.9726L21.5013 14.2426C21.503 14.961 20.9479 15.5523 20.2341 15.621L20.0985 15.6276L6.87526 15.6269C6.52688 15.6269 6.23755 15.8838 6.19175 16.2155L6.18543 16.3077V30.1654C6.18543 30.5093 6.44573 30.7949 6.78185 30.8401L6.87526 30.8463H29.1247C29.4731 30.8463 29.7624 30.5894 29.8083 30.2576L29.8146 30.1654V16.3077C29.8146 15.9639 29.5543 15.6783 29.2182 15.6331L29.1247 15.6269L25.0583 15.6233L25.0185 15.6269C24.5894 15.6269 24.2344 15.3117 24.1824 14.9038L24.1758 14.8V11.3087C24.1758 7.91483 21.3709 5.15371 17.923 5.15371ZM17.9872 18.7206L18.164 18.7255C19.8019 18.8159 21.1065 20.155 21.1065 21.7879C21.1065 23.1306 20.2182 24.2963 18.9578 24.7024L18.8041 24.7464V26.8099L18.8088 26.8101V27.1616C18.8071 27.8712 18.256 28.452 17.5529 28.5164L17.4194 28.5224L17.1703 28.5218L17.1731 27.1085L17.1694 27.072L17.1691 24.7464L17.0167 24.7024C15.8135 24.3148 14.9495 23.235 14.8734 21.9698L14.868 21.7879C14.868 20.155 16.1726 18.8159 17.8105 18.7255L17.9872 18.7206ZM17.9872 20.3252C17.1696 20.3252 16.5036 20.9819 16.5036 21.7879C16.5036 22.5468 17.0933 23.1728 17.8446 23.2438L17.9871 23.2497L18.1299 23.2438C18.8342 23.1772 19.3965 22.6229 19.4641 21.9285L19.4709 21.7879C19.4709 20.9819 18.8049 20.3252 17.9872 20.3252Z" fill="white"/>
</svg>
