<svg width="28" height="28" viewBox="0 0 28 28" fill="none" xmlns="http://www.w3.org/2000/svg">
<path fill-rule="evenodd" clip-rule="evenodd" d="M27 14C27 6.83137 21.1686 1 14 1C6.83137 1 1 6.83137 1 14C1 21.0583 6.65333 26.8203 13.6701 26.9959L14 27L14.3299 26.9959C21.3467 26.8203 27 21.0583 27 14ZM13.6884 2.6671L14 2.66288L14.3116 2.6671C20.4189 2.83275 25.3371 7.8533 25.3371 14C25.3371 20.2507 20.2507 25.3371 14 25.3371C7.74932 25.3371 2.66288 20.2507 2.66288 14C2.66288 7.8533 7.58108 2.83275 13.6884 2.6671ZM16.1671 9.99162L15.4136 15.945H15.4111C15.3071 16.514 14.7981 16.9475 14.1826 16.9475C13.5676 16.9475 13.0586 16.514 12.9551 15.945H12.9521L12.1936 9.99162H12.2081C12.2057 9.9729 12.203 9.95425 12.2003 9.93562L12.2003 9.93556C12.1915 9.87393 12.1826 9.81243 12.1826 9.74863C12.1826 8.6746 13.0781 7.80469 14.1826 7.80469C15.2876 7.80469 16.1826 8.6746 16.1826 9.74863C16.1826 9.81357 16.1738 9.87614 16.1649 9.93888L16.1649 9.93891C16.1624 9.95645 16.1599 9.974 16.1576 9.99162H16.1671ZM14.2205 21.1178C13.4845 21.1178 12.8872 20.521 12.8872 19.7845C12.8872 19.0481 13.4845 18.4512 14.2205 18.4512C14.957 18.4512 15.5539 19.0481 15.5539 19.7845C15.5539 20.521 14.957 21.1178 14.2205 21.1178Z" fill="#009499"/>
</svg>
