<svg width="28" height="28" viewBox="0 0 28 28" fill="none" xmlns="http://www.w3.org/2000/svg">
<path fill-rule="evenodd" clip-rule="evenodd" d="M13.834 2C7.30898 2 2.00098 7.309 2.00098 13.833C2.00098 20.358 7.30898 25.667 13.834 25.667C20.359 25.667 25.667 20.358 25.667 13.833C25.667 7.309 20.359 2 13.834 2ZM13.834 3C19.817 3 24.667 7.85 24.667 13.833C24.667 19.816 19.817 24.667 13.834 24.667C7.85098 24.667 3.00098 19.816 3.00098 13.833C3.00098 7.85 7.85098 3 13.834 3Z" fill="white"/>
<path fill-rule="evenodd" clip-rule="evenodd" d="M13.8341 8.95703C11.1451 8.95703 8.95605 11.145 8.95605 13.834C8.95605 16.524 11.1451 18.712 13.8341 18.712C16.5231 18.712 18.7111 16.524 18.7111 13.834C18.7111 11.145 16.5231 8.95703 13.8341 8.95703ZM13.8341 9.95703C15.9751 9.95703 17.7111 11.693 17.7111 13.834C17.7111 15.976 15.9751 17.712 13.8341 17.712C11.6921 17.712 9.95605 15.976 9.95605 13.834C9.95605 11.693 11.6921 9.95703 13.8341 9.95703Z" fill="white"/>
</svg>
