<svg width="36" height="36" viewBox="0 0 36 36" fill="none" xmlns="http://www.w3.org/2000/svg">
<path d="M6.60156 10.9661C10.0748 9.38222 13.9349 8.5 17.9997 8.5C22.827 8.5 27.3653 9.74425 31.3096 11.9299C31.8009 12.2022 31.9599 12.8202 31.6852 13.296L26.1842 22.824C25.9058 23.3062 25.2999 23.4575 24.8278 23.205C22.7936 22.1171 20.4694 21.5 17.9997 21.5C17.3437 21.5 16.6982 21.5435 16.0657 21.6278C15.9928 21.0803 16.3775 20.5741 16.9285 20.5365C17.2825 20.5123 17.6397 20.5 17.9997 20.5C20.638 20.5 23.1237 21.1596 25.2994 22.3232C25.3052 22.3263 25.3107 22.3266 25.3153 22.3253L25.3174 22.3246L25.3183 22.3241L30.8168 12.8001C27.0189 10.6973 22.6498 9.5 17.9997 9.5C14.4356 9.5 11.0369 10.2033 7.93398 11.4784C7.42315 11.6883 6.83072 11.4686 6.60156 10.9661Z" fill="white"/>
<path fill-rule="evenodd" clip-rule="evenodd" d="M3.81445 12.4304C4.29275 12.1543 4.90434 12.3182 5.18048 12.7964L7.67601 17.1188C7.85003 16.9708 8.10925 16.9572 8.29972 17.1L16.7505 23.4381C17.0928 23.164 17.5271 23 17.9997 23C19.1043 23 19.9997 23.8955 19.9997 25C19.9997 26.1046 19.1043 27 17.9997 27C16.8952 27 15.9997 26.1046 15.9997 25C15.9997 24.7301 16.0532 24.4727 16.1501 24.2378L8.45337 18.4653L10.6815 22.3245C10.9576 22.8027 10.7937 23.4143 10.3155 23.6905L3.81445 12.4304ZM18.9997 25C18.9997 25.5523 18.552 26 17.9997 26C17.4474 26 16.9997 25.5523 16.9997 25C16.9997 24.4477 17.4474 24 17.9997 24C18.552 24 18.9997 24.4477 18.9997 25Z" fill="white"/>
</svg>
