<svg width="28" height="28" viewBox="0 0 28 28" fill="none" xmlns="http://www.w3.org/2000/svg">
<path fill-rule="evenodd" clip-rule="evenodd" d="M18.7001 24.12H21.3101C21.5635 24.1179 21.8066 24.0197 21.9904 23.8452C22.1742 23.6707 22.2849 23.433 22.3001 23.18V19.97C22.2982 19.769 22.3321 19.5692 22.4001 19.38C22.4724 19.1784 22.5206 18.9693 22.5439 18.7571L22.5885 18.7463L22.5559 18.6117C22.5589 18.5579 22.5603 18.504 22.5601 18.45V16.25C22.545 15.3469 22.4513 14.4468 22.2801 13.56C22.1526 12.9644 21.9078 12.4001 21.5601 11.9L21.2301 11.35C21.2294 11.3487 21.2286 11.3474 21.2279 11.3462H22.1541C22.6214 11.3462 23.0003 10.9673 23.0003 10.5H20.7808C20.7585 10.4534 20.7351 10.4037 20.7101 10.35C20.5101 9.92 20.2301 9.4 19.9401 8.92C19.7447 8.59663 19.5856 8.29595 19.4078 7.95987C19.3359 7.82393 19.2609 7.6822 19.1793 7.53083C20.4764 7.59091 21.2595 7.64579 21.5576 7.69276C21.8308 7.7361 22.0937 7.79509 22.3159 7.8895C22.5365 7.98326 22.6856 8.09854 22.7739 8.23684C22.9217 8.46903 23.0984 8.79491 23.3115 9.19348L23.3759 9.31395C23.5697 9.67675 23.7874 10.0844 24.0245 10.4989C24.2784 10.9417 24.4315 11.2392 24.5701 11.5124L24.6083 11.5879C24.734 11.8361 24.8577 12.0803 25.0392 12.3997C25.1557 12.6042 25.2539 12.7647 25.3377 12.9016L25.3378 12.9016C25.5617 13.2674 25.6827 13.4651 25.7737 13.8838L25.7739 13.8848C25.8627 14.289 25.9312 14.9368 25.9736 15.8491V17.5456C25.9736 17.6915 25.948 17.8362 25.8979 17.9736L25.8974 17.9751C25.8087 18.2207 25.7623 18.4808 25.7623 18.7436V21.1662H24.4969C23.9458 21.1662 23.4938 21.7067 23.9565 22.0061C24.113 22.1074 24.2997 22.1662 24.4999 22.1662H25.7723C26.3191 22.1662 26.7623 21.723 26.7623 21.1762V18.7436C26.7623 18.5985 26.7879 18.4535 26.8377 18.3152C26.9274 18.0689 26.9736 17.8086 26.9736 17.5456V15.826L26.9731 15.8145C26.9302 14.8852 26.8589 14.1636 26.7508 13.6708C26.6211 13.0749 26.3962 12.709 26.1417 12.295C26.066 12.1718 25.9876 12.0443 25.9084 11.9052C25.7391 11.6074 25.6257 11.3834 25.5 11.1352L25.4999 11.1351L25.4619 11.0601C25.3192 10.7787 25.1577 10.4649 24.8923 10.002C24.6629 9.60093 24.4522 9.20652 24.2578 8.84245L24.2578 8.84243L24.1934 8.72198C23.9849 8.33194 23.7894 7.96979 23.6172 7.69932C23.3848 7.33509 23.0419 7.11147 22.7069 6.96913C22.3733 6.8274 22.0162 6.75299 21.7135 6.705C21.3037 6.64037 20.2589 6.57469 18.6212 6.50512C18.5164 6.31613 18.4191 6.14577 18.3301 6C18.051 5.64557 17.7018 5.35252 17.3043 5.13916C16.9069 4.9258 16.4697 4.79673 16.0201 4.76C15.5101 4.68 14.1801 4.59 11.9101 4.5C9.66006 4.59 8.33006 4.68 7.82006 4.76C7.3667 4.79283 6.92521 4.9201 6.52395 5.13365C6.12269 5.3472 5.77052 5.6423 5.49006 6C5.26006 6.32 4.92006 6.92 4.68006 7.39C4.44006 7.86 4.25006 8.23 3.88006 8.86C3.51006 9.49 3.26006 9.96 3.11006 10.29C3.07759 10.3614 3.04512 10.431 3.01194 10.5H1C1 10.9673 1.37884 11.3462 1.84615 11.3462H2.55637L2.26006 11.84C1.91303 12.3417 1.66524 12.9052 1.53006 13.5C1.36531 14.3979 1.27169 15.3074 1.25006 16.22V18.39C1.24796 18.707 1.30214 19.0219 1.41006 19.32C1.47802 19.5092 1.51187 19.709 1.51006 19.91V23.12C1.51006 23.3852 1.61542 23.6396 1.80295 23.8271C1.99049 24.0146 2.24484 24.12 2.51006 24.12H5.10006C5.36527 24.12 5.61963 24.0146 5.80717 23.8271C5.9947 23.6396 6.10006 23.3852 6.10006 23.12V20.73H17.7001V23.12C17.7001 23.3852 17.8054 23.6396 17.993 23.8271C18.1805 24.0146 18.4348 24.12 18.7001 24.12ZM21.5801 17.9619L21.317 18.0257C20.7225 18.001 20.2396 17.5762 19.8515 16.856C19.6136 16.4146 19.1642 15.8936 18.7874 15.4912C19.3703 15.3708 19.9452 15.2097 20.5078 15.0088L20.5345 14.9993L20.5607 14.9864L21.4541 14.5478C21.5226 15.1027 21.5646 15.6608 21.5801 16.22V17.9619ZM21.4665 19.0184L21.4319 19.0268H21.3721C20.2002 19.0268 19.436 18.193 18.9712 17.3304C18.79 16.9943 18.3896 16.5252 17.9983 16.1119C17.8426 15.9475 17.6955 15.7992 17.5763 15.6816C17.1163 15.7316 16.6533 15.7567 16.1892 15.7567H8.48731C7.831 15.7567 7.17649 15.7064 6.52961 15.6066L6.526 15.6101C6.39674 15.7361 6.22024 15.9121 6.03105 16.1119C5.63978 16.5252 5.23931 16.9943 5.05818 17.3304C4.59334 18.193 3.82914 19.0268 2.65723 19.0268H2.59746L2.53884 19.0126L2.37774 18.9735C2.37851 18.9757 2.37928 18.9778 2.38006 18.98C2.48798 19.2781 2.54215 19.593 2.54006 19.91V23.12H5.14006V20.72C5.14242 20.4633 5.24341 20.2173 5.42212 20.0331C5.60082 19.8488 5.84356 19.7403 6.10006 19.73H17.7201C17.9853 19.73 18.2396 19.8354 18.4272 20.0229C18.6147 20.2104 18.7201 20.4648 18.7201 20.73V23.13H21.3201V19.91C21.3181 19.6066 21.3676 19.3051 21.4665 19.0184ZM2.28006 17.9208L2.71231 18.0257C3.3068 18.001 3.78979 17.5762 4.17786 16.856C4.42913 16.3898 4.91645 15.8347 5.30487 15.4244L5.35722 15.3694C5.12235 15.3103 4.88901 15.2446 4.65749 15.1722L4.63677 15.1657L2.44154 14.264C2.3483 14.9187 2.29436 15.5785 2.28006 16.24V17.9208ZM2.65847 13.2721C2.77381 12.952 2.93229 12.6485 3.13006 12.37C3.22193 12.228 3.31381 12.0721 3.41733 11.8964C3.43776 11.8617 3.45864 11.8263 3.48006 11.79L3.48951 11.7744C3.71392 11.4036 3.85254 11.1746 4.03006 10.79C4.21006 10.4 4.48006 9.89 4.77006 9.4C4.95633 9.08527 5.11372 8.78703 5.28198 8.4682C5.37568 8.29066 5.47275 8.10673 5.58006 7.91C5.62542 7.82684 5.66987 7.74505 5.7134 7.66494C5.95777 7.21525 6.17332 6.81859 6.36006 6.53C6.78346 6.07515 7.36917 5.80565 7.99006 5.78C8.46006 5.7 9.79006 5.62 11.9201 5.53C14.0701 5.62 15.4001 5.7 15.8701 5.78C16.4909 5.80565 17.0767 6.07515 17.5001 6.53C17.5235 6.57044 17.5478 6.61234 17.5728 6.65554C17.7833 7.01831 18.0467 7.47214 18.2701 7.91C18.5201 8.4 18.7301 8.78 19.0901 9.4C19.3303 9.81372 19.5126 10.1651 19.6549 10.4393C19.7258 10.576 19.7868 10.6935 19.8401 10.79C19.9016 10.9015 19.9616 11.016 20.0253 11.1374C20.1273 11.3318 20.2385 11.5438 20.3801 11.79L20.7201 12.37C20.9722 12.7181 21.1617 13.1069 21.2805 13.519L20.145 14.0765C18.8748 14.5267 17.537 14.7567 16.1892 14.7567H8.48731C7.29687 14.7567 6.11288 14.5772 4.97637 14.2241L2.65847 13.2721Z" fill="#040B29"/>
</svg>
