<svg width="104" height="46" viewBox="0 0 104 46" fill="none" xmlns="http://www.w3.org/2000/svg">
<path d="M18.996 34.5003C18.7922 34.5005 18.5905 34.4605 18.4022 34.3826C18.2139 34.3046 18.0428 34.1902 17.8987 34.0459C17.7546 33.9017 17.6403 33.7304 17.5623 33.5418C17.4844 33.3533 17.4443 33.1512 17.4444 32.9471V20.7924C17.4444 18.8874 16.6889 17.0603 15.3439 15.7132C13.999 14.3661 12.1749 13.6093 10.2729 13.6093C8.37094 13.6093 6.54685 14.3661 5.20193 15.7132C3.85702 17.0603 3.10145 18.8874 3.10145 20.7924V32.9471C3.10145 33.359 2.93808 33.7541 2.64726 34.0454C2.35644 34.3367 1.96201 34.5003 1.55073 34.5003C1.13945 34.5003 0.745015 34.3367 0.454198 34.0454C0.16338 33.7541 0 33.359 0 32.9471V20.7924C0 18.0628 1.08259 15.445 3.00961 13.5148C4.93664 11.5847 7.55025 10.5003 10.2755 10.5003C13.0007 10.5003 15.6143 11.5847 17.5413 13.5148C19.4683 15.445 20.5509 18.0628 20.5509 20.7924V32.9471C20.5509 33.1511 20.5108 33.3532 20.4328 33.5417C20.3548 33.7302 20.2405 33.9014 20.0964 34.0457C19.9524 34.1899 19.7813 34.3043 19.5931 34.3823C19.4048 34.4603 19.2031 34.5004 18.9994 34.5003H18.996ZM80.3451 10.5003C78.5981 10.5012 76.8802 10.9483 75.3537 11.7993C73.8272 12.6503 72.5426 13.8771 71.6212 15.3637C70.4434 13.4627 68.6792 11.9981 66.5957 11.1917C64.5123 10.3852 62.2232 10.281 60.0753 10.8947C57.9273 11.5084 56.0377 12.8066 54.6925 14.5926C53.3474 16.3787 52.6202 18.5552 52.621 20.7924V32.9471C52.621 33.3593 52.7844 33.7545 53.0754 34.046C53.3664 34.3374 53.761 34.5012 54.1725 34.5012C54.584 34.5012 54.9787 34.3374 55.2697 34.046C55.5606 33.7545 55.7241 33.3593 55.7241 32.9471V20.7924C55.7241 18.8874 56.4797 17.0603 57.8246 15.7132C59.1695 14.3661 60.9936 13.6093 62.8956 13.6093C64.7976 13.6093 66.6217 14.3661 67.9666 15.7132C69.3115 17.0603 70.0671 18.8874 70.0671 20.7924V32.9471C70.0671 33.3593 70.2305 33.7545 70.5215 34.046C70.8125 34.3374 71.2071 34.5012 71.6186 34.5012C72.0301 34.5012 72.4248 34.3374 72.7158 34.046C73.0067 33.7545 73.1702 33.3593 73.1702 32.9471V20.7924C73.1702 18.8874 73.9258 17.0603 75.2707 15.7132C76.6156 14.3661 78.4397 13.6093 80.3417 13.6093C82.2437 13.6093 84.0678 14.3661 85.4127 15.7132C86.7576 17.0603 87.5132 18.8874 87.5132 20.7924V32.9471C87.5226 33.3529 87.6902 33.7388 87.9801 34.0225C88.2699 34.3061 88.6591 34.4649 89.0643 34.4649C89.4696 34.4649 89.8587 34.3061 90.1486 34.0225C90.4385 33.7388 90.606 33.3529 90.6155 32.9471V20.7924C90.6126 18.0644 89.5296 15.4489 87.6041 13.5195C85.6787 11.5901 83.0678 10.5043 80.3442 10.5003H80.3451ZM36.5855 34.5003C43.1909 34.5003 48.5661 29.1181 48.5661 22.5003C48.5661 15.8826 43.1909 10.5003 36.5855 10.5003C29.9802 10.5003 24.6049 15.8826 24.6049 22.5003C24.6049 29.1181 29.9802 34.5003 36.5855 34.5003ZM36.5855 13.6076C38.3413 13.6085 40.0574 14.1307 41.5169 15.1084C42.9764 16.086 44.1137 17.4752 44.785 19.1002C45.4563 20.7252 45.6315 22.5131 45.2885 24.2378C44.9455 25.9625 44.0995 27.5466 42.8577 28.7899C41.6159 30.0331 40.0339 30.8797 38.3118 31.2224C36.5897 31.5652 34.8048 31.3889 33.1828 30.7157C31.5607 30.0425 30.1744 28.9027 29.199 27.4404C28.2236 25.9781 27.703 24.2589 27.703 22.5003C27.7059 20.1424 28.6425 17.882 30.3072 16.2149C31.9719 14.5477 34.2289 13.6101 36.583 13.6076H36.5855ZM104 15.3958C103.998 16.4213 103.676 17.4204 103.077 18.2525C102.479 19.0846 101.635 19.7079 100.665 20.0344V32.9471C100.655 33.3529 100.488 33.7388 100.198 34.0225C99.9081 34.3061 99.5189 34.4649 99.1137 34.4649C98.7085 34.4649 98.3193 34.3061 98.0294 34.0225C97.7396 33.7388 97.572 33.3529 97.5625 32.9471V20.0344C96.7098 19.7484 95.9524 19.2321 95.3738 18.5426C94.7952 17.8531 94.4178 17.017 94.2833 16.1264C94.1487 15.2358 94.2621 14.3253 94.611 13.4951C94.9599 12.6649 95.5308 11.9473 96.2608 11.4213C96.9908 10.8953 97.8516 10.5813 98.7484 10.5138C99.6451 10.4464 100.543 10.6282 101.343 11.0392C102.144 11.4501 102.815 12.0743 103.284 12.843C103.752 13.6117 104 14.4951 104 15.3958ZM99.1133 17.184C99.4664 17.184 99.8115 17.0791 100.105 16.8826C100.399 16.6861 100.628 16.4069 100.763 16.0801C100.898 15.7534 100.933 15.3938 100.864 15.047C100.795 14.7001 100.625 14.3815 100.376 14.1314C100.126 13.8813 99.8079 13.711 99.4616 13.642C99.1152 13.573 98.7563 13.6084 98.4301 13.7438C98.1039 13.8791 97.825 14.1083 97.6289 14.4024C97.4327 14.6964 97.328 15.0421 97.328 15.3958C97.3282 15.87 97.5164 16.3247 97.8511 16.66C98.1859 16.9953 98.6398 17.1838 99.1133 17.184Z" fill="white"/>
</svg>
