<svg width="174" height="45" viewBox="0 0 174 45" fill="none" xmlns="http://www.w3.org/2000/svg">
<path fill-rule="evenodd" clip-rule="evenodd" d="M49.6438 10.5C56.3505 10.5 61.8074 15.8833 61.8074 22.4997C61.8074 29.1163 56.3505 34.5 49.6438 34.5C42.9377 34.5 37.4813 29.1163 37.4813 22.4997C37.4813 15.8833 42.9377 10.5 49.6438 10.5ZM74.8085 11.107C77.5977 11.107 79.9055 12.2279 81.2842 13.7006L80.1302 15.0129C78.6876 13.6687 76.8281 12.7082 74.9045 12.7082C72.0516 12.7082 70.1282 14.6931 70.1282 16.902C70.1282 19.719 72.5325 20.5196 75.8343 21.704C79.0724 22.8888 82.246 24.3291 82.246 27.8832C82.246 31.6613 79.2646 34.2859 74.9366 34.2859C72.6607 34.2859 69.7755 33.5174 67.4995 31.6287L68.4613 30.1881C69.9359 31.5324 72.7248 32.6533 74.9691 32.6533C78.4309 32.6533 80.5146 30.5719 80.5146 27.9471C80.5146 25.2256 77.8219 24.2012 74.3917 23.0487C71.5068 22.0882 68.3652 20.7755 68.3652 16.838C68.3652 13.5402 71.1861 11.107 74.8085 11.107ZM93.7218 16.87C98.6265 16.87 101.384 20.4557 101.223 25.8658H87.4388C87.6311 30.0278 90.7401 32.6856 94.1387 32.6856C96.6064 32.6856 98.306 31.6928 99.5241 30.4441L100.614 31.4684C99.396 32.9091 97.1838 34.2858 94.0739 34.2858C88.9771 34.2858 85.7715 30.3483 85.7715 25.6099C85.7715 20.8075 88.8165 16.87 93.7218 16.87ZM148.409 16.8699C150.653 16.8699 152.961 17.7021 154.692 19.1429C154.339 19.5911 154.115 20.0073 153.794 20.4556C152.383 19.3027 150.461 18.4386 148.409 18.4386C145.01 18.4386 141.677 21.3518 141.677 25.61C141.677 29.9962 145.235 32.7172 148.665 32.7172C151.518 32.7172 153.313 31.2765 154.243 30.1566L155.365 31.245C154.179 32.7495 151.838 34.2859 148.697 34.2859C143.697 34.2859 139.978 30.3484 139.978 25.61C139.978 20.8076 143.472 16.8699 148.409 16.8699ZM166.008 16.87C170.912 16.87 173.669 20.4557 173.509 25.8658H159.725C159.917 30.0278 163.026 32.6856 166.425 32.6856C168.892 32.6856 170.592 31.6928 171.81 30.4441L172.9 31.4684C171.682 32.9091 169.47 34.2858 166.361 34.2858C161.263 34.2858 158.057 30.3483 158.057 25.6099C158.057 20.8075 161.102 16.87 166.008 16.87ZM117.443 17.3503L123.341 32.237L129.175 17.3503H130.971L124.143 33.9976H122.508L115.647 17.3503H117.443ZM112.411 17.0618C112.667 17.0618 112.987 17.0618 113.276 17.0939V18.6626C113.051 18.6305 112.828 18.6305 112.603 18.6305C109.654 18.6626 107.858 20.9678 106.865 23.4006V33.9021H105.261V17.3502H106.801V20.9678C108.019 18.4387 110.199 17.0618 112.411 17.0618ZM135.81 17.3502V33.902H134.175V17.3502H135.81ZM4.66753 11.0884C5.20127 11.0884 5.62713 11.1037 6.084 11.3105C6.54141 11.5171 6.8336 11.8269 7.18601 12.2281C10.9437 16.5066 14.7014 20.7859 18.4592 25.0651V13.0131C18.4592 12.6802 18.4639 12.4451 18.5408 12.1898C18.6143 11.9481 18.7448 11.7317 18.9245 11.5531C19.1034 11.3738 19.3205 11.2433 19.5619 11.1699C19.8177 11.0927 20.053 11.0884 20.3864 11.0884H24.1656V33.8373H20.0143C19.4806 33.8373 19.0543 33.8219 18.5972 33.615C18.1401 33.4078 17.8476 33.0988 17.4957 32.6975L6.22272 19.8598V31.9125C6.22272 32.2453 6.21767 32.4804 6.14039 32.7355C6.06734 32.977 5.93708 33.1931 5.75739 33.3725C5.57784 33.5515 5.36115 33.6823 5.11921 33.7556C4.86388 33.8324 4.62807 33.8373 4.29478 33.8373H0.515625V11.0884H4.66753ZM34.017 11.0883V33.8375H28.325V13.0134C28.325 12.6806 28.33 12.4448 28.4073 12.19C28.4801 11.9482 28.611 11.7321 28.7903 11.5532C28.9696 11.3737 29.1865 11.2432 29.4285 11.1703C29.6838 11.0928 29.9192 11.0883 30.2526 11.0883H34.017ZM49.671 16.2148C46.2002 16.2148 43.3768 19.0347 43.3768 22.5006C43.3768 25.967 46.2002 28.7865 49.671 28.7865C53.1413 28.7865 55.9645 25.967 55.9645 22.5006C55.9645 19.0347 53.1413 16.2148 49.671 16.2148ZM93.7218 18.4066C90.5803 18.4066 88.1118 20.7435 87.5345 24.2972H99.4918C99.396 21.1278 97.3119 18.4066 93.7218 18.4066ZM166.008 18.4066C162.866 18.4066 160.398 20.7435 159.82 24.2972H171.778C171.682 21.1278 169.598 18.4066 166.008 18.4066ZM135.009 11.4913C135.779 11.4913 136.419 12.1639 136.419 12.932C136.419 13.7326 135.779 14.4048 135.009 14.4048C134.208 14.4048 133.566 13.7326 133.566 12.932C133.566 12.1639 134.208 11.4913 135.009 11.4913Z" fill="white"/>
</svg>
