<svg width="36" height="36" viewBox="0 0 36 36" fill="none" xmlns="http://www.w3.org/2000/svg">
<path fill-rule="evenodd" clip-rule="evenodd" d="M12.3238 21.2541C13.8201 21.2541 14.8346 22.2293 15.1631 23.1583L16.0108 25.3158C16.7972 25.7876 17.3062 26.6313 17.3062 27.5473V29.4214C17.3062 30.2456 16.8083 30.9594 16.0866 31.3004C16.0763 32.2391 15.2772 33 14.2958 33C13.3911 33 12.6404 32.352 12.5221 31.5132H7.7832C7.66489 32.352 6.91507 33 6.0095 33C5.02903 33 4.22899 32.2391 4.21963 31.3004C3.49789 30.9594 3 30.2448 3 29.4214V27.5473C3 26.6313 3.50896 25.7876 4.29453 25.3158L5.13371 23.1834C5.46054 22.2472 6.48186 21.2541 7.9815 21.2541H12.3238ZM12.3238 22.4721H7.9815C6.98231 22.4721 6.46824 23.1924 6.33887 23.5862L5.31159 26.2001C4.71497 26.3739 4.27665 26.9139 4.27665 27.5473V29.4214C4.27665 29.9013 4.68093 30.2951 5.17372 30.2951H5.49628V31.2826C5.49628 31.5562 5.72863 31.782 6.0095 31.782C6.29036 31.782 6.52356 31.5562 6.52356 31.2826V30.2951H13.7826V31.2826C13.7826 31.5562 14.015 31.782 14.2958 31.782C14.5767 31.782 14.8099 31.5562 14.8099 31.2826V30.2951H15.1325C15.6253 30.2951 16.0295 29.9013 16.0295 29.4214V27.5473C16.0295 26.9139 15.5912 26.3739 14.9954 26.2001L13.9682 23.5862C13.8311 23.1997 13.3239 22.4721 12.3238 22.4721ZM27.4302 3C28.0359 3 28.5363 3.43871 28.6004 4.00081L28.6038 4.06213L30.4348 4.0627C31.851 4.0627 33 5.15893 33 6.51014V29.2265C33 30.5785 31.851 31.6748 30.4339 31.6748H17.8274C17.8274 31.0024 18.3993 30.4567 19.1041 30.4567H30.4348C31.1463 30.4567 31.7233 29.9062 31.7233 29.2273V6.51014C31.7233 5.83129 31.1463 5.28073 30.4348 5.28073L28.6069 5.28016L28.6073 6.0321C28.6073 6.60972 28.147 7.0874 27.5582 7.14852L27.4302 7.15513H16.4459C15.8398 7.15513 15.339 6.71607 15.2749 6.15425L15.268 6.0321L15.2674 5.37761L13.4338 5.37826C12.8223 5.37826 12.3187 5.81985 12.2543 6.3869L12.2473 6.51022V18.7458C12.2473 19.4293 11.7002 19.9915 11.0013 20.0553L10.8685 20.0613H10.7664V6.51022C10.7664 5.15923 11.871 4.05341 13.2651 3.97034L13.4338 3.96533L15.2797 3.96442C15.3548 3.45956 15.783 3.06196 16.3177 3.0066L16.4459 3H27.4302ZM18.0252 19.6554L27.1158 19.7042C27.1158 20.3331 26.6147 20.8505 25.9727 20.9127L25.8426 20.9189L16.7528 20.8702C16.7528 20.2412 17.2533 19.7239 17.8951 19.6617L18.0252 19.6554ZM18.0252 12.283L27.1158 12.3317C27.1158 12.9606 26.6147 13.478 25.9727 13.5402L25.8426 13.5465L16.7528 13.4978C16.7528 12.8687 17.2533 12.3515 17.8951 12.2893L18.0252 12.283ZM27.2285 4.26676H16.6467V5.83965H27.2285V4.26676Z" fill="white"/>
</svg>
