<svg width="28" height="28" viewBox="0 0 28 28" fill="none" xmlns="http://www.w3.org/2000/svg">
<path fill-rule="evenodd" clip-rule="evenodd" d="M18.75 7.25C18.75 5.317 17.183 3.75 15.25 3.75H13.25C11.317 3.75 9.75 5.317 9.75 7.25V6.75H7.5C6.71249 6.75 6.07971 7.16247 5.65957 7.68765C5.24375 8.20742 5 8.87854 5 9.5V12.5C5 12.6355 5.03654 12.7606 5.07124 12.8541C5.10819 12.9538 5.15717 13.0544 5.20944 13.1503C5.31386 13.3418 5.45129 13.5502 5.59018 13.7489C5.72439 13.941 5.86789 14.1351 5.99569 14.308L6.01197 14.33C6.14117 14.5048 6.24873 14.6509 6.32359 14.7619C6.32459 14.7678 6.32579 14.7778 6.32604 14.7925C6.32678 14.8369 6.31795 14.9009 6.29209 14.974C6.23826 15.1261 6.13783 15.2471 6.02639 15.3028C5.75773 15.4371 4.97373 15.8937 4.2285 16.3279L4.20544 16.3413C3.44479 16.7845 2.72916 17.2014 2.52639 17.3028C1.60189 17.765 1 18.8682 1 20V21C1 21.5523 1.44772 22 2 22V20C2 19.1786 2.44499 18.4615 2.97361 18.1972C3.20583 18.0811 3.92402 17.6626 4.63807 17.2466L4.73191 17.1919C5.49987 16.7445 6.24227 16.3129 6.47361 16.1972C6.86813 16 7.116 15.6434 7.23483 15.3075C7.34425 14.9982 7.39119 14.5604 7.16603 14.2227C7.07449 14.0853 6.94648 13.9119 6.81615 13.7356L6.80249 13.7171C6.6728 13.5417 6.53619 13.3569 6.40982 13.1761C6.27787 12.9873 6.16531 12.8144 6.08744 12.6716C6.04855 12.6003 6.02332 12.5455 6.00883 12.5064C6.00429 12.4942 6.00156 12.4855 6 12.48V9.5C6 9.12146 6.15625 8.66758 6.44043 8.31235C6.72029 7.96253 7.08751 7.75 7.5 7.75H9.75V12.75C9.75 14.683 11.75 15.85 12.5 16.1C12.7955 16.1985 13.1686 16.2815 13.5122 16.3459C14.035 16.4438 14.5 16.0319 14.5 15.5C14.5 15.5 13.6455 15.45 13 15.2C12.3545 14.95 10.75 14.1307 10.75 12.75V9.28881C11.6779 9.28776 12.4093 9.10061 12.9692 8.77646C13.2902 8.59064 13.5456 8.36494 13.7439 8.11696C14.3937 8.98458 15.6562 9.6946 17.75 9.74691V12.75C17.75 12.8186 17.719 12.9473 17.6137 13.1485C17.5127 13.3414 17.367 13.5572 17.1937 13.7896C17.0527 13.9786 16.9025 14.1668 16.7519 14.3553L16.6488 14.4846C16.4695 14.7099 16.2893 14.9403 16.1521 15.1492C16.0489 15.3063 15.8894 15.5663 15.8862 15.8722C15.8824 16.2431 16.097 16.5236 16.3956 16.7196C17.0167 17.1273 18.3067 17.8331 19.5 18.4676V17.9321C19.5 17.5637 19.2972 17.2255 18.9735 17.0496C18.1283 16.5902 17.3614 16.1573 16.9444 15.8836C16.9252 15.8711 16.9107 15.8602 16.8997 15.8513C16.9162 15.8142 16.9439 15.7653 16.9879 15.6982C17.0967 15.5327 17.2494 15.3358 17.4313 15.1073L17.5293 14.9844C17.6804 14.7952 17.8434 14.5911 17.9952 14.3875C18.1804 14.1393 18.3625 13.8743 18.4997 13.6122C18.6325 13.3584 18.75 13.0582 18.75 12.75V7.25ZM17.75 7.25C17.75 5.86929 16.6307 4.75 15.25 4.75H13.25C11.8693 4.75 10.75 5.86929 10.75 7.25V8.28889C11.5434 8.28792 12.094 8.12765 12.4682 7.91104C12.9352 7.64067 13.1699 7.25868 13.2649 6.87873C13.3205 6.65615 13.5205 6.5 13.7499 6.5C13.9794 6.5 14.1794 6.65615 14.235 6.87873C14.4074 7.56811 15.2172 8.67811 17.75 8.74667V7.25Z" fill="white"/>
<path d="M10.5492 17.7223C9.64465 18.1933 8.66595 18.6904 7.87525 19.0886C7.41405 19.3209 7.0163 19.5198 6.73382 19.6607C6.59257 19.7311 6.48012 19.7871 6.40294 19.8254L6.29056 19.8812C5.80396 20.1424 5.5001 20.6501 5.5001 21.2028V24.5005C4.94781 24.5005 4.5001 24.0528 4.5001 23.5005V21.2028C4.5001 20.278 5.01056 19.4288 5.82721 18.995L5.84035 18.9882L5.95803 18.9298C6.0348 18.8917 6.1468 18.836 6.28757 18.7658C6.56911 18.6254 6.96564 18.4271 7.42543 18.1955C8.21364 17.7985 9.18627 17.3045 10.0838 16.8372C10.3287 16.7097 10.6309 16.8036 10.7595 17.048C10.888 17.2924 10.7942 17.5948 10.5492 17.7223Z" fill="white"/>
<path d="M22 16C22.5523 16 23 16.4477 23 17V20H27C27 20.5523 26.5523 21 26 21H23V24C23 24.5523 22.5523 25 22 25V21H19C18.4477 21 18 20.5523 18 20H22V16Z" fill="white"/>
</svg>
