<svg width="36" height="36" viewBox="0 0 36 36" fill="none" xmlns="http://www.w3.org/2000/svg">
<path fill-rule="evenodd" clip-rule="evenodd" d="M21.5528 18.1056C21.6916 18.0361 21.8448 18 22 18H27.5C28.0523 18 28.5 18.4477 28.5 19V20C28.5 20.5523 28.0523 21 27.5 21H20C19.5362 21 19.1333 20.6811 19.0268 20.2298C18.9202 19.7784 19.138 19.313 19.5528 19.1056L21.5528 18.1056ZM20 20H27.5V19H22L20 20Z" fill="white"/>
<path fill-rule="evenodd" clip-rule="evenodd" d="M31 28C31 28.5523 30.5523 29 30 29H6C5.44772 29 5 28.5523 5 28V15C5 14.651 5.18194 14.3273 5.48005 14.1458L15.0638 8.31221C16.4738 7.45396 18.0927 7 19.7433 7H30C30.5523 7 31 7.44772 31 8V28ZM6 28V15L15.5838 9.16641C16.8371 8.40352 18.2761 8 19.7433 8H30V15H11C10.4477 15 10 15.4477 10 16H30V28H6Z" fill="white"/>
</svg>
