<svg width="16" height="16" viewBox="0 0 16 16" fill="none" xmlns="http://www.w3.org/2000/svg">
<path fill-rule="evenodd" clip-rule="evenodd" d="M8 1C11.866 1 15 4.13401 15 8C15 11.866 11.866 15 8 15C4.13401 15 1 11.866 1 8C1 4.13401 4.13401 1 8 1ZM7.19076 3.06574V7.065L4.96811 5.58397L4.90901 5.68475C4.68116 6.13064 4.81863 6.68636 5.24528 6.97099L6.78776 8L5.24528 9.02901C4.78581 9.33554 4.66173 9.95645 4.96811 10.416L7.19076 8.934V12.9343L11.5921 10L8.59276 8L11.5921 6L7.19076 3.06574ZM8.19076 8.935L9.78776 10L8.19076 11.064V8.935ZM8.19076 4.935L9.78776 6L8.19076 7.064V4.935Z" fill="#00BEBE"/>
</svg>
