<svg width="36" height="36" viewBox="0 0 36 36" fill="none" xmlns="http://www.w3.org/2000/svg">
<path d="M10 5C9.44772 5 9 5.44772 9 6V8.00007C9.55228 8.00007 10 7.55235 10 7.00007V6H13V7.00007C13 7.55235 13.4477 8.00007 14 8.00007V6C14 5.44772 13.5523 5 13 5H10Z" fill="#040B29"/>
<path d="M23 5C22.4477 5 22 5.44772 22 6V8.00007C22.5523 8.00007 23 7.55235 23 7.00007V6H26V7.00007C26 7.55235 26.4477 8.00007 27 8.00007V6C27 5.44772 26.5523 5 26 5H23Z" fill="#040B29"/>
<path d="M9 19.5H15V18.5H9V19.5Z" fill="#040B29"/>
<path d="M23.5 19.5V22H24.5V19.5H27V18.5H24.5V16H23.5V18.5H21V19.5H23.5Z" fill="#040B29"/>
<path fill-rule="evenodd" clip-rule="evenodd" d="M4 10C4 9.44772 4.44772 9 5 9H30C30.5523 9 31 9.44772 31 10V28C31 28.5523 30.5523 29 30 29H5C4.44771 29 4 28.5523 4 28V10ZM5 10H30V28H5L5 10Z" fill="#040B29"/>
</svg>
