<svg width="36" height="36" viewBox="0 0 36 36" fill="none" xmlns="http://www.w3.org/2000/svg">
<path fill-rule="evenodd" clip-rule="evenodd" d="M27.2011 3.91369C27.0878 3.3856 26.6285 3 26.0879 3H15.6086L15.4913 3.00624L15.3623 3.02735L15.2447 3.06112L15.121 3.11215C14.8016 3.26637 14.5692 3.56198 14.4944 3.91264L14.4745 4.03183L12.5092 4.03251L12.3438 4.03818L12.1735 4.05584L12.013 4.08359C10.8504 4.3236 10.0015 5.3581 10.0015 6.57557V21.9877H10.1346L10.4982 21.958L10.6189 21.9322L10.733 21.8922C11.101 21.7386 11.3406 21.3862 11.3406 20.9841V6.57598L11.3465 6.45101L11.3638 6.33277L11.3923 6.21973L11.4349 6.1017L11.4897 5.9902C11.6911 5.6302 12.0786 5.39091 12.5093 5.39091L14.4686 5.3886L14.469 6.09113L14.4752 6.21001L14.4951 6.33411C14.6083 6.86145 15.0675 7.24662 15.6086 7.24662H26.0879L26.2051 7.24038L26.3341 7.21926L26.4516 7.18551L26.5633 7.1402C26.961 6.9538 27.2271 6.54938 27.2271 6.09106L27.2253 5.3886L28.992 5.39091L29.1154 5.3969L29.232 5.41436L29.3521 5.44543C29.8222 5.59578 30.1608 6.05227 30.1608 6.57598V29.6093L30.1549 29.7342L30.1377 29.8525L30.1071 29.9743C29.9588 30.451 29.5086 30.7943 28.9922 30.7943H17.6257L17.4993 30.8034L17.3778 30.8294L17.2636 30.8694C16.8955 31.0231 16.6558 31.3756 16.6558 31.7778V32.0278L16.7791 32.1527H28.9922L29.1577 32.1471L29.328 32.1294L29.4884 32.1016C30.651 31.8616 31.5 30.8269 31.5 29.6097V6.57598L31.4944 6.40805L31.477 6.23536L31.4486 6.06666L31.4089 5.90016L31.3561 5.7301C31.0062 4.72656 30.0684 4.03251 28.9918 4.03251L27.2194 4.03183L27.2011 3.91369ZM15.8164 4.36677H25.8775V5.87852H15.8164V4.36677Z" fill="white"/>
<path d="M26.5532 13.3962C26.1252 13.1862 25.6043 13.2593 25.2471 13.597L18.7715 19.7222L16.6393 17.7618L16.5353 17.6773L16.418 17.6036L16.295 17.5453C15.8378 17.3588 15.3189 17.4722 14.9867 17.8436L14.8211 18.0288L14.7422 18.134L18.2689 21.3681L18.3672 21.4433L18.4877 21.5047L18.5967 21.5399C18.8518 21.6034 19.1092 21.5382 19.2967 21.3607L27.1659 13.9239L27.0742 13.8204L26.7901 13.5511L26.6737 13.4647L26.5532 13.3962Z" fill="white"/>
<path fill-rule="evenodd" clip-rule="evenodd" d="M14.5727 23.8564C14.1752 23.065 13.3691 22.5378 12.4208 22.5378H8.63552L8.44903 22.5449L8.27755 22.5644C7.37215 22.7004 6.62016 23.3405 6.34544 24.1907L5.57609 26.2687L5.54532 26.2604L5.40077 26.3594C4.84058 26.7767 4.5 27.4474 4.5 28.158V29.8946L4.50676 30.0484L4.52748 30.2032L4.56125 30.3538C4.69502 30.8481 5.03754 31.2606 5.49985 31.4721L5.5629 31.497L5.56296 31.6189L5.56956 31.7546L5.58861 31.8849C5.7128 32.5256 6.26398 33 6.91522 33L7.04842 32.9932L7.17612 32.9738L7.30874 32.9398C7.82821 32.7779 8.21002 32.3101 8.26219 31.7504L8.26746 31.621H12.7872L12.7947 31.7547L12.8137 31.8849C12.9379 32.5257 13.4889 33 14.1403 33L14.2735 32.9932L14.4012 32.9738L14.5246 32.9426C15.0891 32.7712 15.4934 32.2393 15.4934 31.6189L15.4918 31.497L15.5517 31.4741L15.6883 31.4039C16.2191 31.1003 16.5559 30.526 16.5559 29.8946V28.158L16.5491 27.9842L16.5281 27.8086C16.4264 27.1705 16.055 26.6017 15.5132 26.262L15.4335 26.2166L14.6466 24.0182L14.5727 23.8564ZM8.63552 23.7552H12.4208C12.964 23.7552 13.4129 24.1011 13.5734 24.5834L14.4724 27.0153L14.6244 27.1742L14.7667 27.2356L14.8685 27.2879C15.163 27.4628 15.3553 27.7952 15.3553 28.158V29.8946L15.3479 29.9853L15.3262 30.071C15.2585 30.2641 15.0759 30.4041 14.8687 30.4041H14.3914L14.2928 30.5041V31.6189L14.2866 31.6673L14.267 31.7113C14.2397 31.7523 14.1912 31.7825 14.1403 31.7825C14.0603 31.7825 13.9887 31.7074 13.9887 31.6189V30.5041L13.8901 30.4041H7.16626L7.06767 30.5041V31.6189L7.06151 31.6673L7.04192 31.7113C7.01458 31.7523 6.96606 31.7825 6.91522 31.7825C6.83522 31.7825 6.76358 31.7074 6.76358 31.6189V30.5041L6.66498 30.4041H6.18682L6.10096 30.3964L6.01946 30.3739C5.83569 30.3037 5.70062 30.1129 5.70062 29.8946V28.158L5.70695 28.0426L5.72645 27.9265C5.80488 27.5842 6.05909 27.3 6.39246 27.1969L6.55833 27.0531L7.51916 24.483L7.57461 24.3693C7.77899 24.002 8.1747 23.7552 8.63552 23.7552Z" fill="white"/>
</svg>
