<svg width="36" height="36" viewBox="0 0 36 36" fill="none" xmlns="http://www.w3.org/2000/svg">
<path fill-rule="evenodd" clip-rule="evenodd" d="M18.4993 17V31.5656C18.4993 32.3079 18.1056 32.9191 17.6015 32.9926L17.4993 33V18.4344C17.4993 17.6416 17.9473 17 18.4993 17ZM10.2347 19C11.7718 19 12.8374 20.0099 13.2352 21.0153L13.2852 21.1523L14.1419 23.4472C14.9135 23.9519 15.4273 24.8067 15.4924 25.7512L15.4994 25.9548V27.9857C15.4994 28.9022 14.9899 29.7002 14.2425 30.105C14.1883 31.1593 13.322 32 12.2661 32C11.3584 32 10.5922 31.3809 10.3591 30.5384L10.3236 30.3875H5.67578C5.49691 31.3059 4.69439 32 3.73329 32C2.67744 32 1.81111 31.1593 1.75696 30.105C1.05938 29.7272 0.568998 29.0068 0.506714 28.1674L0.5 27.9857V25.9548C0.5 24.9989 0.961565 24.114 1.69524 23.5607L1.85655 23.4472L2.70355 21.1804C3.04112 20.1673 4.05987 19.0974 5.55756 19.0063L5.76474 19H10.2347ZM30.2343 19C31.7713 19 32.8359 20.0099 33.2336 21.0153L33.2836 21.1523L34.1412 23.4472C34.9128 23.9519 35.4266 24.8067 35.4916 25.7512L35.4987 25.9548V27.9857C35.4987 28.9022 34.9891 29.7002 34.2418 30.105C34.1867 31.1593 33.3214 32 32.2646 32C31.3579 32 30.5909 31.3809 30.3586 30.5384L30.3232 30.3875H25.6747C25.4968 31.3059 24.6943 32 23.7323 32C22.6775 32 21.8103 31.1593 21.7561 30.105C21.0586 29.7272 20.5682 29.0068 20.5059 28.1674L20.4992 27.9857V25.9548C20.4992 24.9989 20.9616 24.114 21.6953 23.5607L21.8567 23.4472L22.7026 21.1804C23.0402 20.1673 24.0598 19.0974 25.5566 19.0063L25.7636 19H30.2343ZM10.2347 20.4562H5.76474C4.79935 20.4562 4.27417 21.1422 4.10155 21.5791L4.07171 21.6629L3.01392 24.4957C2.4447 24.6697 2.01554 25.1869 1.95713 25.8094L1.95034 25.9548V27.9857C1.95034 28.4689 2.308 28.8701 2.76629 28.9249L2.87372 28.9313H3.2044V30.0011C3.2044 30.2982 3.44516 30.5438 3.73329 30.5438C3.99348 30.5438 4.21373 30.3449 4.25518 30.0885L4.26218 30.0011V28.9313H11.7372V30.0011C11.7372 30.2982 11.977 30.5438 12.2661 30.5438C12.5255 30.5438 12.7456 30.3449 12.7871 30.0885L12.7941 30.0011V28.9313H13.1257C13.598 28.9313 13.9893 28.5647 14.0429 28.0957L14.0491 27.9857V25.9548C14.0491 25.3175 13.6606 24.7672 13.1135 24.5418L12.9845 24.4957L11.9268 21.6629C11.7856 21.2445 11.2635 20.4562 10.2347 20.4562ZM30.2343 20.4562H25.7636C24.7992 20.4562 24.2741 21.1422 24.1015 21.5791L24.0717 21.6629L23.014 24.4957C22.4439 24.6697 22.0147 25.1869 21.9563 25.8094L21.9495 25.9548V27.9857C21.9495 28.4689 22.3079 28.8701 22.7663 28.9249L22.8738 28.9313H23.2044V30.0011C23.2044 30.2982 23.4442 30.5438 23.7323 30.5438C23.9934 30.5438 24.2129 30.3449 24.2542 30.0885L24.2612 30.0011V28.9313H31.7357V30.0011C31.7357 30.2982 31.9755 30.5438 32.2646 30.5438C32.5239 30.5438 32.7441 30.3449 32.7855 30.0885L32.7925 30.0011V28.9313H33.1251C33.5964 28.9313 33.9885 28.5647 34.0422 28.0957L34.0484 27.9857V25.9548C34.0484 25.3175 33.6599 24.7672 33.1129 24.5418L32.9839 24.4957L31.9262 21.6629C31.7851 21.2445 31.263 20.4562 30.2343 20.4562ZM27.499 3C30.8064 3 33.4987 5.69244 33.4987 9C33.4987 12.3076 30.8064 15 27.499 15C24.1915 15 21.4992 12.3076 21.4992 9C21.4992 5.69244 24.1915 3 27.499 3ZM9.46222 3.31936L9.5247 3.34012C9.94985 3.49169 10.2924 3.66675 10.5494 3.81806L10.6707 3.89152L11.0268 4.13146L11.4607 4.41261L11.2786 4.6956C11.0031 5.12335 10.4671 5.27018 10.0132 5.07775L9.90169 5.02254L9.89162 5.03078C9.8431 5.00331 9.77078 4.96302 9.67923 4.91448C9.66276 4.90623 9.63346 4.88975 9.60508 4.8751C9.53459 4.83847 9.44213 4.79359 9.33319 4.74688C9.33319 4.74688 8.83425 4.5216 8.30053 4.43093C5.07258 3.88511 2.30877 6.70397 2.95875 9.94593C3.31304 11.7144 4.73477 13.1503 6.49797 13.5222C9.41995 14.1352 12.0114 11.9774 12.1277 9.18988L12.1318 8.9944L12.1501 8.98982C12.2033 8.53248 12.5522 8.16566 13.0066 8.11193L13.1223 8.10515H13.4968V8.59053C13.4977 8.72699 13.4986 8.86527 13.4995 9.00265L13.4985 9.01638L13.4968 9.03012V9.09972C13.2487 12.3417 10.7046 14.8437 7.7897 14.9929C4.12506 15.1807 1.06556 11.5871 1.55076 8.12988C1.91237 5.56012 3.98317 3.45468 6.5474 3.0618C7.89116 2.85634 9.15531 3.22079 9.46222 3.31936ZM27.499 4.3751C24.9487 4.3751 22.8742 6.44966 22.8742 9C22.8742 11.5503 24.9487 13.6249 27.499 13.6249C30.0492 13.6249 32.1237 11.5503 32.1237 9C32.1237 6.44966 30.0492 4.3751 27.499 4.3751ZM15.3932 5.35076L15.4994 5.45206L8.54364 11.8301C8.32665 12.0292 8.00369 12.0536 7.76044 11.9019L7.67332 11.8367L4.49985 9.00743C5.00369 8.46021 5.83912 8.38763 6.42973 8.8163L6.54442 8.90872L8.09787 10.2935L13.4549 5.38182C14.003 4.87998 14.8421 4.87614 15.3932 5.35076Z" fill="white"/>
</svg>
