<svg width="48" height="48" viewBox="0 0 48 48" fill="none" xmlns="http://www.w3.org/2000/svg">
<path fill-rule="evenodd" clip-rule="evenodd" d="M10.8064 14.2115C10.8399 13.8153 11.1783 13.5 11.5977 13.5H24.0001C24.5524 13.5 25.0001 13.0523 25.0001 12.5H11.5977C10.6711 12.5 9.88852 13.2018 9.80998 14.1274L7.50664 40.5317L7.50651 40.5331C7.4165 41.6004 8.27127 42.5 9.33724 42.5H38.6635C39.7289 42.5 40.583 41.6015 40.4937 40.5344L38.2115 14.1286C38.1339 13.202 37.3513 12.5 36.4237 12.5H27.5001C27.2239 12.5 27.0001 12.7239 27.0001 13V20.7851L25.7854 21.9392C25.7803 21.9441 25.7752 21.949 25.7703 21.9541C25.5961 22.1344 25.5 22.3756 25.5 22.625V26.5427C25.5 27.0564 25.9076 27.4998 26.4432 27.4998H28.5565C29.0916 27.4998 29.5 27.0569 29.5 26.5427V22.625C29.5 22.3756 29.4039 22.1344 29.2297 21.9541C29.2248 21.949 29.2197 21.9441 29.2146 21.9392L28.0001 20.7853V13.5H36.4237C36.8434 13.5 37.1818 13.8156 37.215 14.2121L39.4972 40.618C39.5362 41.0852 39.1606 41.5 38.6635 41.5H9.33724C8.83979 41.5 8.46397 41.0839 8.50298 40.6172L10.8063 14.2129L10.8064 14.2115ZM26.5 22.6396L27.5 21.6895L28.5 22.6396V26.4998H26.5V22.6396Z" fill="#040B29"/>
<path fill-rule="evenodd" clip-rule="evenodd" d="M19.8226 7.9157C18.991 8.76934 18.5 9.86882 18.5 10.878V16.7666C18.5 17.3189 18.0523 17.7666 17.5 17.7666V10.878C17.5 9.56126 18.1283 8.22176 19.1063 7.21788C20.0882 6.21001 21.4618 5.5 23 5.5H25C26.5382 5.5 27.9118 6.21001 28.8937 7.21788C29.8717 8.22176 30.5 9.56126 30.5 10.878V17.8333C29.9477 17.8333 29.5 17.3856 29.5 16.8333V10.878C29.5 9.86882 29.009 8.76934 28.1774 7.9157C27.3496 7.06605 26.2232 6.5 25 6.5H23C21.7768 6.5 20.6504 7.06605 19.8226 7.9157Z" fill="#040B29"/>
</svg>
