<svg width="36" height="36" viewBox="0 0 36 36" fill="none" xmlns="http://www.w3.org/2000/svg">
<path fill-rule="evenodd" clip-rule="evenodd" d="M20.2309 4.13086C22.1924 4.13086 23.8068 5.61332 24.0151 7.51927L24.5715 7.52426C24.9125 7.52426 25.2225 7.70526 25.4015 7.96526L28.4525 13.1543L26.7769 13.8989L26.7777 27.2728C26.7777 30.0527 24.5819 32.3198 21.83 32.4342L21.6117 32.4388H18.7537C16.1755 32.4388 14.0394 30.5514 13.6508 28.0829C11.5429 28.0819 9.83887 26.3779 9.83887 24.2759V7.93786C9.83887 5.83486 11.5429 4.13086 13.6459 4.13086H20.2309ZM24.0379 12.6669V24.2759C24.0379 26.3779 22.3339 28.0819 20.2309 28.0819L14.6663 28.0828C15.0302 29.9302 16.6148 31.3388 18.5457 31.4337L18.7537 31.4388H21.6117C23.8428 31.4388 25.6642 29.6849 25.7726 27.4807L25.7777 27.2728L25.7769 14.1179C25.666 14.1091 25.5618 14.0909 25.4625 14.0643C25.0025 13.9443 24.6325 13.6543 24.3915 13.2453L24.0379 12.6669ZM20.2309 5.13086H13.6459C12.0979 5.13086 10.8389 6.38986 10.8389 7.93786V24.2759C10.8389 25.8229 12.0979 27.0819 13.6459 27.0819H20.2309C21.7789 27.0819 23.0379 25.8229 23.0379 24.2759V7.93786C23.0379 6.38986 21.7789 5.13086 20.2309 5.13086ZM16.4281 12.4619C16.7981 12.6029 17.0681 12.9729 17.0681 13.3929C17.0681 13.5129 17.0481 13.6219 17.0081 13.7329C16.9981 13.7629 15.8881 16.6619 15.8881 16.6619H19.7081L18.0281 20.3929L17.2081 22.2119C16.8581 22.0529 16.6171 21.7019 16.6171 21.3029C16.6171 21.1619 16.6481 21.0319 16.6981 20.9119L18.1571 17.6619H14.4281L15.7081 14.3219L16.4281 12.4619ZM24.0379 8.51886V10.7539L25.2525 12.7343C25.4725 13.1043 25.9315 13.2343 26.2925 13.0243L27.0215 12.6943L25.0715 9.38426L24.5715 8.52426L24.0379 8.51886ZM18.9389 7.89846C18.9389 8.45046 18.4909 8.89846 17.9389 8.89846H15.9389C15.3859 8.89846 14.9389 8.45046 14.9389 7.89846H18.9389Z" fill="#040B29"/>
</svg>
