<svg width="16" height="16" viewBox="0 0 16 16" fill="none" xmlns="http://www.w3.org/2000/svg">
<path d="M8.66324 1.71261L7.7523 1.00391L4.00459 4.32844C3.68367 4.61312 3.5 5.02158 3.5 5.45056V13.5009C3.5 14.0532 3.94772 14.5009 4.5 14.5009H12.4065C12.8705 14.5009 13.2736 14.1816 13.3799 13.7299L15 6.84445C15.1897 6.03804 14.6898 5.23051 13.8834 5.04076L13.77 5.01865C13.6939 5.00684 13.617 5.00089 13.5399 5.00089L8.51 4.99989L9.08213 4.17674C9.35045 3.79018 9.4512 3.3116 9.3615 2.84967C9.27392 2.39868 9.02585 1.99472 8.66324 1.71261Z" fill="#009292"/>
<path d="M2 13.5009V5.50089C1.44772 5.50089 1 5.9486 1 6.50089V12.5009C1 13.0137 1.38604 13.4364 1.88338 13.4942L2 13.5009Z" fill="#009292"/>
</svg>
