<svg width="28" height="28" viewBox="0 0 28 28" fill="none" xmlns="http://www.w3.org/2000/svg">
<path d="M14 20H7.64922L4 22.9194V4H24V11C24 11.5523 24.4477 12 25 12V4C25 3.44772 24.5523 3 24 3H4C3.44772 3 3 3.44772 3 4V25L8 21H13C13.5523 21 14 20.5523 14 20Z" fill="#040B29"/>
<path d="M20.1464 14.7071C20.537 14.3166 21.1701 14.3166 21.5607 14.7071L19.4142 16.8536H27.2071C27.2071 17.4058 26.7594 17.8536 26.2071 17.8536H17L20.1464 14.7071Z" fill="#040B29"/>
<path d="M22.6464 23.1464C23.0369 23.5369 23.6701 23.5369 24.0606 23.1464L27.207 20H17.9999C17.4476 20 16.9999 20.4477 16.9999 21H24.7928L22.6464 23.1464Z" fill="#040B29"/>
</svg>
