<svg width="36" height="36" viewBox="0 0 36 36" fill="none" xmlns="http://www.w3.org/2000/svg">
<path d="M17.9994 2C26.8356 2 33.9988 9.16344 33.9988 18C33.9988 26.8366 26.8356 34 17.9994 34C9.16317 34 2 26.8366 2 18C2 9.16344 9.16317 2 17.9994 2ZM17.9994 3.5C9.99156 3.5 3.49994 9.99187 3.49994 18C3.49994 26.0081 9.99156 32.5 17.9994 32.5C26.0072 32.5 32.4988 26.0081 32.4988 18C32.4988 9.99187 26.0072 3.5 17.9994 3.5ZM17.9994 23C18.5516 23 18.9993 23.4477 18.9993 24C18.9993 24.5523 18.5516 25 17.9994 25C17.4471 25 16.9994 24.5523 16.9994 24C16.9994 23.4477 17.4471 23 17.9994 23ZM17.9994 12C18.0768 12 18.1541 12.0051 18.2308 12.0154C19.1414 12.1368 19.7947 12.9377 19.7482 13.8393L19.735 13.9825L18.7817 21.1322C18.7206 21.5908 18.3548 21.9422 17.9047 21.9935L17.7905 22H17.3327L16.2638 13.9825C16.2536 13.9057 16.2484 13.8284 16.2484 13.751C16.2484 12.784 17.0324 12 17.9994 12Z" fill="#CDCED4"/>
</svg>
