<svg width="36" height="36" viewBox="0 0 36 36" fill="none" xmlns="http://www.w3.org/2000/svg">
<path fill-rule="evenodd" clip-rule="evenodd" d="M10.9721 25.5945C10.9721 23.2524 12.9077 21.3461 15.2867 21.3461C17.6649 21.3461 19.6005 23.2524 19.6005 25.5945C19.6005 27.9366 17.6649 29.8428 15.2867 29.8428C12.9077 29.8428 10.9721 27.9366 10.9721 25.5945ZM25.407 6.69073C22.7006 6.18234 13.6777 5.24841 6.43349 5.03549L6.39668 5.03394C6.35829 5.03317 6.31834 5.03163 6.27918 5.03009H6.26194L5.14805 5C5.13003 5.61253 5.60081 6.12168 6.21103 6.17954C6.22356 6.18031 6.23296 6.18725 6.24549 6.18725C6.25881 6.18802 6.27056 6.18803 6.28309 6.1888L6.39119 6.19265C13.8171 6.40943 22.3625 7.35522 24.696 7.83892C24.7031 7.84277 24.7062 7.84972 24.7133 7.85357C24.7454 7.87209 24.7806 7.869 24.8143 7.8798C25.7151 9.22057 26.6355 10.6393 27.3452 11.7833C25.5757 11.8157 14.4767 12.0171 12.3743 11.9739C10.8483 11.96 9.21823 12.2963 7.66018 12.635C7.18549 12.7384 6.71549 12.841 6.25333 12.9312L5 13.1549C5.11593 13.7829 5.72615 14.1987 6.36299 14.0845L6.45621 14.0683C6.46404 14.0676 6.47188 14.0676 6.48049 14.066C6.95049 13.975 7.42989 13.8708 7.9132 13.7652C9.40466 13.4404 10.9337 13.1048 12.3531 13.131C14.6396 13.1773 27.0828 12.9459 27.61 12.9359C27.7463 12.9335 27.8646 12.8788 27.9625 12.8008C28.3322 13.4265 28.5743 13.8762 28.6103 14.0313C28.5907 14.5651 28.4239 15.5418 28.2617 16.486C27.8865 18.6746 27.8301 19.1768 28.0839 19.5178C28.1787 19.6466 28.3534 19.7855 29.0584 20.3247C29.3255 20.5292 29.6004 20.7398 29.7908 20.8933C29.8088 20.9157 29.8605 21.0669 29.7861 21.4148C29.591 22.329 28.8351 23.3781 28.532 23.527C27.7064 23.9336 23.5837 24.5831 20.7339 24.9604C20.4143 22.278 18.0949 20.189 15.2867 20.189C12.4988 20.189 10.195 22.248 9.84802 24.9017H6.32696C6.31913 24.9017 6.31286 24.9064 6.30503 24.9064L5.04465 24.9033C5.04308 25.5405 5.56635 26.0581 6.21338 26.0597L6.32383 26.0604L9.82139 26.0589C10.0619 28.8222 12.4189 31 15.2867 31C18.1309 31 20.4762 28.8585 20.7488 26.1268C22.263 25.9262 27.8442 25.1602 29.0576 24.5623C29.8597 24.1673 30.8499 22.5234 30.9838 21.3654C31.0708 20.6086 30.7911 20.2067 30.5404 20.0031C30.3423 19.8418 30.0563 19.6235 29.779 19.4114C29.544 19.2316 29.2401 18.9986 29.103 18.8914C29.1077 18.5026 29.2863 17.4604 29.4203 16.6789C29.5887 15.6976 29.7626 14.6832 29.7845 14.073C29.8057 13.5021 27.862 10.5365 25.1775 6.5497" fill="white"/>
<path d="M25.407 6.69073C22.7006 6.18234 13.6777 5.24841 6.43349 5.03549L6.39668 5.03394C6.35829 5.03317 6.31834 5.03163 6.27918 5.03009H6.26194L5.14805 5C5.13003 5.61253 5.60081 6.12168 6.21103 6.17954C6.22356 6.18031 6.23296 6.18725 6.24549 6.18725C6.25881 6.18802 6.27056 6.18803 6.28309 6.1888L6.39119 6.19265C13.8171 6.40943 22.3625 7.35522 24.696 7.83892C24.7031 7.84277 24.7062 7.84972 24.7133 7.85357C24.7454 7.87209 24.7806 7.869 24.8143 7.8798C25.7151 9.22057 26.6355 10.6393 27.3452 11.7833C25.5757 11.8157 14.4767 12.0171 12.3743 11.9739C10.8483 11.96 9.21823 12.2963 7.66018 12.635C7.18549 12.7384 6.71549 12.841 6.25333 12.9312L5 13.1549C5.11593 13.7829 5.72615 14.1987 6.36299 14.0845L6.45621 14.0683C6.46404 14.0676 6.47188 14.0676 6.48049 14.066C6.95049 13.975 7.42989 13.8708 7.9132 13.7652C9.40466 13.4404 10.9337 13.1048 12.3531 13.131C14.6396 13.1773 27.0828 12.9459 27.61 12.9359C27.7463 12.9335 27.8646 12.8788 27.9625 12.8008C28.3322 13.4265 28.5743 13.8762 28.6103 14.0313C28.5907 14.5651 28.4239 15.5418 28.2617 16.486C27.8865 18.6746 27.8301 19.1768 28.0839 19.5178C28.1787 19.6466 28.3534 19.7855 29.0584 20.3247C29.3255 20.5292 29.6004 20.7398 29.7908 20.8933C29.8088 20.9157 29.8605 21.0669 29.7861 21.4148C29.591 22.329 28.8351 23.3781 28.532 23.527C27.7064 23.9336 23.5837 24.5831 20.7339 24.9604C20.4143 22.278 18.0949 20.189 15.2867 20.189C12.4988 20.189 10.195 22.248 9.84802 24.9017H6.32696C6.31913 24.9017 6.31286 24.9064 6.30503 24.9064L5.04465 24.9033C5.04308 25.5405 5.56635 26.0581 6.21338 26.0597L6.32383 26.0604L9.82139 26.0589C10.0619 28.8222 12.4189 31 15.2867 31C18.1309 31 20.4762 28.8585 20.7488 26.1268C22.263 25.9262 27.8442 25.1602 29.0576 24.5623C29.8597 24.1673 30.8499 22.5234 30.9838 21.3654C31.0708 20.6086 30.7911 20.2067 30.5404 20.0031C30.3423 19.8418 30.0563 19.6235 29.779 19.4114C29.544 19.2316 29.2401 18.9986 29.103 18.8914C29.1077 18.5026 29.2863 17.4604 29.4203 16.6789C29.5887 15.6976 29.7626 14.6832 29.7845 14.073C29.8057 13.5021 27.862 10.5365 25.1775 6.5497M10.9721 25.5945C10.9721 23.2524 12.9077 21.3461 15.2867 21.3461C17.6649 21.3461 19.6005 23.2524 19.6005 25.5945C19.6005 27.9366 17.6649 29.8428 15.2867 29.8428C12.9077 29.8428 10.9721 27.9366 10.9721 25.5945Z" stroke="white" stroke-width="0.5"/>
</svg>
