<svg width="28" height="28" viewBox="0 0 28 28" fill="none" xmlns="http://www.w3.org/2000/svg">
<path d="M7.82465 15.4715C8.32965 15.5394 8.83524 15.5815 9.34166 15.5984L9.84837 15.6068H18.9506L19.4295 15.5993C19.7996 15.5877 20.1688 15.5628 20.5371 15.5234C21.2511 16.2166 21.7475 16.7972 22.0224 17.2507L22.2176 17.5946C22.8686 18.6982 23.75 19.3869 24.8641 19.4641L25.0757 19.4713L25.2525 19.4502L26.6892 19.1058C26.6553 19.3089 26.6028 19.5085 26.5323 19.702C26.4756 19.859 26.4397 20.0217 26.4252 20.1859L26.418 20.3504V24.2444C26.418 24.8786 25.936 25.4003 25.3182 25.463L25.193 25.4694H21.934C21.2997 25.4694 20.7781 24.9873 20.7153 24.3696L20.709 24.2444L20.7083 21.469H7.28833L7.289 24.2444C7.289 24.8363 6.86909 25.3302 6.31088 25.4445L6.18925 25.463L6.064 25.4694H2.805C2.17074 25.4694 1.64906 24.9873 1.58632 24.3696L1.58 24.2444V20.3504C1.58 20.1858 1.55821 20.0211 1.51576 19.8616L1.3941 19.4813C1.35815 19.3556 1.32966 19.2277 1.3087 19.0984L3.14875 19.4574L3.29243 19.4713L3.49582 19.4658C4.62375 19.4033 5.40834 18.8099 6.12806 17.6257L6.26232 17.3967C6.58136 16.8335 7.10179 16.1891 7.82465 15.4715ZM1.487 13.355L5.21356 14.8866L5.72734 15.039C5.8453 15.0718 5.96328 15.1032 6.08015 15.1311C5.6839 15.5778 5.35792 16.005 5.10216 16.4142L4.85379 16.8349C4.41468 17.5666 4.04823 17.881 3.54598 17.9541L3.41747 17.9674L3.35333 17.969L1.56836 17.6206L1.265 17.558L1.26573 15.9585L1.30128 15.2787L1.32195 14.9604L1.36915 14.3673L1.42421 13.8318L1.487 13.355ZM26.534 13.527L26.5621 13.7312L26.6149 14.2156L26.6388 14.4776L26.6918 15.1914L26.735 15.9914V17.551L25.0013 17.967L24.9395 17.9646C24.4003 17.911 23.928 17.5361 23.5195 16.8495L23.3227 16.5026C23.0926 16.1174 22.7656 15.6934 22.3398 15.2276C22.7884 15.1259 23.2327 15.004 23.6713 14.8621L24.1079 14.7136L26.534 13.527ZM14.0387 2L15.0075 2.0423L16.6363 2.12457L17.4953 2.17794L18.0213 2.21731L18.4467 2.2562L18.7719 2.29468L19.1073 2.34992C20.3287 2.57372 21.18 2.97278 21.703 3.79265L21.7585 3.88295L21.9137 4.15064L22.116 4.51084L23.4125 6.88067L23.885 7.72253L24.1139 8.14466L24.416 8.734L27 8.73436C27 9.51405 26.4051 10.1548 25.6445 10.2275L25.5 10.2344L25.218 10.234L25.8737 11.3362C26.001 11.5681 26.1055 11.7908 26.1926 12.0241L23.5251 13.334C22.2517 13.7842 20.8495 14.05 19.4258 14.0986L18.9506 14.1068H9.84837L9.38226 14.0989C8.29567 14.0623 7.21704 13.8976 6.16935 13.6085L5.72231 13.477L2.07422 11.9755L1.86421 11.8766C1.90802 11.7706 1.95576 11.666 2.00799 11.5608L2.12597 11.3356L2.782 10.234L2.5 10.2344C1.67157 10.2344 1 9.56278 1 8.73436L3.582 8.734L3.88603 8.14238L4.11378 7.72166L4.38301 7.24539L5.8813 4.51293L6.16907 4.00415L6.29598 3.79265C6.81792 2.97277 7.66933 2.57363 8.892 2.34983L9.22765 2.2946L9.4332 2.26901L9.84338 2.22867L10.2062 2.19931L10.8571 2.15472L12.2278 2.07866L13.9592 2H14.0387Z" fill="white"/>
</svg>
