<svg width="36" height="36" viewBox="0 0 36 36" fill="none" xmlns="http://www.w3.org/2000/svg">
<path fill-rule="evenodd" clip-rule="evenodd" d="M18.0404 4.5C20.7666 4.50389 23.0216 4.70444 24.2382 4.81308L24.6795 4.85164C25.3126 4.90421 25.9205 5.09073 26.4381 5.39213C26.8961 5.6581 27.2426 5.98131 27.4688 6.35241C27.9948 7.21495 29.9668 11.3882 30.452 12.419L33.6327 12.4361C33.8401 12.4533 34 12.6219 34 12.8248C34 13.9548 33.2146 14.9073 32.1483 15.1974C32.3701 15.5347 32.6415 15.965 32.7846 16.2625C33.0424 16.7967 33.3265 17.6445 33.4828 19.8867C33.5259 20.5044 33.5433 21.1179 33.5461 21.6812L33.5456 22.0936C33.5369 23.2982 33.4679 24.1907 33.4632 24.2481C33.4584 24.4377 33.4169 25.1452 33.1459 25.4899C33.1379 25.5008 33.1287 25.5109 33.1195 25.5202C33.1199 25.5202 32.9896 25.6741 32.9896 25.9681V26.8797C32.99 26.8843 32.9924 26.8882 32.9924 26.8925V30.0826C32.9924 30.8641 32.3401 31.5 31.538 31.5H28.5979C27.7962 31.5 27.1439 30.8641 27.1439 30.0826V27.1659L27.1431 27.1651L27.1435 27.0919C27.1439 26.662 27.502 26.3139 27.9436 26.3146L27.942 27.1616C27.942 27.1632 27.9432 27.1643 27.9432 27.1659V30.0826C27.9432 30.435 28.237 30.7212 28.5979 30.7212H31.538C31.8989 30.7212 32.193 30.435 32.193 30.0826V27.058C32.193 27.0533 32.1903 27.0495 32.1903 27.0452V25.9681C32.1903 25.4315 32.4353 25.1036 32.516 25.0101C32.5847 24.9108 32.6555 24.5339 32.6655 24.2068C32.6683 24.1667 32.8317 22.0432 32.6855 19.9396C32.5384 17.8259 32.2874 17.0627 32.0612 16.5942C31.8249 16.1044 31.1459 15.1293 31.1391 15.1195C31.1315 15.109 31.1303 15.0962 31.1243 15.0853C31.1111 15.0627 31.1015 15.0393 31.0935 15.014C31.0851 14.9879 31.0799 14.963 31.0775 14.9365C31.0763 14.9241 31.0699 14.9136 31.0699 14.9007C31.0699 14.8882 31.0763 14.8777 31.0775 14.866C31.0795 14.8392 31.0851 14.8139 31.0935 14.7882C31.1007 14.7644 31.1095 14.7422 31.1211 14.7208C31.1327 14.699 31.1467 14.6799 31.1623 14.6604C31.1799 14.6394 31.1982 14.6211 31.2198 14.6036C31.229 14.5962 31.2346 14.5853 31.245 14.5787L31.2798 14.5643C31.3038 14.5518 31.3273 14.5421 31.3533 14.5339C31.3801 14.5261 31.4061 14.5206 31.4337 14.5183C31.446 14.5171 31.4568 14.5113 31.4696 14.5113C32.2934 14.5113 32.9848 13.9474 33.1587 13.1951L30.1946 13.1963L30.1242 13.1886L30.0568 13.169C30.044 13.1643 30.032 13.1589 30.02 13.153C29.988 13.1378 29.9592 13.1184 29.9321 13.0954C29.9237 13.088 29.9145 13.0822 29.9065 13.074C29.8769 13.0436 29.8501 13.0093 29.8309 12.9688C29.8066 12.9159 27.3477 7.67952 26.7814 6.75C26.6243 6.49143 26.3705 6.25935 26.0284 6.06114C25.6147 5.82009 25.1247 5.66978 24.6115 5.62773L24.1655 5.58878C22.9552 5.48092 20.7074 5.28037 18 5.27882C15.2918 5.28037 13.044 5.48092 11.8341 5.58878L11.3881 5.62773C10.8753 5.66978 10.3853 5.82009 9.97162 6.06075C9.6287 6.25935 9.3757 6.49143 9.21783 6.75C8.65188 7.67952 6.19305 12.9159 6.16827 12.9688C6.14908 13.0093 6.1231 13.0436 6.09313 13.074C6.08513 13.0822 6.07594 13.088 6.06715 13.0954C6.04037 13.1184 6.01159 13.1378 5.98002 13.153C5.96723 13.1589 5.95564 13.1643 5.94285 13.169C5.89848 13.185 5.85292 13.1963 5.80536 13.1963H2.84133C3.01559 13.9482 3.70663 14.5113 4.52998 14.5113C4.54317 14.5113 4.55436 14.5175 4.56715 14.5187C4.59432 14.521 4.6195 14.5261 4.64628 14.5339C4.67226 14.5421 4.69624 14.5518 4.71942 14.5643L4.7546 14.5787L4.78018 14.6036C4.80136 14.6211 4.81974 14.6394 4.83693 14.6604C4.85292 14.6799 4.86691 14.699 4.8789 14.7208C4.89049 14.7422 4.89848 14.7644 4.90648 14.7882C4.91447 14.8139 4.91966 14.8392 4.92246 14.866C4.92366 14.8777 4.92966 14.8882 4.92966 14.9007C4.92966 14.9136 4.92326 14.9241 4.92206 14.9365C4.91966 14.963 4.91447 14.9879 4.90608 15.014C4.89808 15.0393 4.88809 15.0627 4.8753 15.0853C4.86891 15.0962 4.86771 15.109 4.86051 15.1195C4.85372 15.1293 4.17426 16.1044 3.93805 16.5942C3.71223 17.0627 3.46123 17.8259 3.31415 19.9396C3.16747 22.0432 3.33173 24.1667 3.33293 24.1881C3.34452 24.5335 3.41527 24.9108 3.48361 25.0101C3.56475 25.1036 3.80935 25.4315 3.80935 25.9681V27.0452C3.80935 27.0495 3.80695 27.0533 3.80656 27.058V30.0826C3.80656 30.435 4.10032 30.7212 4.46203 30.7212H7.40168C7.76259 30.7212 8.05676 30.435 8.05676 30.0826V27.4669C8.05676 27.4365 8.06755 27.4104 8.07434 27.3828C8.05915 27.2056 8.16267 27.035 8.34413 26.9797L10.5468 26.2998C10.5859 26.2878 10.6267 26.2819 10.6675 26.2819H17.9201C17.948 26.2819 17.9728 26.2921 18 26.2975C18.0264 26.2921 18.0516 26.2819 18.0799 26.2819H24.4005V26.2815L25.2774 26.2804C25.2782 26.7114 24.9197 27.0615 24.4776 27.0623H24.4017V27.0607H18.0799C18.0516 27.0607 18.0264 27.0502 18 27.0448C17.9728 27.0502 17.948 27.0607 17.9201 27.0607H10.729L8.85612 27.6382V30.0826C8.85612 30.8641 8.20384 31.5 7.40168 31.5H4.46203C3.65987 31.5 3.00719 30.8641 3.00719 30.0826V26.8925C3.00719 26.8882 3.00999 26.8843 3.00999 26.8797V25.9681C3.00999 25.6733 2.8793 25.5199 2.8737 25.5132C2.58273 25.1452 2.54157 24.4377 2.53517 24.2294C2.53474 24.2243 2.53352 24.2089 2.53166 24.1838L2.52438 24.0801C2.50379 23.7737 2.46081 23.0284 2.45413 22.0927L2.45366 21.6808C2.45646 21.1179 2.47385 20.5044 2.51679 19.8867C2.67266 17.6445 2.95723 16.7967 3.21503 16.2625C3.35851 15.965 3.6299 15.5347 3.85132 15.1974C2.78497 14.9073 2 13.9548 2 12.8248C2 12.6219 2.15947 12.4533 2.36691 12.4361L2.59233 12.4186L5.54796 12.4174C6.03437 11.3843 8.0052 7.21456 8.53038 6.35241C8.75699 5.98131 9.10392 5.6581 9.56155 5.39174C10.0787 5.09073 10.6871 4.90421 11.3201 4.85164L11.761 4.81308C12.978 4.70444 15.2334 4.50389 17.9592 4.5H18.0404ZM22.205 9.30218L26.3061 16.2231L22.205 23.1441H14.0032L9.90164 16.2231L14.0032 9.30218H22.205ZM21.7438 10.081H14.4644L10.8249 16.2231L14.4644 22.3653H21.7438L25.3829 16.2231L21.7438 10.081ZM18.1041 12.219C20.3703 12.219 22.214 14.0153 22.214 16.2232C22.214 18.4312 20.3703 20.2275 18.1041 20.2275C15.8375 20.2275 13.9942 18.4312 13.9942 16.2232C13.9942 14.0153 15.8375 12.219 18.1041 12.219ZM18.1041 12.9978C16.2788 12.9978 14.7936 14.4444 14.7936 16.2232C14.7936 18.0021 16.2788 19.4487 18.1041 19.4487C19.9295 19.4487 21.4147 18.0021 21.4147 16.2232C21.4147 14.4444 19.9295 12.9978 18.1041 12.9978Z" fill="white" stroke="white" stroke-width="0.3"/>
</svg>
