<svg width="36" height="36" viewBox="0 0 36 36" fill="none" xmlns="http://www.w3.org/2000/svg">
<path fill-rule="evenodd" clip-rule="evenodd" d="M5.5 6.5C5.5 5.94771 5.94772 5.5 6.5 5.5H15.5C16.0523 5.5 16.5 5.94772 16.5 6.5V15.5C16.5 16.0523 16.0523 16.5 15.5 16.5H6.5C5.94771 16.5 5.5 16.0523 5.5 15.5V6.5ZM6.5 6.5H15.5V15.5H6.5L6.5 6.5Z" fill="white"/>
<path fill-rule="evenodd" clip-rule="evenodd" d="M19.5 6.5C19.5 5.94771 19.9477 5.5 20.5 5.5H29.5C30.0523 5.5 30.5 5.94772 30.5 6.5V15.5C30.5 16.0523 30.0523 16.5 29.5 16.5H20.5C19.9477 16.5 19.5 16.0523 19.5 15.5V6.5ZM20.5 6.5H29.5V15.5H20.5V6.5Z" fill="white"/>
<path fill-rule="evenodd" clip-rule="evenodd" d="M6.5 19.5C5.94772 19.5 5.5 19.9477 5.5 20.5V29.5C5.5 30.0523 5.94771 30.5 6.5 30.5H15.5C16.0523 30.5 16.5 30.0523 16.5 29.5V20.5C16.5 19.9477 16.0523 19.5 15.5 19.5H6.5ZM15.5 20.5H6.5L6.5 29.5H15.5V20.5Z" fill="white"/>
<path fill-rule="evenodd" clip-rule="evenodd" d="M19.5 20.5C19.5 19.9477 19.9477 19.5 20.5 19.5H29.5C30.0523 19.5 30.5 19.9477 30.5 20.5V29.5C30.5 30.0523 30.0523 30.5 29.5 30.5H20.5C19.9477 30.5 19.5 30.0523 19.5 29.5V20.5ZM20.5 20.5H29.5V29.5H20.5V20.5Z" fill="white"/>
</svg>
