<svg width="36" height="36" viewBox="0 0 36 36" fill="none" xmlns="http://www.w3.org/2000/svg">
<path d="M18 2.5L30 6.35601L29.7575 19.7871L29.7285 19.9049C28.8191 23.6071 26.8588 26.7009 24.1719 29.2251C22.8464 30.4704 21.4286 31.4964 20.0092 32.3193C19.9311 32.3646 19.8545 32.4084 19.7795 32.4508L19.3486 32.6881L18.9586 32.8914L18.6126 33.0614C18.5588 33.087 18.507 33.1112 18.4572 33.1341L18.1833 33.2549L17.5739 33.5L17.1151 33.2358C15.0554 32.0498 13.286 30.7137 11.788 29.2536C9.55904 27.081 8.02877 24.7429 7.07409 22.3964C6.49224 20.9663 6.23151 19.8326 6.15943 19.0521L6 6.35972L18 2.5ZM18.0035 3.64191L7.09976 7.14548L7.24915 19.0384L7.28402 19.2855L7.36396 19.7032L7.4274 19.9801L7.54116 20.4141L7.65116 20.7849L7.73744 21.0522L7.88788 21.4814L8.06545 21.9422L8.19996 22.2656L8.34814 22.6012L8.5106 22.9481L8.688 23.3056L8.88096 23.6729C8.91446 23.7349 8.94863 23.7973 8.98348 23.86L9.201 24.2406L9.43568 24.6291L9.68817 25.0247C9.77537 25.1577 9.86564 25.2918 9.95909 25.4267L10.2491 25.8343L10.4015 26.04L10.7213 26.4545C10.7763 26.5239 10.8322 26.5935 10.8889 26.6632L11.24 27.083C12.7474 28.8378 14.8181 30.6583 17.66 32.2946L18.0621 32.1162L18.4689 31.9183L18.8511 31.7197L19.1387 31.563L19.6137 31.2906L19.9564 31.0837L20.3174 30.8562C20.379 30.8165 20.4413 30.776 20.5042 30.7346L20.8887 30.4756L21.2862 30.1953C21.3534 30.1467 21.4211 30.0973 21.4892 30.047L21.9022 29.7341C22.1108 29.5721 22.3222 29.4019 22.5353 29.2232L22.9634 28.8545C25.2545 26.8275 27.6434 23.826 28.67 19.6463L28.8958 7.14548L18.0035 3.64191ZM22.1796 14.5102C22.4471 14.5102 22.6948 14.6189 22.8731 14.7967L21.4762 16.1997L17.1071 20.5865L14.4519 17.9287L13.0441 16.5257C13.2334 16.3479 13.4711 16.2392 13.7475 16.2392C13.9952 16.2392 14.2241 16.3281 14.4014 16.4862L14.4906 16.5751L17.1071 19.1835L21.4762 14.7967C21.6545 14.6189 21.9111 14.5102 22.1796 14.5102Z" fill="white"/>
</svg>
