<svg width="40" height="38" viewBox="0 0 40 38" fill="none" xmlns="http://www.w3.org/2000/svg">
<path fill-rule="evenodd" clip-rule="evenodd" d="M27.5377 20.5038C29.1077 20.51 29.1461 20.6135 30.5303 22.0328C31.3668 22.8903 36.2933 27.9408 37.92 29.6088C36.2151 33.1354 33.5902 36.0189 30.4278 38C29.6798 37.2332 28.3406 35.8602 26.9361 34.4203L26.4385 33.9102C24.4442 31.8656 22.4431 29.8141 21.9155 29.2731C21.1406 28.4782 20.797 28.171 20.3773 28.039C20.2431 27.9969 20.1373 27.9676 19.9999 27.9676C19.8656 27.9676 19.7566 27.9969 19.6224 28.039C19.2029 28.171 18.859 28.4782 18.0842 29.2731C17.5565 29.8141 15.5556 31.8656 13.5612 33.9102L13.0636 34.4203C11.659 35.8602 10.3196 37.2332 9.57143 38C6.40968 36.0189 3.78484 33.1354 2.07988 29.6088C2.76478 28.9064 4.03463 27.6045 5.33787 26.2683L5.82707 25.7668C7.45577 24.0969 9.02889 22.4841 9.46914 22.0328C10.8538 20.6135 10.892 20.51 12.4621 20.5038H27.5377ZM20 0C24.9026 0.00050908 29.7536 1.8519 33.5207 5.39482C37.5175 9.15461 40 14.5787 40 20.5037H32.3489C30.5733 20.5037 30.0024 20.3621 29.4594 19.7609C28.9015 19.1436 28.9797 18.6208 28.433 17.1676C27.9386 15.8537 27.1662 14.6929 26.1959 13.7558C24.4827 12.1031 22.2537 11.2375 20 11.2372C17.7457 11.2375 15.5166 12.1031 13.8039 13.7558C12.8332 14.6929 12.0614 15.8537 11.5667 17.1676C11.0199 18.6208 11.098 19.1436 10.5402 19.7609C9.99758 20.3621 9.42628 20.5037 7.65082 20.5037H0C0 14.5787 2.48158 9.15461 6.4788 5.39482C10.246 1.8519 15.0969 0.00050908 20 0Z" fill="#CDCED4"/>
</svg>
