<svg width="142" height="45" viewBox="0 0 142 45" fill="none" xmlns="http://www.w3.org/2000/svg">
<path fill-rule="evenodd" clip-rule="evenodd" d="M49.0744 10.5374C55.7739 10.5374 61.2242 15.912 61.2242 22.5184C61.2242 29.125 55.7739 34.5 49.0744 34.5C42.3754 34.5 36.9251 29.125 36.9251 22.5184C36.9251 15.912 42.3754 10.5374 49.0744 10.5374ZM81.4802 10.5C84.1714 10.5 86.457 10.8869 88.2736 11.6497C91.4338 12.9337 92.7235 14.9825 92.7235 18.7201C92.7235 19.6967 92.5869 20.9947 92.3178 22.5779L92.2104 23.2093H71.2191C71.3441 27.8521 72.6538 30.4466 75.4173 31.5775C76.9037 32.2051 79.0428 32.5218 81.7839 32.5218C85.1615 32.5218 88.2066 31.9986 90.8351 30.9671L91.5473 30.6874L92.248 32.5055L91.5345 32.7757C90.7953 33.0557 90.0431 33.3093 89.2345 33.5514C88.667 33.7306 87.7609 33.9106 86.2162 34.1508C84.8935 34.3609 83.4232 34.4631 81.7231 34.4631C78.7951 34.4631 76.4832 34.1393 74.8517 33.5007C70.9672 31.9909 69.234 28.5923 69.234 22.4816C69.234 16.5507 71.169 12.8214 74.9849 11.3973C76.6081 10.7936 78.7325 10.5 81.4802 10.5ZM106.484 10.5C109.1 10.5 112.144 10.9787 115.531 11.923L116.282 12.1325L115.715 13.9742L115.004 13.7787C111.773 12.8911 108.896 12.4411 106.454 12.4411C103.823 12.4411 101.956 12.6455 100.748 13.0661C99.0435 13.659 98.2495 14.8099 98.2495 16.6878C98.2495 19.739 99.3576 20.2666 100.191 20.3978L113.253 22.3688C115.843 22.7638 116.998 24.3891 116.998 27.6382C116.998 31.6353 114.887 33.1095 113.116 33.6422C111.318 34.1867 109.076 34.4631 106.454 34.4631C105.188 34.4631 103.905 34.3819 102.533 34.2149C101.255 34.0555 100.314 33.9018 99.6537 33.7448L96.1092 32.8201L96.899 30.983L100.148 31.8501C100.72 31.9928 101.619 32.14 102.809 32.2849C104.119 32.4441 105.341 32.5218 106.545 32.5218C108.907 32.5218 110.928 32.268 112.55 31.767C113.304 31.5251 113.668 31.337 114.189 30.767L114.213 30.7421C114.597 30.3592 115.054 29.4883 115.054 27.5168C115.054 25.1071 114.316 24.509 113.041 24.2905L99.9593 22.3214C98.292 22.0693 96.3048 20.8767 96.3048 16.627C96.3048 13.9801 97.5941 12.1281 100.033 11.2709C101.46 10.753 103.573 10.5 106.484 10.5ZM131.304 10.5C134.073 10.5 136.155 10.7295 137.669 11.2018C140.914 12.1733 141.362 14.5876 141.362 17.0518C141.362 19.4793 140.884 21.1075 139.905 21.9946C141.168 22.9187 142 25.0144 142 27.4561C142 30.7161 140.683 32.8248 138.086 33.7238C136.608 34.2152 134.329 34.463 131.304 34.463C128.278 34.463 125.999 34.2152 124.53 33.7268C121.924 32.8248 120.608 30.7161 120.608 27.4561C120.608 24.9587 121.383 22.9867 122.713 22.0162C121.727 21.1738 121.246 19.5589 121.246 17.1126C121.246 13.7412 122.315 12.0287 124.936 11.2023C126.452 10.7295 128.535 10.5 131.304 10.5ZM33.4647 11.1246V33.8386H27.7788V13.0468C27.7788 12.7144 27.7838 12.4793 27.8609 12.2245C27.934 11.9834 28.0646 11.7675 28.2439 11.5887C28.423 11.4096 28.6394 11.2794 28.8809 11.2062C29.1362 11.1293 29.3715 11.1246 29.7044 11.1246H33.4647ZM4.147 11.1246C4.68011 11.1246 5.10564 11.1399 5.56238 11.3466C6.01899 11.5531 6.3112 11.8622 6.66277 12.2625C10.4164 16.5349 14.1699 20.8073 17.9234 25.0799V13.0468C17.9234 12.7144 17.9283 12.4793 18.0055 12.2245C18.0785 11.9834 18.2093 11.7675 18.3884 11.5887C18.5676 11.4096 18.784 11.2793 19.0255 11.2062C19.2808 11.1293 19.5162 11.1246 19.849 11.1246H23.624V33.8386H19.4773C18.9439 33.8386 18.5184 33.8231 18.0617 33.6166C17.6051 33.4098 17.3127 33.1007 16.9614 32.7007C13.2079 28.428 9.45428 24.1555 5.70078 19.883V31.9164C5.70078 32.2488 5.69596 32.4836 5.61879 32.7384C5.5455 32.9795 5.415 33.1955 5.23587 33.3744C5.05647 33.5533 4.84022 33.6837 4.59879 33.7566C4.34342 33.8336 4.10788 33.8386 3.77493 33.8386H0V11.1246H4.147ZM136.469 23.0275H126.168C125.297 23.0275 124.66 23.1305 124.275 23.3337C123.165 23.8758 122.613 25.3 122.613 27.5774C122.613 29.848 123.206 30.7034 124.162 31.3472C125.427 32.2155 127.263 32.5218 131.182 32.5218C133.332 32.5218 134.952 32.434 136.001 32.2608C136.987 32.0686 137.77 31.7773 138.395 31.3706C139.468 30.6483 139.995 29.3855 139.995 27.5167C139.995 25.1999 139.446 23.829 138.317 23.3255C137.878 23.1309 137.239 23.0275 136.469 23.0275ZM49.1013 16.2433C45.6344 16.2433 42.8138 19.0587 42.8138 22.5196C42.8138 25.9803 45.6344 28.7956 49.1013 28.7956C52.5678 28.7956 55.3883 25.9803 55.3883 22.5196C55.3883 19.0587 52.5678 16.2433 49.1013 16.2433ZM81.5713 12.4411C79.0303 12.4411 77.033 12.7009 75.6351 13.2132C72.8161 14.2559 71.3683 16.8943 71.2215 21.2683H90.5952C90.7184 20.4612 90.7787 19.6318 90.7787 18.7506C90.7787 15.7986 89.9523 14.4514 87.5033 13.412C86.02 12.7572 84.0829 12.4411 81.5713 12.4411ZM131.304 12.4411C128.254 12.4411 126.128 12.6953 124.985 13.1962C123.9 13.6381 123.19 14.4897 123.19 17.234C123.19 19.1691 123.563 20.3835 124.267 20.7458C124.574 20.899 125.188 21.0862 126.32 21.0862H136.044C137.374 21.0862 137.99 20.9273 138.273 20.7944C139.217 20.3367 139.417 18.5556 139.417 17.1428C139.417 14.4796 138.706 13.6419 137.639 13.203C136.479 12.6953 134.353 12.4411 131.304 12.4411Z" fill="white"/>
</svg>
