<svg width="28" height="28" viewBox="0 0 28 28" fill="none" xmlns="http://www.w3.org/2000/svg">
<path d="M2 3L7.41461 3.00098C8.49686 3.00098 9.44256 3.72495 9.72225 4.761L9.75919 4.91828L10.5869 9.01521C10.7103 9.62561 10.5881 10.2593 10.2479 10.7803L10.1449 10.9261L7.77012 14.0488L7.75886 14.0362C7.38973 13.6071 7.35658 12.9658 7.713 12.4968L9.36245 10.3262C9.56917 10.0541 9.66835 9.71657 9.64222 9.37751L9.6213 9.22378L8.78937 5.1044C8.66857 4.5066 8.17228 4.05753 7.56677 3.99207L7.42793 3.98424L2.99156 3.98329L3.00024 4.23741C3.38103 15.3738 12.2641 24.374 23.3994 24.9849L24.0119 25.0114L24.0123 20.5238L24.0052 20.3856C23.9442 19.8234 23.563 19.3601 23.0341 19.1934L22.8995 19.1585L18.7626 18.33L18.6083 18.3082C18.3106 18.2851 18.0278 18.3493 17.7825 18.4909L17.6525 18.5764L15.3766 20.2892L15.2646 20.3643C14.8055 20.6376 14.2197 20.5836 13.8158 20.2303L17.0445 17.8012L17.1913 17.6989C17.6537 17.3999 18.2162 17.27 18.7723 17.3368L18.9668 17.3681L23.0813 18.1919L23.2392 18.2289C24.2164 18.4903 24.926 19.3501 24.9944 20.3626L25 20.5321L24.9995 25.9104L24.9281 25.91L24.9284 26H24.4097C12.399 25.8951 2.5947 16.4577 2.02604 4.58219L2.0039 3.97955L2 3Z" fill="white"/>
</svg>
