<svg width="16" height="16" viewBox="0 0 16 16" fill="none" xmlns="http://www.w3.org/2000/svg">
<path fill-rule="evenodd" clip-rule="evenodd" d="M7.7523 1.00391L8.66324 1.71261C9.02585 1.99472 9.27392 2.39868 9.3615 2.84967C9.4512 3.3116 9.35045 3.79018 9.08213 4.17674L8.51 4.99989L13.5399 5.00089C13.617 5.00089 13.6939 5.00684 13.77 5.01865L13.8834 5.04076C14.6898 5.23051 15.1897 6.03804 15 6.84445L13.3799 13.7299C13.2736 14.1816 12.8705 14.5009 12.4065 14.5009H4.5C3.94772 14.5009 3.5 14.0532 3.5 13.5009V5.45056C3.5 5.02158 3.68367 4.61312 4.00459 4.32844L7.7523 1.00391ZM2 5.50089V13.5009L1.88338 13.4942C1.38604 13.4364 1 13.0137 1 12.5009V6.50089C1 5.9486 1.44772 5.50089 2 5.50089ZM7.794 2.30289L4.6682 5.07652C4.56122 5.17141 4.5 5.30757 4.5 5.45056V13.4999H12.4065L14.0266 6.61541C14.0828 6.37647 13.9574 6.13724 13.74 6.04261L13.6544 6.01418C13.6169 6.00535 13.5784 6.00089 13.5399 6.00089H6.59863L8.26064 3.60652C8.37512 3.44159 8.41811 3.23739 8.37983 3.0403C8.33836 2.82675 8.2209 2.63546 8.0492 2.50188L7.794 2.30289Z" fill="#9B9DA9"/>
</svg>
