<svg width="28" height="28" viewBox="0 0 28 28" fill="none" xmlns="http://www.w3.org/2000/svg">
<path d="M25.4242 2.02723L25.3304 2H25.2406C25.1469 2 25.0934 2.01223 25.0275 2.02723L2.35755 8.54723C2.27769 8.57235 2.20508 8.61638 2.14589 8.67557C2.08669 8.73476 2.04267 8.80737 2.01755 8.88723C1.99564 8.96856 1.99422 9.05405 2.01342 9.13607C2.03261 9.21808 2.07182 9.29406 2.12755 9.35723L6.18754 14.0072C6.23098 14.0607 6.28589 14.1038 6.3482 14.1332C6.41051 14.1626 6.47864 14.1777 6.54754 14.1772L13.1476 14.4872L13.4775 21.0772C13.4853 21.2148 13.5463 21.3439 13.6476 21.4372L18.3175 25.4372C18.4094 25.5158 18.5267 25.5584 18.6476 25.5572H18.7875C18.8674 25.5321 18.94 25.4881 18.9992 25.4289C19.0584 25.3697 19.1024 25.2971 19.1275 25.2172L25.6175 2.56723C25.641 2.46446 25.6589 2.34307 25.6175 2.24609C25.5762 2.14911 25.5146 2.0815 25.4242 2.02723ZM17.5975 10.0272C17.4508 9.88624 17.3506 9.70382 17.3102 9.50435C17.2699 9.30488 17.2913 9.09785 17.3718 8.91091C17.4522 8.72397 17.5878 8.56601 17.7603 8.45814C17.9329 8.35027 18.1343 8.29763 18.3375 8.30723C18.5985 8.30566 18.8497 8.40614 19.0375 8.58723C19.1393 8.68161 19.2203 8.79615 19.2754 8.92355C19.3305 9.05095 19.3585 9.18843 19.3575 9.32723C19.3683 9.53596 19.3135 9.74282 19.2006 9.91875C19.0878 10.0947 18.9227 10.2308 18.7285 10.3081C18.5342 10.3853 18.3207 10.3998 18.1179 10.3494C17.915 10.299 17.7331 10.1864 17.5975 10.0272ZM3.39755 9.27723L23.3976 3.47723L19.3075 7.56723C19.0038 7.39176 18.6583 7.3019 18.3075 7.30723C17.7771 7.30723 17.2684 7.51794 16.8933 7.89301C16.5183 8.26809 16.3075 8.7768 16.3075 9.30723C16.3051 9.65758 16.3948 10.0024 16.5675 10.3072L13.4075 13.4872L6.79754 13.1672L3.39755 9.27723ZM18.3976 24.2072L14.4875 20.8072L14.1575 14.1972L17.2975 11.0472C17.6148 11.248 17.9821 11.3554 18.3575 11.3572C18.7219 11.3645 19.0814 11.2721 19.3971 11.0899C19.7128 10.9077 19.9727 10.6428 20.1487 10.3236C20.3248 10.0045 20.4102 9.64332 20.3959 9.27913C20.3816 8.91494 20.2681 8.56158 20.0675 8.25723L24.1375 4.17723L18.3976 24.2072Z" fill="white"/>
</svg>
