<svg width="36" height="36" viewBox="0 0 36 36" fill="none" xmlns="http://www.w3.org/2000/svg">
<path d="M23.9728 14.7051L24.0964 14.7098L24.2842 14.7067L24.3332 14.7116L24.4002 14.724L24.5019 14.7308C27.6465 14.9594 30.2394 17.1885 30.4815 20.0011L30.4955 20.2186L30.5 20.4328L30.4426 21.5785L30.3744 22.6811L30.2952 23.7407C29.9706 27.7201 29.404 30.7521 28.587 32.8488C28.1427 33.9895 27.052 34.784 25.7632 34.9321C25.2821 34.9872 24.721 35.0097 24.1195 34.9962C23.4861 35.0097 22.925 34.9872 22.4436 34.932C21.1561 34.784 20.0656 33.9897 19.6202 32.8488C19.2846 31.9874 18.9913 30.968 18.7397 29.7886L18.6472 29.3389L18.5044 28.5705C18.4184 28.0776 18.3384 27.5611 18.2645 27.0209L18.1927 26.4728L18.086 25.5627C18.0409 25.1492 17.9989 24.7237 17.9599 24.286L17.9036 23.6204L17.8277 22.5879L17.762 21.5144L17.7064 20.3997C17.7064 17.4187 20.4016 14.971 23.7057 14.7308L23.9427 14.7174L23.8051 14.725L23.8714 14.7119L23.9728 14.7051ZM20.4427 1C22.0927 1 23.4408 2.28931 23.5318 3.91378L23.5367 4.08907L23.5361 4.5485L26.3667 4.54879C28.0171 4.54879 29.3653 5.83845 29.4563 7.46339L29.4612 7.63873V15.8934H29.0625C28.5213 15.8934 28.0754 15.4843 28.0183 14.959L28.0122 14.8448V7.6383C28.0122 6.77871 27.3513 6.07339 26.5091 6.00153L26.3672 5.9955H8.59447C7.73345 5.9955 7.02705 6.65572 6.95507 7.49693L6.94904 7.63873V28.931C6.94904 29.7908 7.61002 30.496 8.45247 30.5678L8.59447 30.5738H17.1545C17.8772 30.5738 18.17 30.99 18.2019 31.895L18.2049 32.0704H17.4075L17.4075 32.02L11.7383 32.0203L11.7383 33.4218C11.7383 34.0643 11.1431 34.5506 10.3417 34.6056L10.1892 34.6108L10.1894 32.0203L8.59447 32.0205C6.94434 32.0205 5.59593 30.7311 5.5049 29.1064L5.5 28.931V7.6383C5.5 5.99082 6.79151 4.64457 8.41887 4.55368L8.59447 4.54879L11.4243 4.5485L11.4244 4.0895C11.4244 2.44203 12.7159 1.09578 14.3433 1.00489L14.5189 1H20.4427ZM24.0633 16.2017L24.0029 16.2088C21.5012 16.3095 19.4554 17.9909 19.2227 19.9885L19.2063 20.1767L19.2007 20.3665L19.2546 21.4453L19.2696 21.7087L19.2852 21.9696L19.3536 22.988L19.3722 23.2364L19.3915 23.4822L19.4744 24.4402L19.5669 25.358L19.5915 25.5811L19.6167 25.8017L19.7236 26.6588L19.84 27.4756C20.1428 29.4668 20.5347 31.0784 21.0133 32.3073C21.2515 32.9173 21.8631 33.3628 22.6143 33.4492C23.0249 33.4962 23.5189 33.516 24.1195 33.5039C24.6882 33.516 25.1822 33.4962 25.5926 33.4492C26.3448 33.3628 26.9562 32.9175 27.1936 32.3077C27.9536 30.3576 28.4947 27.4446 28.8076 23.5991L28.8471 23.0922L28.9184 22.0468C28.9514 21.5135 28.9805 20.9645 29.0057 20.3997C29.0057 18.2717 26.9868 16.4274 24.4378 16.2229L24.2046 16.2088L24.1356 16.2023L24.0633 16.2017ZM24.879 27.7126C24.9911 27.7126 25.0689 27.7135 25.1406 27.7404C25.2131 27.7677 25.2622 27.815 25.3317 27.8844C25.5642 28.1164 25.7966 28.3481 26.0286 28.5801C25.8648 28.9102 25.6106 29.1874 25.2957 29.3795L24.5097 28.5949C24.4168 28.502 24.3542 28.4448 24.2756 28.4448C24.1969 28.4448 24.1339 28.502 24.041 28.5949C23.779 28.8564 23.517 29.118 23.255 29.3795C22.9405 29.1874 22.6863 28.9102 22.5221 28.5801C22.7545 28.3481 22.9865 28.1164 23.219 27.8844C23.288 27.815 23.338 27.7677 23.4101 27.7404C23.4818 27.7135 23.5596 27.7126 23.6717 27.7126H24.879ZM24.2755 25.759C24.7942 25.759 25.2921 25.9646 25.6592 26.3311C26.0259 26.6976 26.2323 27.1943 26.2323 27.7126H25.5328C25.4172 27.7126 25.3221 27.7104 25.2465 27.6566C25.2096 27.6302 25.1826 27.5942 25.1592 27.5456C25.1305 27.4857 25.1244 27.451 25.0927 27.3747C24.9558 27.0446 24.633 26.8295 24.2755 26.8295C23.9179 26.8295 23.5956 27.0446 23.4583 27.3747C23.4266 27.451 23.42 27.4857 23.3918 27.5456C23.3683 27.5942 23.3414 27.6302 23.3045 27.6566C23.2289 27.7104 23.1333 27.7126 23.0182 27.7126H22.3187C22.3187 27.1943 22.5251 26.6976 22.8922 26.3311C23.2584 25.9646 23.7567 25.759 24.2755 25.759ZM14.6005 10.11V23.6115C14.6005 24.2085 14.0074 24.6156 13.3796 24.6642L13.2538 24.669L13.2532 24.3202L13.2511 11.1089C13.2511 10.5965 13.6374 10.1744 14.135 10.1167L14.2516 10.11H14.6005ZM21.7096 10.1097V13.413C21.7096 13.9927 21.1009 14.3659 20.483 14.4103L20.3595 14.4147L20.3602 11.1087C20.3602 10.5965 20.7466 10.1742 21.2441 10.1165L21.3608 10.1097H21.7096ZM20.4427 2.44671H14.5184C13.658 2.44671 12.9515 3.10678 12.8795 3.94738L12.8734 4.08907L12.8725 4.5485H22.0869L22.0877 4.0895C22.0877 3.22991 21.4268 2.5246 20.5846 2.45274L20.4427 2.44671Z" fill="white"/>
</svg>
