<svg width="28" height="28" viewBox="0 0 28 28" fill="none" xmlns="http://www.w3.org/2000/svg">
<path d="M5.75 3.25C4.92157 3.25 4.25 3.92157 4.25 4.75V23.25C4.25 24.0784 4.92157 24.75 5.75 24.75H12.5C12.5 23.9216 11.8284 23.25 11 23.25H5.75V4.75H21.25V10.5C21.25 11.3284 21.9216 12 22.75 12V4.75C22.75 3.92157 22.0784 3.25 21.25 3.25H5.75Z" fill="#040B29"/>
<path d="M19.5 15.75C19.9142 15.75 20.25 16.0858 20.25 16.5V18.75H22C22.4142 18.75 22.75 19.0858 22.75 19.5C22.75 19.9142 22.4142 20.25 22 20.25H19.5C19.0858 20.25 18.75 19.9142 18.75 19.5V16.5C18.75 16.0858 19.0858 15.75 19.5 15.75Z" fill="#040B29"/>
<path fill-rule="evenodd" clip-rule="evenodd" d="M19.5 26C23.0899 26 26 23.0899 26 19.5C26 15.9101 23.0899 13 19.5 13C15.9101 13 13 15.9101 13 19.5C13 23.0899 15.9101 26 19.5 26ZM19.5 24.5C22.2614 24.5 24.5 22.2614 24.5 19.5C24.5 16.7386 22.2614 14.5 19.5 14.5C16.7386 14.5 14.5 16.7386 14.5 19.5C14.5 22.2614 16.7386 24.5 19.5 24.5Z" fill="#040B29"/>
<path d="M18.5 8.65083C18.5 9.01027 18.2086 9.30165 17.8492 9.30165H8.65083C8.29138 9.30165 8 9.01027 8 8.65083C8 8.29139 8.29139 8 8.65083 8H17.8492C18.2086 8 18.5 8.29139 18.5 8.65083Z" fill="#040B29"/>
<path d="M12.25 13C12.6642 13 13 12.6642 13 12.25C13 11.8358 12.6642 11.5 12.25 11.5H8.75C8.33579 11.5 8 11.8358 8 12.25C8 12.6642 8.33579 13 8.75 13H12.25Z" fill="#040B29"/>
</svg>
