<svg width="36" height="36" viewBox="0 0 36 36" fill="none" xmlns="http://www.w3.org/2000/svg">
<path d="M7.3934 7.39258C4.67893 10.107 3 13.857 3 17.9992C3 22.1413 4.67893 25.8913 7.3934 28.6058C7.78392 28.2153 7.7809 27.5843 7.41907 27.1671C5.28903 24.7109 4 21.5056 4 17.9992C4 14.4928 5.28903 11.2875 7.41906 8.8313C7.7809 8.41406 7.78392 7.7831 7.3934 7.39258Z" fill="#040B29"/>
<path d="M10.2218 10.221C8.23122 12.2116 7 14.9616 7 17.9992C7 21.0367 8.23122 23.7867 10.2218 25.7774C10.6123 25.3868 10.6079 24.7565 10.2581 24.3292C8.84678 22.6051 8 20.401 8 17.9992C8 15.5973 8.84678 13.3932 10.2581 11.6692C10.6079 11.2418 10.6123 10.6115 10.2218 10.221Z" fill="#040B29"/>
<path d="M25.7782 10.221C25.3877 10.6115 25.3921 11.2418 25.7419 11.6692C27.1532 13.3932 28 15.5973 28 17.9992C28 20.401 27.1532 22.6051 25.7419 24.3292C25.3921 24.7565 25.3877 25.3868 25.7782 25.7774C27.7688 23.7867 29 21.0367 29 17.9992C29 14.9616 27.7688 12.2116 25.7782 10.221Z" fill="#040B29"/>
<path d="M28.6066 28.6058C28.2161 28.2153 28.2191 27.5843 28.5809 27.1671C30.711 24.7109 32 21.5056 32 17.9992C32 14.4928 30.711 11.2875 28.5809 8.8313C28.2191 8.41406 28.2161 7.7831 28.6066 7.39258C31.3211 10.107 33 13.857 33 17.9992C33 22.1413 31.3211 25.8913 28.6066 28.6058Z" fill="#040B29"/>
<path d="M18.4562 19.3064H17.3234L17.3185 18.9597C17.2746 18.2371 17.5578 17.7976 18.2316 17.4021C18.8371 17.0359 19.0422 16.7722 19.0422 16.2937V16.2839C19.0422 15.7712 18.632 15.3953 18.0168 15.3953C17.3869 15.3953 16.9816 15.781 16.9474 16.3816L16.9377 16.3865L15.8 16.3914V16.3816C15.8342 15.239 16.6301 14.3992 18.0803 14.3992C19.4182 14.3992 20.3117 15.1707 20.3117 16.24V16.2498C20.3117 16.9919 19.9406 17.5144 19.2766 17.9099C18.6369 18.281 18.4562 18.5349 18.4562 19.0232V19.3064Z" fill="#040B29"/>
<path d="M18.7541 20.8591C18.7541 21.323 18.4416 21.6257 17.9435 21.6257C17.4553 21.6257 17.133 21.323 17.133 20.8591C17.133 20.3904 17.4553 20.0876 17.9435 20.0876C18.4416 20.0876 18.7541 20.3904 18.7541 20.8591Z" fill="#040B29"/>
<path fill-rule="evenodd" clip-rule="evenodd" d="M18 24.9993C21.866 24.9993 25 21.8653 25 17.9993C25 14.1333 21.866 10.9993 18 10.9993C14.134 10.9993 11 14.1333 11 17.9993C11 21.8653 14.134 24.9993 18 24.9993ZM18 23.9993C21.3137 23.9993 24 21.313 24 17.9993C24 14.6856 21.3137 11.9993 18 11.9993C14.6863 11.9993 12 14.6856 12 17.9993C12 21.313 14.6863 23.9993 18 23.9993Z" fill="#040B29"/>
</svg>
