<svg width="48" height="48" viewBox="0 0 48 48" fill="none" xmlns="http://www.w3.org/2000/svg">
<path fill-rule="evenodd" clip-rule="evenodd" d="M36 9.5C36.5523 9.5 37 9.94762 37 10.4998V16.4122C37 16.6663 36.9033 16.9108 36.7295 17.0961L29.5 24.8051V37.5002C29.5 38.0524 29.0523 38.5 28.5 38.5H19.5C18.9477 38.5 18.5 38.0524 18.5 37.5002V24.8061L11.2705 17.0961C11.0967 16.9108 11 16.6663 11 16.4123V10.4998C11 9.94762 11.4477 9.5 12 9.5H36ZM36 10.499H12V16.3939L19.5 24.3918V37.4995H28.5V24.3918L36 16.3929V10.499ZM23.5 26.9987C24.0523 26.9987 24.5 27.4463 24.5 27.9985V31.9976C24.5 32.5498 24.0523 32.9974 23.5 32.9974V26.9987ZM33 15.5011C33 16.0532 32.5523 16.5008 32 16.5008H16C15.4477 16.5008 15 16.0532 15 15.5011H33Z" fill="white"/>
</svg>
