<svg width="28" height="28" viewBox="0 0 28 28" fill="none" xmlns="http://www.w3.org/2000/svg">
<path fill-rule="evenodd" clip-rule="evenodd" d="M15.25 3.75C17.183 3.75 18.75 5.317 18.75 7.25V12.75C18.75 13.0582 18.6325 13.3584 18.4997 13.6122C18.3625 13.8743 18.1804 14.1393 17.9952 14.3875C17.8434 14.5911 17.6804 14.7952 17.5293 14.9844L17.4313 15.1073C17.2494 15.3358 17.0967 15.5327 16.9879 15.6982C16.9439 15.7653 16.9162 15.8142 16.8997 15.8513C16.9107 15.8602 16.9252 15.8711 16.9444 15.8836C17.3614 16.1573 18.1283 16.5902 18.9735 17.0496C19.2972 17.2255 19.5 17.5637 19.5 17.9321V18.4676C18.3067 17.8331 17.0167 17.1273 16.3956 16.7196C16.097 16.5236 15.8824 16.2431 15.8862 15.8722C15.8894 15.5663 16.0489 15.3063 16.1521 15.1492C16.2893 14.9403 16.4695 14.7099 16.6488 14.4846L16.7519 14.3554C16.9024 14.1668 17.0527 13.9786 17.1937 13.7896C17.367 13.5572 17.5127 13.3414 17.6137 13.1485C17.719 12.9473 17.75 12.8186 17.75 12.75V9.74691C15.6562 9.6946 14.3937 8.98458 13.7439 8.11696C13.5456 8.36494 13.2902 8.59064 12.9692 8.77646C12.4093 9.10061 11.6779 9.28776 10.75 9.28881V12.75C10.75 14.1307 12.3545 14.95 13 15.2C13.6455 15.45 14.5 15.5 14.5 15.5C14.5 16.0319 14.035 16.4438 13.5122 16.3459C13.1686 16.2815 12.7955 16.1985 12.5 16.1C11.75 15.85 9.75 14.683 9.75 12.75V7.75H7.5C7.08751 7.75 6.72029 7.96253 6.44043 8.31235C6.15625 8.66758 6 9.12146 6 9.5V12.48C6.00156 12.4855 6.00429 12.4942 6.00883 12.5064C6.02332 12.5455 6.04855 12.6003 6.08744 12.6716C6.16531 12.8144 6.27787 12.9873 6.40982 13.1761C6.53625 13.357 6.6727 13.5416 6.80245 13.7171L6.81615 13.7356C6.94648 13.9119 7.07449 14.0853 7.16603 14.2227C7.39119 14.5604 7.34425 14.9982 7.23483 15.3075C7.116 15.6434 6.86813 16 6.47361 16.1972C6.24227 16.3129 5.49987 16.7445 4.73191 17.1919L4.63807 17.2466C3.92402 17.6626 3.20583 18.0811 2.97361 18.1972C2.44499 18.4615 2 19.1786 2 20V22C1.44772 22 1 21.5523 1 21V20C1 18.8682 1.60189 17.765 2.52639 17.3028C2.72916 17.2014 3.44479 16.7845 4.20544 16.3413L4.2285 16.3279C4.97373 15.8937 5.75773 15.4371 6.02639 15.3028C6.13783 15.2471 6.23826 15.1261 6.29209 14.974C6.31795 14.9009 6.32678 14.8369 6.32604 14.7925C6.32579 14.7778 6.32459 14.7678 6.32359 14.7619C6.24873 14.6509 6.14117 14.5048 6.01197 14.33L5.99575 14.3081C5.86795 14.1352 5.72439 13.941 5.59018 13.7489C5.45129 13.5502 5.31386 13.3418 5.20944 13.1503C5.15718 13.0544 5.10819 12.9538 5.07124 12.8541C5.03654 12.7606 5 12.6355 5 12.5V9.5C5 8.87854 5.24375 8.20742 5.65956 7.68765C6.07971 7.16247 6.71249 6.75 7.5 6.75H9.75V7.25C9.75 5.317 11.317 3.75 13.25 3.75H15.25ZM15.25 4.75C16.6307 4.75 17.75 5.86929 17.75 7.25V8.74667C15.2172 8.67811 14.4074 7.56811 14.235 6.87873C14.1794 6.65615 13.9794 6.5 13.7499 6.5C13.5205 6.5 13.3205 6.65615 13.2649 6.87873C13.1699 7.25868 12.9352 7.64067 12.4682 7.91104C12.094 8.12765 11.5434 8.28792 10.75 8.28889V7.25C10.75 5.86929 11.8693 4.75 13.25 4.75H15.25Z" fill="#040B29"/>
<path d="M7.87525 19.0886C8.66595 18.6904 9.64465 18.1933 10.5492 17.7223C10.7942 17.5948 10.888 17.2924 10.7595 17.048C10.6309 16.8036 10.3287 16.7097 10.0838 16.8372C9.18628 17.3045 8.21364 17.7985 7.42543 18.1955C6.96564 18.4271 6.56911 18.6254 6.28757 18.7658C6.1468 18.836 6.0348 18.8917 5.95803 18.9298L5.84035 18.9882L5.82721 18.995C5.01056 19.4288 4.5001 20.278 4.5001 21.2028V23.5005C4.5001 24.0528 4.94781 24.5005 5.5001 24.5005V21.2028C5.5001 20.6501 5.80396 20.1424 6.29056 19.8812L6.40294 19.8254C6.48012 19.7871 6.59257 19.7311 6.73382 19.6607C7.0163 19.5198 7.41405 19.3209 7.87525 19.0886Z" fill="#040B29"/>
<path d="M27 20C27 20.5523 26.5523 21 26 21H23V24C23 24.5523 22.5523 25 22 25V21H19C18.4477 21 18 20.5523 18 20H22V16C22.5523 16 23 16.4477 23 17V20H27Z" fill="#040B29"/>
</svg>
