<svg width="28" height="28" viewBox="0 0 28 28" fill="none" xmlns="http://www.w3.org/2000/svg">
<path fill-rule="evenodd" clip-rule="evenodd" d="M16.3806 13.8993C16.412 14.5374 16.193 15.1497 15.764 15.6233C15.335 16.0963 14.7473 16.375 14.1087 16.4059C13.4665 16.4389 12.8583 16.2184 12.3853 15.7894C11.9117 15.3603 11.6336 14.7726 11.6021 14.134C11.5372 12.817 12.556 11.6923 13.874 11.6274C13.9133 11.6253 13.9526 11.6242 13.9919 11.6242C15.2575 11.6242 16.3177 12.6222 16.3806 13.8993ZM18.8122 20.4742C18.7305 21.4889 18.0018 22.3852 16.6456 23.1375C15.1029 23.9929 11.3025 23.8232 10.5875 23.0688C10.5209 22.9981 10.5016 22.9578 10.5775 22.8373C10.9898 22.1819 11.5445 21.6859 12.0815 21.206C13.1359 20.2631 14.2229 19.2871 14.1757 17.1881C14.9756 17.142 15.7132 16.802 16.269 16.2284C17.962 17.6443 18.9133 19.2128 18.8122 20.4742ZM9.18936 7.52454C9.2716 6.50983 9.99921 5.61405 11.3544 4.86284C12.8971 4.00791 16.698 4.17554 17.412 4.93146C17.4791 5.00218 17.4984 5.04252 17.4225 5.16301C17.016 5.80997 16.4707 6.31444 15.9432 6.80319C14.8929 7.77651 13.8091 8.78074 13.8284 10.8437C13.0322 10.8845 12.2983 11.2172 11.7404 11.7793C10.0422 10.3602 9.08826 8.7886 9.18936 7.52454ZM19.2297 14.157C18.9552 14.4934 19.0055 14.9879 19.3413 15.2624L19.3895 15.3017C19.8353 15.6296 20.2161 16.0413 20.62 16.4767C21.1428 17.0414 21.6839 17.6255 22.4178 18.0875C22.599 18.2017 22.7839 18.2578 22.9636 18.2578C23.1941 18.2578 23.4152 18.1661 23.6084 17.9827C24.6896 16.9597 24.8185 12.7678 23.8243 10.9741C22.939 9.37636 21.8342 8.5141 20.5409 8.41037C18.4036 8.24274 16.4937 10.1731 15.5812 11.2696C15.2884 11.0993 14.9667 10.9762 14.6262 10.9065C14.5911 9.15005 15.4628 8.31975 16.4775 7.37995C17.0422 6.85663 17.6257 6.31549 18.0877 5.58157C18.347 5.16929 18.3088 4.73554 17.983 4.39137C16.9605 3.31014 12.7677 3.1818 10.9741 4.17554C9.37427 5.06243 8.51047 6.16776 8.40623 7.46168C8.23755 9.56966 10.1574 11.4891 11.2527 12.4042C10.9395 12.9344 10.786 13.5441 10.8174 14.1728C10.8573 14.9769 11.1941 15.7176 11.764 16.2786C10.3512 17.9686 8.78548 18.9199 7.52933 18.8162C6.51361 18.7345 5.6168 18.0042 4.86353 16.6453C4.00863 15.1031 4.1773 11.3015 4.93215 10.588C5.00234 10.5215 5.04216 10.5016 5.16369 10.577C5.81796 10.9888 6.31455 11.5435 6.79491 12.0789C7.21136 12.5446 7.64247 13.0255 8.16945 13.4043C8.18255 13.4132 8.19722 13.4153 8.20979 13.4226L8.26846 13.4677C8.62362 13.7118 9.10921 13.6211 9.3528 13.266L8.64929 12.783L8.64667 12.7861C8.63986 12.7798 8.63567 12.7715 8.62781 12.7657C8.1705 12.4372 7.78653 12.0087 7.38003 11.5545C6.86353 10.9788 6.32974 10.3827 5.58223 9.91226C5.16997 9.65243 4.73624 9.69067 4.39155 10.017C3.31036 11.0396 3.18149 15.2325 4.17573 17.0262C5.06468 18.6297 6.17207 19.4962 7.46594 19.5999C7.55342 19.6067 7.64038 19.6098 7.72734 19.6098C9.72734 19.6098 11.5225 17.8046 12.3952 16.759C12.7017 16.9387 13.0322 17.067 13.3795 17.1346C13.4413 18.9168 12.5712 19.7156 11.5576 20.6203C10.9804 21.1363 10.3837 21.6696 9.91225 22.4187C9.65295 22.8305 9.69119 23.2642 10.017 23.6084C10.5707 24.1941 12.0532 24.5 13.5822 24.5C14.8766 24.5 16.2035 24.2805 17.0259 23.8248C18.6273 22.9368 19.4916 21.831 19.5953 20.5371C19.7645 18.4285 17.8415 16.5081 16.7478 15.5955C17.0479 15.0738 17.1962 14.4771 17.1653 13.8605C17.1244 13.0313 16.763 12.2927 16.2114 11.752C17.6331 10.0479 19.203 9.08405 20.478 9.19406C21.4927 9.27526 22.3874 10.0024 23.1365 11.355C23.9919 12.8967 23.8227 16.6983 23.0689 17.4117C22.9982 17.4788 22.9584 17.4982 22.8363 17.4227C22.1899 17.0157 21.6849 16.4704 21.1962 15.9429C20.7965 15.5112 20.3821 15.0665 19.8955 14.7008L19.2297 14.157Z" fill="#040B29" stroke="#040B29" stroke-width="0.1"/>
</svg>
