<svg width="48" height="48" viewBox="0 0 48 48" fill="none" xmlns="http://www.w3.org/2000/svg">
<path fill-rule="evenodd" clip-rule="evenodd" d="M10.1923 29.2526C10.4949 29.0471 10.8875 28.8966 11.392 28.8966H16.608C17.1085 28.8966 17.4975 29.046 17.7985 29.2504C18.2333 29.5456 18.4854 29.9673 18.5803 30.2318L19.8114 33.3709L19.9949 33.4468C20.2799 33.5646 20.5289 33.7559 20.7143 33.9979C20.9305 34.28 21.0588 34.6288 21.0588 35.0058V37.2616C21.0588 37.551 20.9374 37.8135 20.7421 38.0042C20.5741 38.1681 20.3976 38.3114 20.0593 38.3132L19.5915 38.3158V39.5597C19.5772 39.7004 19.5117 39.8289 19.4124 39.9258C19.2973 40.0381 19.1425 40.1034 18.9774 40.1034C18.8123 40.1034 18.6574 40.0381 18.5424 39.9258C18.4296 39.8158 18.3603 39.6651 18.3603 39.5014V38.3132H9.63965V39.5014C9.63965 39.6651 9.57043 39.8158 9.45763 39.9258C9.34257 40.0381 9.18773 40.1034 9.02262 40.1034C8.85752 40.1034 8.70268 40.0381 8.58762 39.9258C8.47482 39.8158 8.40559 39.6651 8.40559 39.5014V38.3374L7.98569 38.2941C7.74626 38.2694 7.59901 38.2241 7.50088 38.1784C7.40579 38.1341 7.33508 38.0795 7.25792 38.0042C7.06257 37.8135 6.94118 37.551 6.94118 37.2616V35.0058C6.94118 34.6288 7.06954 34.28 7.2857 33.9979C7.47108 33.7559 7.72006 33.5646 8.00513 33.4468L8.18864 33.3709L9.41722 30.238L9.42047 30.2284C9.51012 29.9642 9.7589 29.5468 10.1923 29.2526ZM11.392 28C10.6751 28 10.0941 28.2183 9.64601 28.5225C9.02907 28.9414 8.67283 29.5243 8.52839 29.9425L7.443 32.7103C7.08055 32.8935 6.76679 33.1543 6.52543 33.4694C6.19597 33.8994 6 34.432 6 35.0058V37.2616C6 37.7941 6.22422 38.2789 6.58445 38.6304C6.71033 38.7533 6.86646 38.8809 7.08747 38.9839C7.20114 39.0368 7.32573 39.0803 7.46442 39.1146V39.5014C7.46442 39.9094 7.63737 40.282 7.91415 40.5521C8.19681 40.8279 8.59068 41 9.02262 41C9.45457 41 9.84844 40.8279 10.1311 40.5521C10.4079 40.282 10.5808 39.9094 10.5808 39.5014V39.2098H17.4192V39.5014C17.4192 39.9094 17.5921 40.282 17.8689 40.5521C18.1516 40.8279 18.5454 41 18.9774 41C19.4093 41 19.8032 40.8279 20.0859 40.5521C20.3376 40.3064 20.5035 39.976 20.5314 39.6109L20.5326 39.5946V39.1525C20.9653 39.0435 21.2398 38.8019 21.4156 38.6304C21.7758 38.2789 22 37.7941 22 37.2616V35.0058C22 34.432 21.804 33.8994 21.4746 33.4694C21.2332 33.1543 20.9194 32.8935 20.557 32.7103L19.4688 29.9354C19.3215 29.529 18.9657 28.942 18.3448 28.5204C17.8989 28.2176 17.3216 28 16.608 28H11.392Z" fill="#040B29" stroke="#040B29" stroke-width="0.1"/>
<path fill-rule="evenodd" clip-rule="evenodd" d="M32.1923 29.2526C32.4949 29.0471 32.8875 28.8966 33.392 28.8966H38.608C39.1085 28.8966 39.4975 29.046 39.7985 29.2504C40.2333 29.5456 40.4854 29.9673 40.5803 30.2318L41.8114 33.3709L41.9949 33.4468C42.2799 33.5646 42.5289 33.7559 42.7143 33.9979C42.9305 34.28 43.0588 34.6288 43.0588 35.0058V37.2616C43.0588 37.551 42.9374 37.8135 42.7421 38.0042C42.5741 38.1681 42.3976 38.3114 42.0593 38.3132L41.5915 38.3158V39.5597C41.5772 39.7004 41.5117 39.8289 41.4124 39.9258C41.2973 40.0381 41.1425 40.1034 40.9774 40.1034C40.8123 40.1034 40.6574 40.0381 40.5424 39.9258C40.4296 39.8158 40.3603 39.6651 40.3603 39.5014V38.3132H31.6397V39.5014C31.6397 39.6651 31.5704 39.8158 31.4576 39.9258C31.3426 40.0381 31.1877 40.1034 31.0226 40.1034C30.8575 40.1034 30.7027 40.0381 30.5876 39.9258C30.4748 39.8158 30.4056 39.6651 30.4056 39.5014V38.3374L29.9857 38.2941C29.7463 38.2694 29.599 38.2241 29.5009 38.1784C29.4058 38.1341 29.3351 38.0795 29.2579 38.0042C29.0626 37.8135 28.9412 37.551 28.9412 37.2616V35.0058C28.9412 34.6288 29.0695 34.28 29.2857 33.9979C29.4711 33.7559 29.7201 33.5646 30.0051 33.4468L30.1886 33.3709L31.4172 30.238L31.4205 30.2284C31.5101 29.9642 31.7589 29.5468 32.1923 29.2526ZM33.392 28C32.6751 28 32.0941 28.2183 31.646 28.5225C31.0291 28.9414 30.6728 29.5243 30.5284 29.9425L29.443 32.7103C29.0806 32.8935 28.7668 33.1543 28.5254 33.4694C28.196 33.8994 28 34.432 28 35.0058V37.2616C28 37.7941 28.2242 38.2789 28.5844 38.6304C28.7103 38.7533 28.8665 38.8809 29.0875 38.9839C29.2011 39.0368 29.3257 39.0803 29.4644 39.1146V39.5014C29.4644 39.9094 29.6374 40.282 29.9141 40.5521C30.1968 40.8279 30.5907 41 31.0226 41C31.4546 41 31.8484 40.8279 32.1311 40.5521C32.4079 40.282 32.5808 39.9094 32.5808 39.5014V39.2098H39.4192V39.5014C39.4192 39.9094 39.5921 40.282 39.8689 40.5521C40.1516 40.8279 40.5454 41 40.9774 41C41.4093 41 41.8032 40.8279 42.0859 40.5521C42.3376 40.3064 42.5035 39.976 42.5314 39.6109L42.5326 39.5946V39.1525C42.9653 39.0435 43.2398 38.8019 43.4156 38.6304C43.7758 38.2789 44 37.7941 44 37.2616V35.0058C44 34.432 43.804 33.8994 43.4746 33.4694C43.2332 33.1543 42.9194 32.8935 42.557 32.7103L41.4688 29.9354C41.3215 29.529 40.9657 28.942 40.3448 28.5204C39.8989 28.2176 39.3216 28 38.608 28H33.392Z" fill="#040B29" stroke="#040B29" stroke-width="0.1"/>
<path d="M24.5 27C25.0523 27 25.5 27.4477 25.5 28V41C25.5 41.5523 25.0523 42 24.5 42V27Z" fill="#040B29"/>
<path fill-rule="evenodd" clip-rule="evenodd" d="M35.5 6.9375C31.8756 6.9375 28.9375 9.87563 28.9375 13.5C28.9375 17.1244 31.8756 20.0625 35.5 20.0625C39.1244 20.0625 42.0625 17.1244 42.0625 13.5C42.0625 9.87563 39.1244 6.9375 35.5 6.9375ZM28 13.5C28 9.35786 31.3579 6 35.5 6C39.6421 6 43 9.35786 43 13.5C43 17.6421 39.6421 21 35.5 21C31.3579 21 28 17.6421 28 13.5Z" fill="#040B29" stroke="#040B29" stroke-width="0.1"/>
<path fill-rule="evenodd" clip-rule="evenodd" d="M23.7067 7.00008L14.8539 15.8538C14.6587 16.0491 14.3421 16.0491 14.1469 15.8539L10.2919 12C10.6824 11.6095 11.3156 11.6094 11.7061 11.9998L14.5004 14.7931L22.2926 7.00011C22.6831 6.60958 23.3162 6.60956 23.7067 7.00008Z" fill="#040B29"/>
<path d="M14.5 6.9375C10.8756 6.9375 7.9375 9.87563 7.9375 13.5C7.9375 17.1244 10.8756 20.0625 14.5 20.0625C18.1244 20.0625 21.0625 17.1244 21.0625 13.5C21.0625 12.7036 20.9206 11.9404 20.6608 11.2342L21.3817 10.5133C21.7795 11.4285 22 12.4385 22 13.5C22 17.6421 18.6421 21 14.5 21C10.3579 21 7 17.6421 7 13.5C7 9.35786 10.3579 6 14.5 6C16.5573 6 18.4211 6.82831 19.7761 8.16963L19.1132 8.83255C17.9278 7.66088 16.2984 6.9375 14.5 6.9375Z" fill="#040B29" stroke="#040B29" stroke-width="0.1"/>
</svg>
