<svg width="28" height="28" viewBox="0 0 28 28" fill="none" xmlns="http://www.w3.org/2000/svg">
<path fill-rule="evenodd" clip-rule="evenodd" d="M12.189 4.87813C13.1 3.94317 14.5049 3.5 16.443 3.5H20V8H17.668C16.9564 8 16.7241 8.12418 16.6415 8.20748C16.5637 8.28598 16.5 8.44487 16.5 8.91641V10.5H20.0629L19.5285 15H16.5V25.5H10.9609V15H8.5V10.5H10.9609V8.66484C10.9609 7.13421 11.2799 5.81122 12.189 4.87813ZM12.9053 5.57597C12.2599 6.23839 11.9609 7.24782 11.9609 8.66484V11.5H9.5V14H11.9609V24.5H15.5V14H18.6402L18.9371 11.5H15.5V8.91641C15.5 8.44732 15.5402 7.898 15.9313 7.50346C16.3177 7.11371 16.9194 7 17.668 7H19V4.5H16.443C14.635 4.5 13.5489 4.91542 12.9053 5.57597Z" fill="white"/>
</svg>
