<svg width="28" height="28" viewBox="0 0 28 28" fill="none" xmlns="http://www.w3.org/2000/svg">
<path fill-rule="evenodd" clip-rule="evenodd" d="M14 8.44816L12.0123 6.46049C10.065 4.51317 6.90779 4.51317 4.96048 6.46048C3.01317 8.40779 3.01317 11.565 4.96048 13.5123L13.9903 22.5421L14 22.5324L14.0097 22.5421L23.0395 13.5123C24.9868 11.565 24.9868 8.40779 23.0395 6.46048C21.0922 4.51317 17.935 4.51317 15.9877 6.46049L14 8.44816ZM14.0097 24.6635L14 24.6537L13.9903 24.6635L3.89982 14.573C1.36673 12.0399 1.36672 7.93292 3.89982 5.39982C6.43292 2.86672 10.5399 2.86673 13.073 5.39983L14 6.32684L14.927 5.39983C17.4601 2.86673 21.5671 2.86672 24.1002 5.39982C26.6333 7.93292 26.6333 12.0399 24.1002 14.573L14.0097 24.6635Z" fill="white"/>
</svg>
