<svg width="28" height="28" viewBox="0 0 28 28" fill="none" xmlns="http://www.w3.org/2000/svg">
<path d="M14.3084 4.13477C15.5407 4.13477 16.7291 4.32315 17.8741 4.7C19.0166 5.07599 20.0246 5.62865 20.8988 6.35841C21.7717 7.08701 22.4676 7.97772 22.9873 9.03148C23.5061 10.0835 23.7654 11.288 23.7654 12.6458C23.7654 13.7024 23.6464 14.6134 23.4085 15.3776C23.1712 16.1398 22.8665 16.768 22.4945 17.2615C22.1259 17.7507 21.7093 18.1114 21.244 18.344C20.7788 18.5766 20.3081 18.6928 19.8304 18.6928C19.251 18.6928 18.6458 18.5072 18.267 18.2258C18.0427 18.0592 17.8376 17.8428 17.6673 17.6028L17.5465 17.4188L17.45 17.2456L17.3454 16.9728L16.9618 17.3523C16.6658 17.631 16.372 17.8476 16.0284 18.0298L15.8158 18.1353L15.5888 18.2339C15.0651 18.4467 14.4245 18.5388 13.6924 18.5388C13.0231 18.5388 12.4194 18.4112 11.8801 18.1558C11.339 17.8994 10.8768 17.5582 10.4927 17.1315C10.1081 16.7041 9.81262 16.2128 9.60589 15.6567C9.39882 15.0998 9.29535 14.5144 9.29535 13.8998C9.29535 13.285 9.39888 12.6957 9.60608 12.1313C9.81281 11.5681 10.1082 11.0733 10.4927 10.6461C10.8768 10.2193 11.339 9.87811 11.8801 9.62177C12.4194 9.36633 13.0231 9.23877 13.6924 9.23877C14.3232 9.23877 14.9514 9.34807 15.4862 9.55334C15.9044 9.71387 16.359 9.97909 16.7161 10.2716L16.8859 10.4197L17.0386 10.5736L17.2444 10.7958L17.3024 9.45877L17.4484 9.45889L17.5528 9.4655C17.9016 9.50916 18.1861 9.76047 18.2783 10.0955L18.3018 10.2101L18.3094 10.3238L18.3093 15.6585L18.313 15.8488C18.362 17.1082 18.8939 17.6814 19.9722 17.6814C20.2727 17.6814 20.696 17.543 21.0074 17.3522C21.3669 17.1318 21.5799 16.9368 21.8214 16.5684C22.1058 16.1347 22.3096 15.6533 22.4692 15.0219C22.6333 14.3729 22.7154 13.5814 22.7154 12.6458C22.7154 11.5857 22.5135 10.5956 22.11 9.6765C21.7065 8.75739 21.1345 7.95735 20.3947 7.27737C19.656 6.59834 18.7722 6.06489 17.744 5.67744C16.7167 5.29036 15.5714 5.09677 14.3084 5.09677C12.9542 5.09677 11.7216 5.35025 10.6113 5.85695C9.50242 6.36302 8.55656 7.03718 7.77446 7.87887C6.99329 8.71955 6.38675 9.67216 5.95525 10.736C5.52337 11.8008 5.30735 12.8924 5.30735 14.0098C5.30735 15.186 5.52711 16.3107 5.96643 17.3829C6.40557 18.4547 7.0163 19.3968 7.79812 20.2084C8.5801 21.0202 9.51101 21.6682 10.5901 22.152C11.6708 22.6364 12.8519 22.8788 14.1324 22.8788C14.8301 22.8788 15.4948 22.8193 16.1263 22.7004C16.7574 22.5817 17.3405 22.4219 17.8758 22.2212C18.3031 22.0609 18.6974 21.8887 19.0586 21.7045L19.3233 21.5641L19.4149 21.5123L19.6203 21.3886L19.7235 21.334L19.8365 21.2926C20.1165 21.2122 20.4176 21.2793 20.6383 21.4683L20.7276 21.5567L20.8567 21.7333L20.8049 21.7775L20.5275 21.9659C20.2946 22.1171 20.0367 22.271 19.7539 22.4277C19.2835 22.6882 18.7583 22.9236 18.1783 23.1338C17.598 23.3442 16.9628 23.5184 16.2729 23.6564C15.5849 23.794 14.8494 23.8628 14.0664 23.8628C12.7351 23.8628 11.4734 23.6097 10.2801 23.1035C9.08588 22.5969 8.04058 21.8988 7.14342 21.0089C6.2462 20.1189 5.53725 19.0771 5.01608 17.8828C4.49551 16.6898 4.23535 15.3991 4.23535 14.0098C4.23535 12.621 4.50627 11.3272 5.04838 10.1273C5.59136 8.92554 6.32216 7.87991 7.24127 6.98974C8.1604 6.09956 9.23141 5.40131 10.455 4.89449C11.678 4.38794 12.9621 4.13477 14.3084 4.13477ZM13.8244 10.2448C13.2905 10.2448 12.8161 10.3446 12.4018 10.5441C11.9886 10.7431 11.6397 11.0116 11.356 11.3489C11.074 11.6842 10.8568 12.0727 10.7047 12.5138C10.5532 12.9532 10.4774 13.4154 10.4774 13.8998C10.4774 14.3841 10.5532 14.8463 10.7047 15.2858C10.857 15.7273 11.0745 16.1125 11.357 16.4408C11.6409 16.7708 11.9901 17.0318 12.4036 17.2233C12.8175 17.4149 13.2912 17.5108 13.8244 17.5108C14.6466 17.5108 15.3277 17.303 15.8648 16.8887C16.3141 16.542 16.7034 16.1197 16.9467 15.6982L17.0418 15.5178L17.1232 15.3254L17.1494 15.2399L17.1522 12.3788L17.1263 12.2842L16.9602 12.0381L16.7758 11.7857L16.5798 11.5373C16.3739 11.2856 16.1337 11.0644 15.8594 10.8739C15.585 10.6834 15.2805 10.531 14.9459 10.417C14.6092 10.3022 14.2353 10.2448 13.8244 10.2448Z" fill="#040B29"/>
</svg>
