<svg width="28" height="28" viewBox="0 0 28 28" fill="none" xmlns="http://www.w3.org/2000/svg">
<path d="M14 2C20.6274 2 26 7.37258 26 14C26 20.6274 20.6274 26 14 26C7.37258 26 2 20.6274 2 14C2 7.37258 7.37258 2 14 2ZM14 3.5C8.20101 3.5 3.5 8.20101 3.5 14C3.5 19.799 8.20101 24.5 14 24.5C19.799 24.5 24.5 19.799 24.5 14C24.5 8.20101 19.799 3.5 14 3.5ZM13.474 18.948C13.778 18.948 14.0345 19.0557 14.2435 19.271C14.4525 19.4863 14.557 19.7523 14.557 20.069C14.557 20.373 14.4525 20.6327 14.2435 20.848C14.0345 21.0633 13.778 21.171 13.474 21.171C13.1573 21.171 12.8945 21.0633 12.6855 20.848C12.4765 20.6327 12.372 20.373 12.372 20.069C12.372 19.7523 12.4765 19.4863 12.6855 19.271C12.8945 19.0557 13.1573 18.948 13.474 18.948ZM14.12 7.472C14.7533 7.472 15.3202 7.57967 15.8205 7.795C16.3208 8.01033 16.742 8.29217 17.084 8.6405C17.426 8.98883 17.6888 9.391 17.8725 9.847C18.0562 10.303 18.148 10.7653 18.148 11.234C18.148 11.7153 18.0625 12.1808 17.8915 12.6305C17.7205 13.0802 17.4672 13.4918 17.1315 13.8655C16.7958 14.2392 16.381 14.559 15.887 14.825C15.393 15.091 14.8167 15.281 14.158 15.395L14.1442 16.1742C14.1308 16.9335 13.5114 17.542 12.752 17.542L12.7198 14.9318C12.7166 14.6711 12.9142 14.4517 13.1738 14.4277C13.721 14.3772 14.1251 14.3101 14.386 14.2265C14.88 14.0682 15.3012 13.8465 15.6495 13.5615C15.9978 13.2765 16.267 12.9377 16.457 12.545C16.647 12.1523 16.742 11.728 16.742 11.272C16.742 10.9553 16.6787 10.6482 16.552 10.3505C16.4253 10.0528 16.2417 9.78683 16.001 9.5525C15.7603 9.31817 15.4753 9.12817 15.146 8.9825C14.8167 8.83683 14.4557 8.764 14.063 8.764C13.493 8.764 12.9515 8.88433 12.4385 9.125C12.3246 9.17842 12.1978 9.24706 12.0579 9.3309C11.468 9.6846 10.7056 9.52929 10.301 8.973C10.7443 8.593 11.289 8.24783 11.935 7.9375C12.581 7.62717 13.3093 7.472 14.12 7.472Z" fill="#040B29"/>
</svg>
