<svg width="28" height="28" viewBox="0 0 28 28" fill="none" xmlns="http://www.w3.org/2000/svg">
<path d="M23.5 23.6973C23.5 24.1564 23.3196 24.5971 22.9978 24.9244C22.3201 25.6135 21.2121 25.6228 20.523 24.9451L14.765 19.2829C15.3459 18.6922 16.2956 18.6843 16.8863 19.2651L21.5747 23.8756C21.6732 23.9724 21.8314 23.9711 21.9283 23.8726C21.9589 23.8415 21.9806 23.8031 21.9916 23.7615L22 23.6973V3.5H6V23.6691C6 23.8072 6.11193 23.9191 6.25 23.9191C6.2942 23.9191 6.3372 23.9074 6.37484 23.8857L6.42678 23.8459L20.2207 10.0519C20.8065 10.6377 20.8065 11.5875 20.2207 12.1733L7.48744 24.9066C7.15925 25.2347 6.71413 25.4191 6.25 25.4191C5.33183 25.4191 4.57881 24.712 4.5058 23.8126L4.5 23.6691V3.75C4.5 2.83183 5.20711 2.07881 6.10647 2.0058L6.25 2H21.75C22.6682 2 23.4212 2.70711 23.4942 3.60647L23.5 3.75V23.6973Z" fill="#040B29"/>
</svg>
