<svg width="28" height="28" viewBox="0 0 28 28" fill="none" xmlns="http://www.w3.org/2000/svg">
<path fill-rule="evenodd" clip-rule="evenodd" d="M7.25 7.25C7.25 4.90279 9.15279 3 11.5 3H13.25C15.1622 3 16.7794 4.26283 17.3132 6H18.5C20.433 6 22 7.567 22 9.5V12.3145C22 12.536 21.9561 12.7552 21.871 12.9597L20.9298 15.2185L24.3301 17.4854C25.3734 18.1809 26 19.3517 26 20.6056V23.5C25.1716 23.5 24.5 22.8284 24.5 22V20.6056C24.5 19.8533 24.124 19.1507 23.4981 18.7334L19.9265 16.3524C19.4291 16.0208 19.2361 15.3834 19.466 14.8315L20.4864 12.3828C20.4954 12.3611 20.5 12.3379 20.5 12.3145V9.5C20.5 8.39543 19.6046 7.5 18.5 7.5H17.5V11.5C17.5 11.9291 17.415 12.3539 17.25 12.75L16.1708 15.3354C16.0651 15.5469 16.1407 15.8042 16.3442 15.9248L16.9748 16.3342L21.0899 18.9821C22.2078 19.6625 22.8901 20.8766 22.8901 22.1853V24.9993C22.0617 24.9993 21.3901 24.3277 21.3901 23.4993V22.1853C21.3901 21.4001 20.9808 20.6716 20.31 20.2634L17.2316 18.2746C17.1859 18.245 17.1423 18.2134 17.1008 18.1799L15.5795 17.2152C14.7073 16.6984 14.3777 15.6009 14.8165 14.6905L15.8654 12.1731C15.9542 11.9598 16 11.731 16 11.5V7.25C16 5.73122 14.7688 4.5 13.25 4.5H11.5C9.98122 4.5 8.75 5.73122 8.75 7.25V11.5943C8.75 11.7824 8.78032 11.9693 8.8398 12.1477L9.36057 13.71C9.53042 14.2195 9.87693 14.6515 10.3375 14.9279L11.8859 15.8569C11.4597 16.5673 10.5383 16.7976 9.82789 16.3714L9.56575 16.2141C8.79815 15.7535 8.22062 15.0336 7.93755 14.1843L7.41678 12.622C7.30632 12.2907 7.25 11.9436 7.25 11.5943V7.25ZM7.60866 18.4206C8.31631 17.9899 8.54078 17.067 8.11004 16.3594L3.8002 18.9828C2.68229 19.6632 2 20.8773 2 22.186V25C2.82843 25 3.5 24.3285 3.5 23.5V22.186C3.5 21.4008 3.90937 20.6723 4.58012 20.2641L7.60866 18.4206Z" fill="#040B29"/>
<path fill-rule="evenodd" clip-rule="evenodd" d="M11.7998 6C12.0292 6 12.2292 6.15615 12.2848 6.37873C12.4627 7.0903 13.3198 8.25 16.0498 8.25V9.25C13.8059 9.25 12.469 8.51858 11.7937 7.61696C11.5954 7.86494 11.34 8.09064 11.019 8.27646C10.3071 8.68862 9.31782 8.8793 8 8.74752L8.0995 7.75248C9.28169 7.8707 10.0424 7.68638 10.518 7.41104C10.985 7.14067 11.2197 6.75868 11.3147 6.37873C11.3703 6.15615 11.5703 6 11.7998 6Z" fill="#040B29" stroke="#040B29" stroke-width="0.5"/>
</svg>
