<svg width="28" height="28" viewBox="0 0 28 28" fill="none" xmlns="http://www.w3.org/2000/svg">
<path d="M24.25 2.5C25.1682 2.5 25.9212 3.20711 25.9942 4.10647L26 4.25V21.4964L20.032 17.373H20.0303L20 17.371V20.5613C20 21.0741 19.614 21.4968 19.1166 21.5546L19 21.5613H8.0315L2 25.5V8.5C2 7.98716 2.38604 7.56449 2.88338 7.50673L3 7.5H5.996L5.99667 6.84711L6.00667 4.2462C6.00866 3.32944 6.71531 2.57858 7.61335 2.50578L7.75666 2.5H24.25ZM18.5 8.99933H3.5V22.7283L7.58511 20.0613L18.5 20.0603V8.99933ZM24.5 4H7.49667V7.41667L7.492 7.5H19C19.5128 7.5 19.9355 7.88604 19.9933 8.38338L20 8.5V15.873L20.4995 15.8731L24.5 18.637V4Z" fill="#040B29"/>
</svg>
