<svg width="28" height="28" viewBox="0 0 28 28" fill="none" xmlns="http://www.w3.org/2000/svg">
<path d="M11.3069 22.0041C8.38617 22.0041 5.97559 20.4337 5.83556 18.3332C5.82469 17.7426 5.96178 17.1586 6.23431 16.6345C6.50685 16.1104 6.91612 15.6513 7.40588 15.321C8.5501 14.4766 9.90685 13.9978 11.3269 13.9221C14.5076 13.7021 17.2183 15.3425 17.3283 17.573C17.3374 18.1633 17.1995 18.7466 16.9271 19.2704C16.6547 19.7943 16.2564 20.2421 15.7679 20.5737C14.6229 21.4165 13.2567 21.9067 11.837 21.9841L11.3069 22.0041ZM11.6373 14.8224H11.442C10.2213 14.8621 8.99397 15.2985 7.99608 16.0026C7.63459 16.2396 7.33814 16.5633 7.13374 16.9441C6.92933 17.325 6.82348 17.7509 6.8258 18.1832C6.93583 19.8636 9.17636 21.0939 11.827 20.9038C13.0473 20.8444 14.2232 20.4269 15.2078 19.7035C15.5718 19.4684 15.8707 19.1454 16.077 18.7643C16.2833 18.3832 16.3902 17.9563 16.3881 17.523C16.2681 16.0026 14.3176 14.8224 11.917 14.8224H11.6373Z" fill="white"/>
<path d="M10.4754 19.6421C11.1602 19.6421 11.7154 19.0869 11.7154 18.4021C11.7154 17.7173 11.1602 17.1621 10.4754 17.1621C9.79052 17.1621 9.23535 17.7173 9.23535 18.4021C9.23535 19.0869 9.79052 19.6421 10.4754 19.6421Z" fill="white"/>
<path d="M11.8591 23.7849C9.29068 23.7247 7.16293 23.239 5.06501 22.0043C2.86449 20.644 1.06406 18.1934 2.53441 15.3827C4.84496 11.0217 9.6061 7.52084 12.1767 7.38081C12.493 7.35345 12.8113 7.40177 13.1052 7.52178C13.3992 7.64179 13.6603 7.83004 13.8671 8.07097C14.3012 8.76875 14.4548 9.60503 14.2972 10.4115L14.7773 10.3015C15.5103 10.1406 16.2516 10.0204 16.9979 9.94142C17.4873 9.85184 17.9888 9.85184 18.4782 9.94142C20.1286 10.4015 19.8685 12.542 19.6385 13.6723C20.3213 13.9453 20.946 14.3459 21.4789 14.8526C23.1593 16.543 22.4792 19.3237 20.9188 20.924C18.7683 23.1146 15.4675 23.5747 13.1669 23.7247C12.7418 23.7524 12.2592 23.7849 11.8591 23.7849ZM12.1967 8.43106C9.96618 8.52108 5.46511 11.9719 3.40461 15.8728C1.94427 18.6335 4.70492 20.624 5.58513 21.1741C7.87703 22.4648 10.4028 22.9763 13.1269 22.7845C15.2574 22.6345 18.3182 22.2244 20.2286 20.2739C21.3089 19.1736 22.1091 16.9331 20.7888 15.6128C20.2422 15.116 19.5985 14.7379 18.8983 14.5025C18.7871 14.4578 18.6956 14.3747 18.6405 14.2682C18.5854 14.1617 18.5704 14.039 18.5982 13.9224C18.9983 12.1319 18.8783 11.1417 18.2282 10.9217C17.871 10.8563 17.505 10.8563 17.1479 10.9217C16.4196 11.0021 15.6978 11.1324 14.9874 11.3117C14.5773 11.4018 14.1572 11.5018 13.7371 11.5718C13.654 11.5868 13.5684 11.581 13.4881 11.5548C13.4078 11.5286 13.3352 11.4829 13.277 11.4218C13.2188 11.358 13.178 11.2803 13.1588 11.1962C13.1395 11.1121 13.1423 11.0244 13.1669 10.9417C13.277 10.5416 13.507 9.28126 13.0669 8.72113C12.9715 8.61144 12.85 8.52743 12.7138 8.47676C12.5775 8.42609 12.4307 8.41038 12.2867 8.43106H12.1967Z" fill="white"/>
<path d="M26 13.3322V12.332C25.9947 10.1221 25.1138 8.00439 23.5502 6.4427C21.9867 4.88101 19.8679 4.00264 17.658 4H16.6578C16.6578 4.26528 16.7632 4.5197 16.9507 4.70728C17.1383 4.89486 17.3927 5.00024 17.658 5.00024C19.6034 5.00024 21.4693 5.77237 22.8459 7.14705C24.2224 8.52174 24.9971 10.3866 24.9998 12.332V12.472C25.0337 12.7124 25.1539 12.9321 25.338 13.0904C25.522 13.2487 25.7573 13.3346 26 13.3322Z" fill="white"/>
<path d="M22.6192 11.0617C22.6166 10.1075 22.2363 9.19314 21.5616 8.51841C20.8869 7.84369 19.9725 7.46347 19.0184 7.46083H18.0181C18.0181 7.72611 18.1235 7.98052 18.3111 8.1681C18.4987 8.35568 18.7531 8.46107 19.0184 8.46107C19.7073 8.46371 20.3672 8.73854 20.8544 9.22568C21.3415 9.71282 21.6163 10.3728 21.619 11.0617C21.619 11.0617 21.619 11.0617 21.619 11.1317C21.619 11.397 21.7244 11.6514 21.9119 11.839C22.0995 12.0266 22.3539 12.1319 22.6192 12.1319V11.0617Z" fill="white"/>
</svg>
