<svg width="36" height="36" viewBox="0 0 36 36" fill="none" xmlns="http://www.w3.org/2000/svg">
<path d="M17.9994 2C26.8356 2 33.9988 9.16344 33.9988 18C33.9988 26.8366 26.8356 34 17.9994 34C9.16317 34 2 26.8366 2 18C2 9.16344 9.16317 2 17.9994 2ZM17.9994 3.5C9.99156 3.5 3.49994 9.99187 3.49994 18C3.49994 26.0081 9.99156 32.5 17.9994 32.5C26.0072 32.5 32.4988 26.0081 32.4988 18C32.4988 9.99187 26.0072 3.5 17.9994 3.5ZM27.9705 12.4417L27.9849 12.4564L27.999 12.4712L15.5695 24.7843C15.2962 25.0558 14.8747 25.0696 14.5863 24.8335L14.5041 24.7551L8.99973 18.5986C9.58216 18.0395 10.5075 18.0585 11.0666 18.6409C11.0788 18.6536 11.0907 18.6664 11.1023 18.6795L15.0789 23.1325L25.883 12.4316C26.4622 11.8579 27.3968 11.8624 27.9705 12.4417Z" fill="#00BEBE"/>
</svg>
