<svg width="36" height="36" viewBox="0 0 36 36" fill="none" xmlns="http://www.w3.org/2000/svg">
<path fill-rule="evenodd" clip-rule="evenodd" d="M18.0004 3.5C13.8825 3.5 10.8051 5.44774 10.3802 8.4934C10.0569 10.8101 11.3165 13.5179 14.4583 16.1398C14.1659 16.6955 14.0004 17.3284 14.0004 18C14.0004 19.1768 14.5085 20.2349 15.3174 20.9668C12.8458 23.9033 10.4528 24.8826 8.63062 24.6284C6.30128 24.3033 4.49902 21.8807 4.49902 17.9986C4.49902 17.2741 4.55956 16.4911 4.68668 15.7733C4.81508 15.0482 5.00561 14.4234 5.24731 13.9937C5.49557 13.5524 5.72307 13.4361 5.89746 13.4361C6.10981 13.4361 6.51256 13.5959 7.11491 14.3187C8.42309 15.8885 9.62628 16.9567 10.9325 17.6198C11.425 17.8698 12.0002 17.5914 12.1842 17.0707C10.7443 16.5619 9.43399 15.5395 7.88313 13.6785C7.23548 12.9013 6.57574 12.4361 5.89746 12.4361C5.18123 12.4361 4.68998 12.9448 4.37574 13.5035C4.05494 14.0738 3.83922 14.824 3.702 15.5989C3.56348 16.3811 3.49902 17.223 3.49902 17.9986C3.49902 22.1164 5.44677 25.1938 8.49242 25.6188C10.809 25.942 13.5166 24.6825 16.1384 21.5411C16.543 21.7543 16.9886 21.9002 17.4602 21.9638C17.3707 22.979 17.1268 23.8613 16.6829 24.7046C16.1002 25.8119 15.1539 26.8879 13.6803 28.1159C12.9031 28.7635 12.4379 29.4233 12.4379 30.1016C12.4379 30.8178 12.9466 31.309 13.5053 31.6233C14.0756 31.9441 14.8258 32.1598 15.6007 32.297C16.3829 32.4355 17.2248 32.5 18.0004 32.5C22.1182 32.5 25.1956 30.5523 25.6206 27.5066C25.9438 25.1899 24.6842 22.4821 21.5424 19.8602C21.8349 19.3045 22.0004 18.6716 22.0004 18C22.0004 16.8221 21.4913 15.7632 20.6811 15.0312C23.1526 12.0951 25.5454 11.1159 27.3674 11.3702C29.6968 11.6952 31.499 14.1178 31.499 18C31.499 18.7244 31.4385 19.5075 31.3114 20.2253C31.183 20.9504 30.9924 21.5751 30.7507 22.0048C30.5025 22.4462 30.275 22.5624 30.1006 22.5624C29.8882 22.5624 29.4855 22.4027 28.8831 21.6798C27.575 20.11 26.3718 19.0419 25.0655 18.3788C24.573 18.1288 23.9979 18.4071 23.8139 18.9278C25.2537 19.4366 26.5641 20.459 28.1149 22.32C28.7626 23.0972 29.4223 23.5624 30.1006 23.5624C30.8168 23.5624 31.3081 23.0537 31.6223 22.4951C31.9431 21.9248 32.1588 21.1746 32.2961 20.3996C32.4346 19.6175 32.499 18.7755 32.499 18C32.499 13.8821 30.5513 10.8047 27.5056 10.3798C25.1891 10.0565 22.4814 11.316 19.8596 14.4574C19.4557 14.245 19.0111 14.0997 18.5405 14.0362C18.63 13.021 18.874 12.1387 19.3178 11.2954C19.9006 10.1881 20.8469 9.11208 22.3204 7.88411C23.0976 7.23646 23.5628 6.57672 23.5628 5.89844C23.5628 5.1822 23.0541 4.69096 22.4955 4.37671C21.9252 4.05591 21.175 3.8402 20.4 3.70297C19.6179 3.56446 18.7759 3.5 18.0004 3.5ZM17.5378 14.0265C17.6311 12.8705 17.9053 11.832 18.4329 10.8296C19.1001 9.5619 20.1538 8.38792 21.6802 7.11589C22.4031 6.51354 22.5628 6.11078 22.5628 5.89843C22.5628 5.72405 22.4465 5.49654 22.0052 5.24829C21.5755 5.00659 20.9507 4.81605 20.2257 4.68765C19.5079 4.56054 18.7248 4.5 18.0004 4.5C14.1182 4.5 11.6956 6.30226 11.3706 8.6316C11.1163 10.4538 12.0956 12.8468 15.0323 15.3185C15.667 14.6164 16.5473 14.1405 17.5378 14.0265ZM20.9685 20.6815C20.3338 21.3836 19.4534 21.8595 18.4629 21.9735C18.3696 23.1295 18.0954 24.168 17.5679 25.1704C16.9006 26.4381 15.8469 27.6121 14.3205 28.8841C13.5977 29.4865 13.4379 29.8892 13.4379 30.1016C13.4379 30.276 13.5542 30.5035 13.9955 30.7517C14.4252 30.9934 15.05 31.1839 15.7751 31.3123C16.4929 31.4395 17.2759 31.5 18.0004 31.5C21.8825 31.5 24.3052 29.6977 24.6302 27.3684C24.8844 25.5462 23.9051 23.1532 20.9685 20.6815ZM21.0004 18C21.0004 19.6569 19.6572 21 18.0004 21C16.3435 21 15.0004 19.6569 15.0004 18C15.0004 16.3431 16.3435 15 18.0004 15C19.6572 15 21.0004 16.3431 21.0004 18Z" fill="white"/>
</svg>
