<svg width="28" height="28" viewBox="0 0 28 28" fill="none" xmlns="http://www.w3.org/2000/svg">
<path d="M14.8942 5.28402C16.9071 3.91146 19.5628 3.94883 21.4836 5.39063L21.5097 5.41103L21.7135 5.43617L22.013 5.30375L22.3577 5.13312C22.5823 5.01586 22.7967 4.89156 23.0011 4.76006L23.2994 4.55782L23.4299 4.48193C23.8826 4.25424 24.4979 4.2796 24.9155 4.5586C25.4027 4.88412 25.6522 5.49327 25.5152 6.04088L25.4411 6.35411L25.3431 6.69842C25.0599 7.61104 24.6027 8.47795 23.9904 9.26593L23.7866 9.51726L23.5508 9.78879L23.6936 9.91526L23.6926 10.2447L23.6809 10.6183C23.4772 15.4541 21.2755 19.4473 17.577 21.645L16.93 22.016L16.563 22.2102C14.7156 23.1506 12.6874 23.6243 10.5235 23.6243C8.08883 23.6243 5.53053 22.9305 3.24221 21.6454C2.65104 21.3489 2.33162 20.6397 2.48927 20.0078C2.63707 19.4153 3.28874 18.9493 3.93762 18.9493C4.98274 18.9493 5.9739 18.8203 6.88482 18.5638L7.25415 18.4598L6.75048 18.047L6.49481 17.8224C4.65807 16.1541 3.66194 14.0296 3.49544 11.5664L3.47924 11.2643L3.47408 11.0038C3.46361 9.2407 3.92521 6.98611 4.4196 6.1039L4.44074 6.06738L4.46532 6.01237L4.52948 5.88333C4.74129 5.5084 5.12238 5.24717 5.55138 5.20529L5.68526 5.19902L5.85278 5.2049C6.34141 5.23998 6.70469 5.43257 6.94467 5.79372L7.13416 6.05227L7.34116 6.31358C8.60854 7.85277 10.3287 8.87287 12.2435 9.21669L12.5598 9.26662L12.6364 8.81442L12.6975 8.53628C12.9477 7.52277 13.4823 6.58191 14.2516 5.81019L14.4537 5.61622L14.6811 5.43648L14.8942 5.28402ZM20.7772 6.23633C19.192 5.0784 16.9922 5.09317 15.3574 6.30449L15.1856 6.43826L15.0044 6.61332L14.8218 6.80953C14.1743 7.54283 13.7727 8.42565 13.6644 9.35997L13.6425 9.61035L13.6347 9.86848L13.6346 10.4633L13.0467 10.423L12.7363 10.3963C10.0562 10.1206 7.64632 8.69231 6.03767 6.41591L6.01911 6.39264L5.9671 6.35061C5.91708 6.31714 5.87105 6.30732 5.81123 6.30281L5.6714 6.30461L5.50605 6.39793L5.48626 6.42933L5.40985 6.64069L5.41206 6.60796L5.34282 6.73137L5.26603 6.92637L5.18299 7.16017C5.10085 7.40266 5.02188 7.66978 4.95067 7.94809C4.67278 9.0342 4.54168 10.1527 4.57861 11.2262L4.59571 11.5336C4.79244 14.2811 6.1453 16.5178 8.71048 18.1158L9.5696 18.6513L8.65266 19.0808L8.33203 19.2232C7.0332 19.7706 5.54111 20.0493 3.93762 20.0493C3.87702 20.0493 3.82361 20.0665 3.75895 20.0965L3.69203 20.1312L3.55656 20.2741L3.54895 20.3375C3.54872 20.4676 3.63539 20.611 3.75576 20.673C5.90024 21.8767 8.27338 22.5243 10.5235 22.5243C12.7826 22.5243 14.8676 21.9667 16.7537 20.8501L17.023 20.6943L17.3003 20.5229C20.6811 18.3625 22.5964 14.5162 22.5964 9.87426L22.5956 9.20326L22.739 9.04639L22.95 8.80411C23.7016 7.90445 24.2103 6.88223 24.4437 5.79295C24.4718 5.68047 24.4065 5.54148 24.3044 5.47325C24.2496 5.43665 24.2115 5.43147 24.1191 5.42694L24.043 5.4258L23.9239 5.46316L23.6416 5.65625C23.0633 6.03442 22.4041 6.36368 21.6934 6.63077L21.3796 6.74826L21.1316 6.52435L20.9573 6.37514L20.7772 6.23633Z" fill="#040B29"/>
</svg>
