<svg width="36" height="36" viewBox="0 0 36 36" fill="none" xmlns="http://www.w3.org/2000/svg">
<path fill-rule="evenodd" clip-rule="evenodd" d="M12.456 22.5326C11.7405 22.1577 10.5795 21.7091 9.11141 21.7091H9.05935L8.71659 21.7199C7.68944 21.7772 6.67594 22.0557 5.76677 22.5326C5.1686 22.847 4.90922 23.5545 5.16684 24.1711L5.49063 24.9479L5.51709 25.0094L5.22722 25.3566C4.94335 25.7087 4.67785 26.0754 4.43368 26.4547C3.66259 27.6506 2.99737 28.6846 3.00001 30.155C3.00266 31.3224 3.4482 32.4828 4.28987 33.5133C4.54044 33.8207 4.92069 34 5.32211 34H12.9007L13.05 33.9917C13.3952 33.9532 13.7137 33.7823 13.9329 33.5133C14.7746 32.4828 15.2201 31.3224 15.2228 30.155C15.2254 28.6846 14.5602 27.6506 13.7891 26.4547C13.4636 25.9489 13.1001 25.4657 12.7066 25.0094L12.7198 24.9765L13.0569 24.1711L13.1014 24.0467C13.2775 23.4619 13.0143 22.826 12.456 22.5326ZM9.06906 23.0081H9.11141C10.4127 23.0081 11.3806 23.4411 11.8314 23.6783C11.7053 23.981 11.579 24.2837 11.4525 24.5865H6.77031C6.64383 24.2837 6.51748 23.981 6.39141 23.6783C6.84577 23.4402 7.79508 23.0176 9.06906 23.0081ZM6.30187 26.116C6.0596 26.4142 5.8047 26.7584 5.55327 27.1492C4.84834 28.2421 4.32164 29.0596 4.3234 30.1524C4.32586 31.1753 4.7916 32.0144 5.22332 32.5763L5.32211 32.701H12.9007C13.3568 32.1425 13.8968 31.254 13.8994 30.1524C13.9021 29.061 13.3759 28.2443 12.6733 27.1536L12.6704 27.1492C12.419 26.7584 12.1639 26.4142 11.9214 26.116H6.30187Z" fill="#040B29"/>
<path d="M33 4.54686C33 3.1405 31.839 2 30.4062 2H11.7052C10.2725 2 9.11141 3.1405 9.11141 4.54686V20.1709C9.87191 20.1709 10.4886 19.5665 10.4886 18.8191V4.54686C10.4886 3.88958 11.0365 3.3518 11.7052 3.3518H30.4088C31.0802 3.3518 31.6237 3.88525 31.6237 4.54426V29.9574C31.6237 30.6138 31.0758 31.1516 30.4062 31.1516H18.6263C17.8658 31.1516 17.25 31.7569 17.25 32.5034H30.4079C31.8398 32.5034 33 31.3646 33 29.9591V4.54686Z" fill="#040B29"/>
<path d="M23.6241 23.7353C24.3555 23.7353 24.9493 23.1525 24.9493 22.4346H18.5926C17.8612 22.4346 17.2675 23.0174 17.2675 23.7353H23.6241Z" fill="#040B29"/>
<path d="M21.7703 12.3578L21.7709 9.23858C21.0396 9.23858 20.4458 9.82139 20.4458 10.5393L20.4458 12.3578L18.5926 12.3583C17.8612 12.3583 17.2675 12.9411 17.2675 13.659L20.4458 13.6589L20.4458 16.7787L20.5812 16.772C21.2491 16.7053 21.7709 16.151 21.7709 15.478L21.7703 13.6589L23.6241 13.659C24.3555 13.659 24.9493 13.0762 24.9493 12.3583L21.7703 12.3578Z" fill="#040B29"/>
</svg>
