<svg width="16" height="16" viewBox="0 0 16 16" fill="none" xmlns="http://www.w3.org/2000/svg">
<path d="M10.84 11.74H3.95V6.74C3.94788 6.20672 4.05687 5.67884 4.27 5.18999L3.58 4.45C3.19812 5.15278 2.9987 5.94016 3 6.74V11.74H1C1 12.0052 1.10536 12.2596 1.29289 12.4471C1.48043 12.6346 1.73478 12.74 2 12.74H5.11C5.25684 13.4078 5.62736 14.0053 6.16022 14.4338C6.69307 14.8622 7.35628 15.0957 8.04 15.0957C8.72372 15.0957 9.38693 14.8622 9.91978 14.4338C10.4526 14.0053 10.8232 13.4078 10.97 12.74H11.97L10.84 11.74ZM7.96 14.11C7.5429 14.1062 7.13744 13.9721 6.80034 13.7264C6.46324 13.4808 6.21137 13.1359 6.08 12.74H9.84C9.70863 13.1359 9.45677 13.4808 9.11967 13.7264C8.78257 13.9721 8.37709 14.1062 7.96 14.11Z" fill="white"/>
<path d="M12.94 6.74V11.11L11.94 10.11V6.74C11.9284 5.80741 11.5912 4.90822 10.9867 4.19791C10.3823 3.48759 9.54873 3.01081 8.63004 2.85C8.40561 2.80975 8.17804 2.78967 7.95004 2.79C7.79687 2.77974 7.6432 2.77974 7.49004 2.79C6.7554 2.88155 6.06184 3.17978 5.49004 3.65L4.78003 2.95C5.55298 2.2997 6.50476 1.89877 7.51003 1.8C7.86748 1.78168 8.22585 1.79843 8.58003 1.85C9.7736 2.00393 10.8716 2.58318 11.6725 3.48143C12.4734 4.37968 12.9234 5.53666 12.94 6.74Z" fill="white"/>
<path d="M14.93 13C14.8249 13.1067 14.6995 13.1915 14.5613 13.2493C14.4231 13.3072 14.2748 13.337 14.125 13.337C13.9752 13.337 13.8269 13.3072 13.6887 13.2493C13.5505 13.1915 13.4251 13.1067 13.32 13L11.39 11.07L4.81999 4.52L4.07999 3.78L2.89999 2.61C2.68688 2.3963 2.5672 2.10681 2.5672 1.805C2.5672 1.50319 2.68688 1.2137 2.89999 1L14.93 13Z" fill="white"/>
</svg>
