<svg width="28" height="28" viewBox="0 0 28 28" fill="none" xmlns="http://www.w3.org/2000/svg">
<path d="M21.7922 6.32091L21.7923 6.32091L21.7922 6.31964C21.7253 4.99975 20.6338 3.95 19.2973 3.95H8.44796V3.94998L8.4467 3.95002L8.32073 3.9532L8.32073 3.95319L8.31946 3.95325C6.9996 4.02017 5.95 5.11165 5.95 6.44814L5.94998 20.7726L5.95002 20.7738L5.95319 20.8998L5.95325 20.9011C6.02016 22.221 7.11151 23.2707 8.44796 23.2707H12.4731H12.5241L12.5238 23.2531L12.7863 23.2532L12.8341 23.2532L12.8363 23.2055L12.843 23.0593L12.843 23.0586C12.8445 23.0101 12.8441 22.9685 12.8411 22.9226C12.8297 22.743 12.7753 22.5801 12.6687 22.4614C12.5611 22.3415 12.4047 22.2719 12.2009 22.2719H8.44863H8.44778L8.34916 22.2687C8.34888 22.2687 8.3486 22.2687 8.34832 22.2687C7.56674 22.2175 6.94878 21.5674 6.94878 20.7728V6.44895L6.95202 6.34871C7.00317 5.567 7.65339 4.94878 8.44796 4.94878H19.2965L19.3967 4.95202C20.1784 5.00318 20.7967 5.65352 20.7967 6.44814V14.5094H20.7966L20.7967 14.5123L20.8007 14.5805L20.8006 14.5805L20.8009 14.5834C20.8377 14.8995 21.1063 15.1449 21.4321 15.1449H21.7454H21.7954V15.0949V6.44814H21.7955L21.7954 6.44688L21.7922 6.32091ZM20.2416 15.2203L20.2416 15.2202L20.2397 15.2186C19.8591 14.899 19.2898 14.9173 18.9306 15.2765L14.2178 19.9893L14.2178 19.9893L14.2161 19.9912L14.1642 20.0485L14.1642 20.0485L14.1625 20.0505C14.0933 20.1358 14.0426 20.2349 14.0138 20.3415L13.4681 22.3546L13.468 22.3545L13.4673 22.3576L13.453 22.4272L13.453 22.4272L13.4525 22.4303C13.3956 22.8325 13.7507 23.1874 14.1648 23.1108L16.2559 22.7239L16.2559 22.724L16.2588 22.7233L16.3455 22.7018L16.3455 22.7019L16.3484 22.701C16.4695 22.6631 16.5804 22.5961 16.6709 22.5054L21.3982 17.778L21.3983 17.7781L21.3999 17.7762L21.4625 17.7071L21.4625 17.7072L21.4641 17.7052C21.7721 17.3284 21.7546 16.7734 21.409 16.4165L21.4089 16.4165L20.3131 15.2869L20.3131 15.2869L20.3113 15.2851L20.2416 15.2203ZM16.8038 15.7796L16.8038 15.7796L16.8035 15.7767C16.7731 15.511 16.577 15.278 16.2972 15.278H9.26927H9.21927V15.328V15.5786H9.21919L9.21935 15.5814L9.22324 15.6498L9.22316 15.6498L9.22349 15.6527C9.25392 15.9185 9.44999 16.1514 9.72985 16.1514H16.7577H16.8077V16.1014V15.8508H16.8078L16.8077 15.8479L16.8038 15.7796ZM18.6975 12.0505L18.6976 12.0505L18.6972 12.0474C18.6619 11.765 18.421 11.5464 18.1289 11.5464H9.09353H9.04353V11.5964V11.847H9.04343L9.04362 11.8501L9.0477 11.9157L9.0476 11.9157L9.04799 11.9188C9.08335 12.2012 9.32435 12.4199 9.61635 12.4199H18.6517H18.7017V12.3699V12.1192H18.7018L18.7016 12.1161L18.6975 12.0505ZM18.7237 8.50944L18.7237 8.50878C18.7227 8.44434 18.7193 8.39461 18.7105 8.33562C18.6877 8.18292 18.6309 8.04693 18.5336 7.94865C18.4354 7.84946 18.3 7.79283 18.1289 7.79283H9.09353H9.04353V7.84283V8.09347H9.04343L9.04362 8.09657L9.0477 8.16217L9.0476 8.16217L9.04799 8.16528C9.08335 8.44783 9.32433 8.6663 9.61635 8.6663H18.4011H18.4516L18.4515 8.65083L18.6737 8.65132L18.7238 8.65144L18.7238 8.60126L18.7237 8.50944ZM14.8315 20.58L18.7029 16.7082L19.9825 17.9884L16.082 21.8893L14.3915 22.2016L14.8315 20.58ZM19.3056 16.1062L19.5306 15.8813L19.5614 15.8579C19.6066 15.8338 19.664 15.8414 19.7016 15.8801L20.7949 17.0071L20.8156 17.035L20.8277 17.0658C20.8363 17.1042 20.8255 17.1459 20.7958 17.1756L20.5852 17.3858L19.3056 16.1062Z" fill="white" stroke="white" stroke-width="0.1"/>
</svg>
