<svg width="157" height="45" viewBox="0 0 157 45" fill="none" xmlns="http://www.w3.org/2000/svg">
<path fill-rule="evenodd" clip-rule="evenodd" d="M68.6871 25.0736V33.8959H66.9936V11.107H74.029C78.6543 11.107 81.6185 14.1348 81.6185 18.0414C81.6185 22.3387 78.1011 25.0736 74.1922 25.0736H68.6871ZM68.6871 23.4453H73.3456C78.2313 23.4453 79.7944 20.6785 79.7944 18.1066C79.7944 14.9488 77.971 12.7023 73.2476 12.7023H68.6871V23.4453ZM91.8807 16.5767C96.2132 16.5767 100.513 19.832 100.513 25.4316C100.513 31.031 96.2132 34.2867 91.8807 34.2867C87.5163 34.2867 83.2493 31.031 83.2493 25.4316C83.2493 19.832 87.5163 16.5767 91.8807 16.5767ZM91.8807 32.6918C95.3012 32.6918 98.7864 29.8591 98.7864 25.4316C98.7864 21.004 95.3012 18.1715 91.8807 18.1715C88.4608 18.1715 84.9429 21.004 84.9429 25.4316C84.9429 29.8591 88.4608 32.6918 91.8807 32.6918ZM110.384 33.8959H108.234L102.306 17.0647H104.097L109.341 32.203L114.228 17.0647H115.595L120.449 32.203L125.628 17.0647H127.419L121.491 33.8959H119.342L114.879 20.0925L110.384 33.8959ZM130.908 25.7248C131.103 29.9568 134.262 32.6588 137.715 32.6588C140.224 32.6588 141.95 31.6499 143.188 30.3801L144.295 31.422C143.057 32.8868 140.81 34.2867 137.65 34.2867C132.471 34.2867 129.214 30.2826 129.214 25.4639C129.214 20.5807 132.309 16.5767 137.292 16.5767C142.276 16.5767 145.077 20.2226 144.914 25.7248H130.908ZM131.005 24.1292H143.155C143.057 20.9065 140.94 18.1392 137.292 18.1392C134.1 18.1392 131.592 20.5158 131.005 24.1292ZM157 18.3994C153.613 18.0414 151.561 20.5481 150.486 23.2177V33.8959H148.857V17.0647H150.42V20.7438C151.658 18.1715 153.873 16.7715 156.121 16.7715C156.381 16.7715 156.707 16.7715 157 16.8041V18.3994ZM49.0881 10.5C42.3873 10.5 36.9354 15.8832 36.9354 22.4996C36.9354 29.1163 42.3873 34.5 49.0881 34.5C55.7895 34.5 61.2418 29.1163 61.2418 22.4996C61.2418 15.8832 55.7895 10.5 49.0881 10.5ZM49.1153 28.7865C45.6472 28.7865 42.8262 25.9671 42.8262 22.5007C42.8262 19.0347 45.6472 16.2149 49.1153 16.2149C52.5827 16.2149 55.4038 19.0347 55.4038 22.5007C55.4038 25.9671 52.5827 28.7865 49.1153 28.7865ZM27.7865 13.0135V33.8375H33.4742V11.0884H29.7127C29.3796 11.0884 29.1444 11.0928 28.8891 11.1703C28.6476 11.2433 28.4307 11.3738 28.2516 11.553C28.0724 11.7321 27.9416 11.9482 27.8689 12.1901C27.7917 12.4448 27.7865 12.6806 27.7865 13.0135ZM0 11.0884V33.8373H3.77592C4.10908 33.8373 4.34455 33.8325 4.59986 33.7557C4.84144 33.6823 5.05802 33.5515 5.23738 33.3726C5.41687 33.1932 5.54703 32.9771 5.62013 32.7355C5.69731 32.4805 5.70234 32.2454 5.70234 31.9125V19.8598C9.45706 24.1391 13.2117 28.4182 16.9662 32.6975C17.3177 33.0986 17.61 33.4079 18.0668 33.6151C18.5236 33.8219 18.9495 33.8373 19.4828 33.8373H23.6306V11.0884H19.8546C19.5215 11.0884 19.2863 11.0928 19.0307 11.1699C18.7894 11.2433 18.5725 11.3738 18.3937 11.553C18.2142 11.7317 18.0838 11.9482 18.0104 12.1897C17.9335 12.4451 17.9288 12.6802 17.9288 13.013V25.0652C14.1742 20.7859 10.4196 16.5067 6.66486 12.2281C6.31282 11.8269 6.02082 11.517 5.56375 11.3105C5.10721 11.1036 4.68179 11.0884 4.14849 11.0884H0Z" fill="white"/>
</svg>
