<svg width="36" height="36" viewBox="0 0 36 36" fill="none" xmlns="http://www.w3.org/2000/svg">
<path fill-rule="evenodd" clip-rule="evenodd" d="M23.6634 20.5943C25.7455 20.5943 27.4336 22.2758 27.4336 24.3497C27.4336 24.9906 27.2724 25.5941 26.9881 26.122L26.9879 31.0025C26.9879 31.3481 26.6471 31.579 26.3334 31.4747L26.2558 31.4415L23.6758 30.0795L21.341 31.4319C21.0341 31.6097 20.6552 31.4198 20.5987 31.0882L20.5916 31.0025L20.5906 26.526C20.1515 25.9121 19.8932 25.1609 19.8932 24.3497C19.8932 22.2758 21.5813 20.5943 23.6634 20.5943ZM25.9916 27.3036C25.3505 27.8056 24.5421 28.105 23.6634 28.105C22.8967 28.105 22.1834 27.877 21.5881 27.4853L21.5882 30.1381L23.4132 29.0825C23.5324 29.0136 23.6733 28.9975 23.8028 29.0349L23.8973 29.073L25.9899 30.1769L25.9916 27.3036ZM29.5741 4.5C31.1321 4.5 32.406 5.71352 32.495 7.24313L32.5 7.41434V23.9258C32.5 25.4776 31.2817 26.7466 29.746 26.8352L29.5741 26.8402H27.8597L27.76 26.7408C27.76 26.0295 28.3051 25.4447 29.0018 25.3784L29.1341 25.3721H29.5741C30.3289 25.3721 30.9498 24.7982 31.0203 24.0651L31.0269 23.9258V7.41434C31.0269 6.66274 30.4502 6.04409 29.714 5.97391L29.5741 5.96728H6.42585C5.67145 5.96728 5.05092 6.54157 4.98053 7.27505L4.97388 7.41434V23.9258C4.97388 24.6774 5.54988 25.2954 6.28605 25.3655L6.42585 25.3721H17.9587C18.6729 25.3721 19.26 25.915 19.3266 26.609L19.3329 26.7408L19.2331 26.8402H6.42585C4.86794 26.8402 3.59398 25.6267 3.50497 24.097L3.5 23.9258V7.41434C3.5 5.86255 4.71832 4.59361 6.25397 4.50495L6.42585 4.5H29.5741ZM23.6634 21.8859C22.2975 21.8859 21.1899 22.9891 21.1899 24.3497C21.1899 25.7103 22.2975 26.8135 23.6634 26.8135C25.0294 26.8135 26.137 25.7103 26.137 24.3497C26.137 22.9891 25.0294 21.8859 23.6634 21.8859ZM24.0885 14.5154V17.4142H25.5464V18.0441H23.3703V14.5154H24.0885ZM21.5381 14.4994L22.9552 18.0441H22.1857L21.9132 17.308H20.4601L20.1916 18.0441H19.4221L20.84 14.4994H21.5381ZM19.5287 14.5154V15.1453H18.5725V18.0441H17.8536V15.1453H16.8974V14.5154H19.5287ZM13.729 14.5154L15.6727 16.809V14.5154H16.3804V18.0441H15.8242L13.9214 15.8215V18.0441H13.2128V14.5154H13.729ZM12.6053 14.5154V15.1453H11.0416V15.8965H12.3168V16.5272H11.0416V17.4142H12.6053V18.0441H10.3234V14.5154H12.6053ZM8.32366 14.5154C8.53606 14.5154 8.72361 14.5441 8.88552 14.6008C9.04742 14.6583 9.18448 14.7349 9.29508 14.8323C9.40649 14.9337 9.49145 15.0518 9.54836 15.186C9.60527 15.3201 9.63412 15.4662 9.63412 15.6243C9.63412 15.839 9.58042 16.0338 9.47222 16.2087C9.36401 16.3843 9.20371 16.5184 8.99212 16.6126L9.86736 18.0441H9.04261L8.26274 16.7436H7.78745V18.0441H7.0685V14.5154H8.32366ZM21.1886 15.3313L20.6925 16.6781H21.6848L21.1886 15.3313ZM8.31324 15.1453H7.78745V16.1288H8.31324C8.42144 16.1288 8.51442 16.1137 8.59216 16.0833C8.6659 16.053 8.72842 16.0123 8.77891 15.962C8.8262 15.9149 8.86147 15.8614 8.88552 15.8007C8.90555 15.7432 8.91597 15.6849 8.91597 15.6243C8.91597 15.5636 8.90555 15.5045 8.88552 15.4478C8.86147 15.3911 8.8262 15.3385 8.77891 15.2921C8.73483 15.2442 8.67472 15.2091 8.59697 15.186C8.51923 15.1588 8.42545 15.1453 8.31324 15.1453ZM8.67825 8.5733C8.95076 8.5733 9.20083 8.622 9.42685 8.7194C9.64887 8.8168 9.84203 8.94454 10.0039 9.10341L9.58315 9.62713C9.42846 9.48901 9.26815 9.39321 9.10304 9.33892C8.93793 9.28623 8.78404 9.25909 8.64298 9.25909C8.47787 9.25909 8.32879 9.28942 8.19734 9.3493C8.06589 9.41317 7.95368 9.49779 7.86311 9.60238C7.76854 9.70537 7.6964 9.82512 7.6451 9.96004C7.59461 10.0982 7.56976 10.2419 7.56976 10.3935C7.56976 10.5444 7.59621 10.6889 7.64991 10.827C7.70121 10.9612 7.77575 11.0825 7.87353 11.1895C7.96811 11.2973 8.08193 11.3811 8.21738 11.4418C8.35524 11.5056 8.50752 11.5376 8.67344 11.5376C8.90267 11.5376 9.09423 11.4961 9.24972 11.4114C9.40201 11.3244 9.52944 11.2238 9.63444 11.1089L10.0753 11.6238C10.0039 11.7036 9.91577 11.7811 9.81157 11.8553C9.70337 11.9296 9.58555 11.9934 9.45731 12.0469C9.32907 12.1004 9.19442 12.1427 9.05255 12.1723C8.91068 12.2058 8.76561 12.2234 8.61653 12.2234C8.3336 12.2234 8.08192 12.1707 7.86311 12.0669C7.6443 11.9655 7.45835 11.8306 7.30687 11.6589C7.15458 11.4873 7.03997 11.2909 6.96222 11.0682C6.88127 10.8502 6.84119 10.6251 6.84119 10.3935C6.84119 10.1708 6.88287 9.95126 6.96783 9.73331C7.04798 9.51456 7.16821 9.31976 7.32691 9.14812C7.4848 8.97647 7.67797 8.83756 7.90399 8.72978C8.13322 8.62599 8.39131 8.5733 8.67825 8.5733ZM15.3484 8.63398C15.5608 8.63398 15.7483 8.66272 15.9102 8.7194C16.0721 8.77688 16.2084 8.85432 16.3206 8.95172C16.4312 9.05231 16.5162 9.17047 16.5731 9.30379C16.63 9.43872 16.6596 9.58482 16.6596 9.74289C16.6596 9.95844 16.6051 10.1532 16.4969 10.3281C16.3895 10.5021 16.2284 10.6362 16.0168 10.7312L16.8921 12.1627H16.0665L15.2883 10.8622H14.8122V12.1627H14.0932V8.63398H15.3484ZM12.261 8.61881L13.678 12.1627H12.9094L12.6353 11.4266H11.1838L10.9152 12.1627H10.1458L11.5629 8.61881H12.261ZM11.9123 9.45069L11.4162 10.7967H12.4077L11.9123 9.45069ZM15.338 9.26388H14.8122V10.2466H15.338C15.4462 10.2466 15.5391 10.2323 15.6169 10.2019C15.6914 10.1708 15.7531 10.1317 15.8036 10.0806C15.8509 10.0343 15.887 9.98 15.9102 9.91932C15.9303 9.86264 15.9407 9.80276 15.9407 9.74289C15.9407 9.68221 15.9303 9.62393 15.9102 9.56645C15.887 9.50897 15.8509 9.45708 15.8036 9.40998C15.7604 9.36367 15.6986 9.32774 15.6217 9.30379C15.5439 9.27745 15.4502 9.26388 15.338 9.26388Z" fill="white"/>
</svg>
