<svg width="28" height="28" viewBox="0 0 28 28" fill="none" xmlns="http://www.w3.org/2000/svg">
<path d="M16.25 21.25H8.0877L2.75 25.5202V4C2.75 3.30964 3.30964 2.75 4 2.75H24C24.6904 2.75 25.25 3.30964 25.25 4V11.25H25C24.3096 11.25 23.75 10.6904 23.75 10V4.25H4.25V22.3992L7.56152 19.75H14.75C15.5784 19.75 16.25 20.4216 16.25 21.25Z" fill="#040B29"/>
<path fill-rule="evenodd" clip-rule="evenodd" d="M21.75 12.75H22C22.6904 12.75 23.25 13.3096 23.25 14V16.75H27.25V17C27.25 17.6904 26.6904 18.25 26 18.25H23.25V21C23.25 21.6904 22.6904 22.25 22 22.25H21.75V18.25H19C18.3096 18.25 17.75 17.6904 17.75 17V16.75H21.75V12.75Z" fill="#040B29"/>
</svg>
