<svg width="28" height="28" viewBox="0 0 28 28" fill="none" xmlns="http://www.w3.org/2000/svg">
<path d="M22.9473 24.75L22.9404 24.8945C22.8677 25.6551 22.227 26.25 21.4473 26.25H6.44727C5.61884 26.25 4.94727 25.5784 4.94727 24.75H22.9473ZM13.9473 1.5L14.2336 1.50374C20.0383 1.65555 24.6973 6.40873 24.6973 12.25C24.6973 18.187 19.8843 23 13.9473 23C8.01024 23 3.19727 18.187 3.19727 12.25C3.19727 6.40873 7.85623 1.65555 13.6609 1.50374L13.9473 1.5ZM13.9473 3L13.6793 3.00381C8.69463 3.14561 4.69727 7.23103 4.69727 12.25C4.69727 17.3586 8.83867 21.5 13.9473 21.5C19.0559 21.5 23.1973 17.3586 23.1973 12.25C23.1973 7.23103 19.1999 3.14561 14.2152 3.00381L13.9473 3Z" fill="white"/>
</svg>
