<svg width="36" height="36" viewBox="0 0 36 36" fill="none" xmlns="http://www.w3.org/2000/svg">
<path d="M5.25016 12.4503L29.2551 4.42725L29.6836 4.28718L30.0542 4.17437C30.9709 3.91026 31.3375 3.94119 31.698 4.30128C32.0361 4.63931 32.0847 4.98206 31.872 5.77922L31.773 6.12338L31.6466 6.52241L23.5497 30.748C23.3257 31.4185 22.7291 31.9007 22.0362 31.9864L21.8591 31.9994L21.8125 32C21.3264 32 20.8574 31.8066 20.5146 31.4644C20.3903 31.3404 20.2854 31.2006 20.2019 31.0477L20.1257 30.8905L15.6259 20.3737L5.1093 15.8746C4.50989 15.6171 4.09666 15.0572 4.01377 14.4243L4 14.2647V14.1145C4.02753 13.4098 4.46667 12.7812 5.10939 12.5042L5.25016 12.4503ZM29.0597 5.9727L5.69697 13.782C5.52939 13.8384 5.41089 13.9958 5.40402 14.1708C5.3979 14.3177 5.4699 14.4583 5.58725 14.5412L5.66285 14.5835L16.4385 19.1927C16.5714 19.2496 16.6829 19.3457 16.7584 19.4668L16.808 19.5622L21.4163 30.3358C21.4382 30.3867 21.4689 30.4321 21.5072 30.4704C21.5901 30.5533 21.7045 30.5974 21.8303 30.5953C21.9756 30.5892 22.1088 30.5061 22.1816 30.3817L22.2176 30.3023L29.9982 7.02167L19.0077 18.0128C18.6083 18.4092 17.9816 18.436 17.5514 18.0943L17.4558 18.0089L17.2387 17.7913L18.0635 16.9697L29.0597 5.9727Z" fill="white"/>
</svg>
