<svg width="142" height="45" viewBox="0 0 142 45" fill="none" xmlns="http://www.w3.org/2000/svg">
<path d="M48.7042 10.6457C42.0551 10.6457 36.6466 15.997 36.6466 22.5729C36.6466 29.1487 42.0551 34.5 48.7042 34.5C55.3534 34.5 60.7618 29.1487 60.7618 22.5729C60.7618 15.997 55.3534 10.6457 48.7042 10.6457ZM48.7309 28.8199C47.4964 28.8203 46.2895 28.454 45.2629 27.7675C44.2363 27.081 43.4362 26.1051 42.9636 24.9632C42.491 23.8213 42.3673 22.5648 42.608 21.3524C42.8488 20.1401 43.4432 19.0265 44.3161 18.1525C45.189 17.2785 46.3012 16.6833 47.512 16.4423C48.7227 16.2012 49.9777 16.3251 51.1182 16.7983C52.2586 17.2715 53.2333 18.0727 53.9189 19.1005C54.6046 20.1284 54.9703 21.3368 54.97 22.5729C54.9681 24.2293 54.3102 25.8173 53.1406 26.9887C51.971 28.1602 50.3852 28.8193 48.7309 28.8217V28.8199ZM27.5693 13.1428V33.8406H33.212V11.2287H29.4845C29.2098 11.2138 28.9344 11.2414 28.668 11.3104C28.4286 11.3826 28.2108 11.5133 28.0343 11.6908C27.8574 11.8666 27.7274 12.0842 27.6563 12.3235C27.586 12.5905 27.5578 12.867 27.5728 13.1428H27.5693ZM0 11.2287V33.8406H3.74525C4.02058 33.8553 4.29653 33.8278 4.56352 33.7589C4.80198 33.6851 5.0188 33.554 5.19513 33.3772C5.37146 33.2003 5.50196 32.983 5.57527 32.7441C5.64416 32.4774 5.67169 32.2016 5.65693 31.9265V19.9479L16.8394 32.7068C17.1944 33.1049 17.4784 33.4177 17.931 33.6185C18.3837 33.8193 18.8061 33.8406 19.3368 33.8406H23.4513V11.2287H19.7025C19.4278 11.2141 19.1524 11.2417 18.886 11.3104C18.6475 11.3835 18.4305 11.5141 18.2541 11.6907C18.0777 11.8674 17.9473 12.0846 17.8742 12.3235C17.8055 12.5908 17.7779 12.8671 17.7926 13.1428V25.1214L6.6101 12.3608C6.2551 11.9627 5.9711 11.6499 5.51848 11.4508C5.06585 11.2518 4.6434 11.2287 4.11267 11.2287H0ZM87.8501 11.6552C85.9402 10.8661 83.7569 10.5 80.979 10.5C79.4614 10.5 76.6054 10.612 74.5216 11.3762C70.5633 12.8673 68.7191 16.3525 68.7191 22.3418C68.7191 28.4182 70.5119 31.939 74.3618 33.3999C76.0534 34.0486 78.3201 34.3631 81.2932 34.3631C86.659 34.3631 89.5346 33.3288 91.4373 32.6428L91.6557 32.5646L91.0983 30.8069L90.8605 30.8993C88.9204 31.6564 86.2952 32.4313 81.5453 32.4313C77.5941 32.4313 75.9292 31.8839 75.0133 31.4716C72.2389 30.3039 70.9751 27.7233 70.9308 23.1185H91.574L91.6805 22.7115C92.0504 21.4311 92.2345 20.1042 92.2272 18.7713C92.2272 14.9893 90.9599 12.9313 87.8518 11.6623L87.8501 11.6552ZM86.975 13.2654C88.9878 14.1327 90.2374 15.3181 90.2374 18.5421C90.2241 19.5001 90.1315 20.4554 89.9605 21.3981H70.9024C70.9538 16.9354 72.4165 14.138 75.2564 13.0806C76.6587 12.5669 78.6289 12.3057 81.137 12.3057C83.693 12.3057 85.3846 12.5829 86.9732 13.2654H86.975ZM116.426 31.3756C114.241 32.0527 111.967 32.3948 109.681 32.3904C102.105 32.3904 97.9321 28.8181 97.9321 22.3329C97.9321 18.1351 99.4568 15.1617 102.345 13.7328C104.033 12.8691 106.376 12.4319 109.303 12.4319C111.66 12.4255 114.004 12.7852 116.252 13.4982L116.815 11.6605C114.384 10.8942 111.851 10.5029 109.303 10.5C105.967 10.5 103.177 11.0207 101.246 11.9787C97.625 13.7932 95.7825 17.2873 95.7825 22.3632C95.7825 29.984 100.848 34.3543 109.681 34.3543C112.149 34.3689 114.605 33.9971 116.958 33.2524L116.426 31.3756ZM138.613 20.3335C137.128 19.9088 135.014 19.6919 132.332 19.6919C128.705 19.6919 125.576 20.0776 122.734 20.5059C122.835 16.596 123.891 14.5166 126.341 13.3969C127.837 12.7322 129.737 12.407 132.143 12.407C136.242 12.407 138.762 13.2565 139.655 13.6209L139.881 13.7133L140.559 11.9733L140.342 11.8845C139.781 11.6463 136.762 10.5 132.044 10.5C129.318 10.5 127.099 10.8786 125.262 11.657C122.913 12.6736 120.512 14.7068 120.512 22.0806C120.512 29.657 122.782 32.3229 124.681 33.2222C126.673 34.237 129.694 34.3543 131.792 34.3543C134.632 34.3543 136.499 34.1232 138.028 33.5812C140.813 32.5557 142 30.3537 142 26.218C142 22.795 140.985 21.0355 138.61 20.3335H138.613ZM131.822 32.4544C129.692 32.4544 127.64 32.3868 125.965 31.5658C123.749 30.4745 122.747 27.5883 122.724 22.2174C124.621 21.862 128.157 21.4692 132.202 21.4692C134.864 21.4692 136.414 21.6132 137.527 21.965C139.124 22.4378 139.943 23.2393 139.943 26.3158C139.943 30.2079 138.407 31.2796 137.071 31.7773C135.811 32.2376 134.705 32.4579 131.82 32.4579L131.822 32.4544Z" fill="white"/>
</svg>
