<svg width="28" height="28" viewBox="0 0 28 28" fill="none" xmlns="http://www.w3.org/2000/svg">
<path fill-rule="evenodd" clip-rule="evenodd" d="M3.5 22.5V5.5H24.5V22.5H3.5ZM2 4.75C2 4.33579 2.33579 4 2.75 4H25.25C25.6642 4 26 4.33579 26 4.75V23.25C26 23.6642 25.6642 24 25.25 24H2.75C2.33579 24 2 23.6642 2 23.25V4.75ZM22 17.5H6C6 18.3284 6.67157 19 7.5 19H20.5C21.3284 19 22 18.3284 22 17.5ZM6 8.5H9V10H6V8.5ZM15.5 8.5H12.5V10H15.5V8.5ZM19 8.5H22V10H19V8.5ZM9 13H6V14.5H9V13ZM12.5 13H15.5V14.5H12.5V13ZM22 13H19V14.5H22V13Z" fill="white"/>
</svg>
