<svg width="36" height="36" viewBox="0 0 36 36" fill="none" xmlns="http://www.w3.org/2000/svg">
<mask id="mask0_5595_23993" style="mask-type:alpha" maskUnits="userSpaceOnUse" x="0" y="0" width="36" height="36">
<path d="M0 36H35.9986V0H0V36Z" fill="white"/>
</mask>
<g mask="url(#mask0_5595_23993)">
<path fill-rule="evenodd" clip-rule="evenodd" d="M10.1389 21.3409C10.9189 21.3409 12.0049 21.7379 13.0829 22.1799L13.2129 22.2309C14.0639 22.5799 17.2739 22.7599 18.4439 22.7999C18.5529 22.8109 19.4129 22.9009 19.9329 23.5209C20.0945 23.7104 20.2067 23.9305 20.2656 24.1731L28.7533 22.0098H28.8333C28.9633 22.0208 30.1733 22.1008 30.7833 22.9498C31.0133 23.2808 31.2433 23.8608 30.9933 24.7308C30.4233 26.7308 19.7333 30.7898 19.6233 30.8398C19.4893 30.8888 19.2983 30.9128 19.0323 30.9128C18.3233 30.9128 17.0913 30.7428 15.0533 30.4298L14.441 30.3376C13.0154 30.1238 11.6412 29.9278 10.9193 29.9278C10.8753 29.9278 10.8333 29.9288 10.7933 29.9298C10.1043 29.9598 9.02333 30.2708 8.07333 30.5708C7.12333 30.8798 6.32333 31.1908 6.20333 31.2398C6.15333 31.1298 6.13333 31.0098 6.13333 30.8908C6.13333 30.4898 6.37333 30.1408 6.71333 29.9808C6.78333 29.9498 6.85433 29.9298 6.93333 29.9098C8.04333 29.5098 9.73333 28.9808 10.7533 28.9298C10.7983 28.9288 10.8463 28.9278 10.8963 28.9278C11.7893 28.9278 13.4513 29.1748 15.2033 29.4408C16.5623 29.6498 18.3543 29.9188 19.0513 29.9188C19.1533 29.9188 19.2323 29.9128 19.2833 29.9008C20.5403 29.4238 21.9863 28.828 23.4021 28.202L23.9663 27.9501C27.0546 26.5585 29.8551 25.0775 30.0333 24.4498C30.1533 24.0608 30.1233 23.7598 29.9733 23.5398C29.7133 23.1798 29.1333 23.0498 28.8543 23.0208L20.2245 25.2192C19.8417 26.5523 18.3311 26.6136 17.3929 26.6409C17.2129 26.6509 17.0239 26.6509 16.8329 26.6509C16.2739 26.6509 15.6729 26.6299 15.0829 26.6009C14.9129 26.5899 14.7429 26.5899 14.5829 26.5899C14.1689 26.5729 13.7709 26.5599 13.3999 26.5599C13.1089 26.5599 12.8339 26.5689 12.5829 26.5899V26.5609C12.5829 26.0209 13.0239 25.5699 13.5639 25.5609H13.6139C14.0929 25.5699 14.5929 25.5799 15.1229 25.6109C15.6679 25.6309 16.2219 25.6529 16.7379 25.6529C16.9509 25.6529 17.1569 25.6489 17.3539 25.6409C18.8029 25.5899 19.2429 25.3799 19.3139 24.6999C19.3329 24.4699 19.2839 24.2999 19.1729 24.1599C18.9529 23.9099 18.5339 23.8199 18.3829 23.7999C17.9629 23.7899 14.0029 23.6409 12.8329 23.1599L12.7029 23.1009C12.2109 22.8999 10.8289 22.3329 10.1579 22.3329C10.0919 22.3329 10.0339 22.3389 9.98393 22.3509C9.56393 22.4599 7.91293 23.2399 6.56393 23.9099L6.53393 23.9199C6.41293 23.9699 6.28393 23.9999 6.14293 23.9999C5.80293 23.9999 5.49293 23.8199 5.31393 23.5609C5.29293 23.5209 5.27393 23.4899 5.25293 23.4499C5.42293 23.3609 6.17293 22.9809 7.03393 22.5609C8.08293 22.0499 9.30293 21.4899 9.75293 21.3799C9.87093 21.3529 9.99993 21.3409 10.1389 21.3409ZM18.1038 3.01953L24.7378 5.09453L24.6018 13.8035C23.2488 19.2185 17.9688 21.2945 17.9688 21.2945C12.1478 17.9995 11.6968 13.4435 11.6968 13.4435L11.6068 5.09453L18.1038 3.01953ZM18.1078 4.06853L12.6148 5.82253L12.6958 13.3765C12.7518 13.7835 13.3688 17.3435 18.0238 20.1675C19.2128 19.5715 22.5758 17.5755 23.6038 13.6695L23.7258 5.82653L18.1078 4.06853ZM21.6536 10.1299C21.9236 10.1299 22.1736 10.2399 22.3536 10.4199L20.9436 11.8399L17.5336 15.2799L15.8536 13.5899L14.4326 12.1699C14.6236 11.9899 14.8636 11.8799 15.1426 11.8799C15.3926 11.8799 15.6236 11.9699 15.8026 12.1299L15.8926 12.2199L17.5336 13.8599L20.9436 10.4199C21.1236 10.2399 21.3826 10.1299 21.6536 10.1299Z" fill="#040B29"/>
</g>
</svg>
