<svg width="16" height="16" viewBox="0 0 16 16" fill="none" xmlns="http://www.w3.org/2000/svg">
<path fill-rule="evenodd" clip-rule="evenodd" d="M8 5.5C6.61929 5.5 5.5 6.61929 5.5 8C5.5 9.38071 6.61929 10.5 8 10.5C9.38071 10.5 10.5 9.38071 10.5 8C10.5 6.61929 9.38071 5.5 8 5.5ZM6.5 8C6.5 7.17157 7.17157 6.5 8 6.5C8.82843 6.5 9.5 7.17157 9.5 8C9.5 8.82843 8.82843 9.5 8 9.5C7.17157 9.5 6.5 8.82843 6.5 8Z" fill="#040B29"/>
<path fill-rule="evenodd" clip-rule="evenodd" d="M8 3.5C12 3.5 15 8 15 8C15 8 12 12.5 8 12.5C4 12.5 1 8 1 8C1 8 4 3.5 8 3.5ZM2.30648 7.92855C2.62665 7.53562 3.09143 7.01307 3.66896 6.49329C4.85147 5.42904 6.36811 4.5 8 4.5C9.63189 4.5 11.1485 5.42904 12.331 6.49329C12.9086 7.01307 13.3734 7.53562 13.6935 7.92855C13.7134 7.9529 13.7326 7.97673 13.7513 8C13.7326 8.02327 13.7134 8.0471 13.6935 8.07145C13.3734 8.46438 12.9086 8.98693 12.331 9.50671C11.1485 10.571 9.63189 11.5 8 11.5C6.36811 11.5 4.85147 10.571 3.66896 9.50671C3.09143 8.98693 2.62665 8.46438 2.30648 8.07145C2.28664 8.0471 2.26737 8.02327 2.24869 8C2.26737 7.97673 2.28664 7.9529 2.30648 7.92855Z" fill="#040B29"/>
</svg>
