<svg width="28" height="28" viewBox="0 0 28 28" fill="none" xmlns="http://www.w3.org/2000/svg">
<path d="M19.636 19.136L26 25.5C25.4142 26.0858 24.4645 26.0858 23.8787 25.5L19.636 21.2574C19.0869 20.7082 19.0525 19.8391 19.5331 19.25L19.636 19.136ZM11.5 2C16.7467 2 21 6.25329 21 11.5C21 16.7467 16.7467 21 11.5 21C6.25329 21 2 16.7467 2 11.5C2 6.25329 6.25329 2 11.5 2ZM11.5 3.5C7.08172 3.5 3.5 7.08172 3.5 11.5C3.5 15.9183 7.08172 19.5 11.5 19.5C15.9183 19.5 19.5 15.9183 19.5 11.5C19.5 7.08172 15.9183 3.5 11.5 3.5Z" fill="white"/>
</svg>
