<svg width="36" height="36" viewBox="0 0 36 36" fill="none" xmlns="http://www.w3.org/2000/svg">
<path d="M17.9994 1.5C27.111 1.5 34.4978 8.88768 34.4978 18.0009C34.4978 27.1126 27.1107 34.5 17.9994 34.5C8.88662 34.5 1.5 27.1131 1.5 18.0009C1.5 8.88721 8.88631 1.5 17.9994 1.5ZM17.9994 2.8091C9.6093 2.8091 2.80905 9.61018 2.80905 18.0009C2.80905 26.3901 9.60959 33.1909 17.9994 33.1909C26.3877 33.1909 33.1887 26.3896 33.1887 18.0009C33.1887 9.61065 26.388 2.8091 17.9994 2.8091ZM15.3458 28.1565L20.3634 28.1612C20.943 28.1612 21.5009 28.3803 21.9216 28.7671L23.4294 30.2884L23.4285 30.431C23.163 30.6926 22.7504 30.7144 22.4614 30.4976L22.3787 30.4253L21.4466 29.4836C21.1994 29.2147 20.8689 29.0488 20.5159 29.0115L20.3633 29.0035L15.3457 28.9987C14.9896 28.9987 14.6448 29.1304 14.3759 29.3666L13.2001 30.5168C12.9407 30.7694 12.4814 30.7424 12.1763 30.5066L12.0898 30.4296L12.1556 30.3646L12.1527 30.3622L13.6614 28.8878C14.0445 28.4715 14.5834 28.2121 15.1545 28.1644L15.3458 28.1565ZM11.0734 20.868L11.2155 20.872C11.7053 20.8996 12.3559 21.0726 13.0077 21.5131C13.6114 21.9211 14.1001 22.5056 14.4295 23.2848C14.5616 23.5961 14.8548 23.812 15.1915 23.8561L15.3195 23.8645H20.567C20.9559 23.8645 21.3084 23.635 21.4568 23.2854C21.7864 22.5056 22.2751 21.9211 22.8788 21.5131C23.5306 21.0726 24.1812 20.8996 24.6711 20.872L24.8131 20.868H30.1656C30.388 20.868 30.5684 21.0483 30.5684 21.2708C30.5684 21.3358 30.553 21.3972 30.5256 21.4516C29.6202 24.7318 27.5011 27.5002 24.5909 29.1905L24.2761 29.3674L24.1395 29.3269C23.9479 28.9735 24.0619 28.5297 24.4024 28.3224C26.8876 26.8042 28.7576 24.4266 29.6441 21.6741L24.8124 21.6736L24.7585 21.6752C24.6725 21.6804 24.5327 21.6981 24.3653 21.7358C24.0119 21.8153 23.6585 21.9585 23.3298 22.1806C22.8535 22.5025 22.4668 22.965 22.1986 23.5996C21.9423 24.2032 21.3671 24.6088 20.718 24.6637L20.567 24.6701H15.3195C14.6605 24.6701 14.0565 24.3076 13.7524 23.7348L13.6877 23.599C13.4197 22.965 13.033 22.5025 12.5567 22.1806C12.2281 21.9585 11.8746 21.8153 11.5212 21.7358C11.3957 21.7075 11.2857 21.6905 11.2022 21.6816L11.0741 21.6736L6.52372 21.6738C7.41405 24.4588 9.19816 26.7854 11.6351 28.2741C11.944 28.4628 12.066 28.8467 11.9418 29.1804L11.8971 29.2787L11.7605 29.3192C8.77701 27.6972 6.58506 24.9606 5.60416 21.6802L5.5228 21.3942L5.555 21.512C5.50463 21.4448 5.47479 21.3613 5.47479 21.2708C5.47479 21.0761 5.61286 20.9137 5.7964 20.8762L5.87757 20.868H11.0734ZM18.9568 16.3685C19.9563 16.7918 20.6216 17.7955 20.6216 18.9224C20.6216 19.9846 20.0321 20.94 19.119 21.4016C18.3772 21.777 17.4854 21.777 16.7424 21.4016C15.83 20.9398 15.2408 19.9843 15.2408 18.9224C15.2408 17.8615 15.8304 16.9101 16.7337 16.4491L16.9067 16.3685L17.1045 16.2941C17.7059 16.0958 18.3701 16.1206 18.9568 16.3685ZM17.1813 17.0176C16.4417 17.3305 15.9457 18.0785 15.9457 18.9224C15.9457 19.7182 16.3851 20.4307 17.0605 20.7726C17.6033 21.0468 18.259 21.0468 18.8009 20.7726C19.4772 20.4307 19.9167 19.7184 19.9167 18.9224C19.9167 18.0786 19.4208 17.3305 18.6822 17.0177C18.206 16.8165 17.6566 16.8165 17.1813 17.0176ZM18 4.94461C24.8077 4.94461 30.458 10.1743 31.0123 16.9171C31.0351 17.1942 30.8289 17.4374 30.5518 17.4602C30.3945 17.4731 30.2482 17.4123 30.1469 17.3066L23.2025 15.0647C22.8392 14.9475 22.4626 14.876 22.0836 14.8521L21.7991 14.8432H14.274C13.8943 14.8432 13.5157 14.891 13.1461 14.9853L12.8707 15.0647L5.83776 17.3363C5.7374 17.4328 5.59769 17.4875 5.44798 17.4754C5.17082 17.453 4.96433 17.2101 4.98676 16.9329C5.53298 10.1834 11.1871 4.94461 18 4.94461ZM18 5.95161C11.9907 5.95161 6.95784 10.3686 6.08459 16.1968L12.5617 14.1063C13.0245 13.9573 13.5025 13.869 13.9845 13.8438L14.274 13.8362H21.7991C22.2821 13.8362 22.7648 13.8997 23.2328 14.0243L23.5117 14.1064L29.9118 16.171C29.0273 10.3548 24.0007 5.95161 18 5.95161Z" fill="#040B29"/>
</svg>
