<svg width="140" height="45" viewBox="0 0 140 45" fill="none" xmlns="http://www.w3.org/2000/svg">
<path fill-rule="evenodd" clip-rule="evenodd" d="M139.5 10.5791L139.488 12.4662L125.784 34.5H123.088L136.635 12.8453H121.942V10.5791H139.5ZM117.117 10.6726V12.813H108.246V34.4999H105.906V12.813H97.0356V10.6726H117.117ZM82.0463 10.6049C84.8335 10.6049 87.026 10.9716 88.9462 11.7589C92.0879 13.0321 93.3693 15.1005 93.3693 18.8974C93.3693 20.7215 93.0895 21.7946 92.819 22.8323L92.6986 23.2965H72.088C72.1435 27.7886 73.3925 30.3078 76.1157 31.4463C77.0259 31.8555 78.6802 32.395 82.6138 32.395C87.3484 32.395 89.962 31.628 91.8942 30.878L92.2112 30.755L92.8167 32.6567L92.5277 32.76C90.6202 33.4427 87.7376 34.4742 82.3616 34.4742C79.3797 34.4742 77.1045 34.1591 75.4054 33.5111C71.5228 32.0384 69.7142 28.522 69.7142 22.4453C69.7142 16.4549 71.5733 12.9684 75.5648 11.473C77.6601 10.7175 80.5249 10.6049 82.0463 10.6049ZM49.7015 10.5C56.4185 10.5 61.8829 15.8753 61.8829 22.4827C61.8829 29.0903 56.4185 34.4661 49.7015 34.4661C42.9852 34.4661 37.5206 29.0903 37.5206 22.4827C37.5206 15.8753 42.9852 10.5 49.7015 10.5ZM34.0514 11.0873V33.8043H28.3508V13.0097C28.3508 12.6773 28.3557 12.4421 28.4331 12.1874C28.5063 11.9462 28.6374 11.7303 28.817 11.5515C28.9965 11.3724 29.2136 11.2421 29.4557 11.1689C29.7117 11.0919 29.9477 11.0873 30.2814 11.0873H34.0514ZM4.65776 11.0873C5.19225 11.0873 5.61893 11.1025 6.07674 11.3094C6.53455 11.5159 6.82762 11.825 7.18015 12.2253L18.4699 25.0445V13.0097C18.4699 12.6774 18.4748 12.4421 18.5521 12.1874C18.6254 11.9462 18.7565 11.7303 18.9361 11.5516C19.1156 11.3724 19.3327 11.2421 19.5749 11.1689C19.8307 11.0919 20.0666 11.0873 20.4005 11.0873H24.1853V33.8044H20.0278C19.4931 33.8044 19.0664 33.7889 18.6086 33.5825C18.1506 33.3757 17.8575 33.0666 17.5054 32.6665L6.21566 19.847V31.882C6.21566 32.2145 6.21076 32.4493 6.13342 32.7042C6.05992 32.9453 5.92908 33.1614 5.74951 33.3403C5.56967 33.5191 5.35288 33.6496 5.11067 33.7224C4.85482 33.7994 4.61869 33.8044 4.28484 33.8044H0.5V11.0873H4.65776ZM49.7285 16.2067C46.2525 16.2067 43.4247 19.0226 43.4247 22.4838C43.4247 25.945 46.2525 28.7607 49.7285 28.7607C53.204 28.7607 56.0318 25.945 56.0318 22.4838C56.0318 19.0226 53.204 16.2067 49.7285 16.2067ZM82.2039 12.5587C79.7174 12.5587 77.7495 12.8161 76.3553 13.3238C73.5687 14.3564 72.1236 17.0857 72.057 21.4371H90.9555C91.1211 20.4875 91.2183 19.4737 91.2183 18.6776C91.2183 15.5181 89.9889 14.3563 88.0057 13.506C86.429 12.8332 84.7479 12.5587 82.2039 12.5587Z" fill="white"/>
</svg>
