<svg width="28" height="28" viewBox="0 0 28 28" fill="none" xmlns="http://www.w3.org/2000/svg">
<path fill-rule="evenodd" clip-rule="evenodd" d="M14 25C20.0751 25 25 20.0751 25 14C25 7.92487 20.0751 3 14 3C7.92487 3 3 7.92487 3 14C3 20.0751 7.92487 25 14 25ZM14 26C20.6274 26 26 20.6274 26 14C26 7.37258 20.6274 2 14 2C7.37258 2 2 7.37258 2 14C2 20.6274 7.37258 26 14 26Z" fill="white"/>
<path d="M8 13.5H20C20 14.0523 19.5523 14.5 19 14.5H9C8.44772 14.5 8 14.0523 8 13.5Z" fill="white"/>
<path d="M13.5 20L13.5 8C14.0523 8 14.5 8.44772 14.5 9L14.5 19C14.5 19.5523 14.0523 20 13.5 20Z" fill="white"/>
</svg>
