<svg width="36" height="36" viewBox="0 0 36 36" fill="none" xmlns="http://www.w3.org/2000/svg">
<path d="M28.0927 7.28531C29.6364 7.28531 30.903 8.43916 30.9947 9.89033L31 10.059V29.227C31 30.7019 29.7934 31.9076 28.2706 31.9949L28.0935 32H11.3501C10.1106 32 9.00709 31.2433 8.60448 30.139L8.54942 29.9709L8.62084 29.8504C9.14631 29.7113 9.70453 29.8289 10.1152 30.1581L10.2338 30.2632C10.4897 30.5134 10.8294 30.6705 11.193 30.7059L11.3501 30.7135H28.0935C28.9064 30.7135 29.5736 30.1198 29.6452 29.3623L29.6516 29.227L29.6518 10.0651C29.6268 9.67681 29.5036 9.30356 29.1946 9.00774C29.122 8.93843 29.0453 8.8798 28.9699 8.83121L28.8524 8.76238C28.3704 8.50763 28.0522 8.08103 27.9983 7.59802L27.9901 7.45154V7.38319L28.0927 7.28531ZM24.7452 4C26.3433 4 27.6498 5.19263 27.7411 6.69564L27.7462 6.86387V26.0326C27.7462 27.5573 26.4967 28.8044 24.9215 28.8916L24.7452 28.8964H8.00175C6.40361 28.8964 5.09643 27.7037 5.0051 26.2008L5 26.0326V6.86387C5 5.33914 6.2501 4.092 7.82542 4.00486L8.00175 4H24.7452ZM24.7452 5.4682H8.00175C7.24181 5.4682 6.61652 6.02212 6.54558 6.72953L6.53888 6.86387V26.0326C6.53888 26.7576 7.11947 27.3542 7.86094 27.4218L8.00175 27.4282H24.7452C25.5049 27.4282 26.1297 26.8745 26.2006 26.1669L26.2073 26.0326V6.86387C26.2073 6.09331 25.5524 5.4682 24.7452 5.4682ZM16.3733 16.9182C19.1049 16.9182 21.3404 18.9828 21.4561 21.5625L21.4608 21.7728L21.4086 21.772L21.4095 21.8217C20.8329 21.8217 20.3268 21.4744 20.1294 20.9618L20.0894 20.8407C19.649 19.2439 18.1265 18.1068 16.3733 18.1068C14.6202 18.1068 13.0976 19.2439 12.6572 20.8407C12.4973 21.419 11.9581 21.8217 11.2858 21.7728C11.2858 19.096 13.5679 16.9182 16.3733 16.9182ZM19.707 14.2784C19.4219 15.3023 18.5884 16.1417 17.541 16.477L17.3422 16.5338L17.1697 16.5734C14.6474 17.0917 12.4527 14.9283 13.1266 12.5089C13.4284 11.4218 14.3507 10.5424 15.4906 10.2542C18.0843 9.59887 20.3953 11.8042 19.707 14.2784ZM14.2897 13.8C14.4519 14.6079 15.1454 15.2694 15.9919 15.4234C17.5172 15.7005 18.835 14.4418 18.543 12.9866C18.391 12.2295 17.7723 11.6019 16.9977 11.3994L16.8408 11.3647L16.689 11.342C15.2297 11.171 14.0082 12.3931 14.2897 13.8Z" fill="#040B29"/>
</svg>
