<svg width="36" height="36" viewBox="0 0 36 36" fill="none" xmlns="http://www.w3.org/2000/svg">
<path fill-rule="evenodd" clip-rule="evenodd" d="M21.9169 2.93751C21.9676 2.9425 22.0166 2.95246 22.0647 2.96907C22.2051 3.01806 25.51 4.20472 25.7051 8.31857C25.8692 11.8544 25.7259 13.151 25.7022 13.3336L25.6993 13.355L25.6428 13.7378C25.6611 13.8308 25.6786 13.9288 25.6918 14.0301C25.978 16.0557 25.5309 16.9537 25.0374 17.7359L24.9021 17.9472C24.6223 18.3815 24.3574 18.7917 24.1789 19.4427C23.826 20.7232 23.7006 21.8767 23.6558 22.5244C23.8741 22.4065 24.1465 22.4289 24.3458 22.5908C24.3732 22.6124 27.0869 24.8188 29.8504 25.9066C29.8811 25.9191 29.911 25.9332 29.9392 25.9506C30.1618 26.0819 32.1389 27.3798 33.0133 32.4121L33.1196 33.0249C32.437 33.1437 31.7851 32.6961 31.6523 32.0168C31.6099 31.805 31.5684 31.5933 31.5277 31.3815C31.404 30.6292 31.115 29.5065 30.3768 28.3489C30.0331 27.8108 29.6635 27.379 29.3281 27.0393C27.0503 26.1292 24.8897 24.5796 23.9912 23.8946L19.0928 28.5656V31.8955C19.0928 32.5831 18.5348 33.1412 17.8473 33.1412V28.583L13.0111 24.0008C11.9184 25.0688 9.77018 25.9822 7.99151 26.7379C7.29233 27.0343 6.68865 27.2909 6.30917 27.4927C5.65898 27.8382 5.57262 28.6271 5.29943 29.4874C5.1375 29.9939 4.9515 30.718 4.86348 31.619L4.83857 31.9429C4.78459 32.6296 4.18672 33.1445 3.5 33.0938L3.54484 32.4727C3.60795 31.6174 4.00404 27.3034 5.72624 26.3916C6.15306 26.1657 6.77916 25.8992 7.50408 25.5911C9.2321 24.857 11.8428 23.7476 12.4191 22.7735C12.5154 22.6099 12.6807 22.5003 12.8683 22.4729C13.0626 22.4488 13.247 22.5078 13.3832 22.6381L18.4601 27.4479L22.3961 23.6944H22.3861V23.0724C22.3861 22.9985 22.3927 21.2372 22.9782 19.1122C23.2065 18.2777 23.552 17.7429 23.8559 17.272C24.3491 16.5072 24.7062 15.955 24.4596 14.2037C24.4355 14.0351 24.4064 13.8989 24.3765 13.7893H24.3757L24.3765 13.7868C24.2819 13.4389 24.1756 13.3658 24.1739 13.365C24.002 13.3168 23.3062 13.8458 22.8245 14.4902C22.6817 14.6812 22.4434 14.7775 22.2092 14.7285C21.9759 14.6837 21.7874 14.5101 21.7251 14.2801C21.5773 13.7378 20.6739 12.6865 19.3677 11.5381L19.1451 11.3429H12.7961C12.8032 12.3121 12.8088 13.3412 12.8101 14.3026L12.8101 15.1462C12.8078 16.5102 12.7939 17.636 12.7587 18.0933C12.6616 19.3464 13.8324 20.9076 15.7414 22.0693C17.232 22.9745 19.7796 22.0236 20.6365 21.581L21.1845 21.2995C21.4976 21.8891 21.251 22.6207 20.6431 22.8997L20.0237 23.1837C19.3893 23.4187 17.2286 24.1321 15.0954 23.1339C12.7288 22.0261 11.3902 19.6213 11.5165 17.9978C11.5503 17.5636 11.5633 16.4576 11.565 15.1102L11.5647 14.2762C11.563 13.325 11.5571 12.3047 11.5497 11.3429H7.16363C7.16363 10.6553 7.72164 10.0973 8.40919 10.0973H11.5389C11.526 8.68447 11.5118 7.56771 11.5077 7.26747L11.5067 7.20041C11.5066 7.19396 11.5065 7.18993 11.5065 7.18838C11.5057 7.09786 11.5248 7.00652 11.5621 6.92431C11.6311 6.77151 13.281 3.19743 16.4198 2.93751C19.2556 2.70085 21.8098 2.92755 21.9169 2.93751ZM25.1738 25.8496C25.7625 26.2067 25.9502 26.9723 25.5939 27.5611L24.8375 28.8092L26.5904 28.7593C26.8387 28.7469 27.0322 28.8723 27.1467 29.0699C27.2622 29.2676 27.2588 29.5117 27.1401 29.7068L25.3473 32.6481C24.7594 32.2894 24.5734 31.5238 24.9321 30.935L25.4793 30.0373L23.7306 30.0872C23.4648 30.0764 23.2888 29.9742 23.1742 29.7774C23.0596 29.5806 23.0613 29.3373 23.18 29.1413L25.1738 25.8496ZM16.5236 4.17814C14.3788 4.35668 13.0394 6.75823 12.7537 7.31958C12.7595 7.71071 12.7728 8.77529 12.7845 10.0973H23.2015C23.2015 10.7849 22.6435 11.3429 21.956 11.3429H20.9944C21.5449 11.8769 22.0838 12.4631 22.4608 13.0195C22.9923 12.4988 23.7454 11.9666 24.487 12.1592C24.5002 12.1625 24.5127 12.1659 24.526 12.17C24.5459 11.4251 24.5459 10.2144 24.4612 8.37752C24.3192 5.3839 22.1229 4.33758 21.721 4.17067C21.2585 4.13413 18.9666 3.97636 16.5236 4.17814Z" fill="#040B29"/>
</svg>
