<svg width="36" height="36" viewBox="0 0 36 36" fill="none" xmlns="http://www.w3.org/2000/svg">
<path fill-rule="evenodd" clip-rule="evenodd" d="M18 20C19.1046 20 20 19.1046 20 18C20 16.8954 19.1046 16 18 16C16.8954 16 16 16.8954 16 18C16 19.1046 16.8954 20 18 20ZM18 19C18.5523 19 19 18.5523 19 18C19 17.4477 18.5523 17 18 17C17.4477 17 17 17.4477 17 18C17 18.5523 17.4477 19 18 19Z" fill="#040B29"/>
<path fill-rule="evenodd" clip-rule="evenodd" d="M22.9545 8.17627C26.5409 9.9886 29 13.7071 29 18C29 24.0751 24.0751 29 18 29C14.9802 29 12.2446 27.7831 10.2568 25.813C9.62028 25.1821 9.06044 24.474 8.59251 23.7039C8.46076 23.4871 8.33629 23.2653 8.21945 23.039C7.44008 21.5294 7 19.8161 7 18C7 17.5116 7.03182 17.0307 7.09351 16.5592C7.17037 15.9717 7.29352 15.3988 7.4593 14.8442L7.46034 14.841C7.50917 14.6778 7.5617 14.5163 7.61781 14.3564L7.61888 14.3531C8.16546 12.7971 9.05196 11.4012 10.1893 10.2544C11.7367 8.69404 13.7484 7.59495 16 7.18137C16.6353 7.06469 17.2896 7.00249 17.958 7H18.0419C19.8086 7.00659 21.4772 7.42973 22.9545 8.17627ZM27.9982 18.1899C27.9994 18.1267 28 18.0634 28 18C28 16.567 27.6986 15.2044 27.1557 13.9721L20.3802 16.1736C20.3804 16.1738 20.3801 16.1734 20.3802 16.1736C20.0302 15.7183 19.5519 15.3657 19 15.1707V14.126C19 14.126 19 14.126 19 14.126L19 11.6901C19 11.3227 19.1348 10.9681 19.3789 10.6936L21.2831 8.5514C20.2547 8.19413 19.15 8 18 8C17.6625 8 17.3289 8.01672 17 8.04937V15.1706C17 15.1706 17 15.1706 17 15.1706C16.4474 15.366 15.969 15.7187 15.6188 16.1749L14.6251 15.852C14.625 15.852 14.6251 15.852 14.6251 15.852L12.3079 15.0991C11.9586 14.9856 11.663 14.7478 11.4773 14.4308L10.0295 11.9599C9.40749 12.7795 8.90895 13.698 8.56166 14.6876L8.41848 15.1282C8.34505 15.3736 8.28079 15.6229 8.22609 15.8757L15.001 18.077C15.0019 18.1148 15.0036 18.1524 15.0059 18.1898C15.0111 18.2729 15.0197 18.355 15.0315 18.4362C15.0995 18.9028 15.2749 19.3347 15.5319 19.7058L13.4873 22.5199C13.2713 22.8171 12.9538 23.0248 12.595 23.1034L9.7946 23.7174C10.4024 24.5881 11.1453 25.3575 11.9928 25.9953L12.2656 26.1935C12.492 26.3522 12.7252 26.5018 12.9648 26.6417L16.5376 21.7242C16.5342 21.7229 16.5309 21.7215 16.5275 21.7202L17.1414 20.8753C17.1449 20.8763 17.1485 20.8774 17.152 20.8784C17.4209 20.9575 17.7055 20.9999 18 20.9999C18.2994 20.9999 18.5886 20.9561 18.8614 20.8744L20.9093 23.6931C21.1253 23.9903 21.2246 24.3564 21.1886 24.722L20.9076 27.5707C22.3161 27.1434 23.5931 26.4136 24.663 25.457L21.0904 20.5397C21.088 20.5426 21.0856 20.5456 21.0831 20.5485L20.4695 19.7039C20.4717 19.7007 20.4739 19.6974 20.4761 19.6942C20.5653 19.5641 20.6446 19.4265 20.7127 19.2827C20.8868 18.9152 20.9884 18.5066 20.9991 18.0755C20.9991 18.0757 20.9991 18.0752 20.9991 18.0755L21.9924 17.752C21.9924 17.7518 21.9925 17.7522 21.9924 17.752L24.3233 16.9954C24.6727 16.8818 25.0516 16.9005 25.3882 17.0478L27.9982 18.1899ZM21.9138 18.8297L24.6324 17.9464C24.7488 17.9086 24.8751 17.9148 24.9873 17.9639L27.9228 19.2484C27.6606 21.3541 26.7437 23.2565 25.3823 24.7456L21.6583 19.6201C21.7696 19.3691 21.8558 19.1046 21.9138 18.8297ZM17.5884 21.979C17.7238 21.9929 17.861 22 18 22C18.1442 22 18.2866 21.9923 18.4268 21.9775L20.1003 24.2809C20.1723 24.38 20.2054 24.502 20.1934 24.6239L19.8777 27.824C19.2695 27.9395 18.6418 28 18 28C16.5245 28 15.1237 27.6805 13.8629 27.1068L17.5884 21.979ZM14.0865 18.8314C14.1456 19.1108 14.2338 19.3795 14.3479 19.634L12.6783 21.9321C12.6063 22.0312 12.5005 22.1004 12.3808 22.1266L9.23425 22.8165C8.44757 21.3879 8 19.7462 8 18C8 17.6194 8.02127 17.2437 8.06268 16.8741L14.0865 18.8314ZM16 14.5351C15.7572 14.6755 15.5305 14.8408 15.3234 15.0274L12.617 14.148C12.5005 14.1102 12.402 14.0309 12.3401 13.9253L10.7142 11.1503C12.1032 9.67346 13.9362 8.61895 16 8.20003V14.5351ZM20.6754 15.0263C20.4686 14.8402 20.2424 14.6753 20 14.5351V11.6901C20 11.5676 20.045 11.4494 20.1263 11.3579L22.2646 8.95234C24.1337 9.8349 25.6854 11.2796 26.7013 13.0683L20.6754 15.0263Z" fill="#040B29"/>
<path fill-rule="evenodd" clip-rule="evenodd" d="M18 32.5C26.0081 32.5 32.5 26.0081 32.5 18C32.5 9.99187 26.0081 3.5 18 3.5C9.99187 3.5 3.5 9.99187 3.5 18C3.5 26.0081 9.99187 32.5 18 32.5ZM18 31.5C25.4558 31.5 31.5 25.4558 31.5 18C31.5 10.5442 25.4558 4.5 18 4.5C10.5442 4.5 4.5 10.5442 4.5 18C4.5 25.4558 10.5442 31.5 18 31.5Z" fill="#040B29"/>
</svg>
