<svg width="36" height="36" viewBox="0 0 36 36" fill="none" xmlns="http://www.w3.org/2000/svg">
<path d="M4 8.30919L4.33974 8.35084C5.13064 8.45884 5.90224 8.64243 6.51952 8.90162C9.44217 9.59278 16.1945 14.8259 16.4968 15.0234H17.6054C19.9234 15.0234 28.7921 16.2082 31.2109 17.6893C32.521 18.4792 31.9163 20.454 31.4124 22.2312C31.3116 22.6262 31.2109 23.1199 31.1101 23.4161L31.7148 23.8111C31.9163 24.0085 32.0171 24.4035 31.9163 24.6997L31.1101 26.9707C31.0093 27.0694 31.0093 27.1681 30.9085 27.2669C30.2031 27.9581 27.8851 28.0568 26.1718 28.0568H25.3656C24.8617 30.5252 22.5437 32.5 19.8226 32.5C17.0007 32.5 14.7836 30.5252 14.2797 27.9581L5.41093 27.8593C4.60469 27.8593 4 27.2669 4 26.477V26.2795L14.2797 26.3782L14.3097 26.1495C14.7167 23.5 17.0791 21.5401 19.8226 21.5401C22.6445 21.5401 25.0632 23.6136 25.3656 26.3782L25.6687 26.3772C27.2884 26.3663 28.9344 26.2679 29.5984 26.082L30.1023 24.601L29.6992 24.206C29.4976 24.1073 29.3968 23.8111 29.3968 23.6136C29.3968 23.1199 29.5984 22.5275 29.7999 21.7376C30.0015 21.0464 30.5054 19.3678 30.3038 18.9729L30.144 18.8818C27.9639 17.7281 19.9622 16.6032 17.6054 16.6032C16.6984 16.6032 15.5898 16.7019 14.3804 16.8007C13.5742 16.8007 12.7679 16.8994 12.0625 16.8994C10.9905 16.9802 9.04155 16.9949 6.7675 16.9975L5.20937 16.9981C4.60469 16.9981 4 16.5044 4 15.8133V15.4183L4.40301 15.4178C7.49094 15.4103 10.5172 15.3196 12.0625 15.3196C12.7679 15.2208 13.4734 15.2208 14.1789 15.1221C11.7601 13.4436 8.03124 10.7776 6.21718 10.3827C5.81406 10.2839 5.31015 10.1852 4.90703 10.0865C4.40312 9.98773 4 9.59278 4 9.09909V8.30919ZM23.6523 27.0694C23.6523 24.6997 21.4351 22.7249 18.8148 23.3174C17.4039 23.6136 16.1945 24.7984 15.8922 26.1808C15.2875 28.6492 17.2023 30.9202 19.7218 30.9202C21.939 30.9202 23.7531 29.1429 23.6523 27.0694ZM18.3414 8.91394L19.2286 9.0987C20.4562 9.35435 21.5145 9.98542 22.222 10.9312L22.3682 11.1387L22.7912 11.7769L22.6434 11.9182C22.2876 12.2585 21.764 12.1791 21.44 11.7872L21.3689 11.6913L21.2465 11.517C20.7403 10.8359 20.0377 10.351 19.2856 10.2097L18.9574 10.1601L18.8236 10.1501L18.408 10.1328L18.328 10.122L18.1885 10.0934C17.8217 10.0171 17.519 9.72994 17.4277 9.37403L17.4052 9.25304L17.377 9.00775L17.6274 8.98009L18.3414 8.91394ZM18.1164 6.2213C18.7483 6.21159 19.4251 6.27717 20.0328 6.40372C21.852 6.78256 23.4474 7.85047 24.5747 9.41682L24.7582 9.68247L25.1812 10.3206L25.0334 10.462C24.6776 10.8023 24.1541 10.7228 23.8281 10.328L23.7565 10.2313L23.603 9.99022C22.729 8.68387 21.4245 7.80392 19.9009 7.48663C19.3368 7.36916 18.769 7.3206 18.2046 7.34348L17.8664 7.3658L17.8485 7.34911C17.4162 7.39687 16.9698 7.16269 16.8634 6.77701L16.8441 6.67751L16.8196 6.46477L17.7383 6.23665L18.1164 6.2213ZM20.6195 3.69947C23.2405 4.24529 25.5363 5.86712 27.0239 8.21071L27.1985 8.49539L27.6113 9.30102L27.356 9.40053C26.9134 9.57299 26.4278 9.45607 26.2109 9.08035L26.1744 9.00707L26.0196 8.75159C24.7769 6.77551 22.8785 5.37618 20.7461 4.93152L20.4666 4.87896C19.4575 4.66882 18.6125 4.6036 17.7778 4.70704L17.5607 4.73816L17.5524 4.77679L17.4508 4.75565L17.3361 4.7755L17.2983 4.71783L17.288 4.70878C16.8984 4.75183 16.5703 4.50989 16.3752 4.12409L16.3208 4.00417L16.1932 3.68995L17.244 3.62024C18.3341 3.43574 19.492 3.46466 20.6195 3.69947Z" fill="#040B29"/>
</svg>
