<svg width="36" height="36" viewBox="0 0 36 36" fill="none" xmlns="http://www.w3.org/2000/svg">
<path d="M30.635 6C31.8867 6 32.9113 6.94802 32.9945 8.1476L33 8.30543V27.6946C33 28.9147 32.0275 29.9136 30.7969 29.9947L30.635 30H5.36499C4.113 30 3.08864 29.0521 3.00545 27.8524L3 27.6946V19.4736C3 18.6241 3.37288 17.8187 4.00868 17.2657L4.16002 17.1426L15.9131 7.19296C16.8048 6.51561 18.3911 6.05979 19.7529 6.00546L20.022 6H30.635ZM31.2957 17.1828H6.74304L5.64266 18.121C5.09929 18.5339 4.7628 19.1496 4.7105 19.8139L4.70333 19.9962V27.6303C4.70333 27.9891 4.97732 28.2861 5.33229 28.3331L5.43096 28.3396H30.569C30.9374 28.3396 31.2418 28.0726 31.29 27.7265L31.2967 27.6303L31.2957 17.1828ZM29.2044 19.5724V19.8187C29.2044 20.4483 28.6915 21.0537 28.1321 21.1269L28.0197 21.1343L24.3423 21.1347V19.5728L29.2044 19.5724ZM30.569 7.66094H20.3988C19.1937 7.66094 17.709 8.04034 16.8504 8.59659L16.6764 8.71841L8.57564 15.621H31.2957L31.2967 8.37025C31.2967 7.97829 30.9711 7.66094 30.569 7.66094Z" fill="white"/>
</svg>
