<svg width="28" height="28" viewBox="0 0 28 28" fill="none" xmlns="http://www.w3.org/2000/svg">
<path fill-rule="evenodd" clip-rule="evenodd" d="M13.8598 3L13.8148 3.002L12.3148 3.072L11.5298 3.112L10.4548 3.173L9.92282 3.214L9.52682 3.244L9.49782 3.246L9.46882 3.25L9.16882 3.29L8.84082 3.346C7.77982 3.536 7.09382 3.872 6.67482 4.402L6.60182 4.497L6.56482 4.545L6.53382 4.597L6.41382 4.796L6.12982 5.301L4.84382 7.651L4.38082 8.468L4.15082 8.915L3.38315 10.4014H1.5C1.5 10.9534 1.947 11.4014 2.5 11.4014H2.80411L2.41182 12.06C2.15582 12.516 2.01082 12.907 1.91182 13.39C1.87382 13.537 1.83782 13.748 1.80182 13.982L1.77082 14.2L1.71682 14.693L1.66582 15.226L1.64382 15.53L1.62382 15.822L1.59182 16.474L1.59082 19.081C1.59082 19.335 1.62082 19.585 1.68082 19.824L1.69682 19.882L1.81782 20.262C1.86082 20.4 1.88582 20.541 1.89182 20.692L1.90182 20.925L1.90104 24.5308C1.90092 25.0832 2.34867 25.531 2.90104 25.531H5.67082C6.2231 25.531 6.67082 25.0833 6.67082 24.531V21.751C6.67082 21.644 6.74382 21.571 6.82282 21.54L6.85382 21.538L6.93882 21.531H20.8108C20.9148 21.531 21.0048 21.605 21.0308 21.709V24.531C21.0308 25.0833 21.4785 25.531 22.0308 25.531H24.8008C25.3531 25.531 25.8008 25.0833 25.8008 24.531V20.881C25.8008 20.749 25.8168 20.59 25.8488 20.397L25.8958 20.224L26.0068 19.865C26.0578 19.696 26.0898 19.522 26.1068 19.342L26.1188 19.14L26.1208 19.11V16.531L26.1188 16.5L26.0988 16.17L26.0588 15.547C26.0488 15.339 26.0368 15.14 26.0148 14.94L25.9978 14.722L25.9328 14.205C25.8888 13.885 25.8458 13.628 25.8028 13.404C25.7188 13.019 25.6148 12.712 25.4488 12.352L25.3358 12.124L25.3178 12.088L25.2978 12.055L24.9226 11.4326H25.2253C25.7773 11.4326 26.2253 10.9846 26.2253 10.4326H24.3432L23.9118 9.587L23.4888 8.771L23.3248 8.475L23.0118 7.92L21.8078 5.721L21.3028 4.821L21.1968 4.629L21.1778 4.595L21.1558 4.562C20.6168 3.741 19.5968 3.475 18.8768 3.347L18.6328 3.302L18.6048 3.299L18.4448 3.279L18.0978 3.238L17.6208 3.204L17.0848 3.164L15.9528 3.093L13.8598 3ZM13.8608 4.001L15.8908 4.091L17.0108 4.161L17.5508 4.201L17.9808 4.231L18.3208 4.271L18.4808 4.291L18.7008 4.331C19.5408 4.481 20.0708 4.731 20.3208 5.111L20.4308 5.311L20.9308 6.201L22.1408 8.411L22.4508 8.961L22.6008 9.231L23.0208 10.041L23.2808 10.551L23.4908 10.961L23.7108 11.361L24.4408 12.571L24.5408 12.771C24.6063 12.9129 24.6629 13.0489 24.7121 13.1951L23.1696 13.9696C21.8165 14.4439 20.3097 14.7037 18.7915 14.7037H9.69282L9.23531 14.6959C8.04671 14.6553 6.86864 14.4561 5.73222 14.1029L3.06127 13.0059C3.11835 12.8621 3.18675 12.7214 3.27082 12.571L3.99082 11.361L4.27082 10.861L5.04082 9.371L5.25082 8.961L5.72082 8.131L7.00082 5.791L7.27082 5.311L7.39082 5.111L7.46082 5.021C7.72082 4.691 8.23082 4.471 9.01082 4.331L9.30082 4.281L9.60082 4.241L10.0008 4.211L10.5108 4.171L11.5808 4.111L12.3608 4.071L13.8608 4.001ZM2.81341 13.9852C2.80577 14.0325 2.7983 14.0812 2.79082 14.131L2.76082 14.341L2.71082 14.801L2.66082 15.321L2.64082 15.601L2.62082 15.891L2.59082 16.521V18.0118L3.37744 18.1694C3.56258 18.1553 3.70124 18.103 3.84099 17.9931C3.99907 17.8689 4.17797 17.6554 4.40234 17.2811L4.50323 17.1094C4.84799 16.501 5.33408 15.8685 5.95226 15.2079C5.77173 15.1591 5.59207 15.1068 5.41337 15.051L5.39265 15.0445L2.81341 13.9852ZM2.59082 19.081V19.0317L3.28665 19.171L3.41646 19.169L3.42873 19.1682C3.8068 19.1437 4.14532 19.0259 4.45895 18.7794C4.75737 18.5448 5.01117 18.2108 5.2613 17.7932L5.3675 17.6126L5.37151 17.6055C5.73409 16.9647 6.30274 16.2543 7.09456 15.4668C7.79098 15.595 8.49658 15.6715 9.20562 15.6955L9.67994 15.7037H18.7915C19.3791 15.7037 19.9654 15.6675 20.5434 15.5972C21.3365 16.3856 21.9059 17.0969 22.2689 17.7383L22.3749 17.9205L22.3784 17.9264C22.629 18.3439 22.883 18.6778 23.1814 18.9123C23.4951 19.1587 23.8336 19.2765 24.2117 19.301L24.2201 19.3016L24.3484 19.3056L25.1164 19.1564L25.1108 19.251C25.1008 19.361 25.0808 19.471 25.0508 19.571L24.9308 19.961L24.8708 20.181C24.8308 20.411 24.8008 20.651 24.8008 20.881V24.531H22.0308V21.631C21.9608 21.011 21.4408 20.531 20.8108 20.531H6.90082L6.77082 20.541L6.65082 20.551C6.09082 20.671 5.67082 21.161 5.67082 21.751V24.531H2.90082V20.881L2.89082 20.651C2.88082 20.411 2.84082 20.181 2.77082 19.961L2.65082 19.581C2.61082 19.421 2.59082 19.251 2.59082 19.081ZM25.1208 18.1369V16.561L25.1008 16.231L25.0608 15.611C25.0508 15.411 25.0408 15.231 25.0208 15.051L25.0008 14.801L24.9408 14.331C24.935 14.289 24.9292 14.248 24.9234 14.208L23.5618 14.8917L23.5321 14.9022C22.9575 15.1052 22.3582 15.272 21.7433 15.3999C22.3356 16.0395 22.8032 16.6527 23.1377 17.2431L23.2375 17.4146C23.4621 17.7883 23.6411 18.0016 23.7992 18.1259C23.9404 18.2368 24.0803 18.2891 24.2679 18.3025L25.1208 18.1369Z" fill="#040B29"/>
</svg>
