<svg width="36" height="36" viewBox="0 0 36 36" fill="none" xmlns="http://www.w3.org/2000/svg">
<path d="M11.9898 22.007C13.4316 22.007 14.4106 23.0027 14.7273 23.9512L15.5455 26.1542C16.3037 26.6359 16.7936 27.4973 16.7936 28.4326V30.3461C16.7936 31.1868 16.3135 31.9165 15.6177 32.2647C15.6078 33.2231 14.8373 34 13.8911 34C13.0188 34 12.295 33.3384 12.181 32.4819H7.61182C7.49857 33.3384 6.77562 34 5.90167 34C4.95633 34 4.18496 33.2231 4.17593 32.2647C3.48006 31.9165 3 31.1877 3 30.3461V28.4326C3 27.4973 3.49072 26.6359 4.24815 26.1542L5.05726 23.9769C5.37238 23.021 6.35711 22.007 7.80302 22.007H11.9898ZM11.9898 23.2507H7.80302C6.83963 23.2507 6.34398 23.9861 6.21925 24.3882L5.22877 27.0571C4.65353 27.2345 4.23091 27.7859 4.23091 28.4326V30.3461C4.23091 30.8361 4.62152 31.2382 5.09583 31.2382H5.40684V32.2464C5.40684 32.5258 5.63087 32.7563 5.90167 32.7563C6.17247 32.7563 6.39732 32.5258 6.39732 32.2464V31.2382H13.3963V32.2464C13.3963 32.5258 13.6203 32.7563 13.8911 32.7563C14.1619 32.7563 14.3868 32.5258 14.3868 32.2464V31.2382H14.6978C15.1729 31.2382 15.5627 30.8361 15.5627 30.3461V28.4326C15.5627 27.7859 15.1401 27.2345 14.5657 27.0571L13.5752 24.3882C13.4431 23.9935 12.954 23.2507 11.9898 23.2507ZM21.2856 2.18017L21.4837 2.25941L32.6005 7.16607C32.8129 7.26004 32.9595 7.45683 32.9928 7.68329L33 7.78195V15.7588C33 23.5044 27.5861 30.6608 20.4063 32.4049L20.3287 32.419L20.2503 32.4237L20.1725 32.419L20.0953 32.4049C19.3748 32.2306 18.6551 31.9962 17.9293 31.644C18.1924 30.9909 18.9083 30.6602 19.5837 30.8715C19.7977 30.9384 20.0223 31.0019 20.2383 31.064C26.6659 29.4258 31.5148 23.05 31.6672 16.0957L31.6709 15.7588L31.7003 8.23452L20.952 3.49038C20.5539 3.31474 20.1086 3.29522 19.7 3.43183L19.5487 3.49038L8.82981 8.18904V15.7588C8.82981 16.6955 8.91695 17.6384 9.08994 18.5778C9.21704 19.2707 8.79846 19.9433 8.06607 20.0887C7.73778 18.8397 7.55111 17.5682 7.50957 16.3013L7.50066 15.7588V7.78195C7.50066 7.5485 7.62072 7.33428 7.81335 7.21241L7.90021 7.16605L19.017 2.25942C19.7349 1.94225 20.5515 1.91601 21.2856 2.18017ZM18.3043 16.3979L18.3978 16.5023L15.4813 19.2533C15.3818 19.3469 15.2583 19.4059 15.1272 19.4258L15.0277 19.4332L14.9301 19.4261C14.8337 19.4118 14.7416 19.3764 14.6596 19.3212L14.5811 19.2595L13.122 17.8546C13.5648 17.3605 14.3005 17.293 14.8219 17.6765L14.9301 17.7657L14.9885 17.8798L16.592 16.3683C17.0768 15.9124 17.8189 15.909 18.3043 16.3979ZM22.1995 16.8168L25.2127 16.8664C25.2127 17.5357 24.7087 18.0867 24.0635 18.153L23.9326 18.1597L20.9195 18.11C20.9195 17.4407 21.4235 16.8897 22.0687 16.8234L22.1995 16.8168ZM18.3043 10.6598L18.3978 10.7641L15.4812 13.5144C15.3809 13.6081 15.2578 13.667 15.127 13.6868L15.0277 13.6943L14.9301 13.6871C14.8337 13.6728 14.7416 13.6374 14.6596 13.5822L14.5811 13.5205L13.122 12.1156C13.5651 11.622 14.3001 11.5543 14.8219 11.9377L14.9303 12.0268L14.9885 12.1417L16.592 10.6302C17.0768 10.1743 17.8189 10.1708 18.3043 10.6598ZM22.1992 11.332L27.62 11.3816C27.62 12.0509 27.116 12.6019 26.4708 12.6682L26.34 12.6749L20.9192 12.6253C20.9192 11.956 21.4232 11.4049 22.0684 11.3387L22.1992 11.332Z" fill="#040B29"/>
</svg>
