<svg width="36" height="36" viewBox="0 0 36 36" fill="none" xmlns="http://www.w3.org/2000/svg">
<path d="M15.0916 4.81583C17.0523 4.39472 19.0842 4.39472 21.0453 4.81582L21.2592 4.8665C23.149 5.35906 24.5592 6.91551 24.8094 8.81961L24.9571 9.945C25.3025 12.5732 25.4757 15.2201 25.4757 17.8705V26.7888C25.4757 29.3939 23.3037 31.5 20.6301 31.5H15.5064C12.8331 31.5 10.6608 29.3937 10.6608 26.7888V17.734C10.6608 15.1137 10.834 12.4964 11.1796 9.8984L11.3239 8.81332C11.5858 6.84195 13.0915 5.24501 15.1134 4.81144L15.0916 4.81583ZM29.5645 5.77762C30.0408 5.77762 30.4392 6.11691 30.4937 6.56124L30.5 6.66553V30.5686C30.5 31.0274 30.1355 31.3998 29.6729 31.4506L29.5645 31.4565H29.1436V5.77762H29.5645ZM5.92178 5.7067C6.39801 5.7067 6.79642 6.04599 6.85091 6.49031L6.85725 6.59461V30.4973C6.85725 30.9564 6.49286 31.3285 6.03018 31.3793L5.92178 31.3852H5.5V5.7067H5.92178ZM20.3224 6.1755C18.6969 5.88172 17.0237 5.90883 15.3805 6.2612L15.2162 6.30218C13.9289 6.65387 12.9759 7.71497 12.8045 9.00498L12.6602 10.0901C12.3231 12.6246 12.1541 15.1778 12.1541 17.734V26.7888C12.1541 28.5741 13.6521 30.0265 15.5064 30.0265H20.6301C22.4847 30.0265 23.9824 28.5742 23.9824 26.7888V17.8705C23.9824 15.2835 23.8134 12.6999 23.4762 10.1344L23.3285 9.00896C23.1506 7.65541 22.1123 6.55255 20.7502 6.26008L20.3224 6.1755ZM18.1024 12.4128C19.7371 12.4128 21.2537 13.1786 21.8187 14.474L22.1537 15.2111L21.7831 15.3695C21.3834 15.5403 20.9163 15.3646 20.7383 14.9744L20.6505 14.7925C20.2385 14.0483 19.2141 13.5847 18.1024 13.5847C16.9032 13.5847 15.8412 14.1178 15.4436 15.043L15.4823 14.9737L15.4673 15.0095C15.2914 15.4024 14.8244 15.5816 14.4233 15.4132L14.0518 15.2573L14.3911 14.4991L14.4832 14.304C15.1048 13.1096 16.5485 12.4128 18.1024 12.4128Z" fill="#040B29"/>
</svg>
