<svg width="28" height="28" viewBox="0 0 28 28" fill="none" xmlns="http://www.w3.org/2000/svg">
<path d="M25.25 4L25.3518 4.00685C25.6846 4.05199 25.948 4.31543 25.9932 4.64823L26 4.75V23.25L25.9932 23.3518C25.948 23.6846 25.6846 23.948 25.3518 23.9932L25.25 24H2.75L2.64823 23.9932C2.31543 23.948 2.05199 23.6846 2.00685 23.3518L2 23.25V4.75L2.00685 4.64823C2.05199 4.31543 2.31543 4.05199 2.64823 4.00685L2.75 4H25.25ZM25 5H3V23H25V5ZM21.6587 7.22075C22.1026 6.91422 22.6953 6.92882 23.1223 7.25273L23.13 7.2593L13.999 15.1483L4.885 7.2753L4.89904 7.26359L5.00854 7.1903C5.42155 6.94452 5.95365 6.9523 6.36391 7.23983L6.47487 7.32672L13.999 13.8277L21.551 7.30408L21.6587 7.22075Z" fill="#040B29"/>
</svg>
