<svg width="28" height="28" viewBox="0 0 28 28" fill="none" xmlns="http://www.w3.org/2000/svg">
<path d="M6.68483 2.23591L6.93066 2L7.17308 2.07858C7.87133 2.30621 8.73562 3.50188 8.8615 4.53295L8.87585 4.70874C8.91064 5.53739 8.49528 6.48206 7.63353 7.52216L7.47066 7.713L7.50042 7.74293C7.13788 7.42196 7.07541 6.87721 7.35437 6.47788C7.84726 5.77249 8.07292 5.14617 8.01137 4.63685C7.94597 4.10385 7.61833 3.5293 7.22687 3.13326C7.17782 3.08421 7.09833 3.09315 7.06061 3.15042C6.92116 3.36748 6.77871 3.6376 6.6476 3.93436C6.18363 4.97323 5.89748 6.1881 5.86169 7.26928L5.85738 7.51077L5.86231 7.95367L5.89013 8.69426L5.94217 9.60563L6.01835 10.687L6.11863 11.9377L6.31407 14.1292L6.56334 16.7888L6.83452 19.4217L7.08855 21.8028L7.18368 22.3047L7.29148 22.9408L7.42377 23.8468C7.44238 24.0187 7.59928 24.1303 7.7881 24.1154L9.37613 23.9594L11.1027 23.8035L12.0031 23.7305L13.0484 23.6569L13.7175 23.6195L14.2897 23.5971L14.618 23.5905L15.1351 23.5941L15.666 23.6172L16.8409 23.6994L18.4374 23.7974L19.1901 23.842L19.8505 23.8677L20.2328 23.8749C20.2924 23.8754 20.3499 23.8757 20.4051 23.8756L20.7097 23.8713L20.9574 23.8598L21.1445 23.8412C21.3909 23.4602 21.5954 22.6889 21.6103 22.0649C21.6252 21.4467 21.5035 21.0859 21.2781 20.9146C21.1905 20.8479 21.1158 20.8231 21 20.8034C20.7812 20.766 20.5174 20.7392 20.2089 20.7231L19.8172 20.7088L19.3828 20.7048L18.9057 20.7109L18.3861 20.7273L17.824 20.7538L16.9167 20.7905L16.2702 20.8374L15.5817 20.8944L14.4703 20.999L13.6773 21.0814L11.9665 21.2764L9.92966 21.5325L9.85594 21.4755C9.48266 21.2034 9.36148 20.7089 9.5419 20.2146L9.59574 20.0638L9.68682 19.7856C9.71304 19.6993 9.7348 19.6205 9.7512 19.5518C9.85001 19.1411 9.90057 18.7121 9.9019 18.2737C9.90895 16.2085 9.00874 13.4466 7.2246 10.2298L7.1701 10.1157C6.9976 9.6899 7.12345 9.18992 7.4738 8.90066L7.51166 8.873L7.46992 8.80194C9.69656 12.5903 10.8204 15.8398 10.8126 18.2772C10.8113 18.7893 10.7512 19.2965 10.6345 19.7841C10.5885 19.975 10.5192 20.2091 10.4364 20.4536L10.516 20.5521L11.4036 20.4486L12.7322 20.2907L13.5656 20.1981L14.7378 20.078L15.8174 19.9806L16.4859 19.9281L17.7158 19.8681L18.2834 19.8407L18.8109 19.8231C18.8955 19.821 18.9785 19.8193 19.0598 19.8181L19.5278 19.8154L19.9565 19.8227C20.0247 19.8247 20.0912 19.8272 20.1561 19.8301L20.5261 19.8522C20.7599 19.8702 20.9678 19.8948 21.1501 19.926C21.9804 20.0686 22.533 20.6994 22.5 22.0853C22.4779 22.9964 22.124 24.1926 21.7467 24.5408L21.6788 24.5954C21.6679 24.6024 21.6563 24.609 21.6424 24.6162C21.585 24.6458 21.5076 24.6715 21.4071 24.693L21.2388 24.722C21.2078 24.7263 21.1752 24.7303 21.141 24.734L20.9168 24.7528C20.8762 24.7554 20.8339 24.7576 20.7898 24.7596L20.3461 24.7686L19.9952 24.7649L19.5976 24.7531L19.1512 24.7328L18.6537 24.7038L18.103 24.6658L16.0898 24.5364L15.3831 24.4934L14.9595 24.4806L14.7663 24.4793L14.3034 24.4869L13.9391 24.5003L13.5303 24.5204L12.8342 24.5631L11.7522 24.6432L10.4953 24.7499L8.68015 24.9203L7.87871 25C7.83802 25.0044 7.79541 25.0066 7.75288 25.0066C7.09221 25.0066 6.61353 24.7575 6.49962 24.2965L6.4786 24.1664L6.46888 23.932L6.3613 22.9605L6.34766 22.9295L5.89665 18.6958L5.63533 16.1153L5.52362 14.8733L5.4226 13.7963L5.32049 12.6584L5.20329 11.2565L5.15462 10.6244L5.07715 9.49898L5.03647 8.77662L5.01765 8.35325L5.0055 7.9766L5 7.64678L5.00117 7.36393C5.00192 7.32071 5.00295 7.27945 5.00426 7.24015C5.04369 6.05685 5.3572 4.72361 5.86352 3.58503C6.08127 3.09596 6.31912 2.68264 6.54983 2.39135C6.59606 2.33343 6.64188 2.28086 6.68483 2.23591Z" fill="#040B29"/>
</svg>
