<svg width="139" height="45" viewBox="0 0 139 45" fill="none" xmlns="http://www.w3.org/2000/svg">
<path d="M0 11.1547V33.8453H3.75328C4.02887 33.8606 4.30516 33.8331 4.57239 33.7638C4.81119 33.6901 5.02839 33.5589 5.20506 33.3817C5.38173 33.2045 5.5125 32.9866 5.58596 32.7471C5.65503 32.479 5.68243 32.2018 5.66721 31.9254V19.9007L16.8618 32.7123C17.2107 33.1132 17.5011 33.4218 17.9553 33.6275C18.4094 33.8333 18.8316 33.8493 19.3631 33.8493H23.4919V11.1547H19.732C19.4564 11.1394 19.1801 11.1669 18.9129 11.2362C18.6741 11.3099 18.4569 11.4411 18.2802 11.6183C18.1036 11.7955 17.9728 12.0134 17.8993 12.2529C17.8303 12.521 17.8029 12.7982 17.8181 13.0746V25.0993L6.62351 12.2957C6.27455 11.8949 5.9842 11.5862 5.53002 11.3805C5.07585 11.1747 4.65231 11.1587 4.12221 11.1587L0 11.1547Z" fill="white"/>
<path d="M27.4926 13.074V33.8474H33.1438V11.1567H29.4065C29.1309 11.1414 28.8546 11.1689 28.5874 11.2382C28.3486 11.3119 28.1314 11.4431 27.9547 11.6203C27.778 11.7976 27.6473 12.0155 27.5738 12.255C27.505 12.5222 27.4776 12.7985 27.4926 13.074Z" fill="white"/>
<path d="M49.2181 10.5307C42.5586 10.5307 37.1404 15.8991 37.1404 22.4993C37.1404 29.0996 42.5586 34.4693 49.2181 34.4693C55.8775 34.4693 61.2957 29.0996 61.2957 22.4993C61.2957 15.8991 55.8775 10.5307 49.2181 10.5307ZM49.2447 28.7709C48.0085 28.7709 46.8 28.4032 45.7721 27.7142C44.7442 27.0252 43.943 26.0459 43.4699 24.9002C42.9968 23.7545 42.873 22.4937 43.1142 21.2774C43.3554 20.0611 43.9507 18.9439 44.8249 18.067C45.699 17.1901 46.8128 16.5929 48.0253 16.3509C49.2378 16.109 50.4945 16.2332 51.6367 16.7077C52.7788 17.1823 53.755 17.986 54.4419 19.0171C55.1287 20.0483 55.4953 21.2605 55.4953 22.5007C55.4928 24.1629 54.8335 25.7563 53.6618 26.9317C52.4901 28.107 50.9017 28.7684 49.2447 28.7709Z" fill="white"/>
<path d="M84.2185 11.6778C82.4125 10.9162 80.1403 10.5301 77.4658 10.5301C74.7341 10.5301 72.6217 10.8227 71.0088 11.4266C67.2156 12.8495 65.2923 16.5745 65.2923 22.5C65.2923 28.6046 67.0145 31.9996 70.8756 33.508C72.4979 34.1453 74.7967 34.4686 77.7069 34.4686C79.2014 34.4829 80.6946 34.3788 82.1727 34.1573C83.7084 33.9168 84.6101 33.7365 85.1735 33.5574C85.9726 33.3169 86.7251 33.0631 87.4603 32.7825L88.1702 32.5153L87.4723 30.6996L86.7651 30.9748C84.1519 32.0049 81.1245 32.5286 77.7682 32.5286C75.0431 32.5286 72.9161 32.212 71.439 31.5854C68.6913 30.455 67.3887 27.8631 67.2649 23.2255H88.1316L88.2395 22.5949C88.5059 21.013 88.6391 19.7156 88.6391 18.7403C88.6417 15.0073 87.3605 12.9618 84.2185 11.6778ZM67.2675 21.2869C67.414 16.9179 68.8525 14.2818 71.6548 13.241C73.0439 12.7279 75.0298 12.4687 77.5564 12.4687C80.0524 12.4687 81.9783 12.7854 83.4527 13.4387C85.8874 14.4769 86.7092 15.8236 86.7092 18.7724C86.7121 19.614 86.6511 20.4546 86.5267 21.2869H67.2675Z" fill="white"/>
<path d="M109.683 22.3851L96.698 20.4184C95.8696 20.2848 94.7681 19.761 94.7681 16.7134C94.7681 14.8363 95.5579 13.6872 97.2521 13.0953C98.4508 12.6745 100.307 12.4701 102.925 12.4701C105.351 12.4701 108.211 12.9203 111.423 13.8061L112.129 14.0052L112.693 12.1641L111.947 11.9557C108.578 11.0124 105.554 10.5341 102.953 10.5341C100.058 10.5341 97.958 10.7866 96.5395 11.3037C94.1155 12.1601 92.8328 14.0106 92.8328 16.648C92.8328 20.894 94.8094 22.0845 96.4663 22.337L109.471 24.3037C110.737 24.5228 111.469 25.1201 111.469 27.5263C111.469 29.4971 111.015 30.3668 110.632 30.749L110.61 30.7743C110.09 31.3435 109.729 31.5306 108.981 31.7724C107.366 32.2734 105.358 32.5273 103.011 32.5273C101.769 32.5247 100.529 32.4452 99.2965 32.2895C98.407 32.1946 97.5234 32.0496 96.6501 31.8552L93.4215 30.9895L92.6357 32.8252L96.1599 33.7485C97.1055 33.9535 98.0608 34.1105 99.0221 34.2188C100.315 34.3803 101.617 34.4629 102.921 34.4659C105.527 34.4659 107.755 34.1907 109.541 33.6456C111.302 33.1111 113.404 31.6415 113.404 27.6479C113.405 24.4039 112.262 22.7806 109.683 22.3851Z" fill="white"/>
<path d="M135.554 20.3162C134.065 19.8886 131.958 19.6722 129.272 19.6722C125.7 19.6722 122.612 20.0476 119.806 20.4738C119.923 16.6794 120.962 14.6659 123.341 13.569C124.819 12.9103 126.699 12.5896 129.083 12.5896C133.15 12.5896 135.648 13.4314 136.532 13.7921L136.845 13.919L137.59 12.0058L137.287 11.8802C136.729 11.6504 133.706 10.5 128.988 10.5C126.259 10.5 124.037 10.8794 122.195 11.6624C119.827 12.6885 117.401 14.7354 117.401 22.1533C117.401 29.7689 119.691 32.4531 121.605 33.3603C123.603 34.3824 126.633 34.5 128.735 34.5C131.577 34.5 133.445 34.2689 134.979 33.7224C137.797 32.6829 139 30.4584 139 26.2831C139.003 23.8354 138.59 21.214 135.554 20.3162ZM128.762 32.4104C126.651 32.4104 124.619 32.3436 122.968 31.5312C120.809 30.4624 119.825 27.6312 119.791 22.3644C121.697 22.0157 125.171 21.6336 129.139 21.6336C131.789 21.6336 133.317 21.7752 134.42 22.1239C135.971 22.5822 136.758 23.3651 136.758 26.3753C136.758 28.513 136.425 30.8164 133.961 31.737C132.729 32.1939 131.628 32.4171 128.768 32.4171L128.762 32.4104Z" fill="white"/>
</svg>
