<svg width="36" height="36" viewBox="0 0 36 36" fill="none" xmlns="http://www.w3.org/2000/svg">
<path fill-rule="evenodd" clip-rule="evenodd" d="M26.5 4C26.7294 4 26.9294 4.15615 26.9851 4.37873L27.694 7.21456C27.8284 7.75199 28.248 8.17161 28.7854 8.30597L31.6213 9.01493C31.8439 9.07057 32 9.27057 32 9.5C32 9.72943 31.8439 9.92943 31.6213 9.98507L28.7854 10.694C28.248 10.8284 27.8284 11.248 27.694 11.7854L26.9851 14.6213C26.9294 14.8439 26.7294 15 26.5 15C26.2706 15 26.0706 14.8439 26.0149 14.6213L25.306 11.7854C25.1716 11.248 24.752 10.8284 24.2146 10.694L21.3787 9.98507C21.1561 9.92943 21 9.72943 21 9.5C21 9.27057 21.1561 9.07057 21.3787 9.01493L24.2146 8.30597C24.752 8.17161 25.1716 7.75199 25.306 7.21456L26.0149 4.37873C26.0706 4.15615 26.2706 4 26.5 4ZM26.5 6.56155L26.2761 7.4571C26.0522 8.35281 25.3528 9.05219 24.4571 9.27611L23.5616 9.5L24.4571 9.72389C25.3528 9.94781 26.0522 10.6472 26.2761 11.5429L26.5 12.4384L26.7239 11.5429C26.9478 10.6472 27.6472 9.94781 28.5429 9.72389L29.4384 9.5L28.5429 9.27611C27.6472 9.05219 26.9478 8.35281 26.7239 7.4571L26.5 6.56155Z" fill="white"/>
<path fill-rule="evenodd" clip-rule="evenodd" d="M28.71 21.521C28.7003 21.5113 28.6911 21.4998 28.6819 21.4883C28.6711 21.4747 28.6603 21.4613 28.649 21.451L28.45 21.17L28.64 20.351C28.75 19.851 28.48 19.351 27.989 19.18C27.25 18.93 26.18 18.581 25.46 18.42C24.649 18.26 22.2 18.031 22.2 18.031L19.13 15.941C19.13 15.941 18.1 15.05 13.47 15H13.06C9.75 15 6.609 15.43 5.33 15.641C5.1 15.691 4.93 15.891 4.93 16.13C4.93 16.201 4.939 16.271 4.97 16.331C4.97491 16.3457 4.98223 16.3578 4.9896 16.37C4.99723 16.3826 5.00491 16.3952 5.01 16.411L5.09 16.601C5.09 16.601 4.34 17.021 3.95 17.321C3.66 17.541 3.43 17.821 3.29 18.021C3.18 18.161 3.109 18.331 3.109 18.51C3.1 19.22 3.5 20.18 3.5 20.18L3.22 20.411C3.19354 20.4366 3.17582 20.4476 3.15254 20.4621L3.14 20.47C3.06 20.561 3 20.691 3 20.821C3 20.851 3 20.891 3.01 20.92C3.149 21.831 3.38 22.351 3.529 22.63C3.63 22.811 3.779 22.951 3.97 23.021C4.739 23.34 6.39 23.651 6.39 23.651H6.42947C6.59962 24.8108 7.58054 25.7006 8.76941 25.7006C9.93941 25.7006 10.9104 24.8406 11.0994 23.7206C11.1304 23.5906 11.1394 23.4406 11.1394 23.3006C11.1394 23.4416 11.1294 23.5906 11.0994 23.7206L21.1696 23.861C21.4197 24.9108 22.3496 25.7006 23.4695 25.7006C24.5595 25.7006 25.4795 24.9506 25.7595 23.9306C25.8095 23.7306 25.8395 23.5206 25.8395 23.3006C25.8395 23.1706 25.8305 23.0506 25.8095 22.9306C25.6395 21.7806 24.6605 20.9006 23.4695 20.9006C22.3095 20.9006 21.3395 21.7406 21.1395 22.8606L11.0693 22.72C10.819 21.6703 9.88018 20.9006 8.76941 20.9006C7.67941 20.9006 6.75941 21.6406 6.47941 22.6606C5.62961 22.4906 4.74991 22.26 4.39 22.121C4.31 21.96 4.16 21.621 4.04 21.031L4.13 20.96L4.71 20.491L4.42 19.791C4.25 19.391 4.12 18.88 4.109 18.59L4.11143 18.587C4.22233 18.4481 4.38131 18.249 4.56 18.111C4.83 17.911 5.39 17.581 5.58 17.481L6.37 17.031L6.149 16.531C7.0594 16.4011 8.38824 16.2312 9.90698 16.1212L9.5515 17.7819C9.50705 17.7845 9.46309 17.7872 9.41962 17.7901C8.29891 17.8705 7.51125 18.0475 7.45182 18.0608L7.45062 18.0611C7.45062 18.0611 7.46362 18.1361 7.46962 18.1611C7.57562 18.5831 7.96962 18.8911 8.42962 18.8911C8.48962 18.8911 8.63962 18.8711 8.63962 18.8711C9.52962 18.7601 10.9396 18.6611 12.3496 18.9111C13.9016 19.181 14.6544 19.1805 15.2441 19.1801L15.7596 19.1801C16.2996 19.2011 16.9296 19.2101 17.5896 19.2101C19.7402 19.2101 22.1917 19.1301 22.8497 19.1072L22.88 19.111C22.8822 19.1088 22.8849 19.1071 22.8879 19.1058L22.91 19.105C22.9138 19.1063 22.9173 19.1083 22.92 19.111C23.739 19.191 24.81 19.311 25.25 19.401C25.92 19.541 26.95 19.88 27.66 20.13L27.47 20.941L27.37 21.401L27.649 21.771L27.75 21.901L27.439 22.88L25.92 22.93L25.8095 22.9306C25.8305 23.0506 25.8395 23.1706 25.8395 23.3006C25.8395 23.5216 25.8095 23.7316 25.7595 23.9306L25.91 23.93L27.47 23.88C27.89 23.871 28.27 23.59 28.39 23.18L28.76 22C28.7643 21.9872 28.7683 21.9727 28.7724 21.9579C28.778 21.9381 28.7837 21.9176 28.79 21.901C28.8 21.871 28.8 21.831 28.8 21.8C28.8 21.701 28.77 21.601 28.71 21.521ZM10.5806 17.756L10.9428 16.0612L10.95 16.061C11.63 16.021 12.34 16 13.06 16H13.46C13.6071 16 13.7463 16 13.8845 16.0096C13.8884 16.0286 13.8934 16.0476 13.8996 16.0665C13.9129 16.109 14.3302 17.3925 14.582 18.1666C14.1081 18.1439 13.479 18.0831 12.5196 17.9201C11.8559 17.807 11.1951 17.7616 10.5806 17.756ZM15.638 18.1801H15.7906C17.1758 18.233 19.092 18.2078 20.5978 18.1723L18.56 16.76L18.5 16.72C18.359 16.641 17.47 16.21 14.95 16.05L14.9458 16.0498C15.1187 16.5812 15.4763 17.6821 15.638 18.1801ZM8.76941 24.7006C9.38041 24.7006 9.91041 24.2806 10.0694 23.7006C10.1204 23.5706 10.1394 23.4406 10.1394 23.3006C10.1394 23.0906 10.0904 22.8906 10.0094 22.7106C9.79041 22.2306 9.31941 21.9006 8.76941 21.9006C8.22941 21.9006 7.76941 22.2106 7.54941 22.6706C7.45041 22.8606 7.39941 23.0706 7.39941 23.3006C7.39941 23.4296 7.42041 23.5606 7.46041 23.6706C7.60941 24.2606 8.13941 24.7006 8.76941 24.7006ZM24.6895 23.9106C24.4795 24.3806 24.0095 24.7006 23.4695 24.7006C22.9105 24.7006 22.4395 24.3606 22.2295 23.8806C22.1395 23.7006 22.0995 23.5106 22.0995 23.3006C22.0995 23.1506 22.1205 23.0106 22.1695 22.8806C22.3395 22.3106 22.8495 21.9006 23.4695 21.9006C24.0995 21.9006 24.6205 22.3206 24.7795 22.9106C24.8195 23.0306 24.8395 23.1606 24.8395 23.3006C24.8395 23.5206 24.7905 23.7306 24.6895 23.9106Z" fill="white"/>
<path d="M6.10904 12.7376C8.12944 8.17903 12.694 5 18 5C19.3493 5 20.6498 5.2054 21.8725 5.5864C22.3998 5.75071 22.9806 5.50476 23.1853 4.99179C21.581 4.35174 19.8309 4 18 4C11.9035 4 6.71842 7.89649 4.79675 13.3334C5.31747 13.5174 5.88525 13.2425 6.10904 12.7376Z" fill="white"/>
<path d="M30.4136 14.1275C30.7946 15.3502 31 16.6507 31 18C31 25.1797 25.1797 31 18 31C14.5417 31 11.3993 29.6502 9.06993 27.4475C8.66864 27.068 8.03872 27.0342 7.62973 27.4053C10.1903 30.227 13.8884 32 18 32C25.732 32 32 25.732 32 18C32 16.1691 31.6483 14.419 31.0082 12.8147C30.4952 13.0194 30.2493 13.6002 30.4136 14.1275Z" fill="white"/>
</svg>
