<svg width="36" height="36" viewBox="0 0 36 36" fill="none" xmlns="http://www.w3.org/2000/svg">
<path d="M18.0379 11.4914L18.6006 11.4946C19.8962 11.5105 21.0056 11.5754 22.366 11.692L23.3131 11.7762C23.8657 11.8231 24.397 11.9899 24.8515 12.2603C25.2609 12.5036 25.5768 12.8043 25.7866 13.156L25.876 13.3137L26.054 13.6524L26.4607 14.4726L26.8775 15.341L27.2319 16.0908L28.07 17.8914L30.3944 17.9064C30.7028 17.9324 30.9471 18.1656 30.9928 18.4617L31 18.5621L30.994 18.7367C30.9337 19.5428 30.4575 20.2486 29.7605 20.6202L29.7029 20.6477L29.849 20.8956L29.9472 21.0754L30.0067 21.1949C30.2467 21.7029 30.4108 22.3519 30.5221 23.4292L30.5698 23.958C30.5771 24.0515 30.5842 24.1478 30.591 24.2471C30.6518 25.1405 30.6554 26.0397 30.6308 26.7958L30.6075 27.3337C30.5982 27.5024 30.5876 27.6599 30.5762 27.8038C30.5664 28.1988 30.5024 28.5967 30.3347 28.8874L30.2318 29.0364L30.2261 29.0488C30.2162 29.0722 30.2087 29.1 30.2047 29.1327L30.2017 29.1856L30.2013 29.904L30.2036 29.9328V32.5112C30.2036 33.2868 29.6057 33.9253 28.8444 33.9939L28.7084 34H26.3833C25.6045 34 24.9631 33.4044 24.8942 32.6465L24.8881 32.5112L24.8878 30.0936C24.8883 29.5948 25.266 29.1842 25.7521 29.1289L25.8661 29.1225L26.2106 29.1232L26.2098 32.5112C26.2098 32.5874 26.2597 32.6524 26.3286 32.6753L26.3833 32.6841H28.7084C28.7848 32.6841 28.85 32.6344 28.873 32.5657L28.8819 32.5112L28.8815 30.0795L28.88 30.0562V29.1856C28.88 28.7535 29.0253 28.4191 29.1966 28.2194L29.2077 28.1705L29.2362 27.9825L29.2521 27.8206L29.2879 27.1915C29.3222 26.4528 29.3317 25.6812 29.3036 24.9363L29.2721 24.3363L29.2336 23.8365C29.2268 23.7585 29.2197 23.6832 29.2125 23.6103L29.1666 23.2018C29.0776 22.5036 28.962 22.0755 28.8106 21.7551C28.7621 21.6523 28.6868 21.5177 28.5984 21.3703L28.4083 21.0641L28.2079 20.7576C28.1749 20.7083 28.1426 20.6605 28.1113 20.6147L28.0716 20.5433L28.0499 20.4947L28.0287 20.4357L28.0109 20.3674L27.9986 20.29L27.9938 20.2404L28.0105 20.115L28.0278 20.0473L28.0565 19.9699L28.0718 19.9389C28.092 19.8994 28.1094 19.874 28.1439 19.8299L28.1877 19.781L28.2449 19.7274L28.2832 19.6961L28.3966 19.6395L28.4641 19.615L28.5289 19.5989L28.5762 19.5905L28.6547 19.5824C28.9349 19.5824 29.1928 19.4685 29.3797 19.282L29.4488 19.2043L27.6462 19.2059C27.5633 19.2052 27.4891 19.1894 27.4194 19.1632L27.358 19.1367L27.2815 19.0933L27.1939 19.0248C27.1883 19.0196 27.1808 19.0125 27.1695 19.0018C27.1354 18.9665 27.1052 18.9283 27.0813 18.8898L27.0414 18.8135L26.3762 17.3782L25.6826 15.9038L25.2818 15.0682L24.9607 14.416L24.7289 13.9681C24.6982 13.9116 24.6717 13.8646 24.6495 13.8273C24.5571 13.6719 24.3988 13.5239 24.1742 13.3902C23.9483 13.256 23.6873 13.1617 23.4101 13.1141L23.1994 13.0872L21.8581 12.97L21.7041 12.9579C20.4688 12.8622 19.2612 12.8074 18.0005 12.8066C16.9914 12.8072 16.0168 12.8424 15.0349 12.9055L14.1425 12.97L12.7997 13.0874C12.4462 13.117 12.1091 13.2224 11.8262 13.3904C11.6023 13.5229 11.4439 13.6711 11.3506 13.8277L11.3141 13.8908L11.1672 14.1653L10.9673 14.5609L10.5699 15.3762L10.1519 16.2538L9.17097 18.3538L8.95651 18.8189C8.92328 18.8898 8.88214 18.9482 8.82632 19.0066L8.72126 19.0916L8.61074 19.1513C8.60423 19.154 8.59593 19.1573 8.58347 19.1623C8.53448 19.1805 8.48561 19.1935 8.43423 19.2004L8.35496 19.2059L6.55218 19.2053L6.62107 19.2824C6.78135 19.4421 6.99366 19.5484 7.22756 19.5756L7.34617 19.5824L7.47237 19.5992L7.53718 19.6154L7.60199 19.6386L7.67076 19.6703L7.71248 19.6928L7.78906 19.7579L7.85867 19.8328L7.90683 19.9003L7.94434 19.9706L7.97214 20.0453L7.98973 20.1126L8.00158 20.1877L8.00701 20.2404L7.99838 20.3207L7.98912 20.3707L7.97214 20.4357L7.94949 20.4973L7.92541 20.5488L7.88736 20.6178L7.75907 20.806L7.58281 21.0797L7.39785 21.3804C7.30974 21.5279 7.23308 21.6637 7.18998 21.7551C7.0799 21.9884 6.98868 22.2787 6.91289 22.6881L6.85889 23.0186L6.81036 23.3995C6.80271 23.4675 6.79527 23.5379 6.78804 23.6108L6.7471 24.0785L6.72527 24.3832C6.67775 25.1081 6.67075 25.8744 6.69156 26.6228L6.71906 27.3221L6.74817 27.8176L6.78476 28.1849C6.78449 28.1904 6.78344 28.1923 6.7814 28.1897C6.95079 28.3891 7.08367 28.671 7.11424 29.028L7.12088 29.1856V30.0562L7.11849 30.0795L7.11867 32.5112C7.11867 32.5874 7.1686 32.6524 7.23743 32.6753L7.29211 32.6841H9.61729C9.69373 32.6841 9.75907 32.6343 9.78215 32.5657L9.79104 32.5112V30.397L9.79675 30.3234L9.80427 30.2874L9.80503 30.2564C9.82055 30.0254 9.95486 29.8171 10.1646 29.7138L10.2589 29.6761L12.0013 29.1266L12.0999 29.1037L12.2008 29.0961H17.937L17.9995 29.0999L18.0638 29.0961L24.1012 29.0944L24.1015 29.4377C24.102 29.9371 23.725 30.3493 23.2381 30.4065L23.1239 30.4132L18.0378 30.4112L18.0005 30.407L17.937 30.412L12.3 30.4119L11.1122 30.7865L11.1127 32.5112C11.1127 33.2868 10.5146 33.9253 9.75325 33.9939L9.61729 34H7.29211C6.5131 34 5.87193 33.4045 5.8031 32.6465L5.79698 32.5112V29.9328L5.79874 29.904L5.79919 29.1856C5.79919 29.1176 5.78735 29.0731 5.77486 29.0471L5.76257 29.0272C5.52163 28.7154 5.43775 28.2664 5.42433 27.8068C5.40555 27.5649 5.38916 27.2898 5.3771 26.9903L5.35931 26.3616C5.34845 25.7058 5.36005 24.9768 5.40955 24.2471L5.45351 23.686C5.5644 22.4538 5.73479 21.7435 5.99378 21.195C6.04707 21.0821 6.11991 20.9479 6.20863 20.7965L6.29709 20.6477L6.23979 20.6202C5.54285 20.2486 5.06687 19.5428 5.0065 18.7367L5 18.5625C5 18.2544 5.21329 17.9928 5.50686 17.9224L5.60751 17.9063L5.81308 17.891L7.93004 17.8894L8.76845 16.0908L9.34137 14.8837L9.71844 14.1075L10.0115 13.5263L10.1721 13.228C10.187 13.2017 10.2009 13.1778 10.2137 13.1561C10.4238 12.8042 10.7399 12.5033 11.1492 12.2601C11.5387 12.0285 11.9849 11.8728 12.4514 11.8037L12.6862 11.7763L13.0342 11.7452C14.6803 11.595 15.9189 11.5128 17.4 11.4946L18.0379 11.4914ZM24.1175 22.7061L24.2854 22.9264C24.6762 23.4417 24.3184 23.993 23.6741 24.1919L23.5575 24.2233L23.4794 24.242C23.107 24.3162 22.7324 24.3763 22.3442 24.4209C21.908 24.4722 21.4809 24.5021 21.0644 24.5139L20.6516 24.5197H14.9982C14.5194 24.5197 14.0182 24.4957 13.5007 24.4434C13.1471 24.4065 12.8089 24.3584 12.4769 24.2989C11.7927 24.1598 11.3444 23.6519 11.6101 23.1287L11.6645 23.0363L11.8215 22.7941L12.556 22.9484C13.2151 23.0883 13.8957 23.1707 14.5842 23.1943L14.9982 23.2013H20.6516C21.4345 23.2013 22.2091 23.1257 22.9595 22.9766L23.4067 22.8784L24.1175 22.7061ZM15.3763 8.34447L14.4607 9.90375C14.0708 10.5672 13.2435 10.8163 12.5581 10.5002L12.4314 10.4343L13.347 8.87407C13.7603 8.17016 14.6692 7.93298 15.3763 8.34447ZM10.8401 8.34447L9.92453 9.90375C9.53463 10.5672 8.70742 10.8163 8.02199 10.5002L7.89527 10.4343L8.81088 8.87407C9.22419 8.17016 10.1331 7.93298 10.8401 8.34447ZM27.1609 8.87446L28.0765 10.4347C27.3695 10.8452 26.4605 10.608 26.0472 9.90413L25.1316 8.3439C25.8387 7.93336 26.7466 8.17054 27.1609 8.87446ZM22.6248 8.87446L23.5404 10.4347C22.8333 10.8452 21.9244 10.608 21.5111 9.90413L20.5955 8.3439C21.3025 7.93336 22.2105 8.17054 22.6248 8.87446ZM17.1907 4.73165L16.2751 6.29093C15.8852 6.95433 15.058 7.20345 14.3726 6.8874L14.2459 6.82148L15.1615 5.26125C15.5748 4.55733 16.4837 4.32016 17.1907 4.73165ZM25.3196 5.21581L26.262 6.82177C25.555 7.23231 24.6461 6.99513 24.2328 6.29121L23.3172 4.73098L23.3631 4.70431C24.0452 4.30806 24.9216 4.53667 25.3196 5.21581ZM12.6545 4.73165L11.7389 6.29093C11.349 6.95433 10.5218 7.20345 9.83636 6.8874L9.70964 6.82148L10.6252 5.26125C11.0386 4.55733 11.9475 4.32016 12.6545 4.73165ZM20.8103 5.26154L21.7259 6.82177C21.0189 7.23231 20.11 6.99513 19.6966 6.29121L18.781 4.73098C19.4881 4.32044 20.396 4.55762 20.8103 5.26154ZM29.156 2C29.156 2.81631 28.4911 3.47736 27.6721 3.47736H8.29127C7.47229 3.47736 6.80735 2.81631 6.80735 2H29.156Z" fill="#040B29"/>
</svg>
