<svg width="28" height="28" viewBox="0 0 28 28" fill="none" xmlns="http://www.w3.org/2000/svg">
<path d="M13.9539 2C17.0993 2 19.6794 4.42029 19.9334 7.5001L22.9229 7.5C23.1538 7.5 23.3505 7.65713 23.4068 7.87382L23.4211 7.95767L24.9079 25.4577C24.9091 25.4718 24.9097 25.4859 24.9097 25.5C24.9097 25.7455 24.7328 25.9496 24.4995 25.9919L24.4097 26L3.4559 25.9982C3.21132 25.9774 3.02287 25.7839 3.00042 25.5479L3 25.4577L4.48619 7.95769C4.50573 7.72764 4.67895 7.54494 4.89962 7.50718L4.9844 7.5L7.97447 7.5001C8.2285 4.42029 10.8086 2 13.9539 2ZM19.4539 12H8.45394C8.45394 12.7797 9.04883 13.4204 9.80948 13.4931L9.95394 13.5H17.9539C18.7824 13.5 19.4539 12.8284 19.4539 12ZM13.9539 3.5C11.6817 3.5 9.80278 5.18414 9.49738 7.37227L9.48194 7.5H18.4249L18.4105 7.37227C18.1146 5.25252 16.3421 3.60575 14.1658 3.5049L13.9539 3.5Z" fill="#040B29"/>
</svg>
