<svg width="36" height="36" viewBox="0 0 36 36" fill="none" xmlns="http://www.w3.org/2000/svg">
<path d="M26.0428 15.2355L26.0463 15.2353H25.9978C26.0128 15.2356 26.0278 15.2357 26.0428 15.2355Z" fill="#040B29"/>
<path fill-rule="evenodd" clip-rule="evenodd" d="M4.76716 13.0374C4.61956 12.7969 4.49623 12.5413 4.39911 12.2747C4.20457 11.8067 4.07103 11.3139 4.00201 10.8094C3.99346 10.6721 4.01226 10.5344 4.05725 10.4049C4.10224 10.2754 4.17245 10.1569 4.26352 10.0567L4.41849 9.91621V9.83592C4.29112 9.37317 4.2036 8.89962 4.15698 8.42084V8.24019C4.15698 7.53766 4.63157 6.92546 5.6776 6.23297L6.04565 6.00215V5.83153C6.01454 5.64554 6.03468 5.45422 6.10377 5.27955L6.15219 5.16915C6.22304 5.03732 6.32166 4.92375 6.44072 4.83687C6.55978 4.74999 6.69621 4.69204 6.83987 4.66735L8.39923 4.4867C9.57118 4.33616 10.7431 4.21572 11.8763 4.13544C13.4551 4.015 14.9079 4.015 16.1864 4.015H16.661C16.7569 3.995 16.8557 3.995 16.9516 4.015C18.0995 4.06384 19.2407 4.22174 20.3609 4.4867C20.7605 4.60854 21.1443 4.78042 21.5038 4.99854L21.9105 5.22937L22.9663 5.91182L23.9348 6.56416L24.516 7.00575L24.8453 7.28676H25.1068C25.7778 7.31427 26.447 7.37792 27.1117 7.47745L27.7025 7.57781L28.8163 7.78857L29.5524 7.95918C30.1743 8.08588 30.777 8.29854 31.3443 8.59145C31.9932 9.00293 32.1385 9.61513 31.877 10.7894L31.6736 11.5621L31.7704 11.6926C31.9048 11.9097 31.9533 12.172 31.906 12.4252L31.4992 13.6095C31.4266 13.8162 31.2905 13.9925 31.1118 14.1113C30.4148 14.4406 29.6469 14.5755 28.8841 14.5027H28.8066V14.583C28.5817 15.1541 28.1965 15.6422 27.701 15.9839C27.2054 16.3257 26.6222 16.5054 26.0269 16.4999C25.4303 16.4997 24.8472 16.3154 24.3521 15.9704C23.857 15.6254 23.4723 15.1354 23.2472 14.5629V14.4826L13.5616 14.3923H13.4745V14.4826C13.26 15.0763 12.8745 15.5873 12.3704 15.9463C11.8662 16.3053 11.2677 16.4951 10.656 16.4898C10.0133 16.5027 9.38366 16.3007 8.86035 15.9139C8.33703 15.5271 7.94782 14.976 7.75031 14.3421V14.2618H7.67282C6.4815 14.041 5.12553 13.5894 4.76716 13.0374ZM10.4623 15.2353H10.656C10.8857 15.2393 11.114 15.1962 11.3276 15.1084C11.5412 15.0207 11.736 14.8901 11.9007 14.724C12.0654 14.558 12.1968 14.3599 12.2874 14.1411C12.378 13.9222 12.4259 13.687 12.4284 13.4489C12.4157 12.9733 12.2225 12.5221 11.8906 12.1932C11.5587 11.8644 11.1151 11.6845 10.656 11.6926C10.2312 11.6686 9.81252 11.8063 9.47892 12.0799C9.14532 12.3535 8.91977 12.744 8.84477 13.1779V13.479C8.85349 13.9284 9.02444 14.358 9.32388 14.6831C9.62332 15.0083 10.0295 15.2053 10.4623 15.2353ZM25.3613 15.1282C25.5793 15.2106 25.811 15.2471 26.0428 15.2355C26.2573 15.2335 26.4698 15.1905 26.6695 15.1084C26.8831 15.0207 27.0779 14.8901 27.2426 14.724C27.4073 14.558 27.5387 14.3599 27.6293 14.1411C27.7199 13.9222 27.7678 13.687 27.7703 13.4489C27.7576 12.9733 27.5643 12.5221 27.2325 12.1932C26.9006 11.8644 26.457 11.6845 25.9978 11.6926C25.7677 11.6859 25.5387 11.7268 25.324 11.8128C25.1093 11.8989 24.9133 12.0283 24.7474 12.1937C24.5815 12.359 24.4491 12.557 24.3578 12.7759C24.2665 12.9949 24.2182 13.2305 24.2157 13.469C24.2206 13.7106 24.2722 13.9488 24.3675 14.1694C24.4629 14.3899 24.5999 14.5885 24.7706 14.7532C24.9413 14.9179 25.1422 15.0454 25.3613 15.1282ZM20.1672 5.65088C19.4079 5.47264 18.6377 5.34858 17.862 5.27955L17.6392 5.19926L18.1622 7.35702H23.0244L22.7241 7.13622L21.465 6.30323L20.9517 6.01218C20.7039 5.862 20.4408 5.74083 20.1672 5.65088ZM13.5616 5.2093H13.4841L13.1451 6.94554L13.8425 7.03586L14.937 7.24662L15.4987 7.31687L16.9322 7.40719L16.3995 5.2093H16.3123C15.7749 5.17615 15.1699 5.18679 14.542 5.19784C14.2192 5.20351 13.8904 5.2093 13.5616 5.2093ZM5.69697 9.47463L5.8132 9.856C5.85377 9.9532 5.86972 10.0595 5.85955 10.1649C5.84938 10.2703 5.81342 10.3712 5.75509 10.4582L5.40641 10.7693V11.0202C5.44878 11.2973 5.5169 11.5696 5.6098 11.8331C5.67471 12.0113 5.75579 12.1826 5.85194 12.3449C5.87805 12.3788 5.91114 12.4063 5.9488 12.4252L6.46213 12.636L7.2176 12.8568L7.75031 12.9772V12.8568C7.89986 12.1745 8.26904 11.5653 8.79713 11.1294C9.32522 10.6935 9.98078 10.4567 10.656 10.4582C11.353 10.4642 12.0258 10.7238 12.5569 11.1915C13.088 11.6593 13.4436 12.3055 13.5616 13.0174V13.1278L23.0534 13.1679V13.0575C23.1501 12.3189 23.5035 11.6422 24.0474 11.1544C24.5913 10.6666 25.2882 10.4012 26.0075 10.408C26.7328 10.3878 27.4391 10.6496 27.9875 11.1417C28.536 11.6339 28.8869 12.3209 28.9713 13.0675V13.188H29.7074L30.1626 13.1278L30.3951 13.0675L30.676 12.2647L30.5888 12.1844C30.5235 12.1223 30.4722 12.046 30.4387 11.961C30.4052 11.876 30.3903 11.7843 30.3951 11.6926L30.7534 10.6288L30.86 10.127V9.65527H30.8115C30.4839 9.47894 30.1355 9.34738 29.7752 9.26387L29.3587 9.16351L29.136 9.10329L28.3514 8.94271L27.2666 8.75203L26.2303 8.61152L25.5523 8.55131H24.6903L23.005 8.6617H18.0073L16.2833 8.61152L15.2566 8.54127H15.0145L13.9684 8.34055L13.5713 8.2703C13.2315 8.21573 12.8885 8.18555 12.5446 8.17997H12.2831L11.0337 8.25023L10.1959 8.31483C9.50837 8.36785 8.90796 7.85378 8.85446 7.16633L11.179 6.98568L12.0119 6.9355L12.2928 5.29962H12.0797C11.179 5.35984 10.2976 5.45016 9.32905 5.56056L7.39194 5.80142L7.46942 5.99211C7.51578 6.11821 7.52198 6.25637 7.48713 6.38638C7.45227 6.51639 7.37819 6.63144 7.27571 6.71471L6.85924 6.96561L6.15219 7.4373L5.7454 7.76849C5.45484 7.99932 5.45484 8.08965 5.45484 8.14986C5.47652 8.46883 5.52843 8.78482 5.6098 9.09326L5.69697 9.47463Z" fill="#040B29"/>
<path d="M30.7961 22.8891H31.0299C31.7216 22.9189 32.9005 23.1678 32.998 24.4323C33.0467 25.3483 32.2283 26.1946 30.2797 27.4193L30.2386 27.4431C29.6002 27.8132 28.9734 28.1765 28.0291 28.6639C27.0646 29.1617 25.9929 29.6695 24.8335 30.1872L23.4598 30.7647L23.1091 30.9339C22.807 31.0933 22.5342 31.2227 22.2225 31.3621C21.9107 31.5015 21.6087 31.6209 21.3261 31.7205C20.7471 31.9647 20.1158 32.0505 19.4945 31.9694L18.5202 31.7603L16.8834 31.4318C15.3492 31.1352 13.7961 30.9521 12.2361 30.8842H11.5152C9.94727 30.793 8.38224 31.1081 6.9653 31.8002L6.88736 31.8499C6.51896 31.3043 6.67309 30.555 7.28601 30.3146C8.55935 29.8153 10.2035 29.598 12.2751 29.6894C13.894 29.7591 15.5058 29.9487 17.0978 30.2569L18.2182 30.4759L19.7088 30.8045C20.1184 30.8245 20.5273 30.7532 20.9072 30.5954C21.0732 30.5344 21.2934 30.4409 21.4786 30.3624C21.5651 30.3257 21.644 30.2922 21.7061 30.2669C21.901 30.1872 22.0861 30.0976 22.2614 30.008L22.9239 29.6695L24.3464 29.0522C25.4765 28.5742 26.6262 27.9769 27.4446 27.5487C28.263 27.1206 28.9937 26.7223 29.5977 26.344C30.1868 26.0021 30.7415 25.6019 31.254 25.1492L31.5365 24.9301L31.6729 24.7708L31.7899 24.6115V24.5518C31.7704 24.2332 31.4878 24.1336 31.0007 24.1336C30.0972 24.1408 29.199 24.2748 28.3312 24.5319L22.1153 26.2245V26.2942C21.9406 26.8026 21.626 27.2486 21.2092 27.5786C21.1505 27.6358 21.0809 27.6798 21.0046 27.708L20.4006 27.7877L19.4263 27.8375H16.1138L14.9609 27.7991C14.2674 27.7761 13.717 27.2072 13.717 26.5132L15.4318 26.5829H20.537L20.6246 26.4933C20.8682 26.2444 20.9656 26.0652 20.9656 25.9059C20.7459 25.6174 20.4367 25.4138 20.0888 25.3284C19.0841 24.9985 18.0361 24.8272 16.9809 24.8206H16.786C14.8831 24.7119 13.0136 24.2637 11.2619 23.4964C11.097 23.443 10.9201 23.443 10.7552 23.4964H10.5214L9.76147 23.7055L8.5826 24.1137L7.67652 24.4821C7.44643 24.5762 7.26513 24.6566 7.02487 24.7632C6.90907 24.8146 6.77957 24.8721 6.62431 24.9401C6.14691 25.1492 5.64029 25.3782 5.12392 25.6371L4.66378 25.8649C4.05055 26.1685 3.30723 25.9199 3 25.3085L3.88659 24.8704C4.66601 24.4821 5.43569 24.1237 6.1664 23.7951L6.8971 23.4765L8.05649 22.9687L8.57286 22.7696L9.06 22.6003C9.87948 22.2381 10.7903 22.151 11.6613 22.3514C12.3401 22.6277 13.0329 22.867 13.7365 23.0683L14.7887 23.3471C15.3445 23.4864 15.9123 23.5697 16.484 23.596H16.6399C17.9589 23.5236 19.2798 23.6991 20.537 24.1137C21.0203 24.2853 21.4529 24.58 21.7938 24.97L21.8425 25.0297L23.4598 24.5916L27.2302 23.5462L28.0097 23.3371C28.9186 23.0793 29.8536 22.9289 30.7961 22.8891Z" fill="#040B29"/>
</svg>
