<svg width="36" height="36" viewBox="0 0 36 36" fill="none" xmlns="http://www.w3.org/2000/svg">
<path fill-rule="evenodd" clip-rule="evenodd" d="M20.6319 27.2834L20.7918 27.4316C20.9594 27.5648 21.2356 27.7277 21.6462 27.889C22.599 28.2633 24.0093 28.5255 25.6368 28.5255C27.2643 28.5255 28.6746 28.2639 29.6273 27.8896C30.0115 27.7386 30.2787 27.586 30.4494 27.4572C30.5186 27.4049 30.586 27.3492 30.6523 27.2909C31.0613 26.9318 31.6751 26.9158 32.0705 27.3041L32.1004 27.3335V27.3755C32.1004 27.7577 31.9028 28.1112 31.5684 28.4219C31.234 28.7324 30.7557 29.0074 30.1731 29.2363C29.0072 29.6943 27.4033 29.9754 25.6368 29.9754C23.8702 29.9754 22.2663 29.6942 21.1004 29.236C20.5178 29.0071 20.0395 28.732 19.7051 28.4214C19.3707 28.1107 19.1731 27.7572 19.1731 27.375V27.333L19.203 27.3036C19.5956 26.9181 20.2283 26.9092 20.6319 27.2834ZM20.5824 27.375C20.5724 27.3752 20.5713 27.3786 20.5754 27.3838C20.5772 27.3862 20.58 27.3889 20.5836 27.3919C20.5908 27.3979 20.6011 27.4052 20.6116 27.4126C20.625 27.422 20.6389 27.4317 20.6477 27.4399L20.6501 27.4421C20.6617 27.4528 20.6741 27.4638 20.6871 27.475C20.8607 27.6234 21.1588 27.805 21.6097 27.9821C22.5767 28.362 24 28.6255 25.6368 28.6255C25.6366 28.6255 25.6369 28.6255 25.6368 28.6255C24 28.6255 22.5767 28.362 21.6097 27.9821C21.1226 27.7908 20.8139 27.5942 20.6477 27.4399C20.6389 27.4317 20.625 27.422 20.6116 27.4126C20.5842 27.3933 20.5583 27.3754 20.5824 27.375ZM19.9113 27.1087C20.1451 27.1046 20.3805 27.187 20.5635 27.3567L20.5824 27.375C20.5825 27.375 20.5834 27.375 20.5836 27.375L20.5635 27.3567C20.5441 27.3387 20.5244 27.3217 20.5039 27.3056C20.3308 27.1704 20.1204 27.105 19.9113 27.1087Z" fill="#040B29"/>
<path fill-rule="evenodd" clip-rule="evenodd" d="M20.6319 30.4083L20.7918 30.5566C20.9594 30.6897 21.2356 30.8527 21.6462 31.014C22.599 31.3883 24.0093 31.6504 25.6368 31.6504C27.2643 31.6504 28.6746 31.3888 29.6273 31.0145C30.0115 30.8636 30.2787 30.7109 30.4494 30.5821C30.5186 30.5299 30.586 30.4741 30.6523 30.4159C31.0613 30.0567 31.6751 30.0408 32.0705 30.4291L32.1004 30.4585V30.5004C32.1004 30.8827 31.9028 31.2362 31.5684 31.5468C31.234 31.8573 30.7557 32.1324 30.1731 32.3612C29.0072 32.8193 27.4033 33.1004 25.6368 33.1004C23.8702 33.1004 22.2663 32.8191 21.1004 32.361C20.5178 32.132 20.0395 31.8569 19.7051 31.5464C19.3707 31.2357 19.1731 30.8821 19.1731 30.4999V30.458L19.203 30.4286C19.5956 30.0431 20.2283 30.0342 20.6319 30.4083ZM20.5754 30.5088C20.5762 30.5099 20.5773 30.5111 20.5787 30.5124C20.5801 30.5138 20.5817 30.5153 20.5836 30.5168C20.5908 30.5229 20.6011 30.5301 20.6116 30.5375C20.625 30.5469 20.6389 30.5566 20.6477 30.5648L20.6501 30.567C20.6535 30.5702 20.657 30.5734 20.6606 30.5767C20.6691 30.5843 20.6779 30.5921 20.6871 30.5999C20.8607 30.7483 21.1588 30.9299 21.6097 31.1071C22.5767 31.487 24 31.7504 25.6368 31.7504C25.6366 31.7504 25.6369 31.7504 25.6368 31.7504C24 31.7504 22.5767 31.487 21.6097 31.1071C21.1226 30.9157 20.8139 30.7192 20.6477 30.5648C20.6389 30.5566 20.625 30.5469 20.6116 30.5375C20.5842 30.5182 20.5583 30.5003 20.5824 30.4999C20.5724 30.5002 20.5713 30.5035 20.5754 30.5088ZM19.9113 30.2336C20.1451 30.2296 20.3805 30.312 20.5635 30.4817L20.5824 30.4999C20.5825 30.4999 20.5834 30.4999 20.5836 30.4999L20.5635 30.4817C20.5441 30.4637 20.5244 30.4466 20.5039 30.4306C20.3308 30.2954 20.1204 30.2299 19.9113 30.2336Z" fill="#040B29"/>
<path fill-rule="evenodd" clip-rule="evenodd" d="M5.37312 31.6499V8.8679C7.52189 12.8717 11.801 15.6002 16.7276 15.6002C21.6543 15.6002 25.9335 12.8715 28.0822 8.86762V18.0001C28.0822 18.7474 28.6985 19.3501 29.4549 19.3501H29.5549V4.25037C29.5549 3.5031 28.9386 2.90039 28.1822 2.90039H5.27312C4.51669 2.90039 3.90039 3.5031 3.90039 4.25037V31.7499C3.90039 32.4972 4.51669 33.0999 5.27312 33.0999H16.8277V32.9999C16.8277 32.2526 16.2114 31.6499 15.4549 31.6499H5.37312ZM5.34256 4.25037C5.97567 9.87521 10.8312 14.2502 16.7272 14.2502C16.7273 14.2502 16.7271 14.2502 16.7272 14.2502C10.9166 14.2502 6.11697 10.0011 5.37312 4.49404C5.36666 4.44625 5.36051 4.39835 5.35467 4.35037C5.35061 4.31708 5.34632 4.28375 5.34256 4.25037ZM16.7276 14.1502C10.9206 14.1502 6.13378 9.87017 5.45541 4.35037H27.9998C27.3214 9.87017 22.5346 14.1502 16.7276 14.1502ZM15.4549 31.7499H5.27312V8.4564C5.27299 8.45614 5.27325 8.45666 5.27312 8.4564V31.7499H15.4549C16.1578 31.7499 16.7273 32.3095 16.7273 32.9999C16.7273 32.9662 16.7263 32.9329 16.7236 32.8999C16.6718 32.2563 16.1236 31.7499 15.4549 31.7499ZM17.1624 15.493C21.9356 15.3356 26.0427 12.5968 28.0822 8.65299C28.116 8.58769 28.1492 8.52205 28.1818 8.45609C26.1787 12.5057 22.0148 15.3329 17.1624 15.493ZM29.4545 19.2501V4.25037C29.4545 3.56003 28.8847 3.0004 28.1818 3.0004C28.8575 3.0004 29.4105 3.51745 29.4524 4.17065C29.4541 4.19701 29.4545 4.2236 29.4545 4.25037V19.2501C29.4547 19.2501 29.4544 19.2501 29.4545 19.2501Z" fill="#040B29"/>
<path fill-rule="evenodd" clip-rule="evenodd" d="M25.6368 26.85C27.4033 26.85 29.0072 26.5689 30.1731 26.1108C30.7557 25.8819 31.234 25.6069 31.5684 25.2964C31.9028 24.9857 32.1004 24.6322 32.1004 24.25C32.1004 23.8678 31.9028 23.5143 31.5684 23.2037C31.234 22.8931 30.7557 22.6181 30.1731 22.3892C29.0072 21.9312 27.4033 21.6501 25.6368 21.6501C23.8702 21.6501 22.2663 21.9312 21.1004 22.3892C20.5178 22.6181 20.0395 22.8931 19.7051 23.2037C19.3707 23.5143 19.1731 23.8678 19.1731 24.25C19.1731 24.6322 19.3707 24.9857 19.7051 25.2964C20.0395 25.6069 20.5178 25.8819 21.1004 26.1108C22.2663 26.5689 23.8702 26.85 25.6368 26.85ZM29.6273 24.7641C30.0982 24.5791 30.3923 24.392 30.5487 24.25C30.3923 24.1081 30.0982 23.9209 29.6273 23.7359C28.6746 23.3617 27.2643 23.1 25.6368 23.1C24.0092 23.1 22.599 23.3617 21.6462 23.7359C21.1753 23.9209 20.8812 24.1081 20.7249 24.25C20.8812 24.392 21.1753 24.5791 21.6462 24.7641C22.599 25.1384 24.0092 25.4 25.6368 25.4C27.2643 25.4 28.6746 25.1384 29.6273 24.7641ZM25.6368 25.5C25.6369 25.5 25.6366 25.5 25.6368 25.5V25.5ZM25.6364 21.7501C25.6365 21.7501 25.6362 21.7501 25.6364 21.7501V21.7501Z" fill="#040B29"/>
</svg>
