<svg width="28" height="28" viewBox="0 0 28 28" fill="none" xmlns="http://www.w3.org/2000/svg">
<path d="M23.0439 5.60576L23.2238 5.82539C27.231 10.716 26.8965 17.8907 22.3935 22.3937C18.0569 26.7301 11.2289 27.2088 6.34902 23.6303L6.0848 23.4311L5.60279 23.0469L9.79743 18.8523C10.2964 18.3529 11.0428 18.1893 11.6849 18.4522C13.6062 19.2384 15.8296 18.8129 17.321 17.3212C18.8128 15.8297 19.2382 13.6063 18.4519 11.6854C18.2318 11.1475 18.3098 10.5341 18.6458 10.0461L18.7438 9.91632L18.8519 9.79772L23.0439 5.60576ZM5.12147 5.12169C9.45784 0.785304 16.286 0.30635 21.1633 3.8828L21.4301 4.08405L21.9121 4.46819L17.7174 8.66328C17.2179 9.16237 16.4719 9.32602 15.8298 9.06322C13.9086 8.27695 11.6852 8.70229 10.1937 10.1939C8.70193 11.6856 8.2765 13.9091 9.063 15.83C9.28305 16.3678 9.20501 16.9812 8.86906 17.4691L8.77107 17.5989L8.66299 17.7174L4.47105 21.9097L4.29109 21.69C0.283892 16.7995 0.618437 9.62473 5.12147 5.12169Z" fill="#040B29"/>
</svg>
