<svg width="28" height="28" viewBox="0 0 28 28" fill="none" xmlns="http://www.w3.org/2000/svg">
<path d="M18.4541 3.21875C18.8761 3.21875 19.2527 3.48367 19.3953 3.88085L20.257 6.281L25.3125 6.28121C25.8648 6.28127 26.3125 6.72898 26.3125 7.28125V23.125C26.3125 23.6773 25.8648 24.125 25.3125 24.125H2.6875C2.13522 24.125 1.6875 23.6773 1.6875 23.125V7.28125C1.68754 6.72898 2.13523 6.28127 2.6875 6.28121L7.741 6.281L8.59848 3.88215C8.74069 3.4843 9.11761 3.21875 9.54013 3.21875H18.4541ZM18.454 4.218H9.539L8.44606 7.28125L2.687 7.281V23.125H25.312V7.281L19.5546 7.28125L18.454 4.218ZM17.8822 11.9272L17.9325 11.9928C19.3493 13.9207 19.156 16.6133 17.4471 18.3221C15.7014 20.0679 12.9634 20.2134 11.0522 18.7586L11.7677 18.0433C13.2804 19.1122 15.3857 18.9694 16.74 17.615C18.048 16.307 18.239 14.2737 17.2465 12.7575L17.1672 12.6422L17.8822 11.9272ZM16.5192 10.6999L16.8033 10.8857L16.0832 11.6064C14.5662 10.6364 12.5549 10.84 11.26 12.135C9.99579 13.3991 9.77148 15.3463 10.6646 16.8499L10.7322 16.9572L10.0112 17.6772L9.94642 17.5848C8.70418 15.7311 8.88419 13.2592 10.3868 11.6022L10.5529 11.4279C12.1529 9.82777 14.6221 9.55217 16.5192 10.6999Z" fill="white"/>
</svg>
