<svg width="28" height="28" viewBox="0 0 28 28" fill="none" xmlns="http://www.w3.org/2000/svg">
<path d="M22.9502 24.75L22.9433 24.8945C22.8752 25.6076 22.3078 26.175 21.5947 26.2431L21.4502 26.25H6.4502C5.6705 26.25 5.02975 25.6551 4.95706 24.8945L4.9502 24.75H22.9502ZM13.9502 1.5L14.2366 1.50374C20.0412 1.65555 24.7002 6.40873 24.7002 12.25C24.7002 18.187 19.8872 23 13.9502 23C8.01317 23 3.2002 18.187 3.2002 12.25C3.2002 6.40873 7.85916 1.65555 13.6638 1.50374L13.9502 1.5ZM9.9502 9.75C9.43736 9.75 9.01469 10.136 8.95692 10.6334L8.9502 10.75V12.75C8.9502 13.3023 9.39791 13.75 9.9502 13.75C10.463 13.75 10.8857 13.364 10.9435 12.8666L10.9502 12.75V10.75C10.9502 10.1977 10.5025 9.75 9.9502 9.75ZM17.9502 9.75C17.4374 9.75 17.0147 10.136 16.9569 10.6334L16.9502 10.75V12.75C16.9502 13.3023 17.3979 13.75 17.9502 13.75C18.463 13.75 18.8857 13.364 18.9435 12.8666L18.9502 12.75V10.75C18.9502 10.1977 18.5025 9.75 17.9502 9.75Z" fill="white"/>
</svg>
