<svg width="28" height="28" viewBox="0 0 28 28" fill="none" xmlns="http://www.w3.org/2000/svg">
<path fill-rule="evenodd" clip-rule="evenodd" d="M18.2016 13.7504V7.87196C18.2016 5.4574 16.2442 3.5 13.8296 3.5C11.415 3.5 9.45763 5.45739 9.45763 7.87196V13.7504C9.45763 16.165 11.415 18.1224 13.8296 18.1224C16.2442 18.1224 18.2016 16.165 18.2016 13.7504ZM13.8296 2C10.5866 2 7.95763 4.62897 7.95763 7.87196V13.7504C7.95763 16.9934 10.5866 19.6224 13.8296 19.6224C17.0726 19.6224 19.7016 16.9934 19.7016 13.7504V7.87196C19.7016 4.62897 17.0726 2 13.8296 2Z" fill="#040B29"/>
<path fill-rule="evenodd" clip-rule="evenodd" d="M4.49609 12.1538C5.26051 12.1538 5.8802 12.7735 5.8802 13.538V13.8741C5.8802 18.3581 9.51381 21.993 13.9961 21.993C18.4784 21.993 22.112 18.3581 22.112 13.8741V13.538C22.112 12.7735 22.7317 12.1538 23.4961 12.1538V13.8741C23.4961 19.1228 19.2428 23.3776 13.9961 23.3776C8.74939 23.3776 4.49609 19.1228 4.49609 13.8741V12.1538Z" fill="#040B29"/>
<path fill-rule="evenodd" clip-rule="evenodd" d="M13.4928 23.2305H14.8774V24.6151C14.8774 25.3798 14.2575 25.9997 13.4928 25.9997V23.2305Z" fill="#040B29"/>
</svg>
