<svg width="28" height="28" viewBox="0 0 28 28" fill="none" xmlns="http://www.w3.org/2000/svg">
<path d="M19.6681 3C19.9879 3 20.2857 3.15266 20.4728 3.40625L20.5376 3.50598L26.2195 13.506C26.3718 13.774 26.3909 14.0949 26.2767 14.3762L26.2195 14.494L20.5376 24.494C20.3796 24.772 20.0997 24.9556 19.7868 24.9929L19.6681 25H8.33235C8.01259 25 7.71473 24.8473 7.52767 24.5937L7.4629 24.494L1.78094 14.494C1.62863 14.226 1.60959 13.9051 1.72382 13.6238L1.78094 13.506L7.4629 3.50598C7.62086 3.22797 7.90074 3.04441 8.21364 3.00706L8.33235 3H19.6681ZM19.3772 4.5H8.62224L3.22524 14L8.62324 23.5H19.3762L24.7742 14L19.3772 4.5ZM14.0002 9.25C16.6201 9.25 18.7502 11.38 18.7502 14C18.7502 16.6197 16.6199 18.75 14.0002 18.75C11.3805 18.75 9.25024 16.6197 9.25024 14C9.25024 11.38 11.3804 9.25 14.0002 9.25ZM14.0002 10.75C12.2088 10.75 10.7502 12.2084 10.7502 14C10.7502 15.7913 12.209 17.25 14.0002 17.25C15.7915 17.25 17.2502 15.7913 17.2502 14C17.2502 12.2084 15.7917 10.75 14.0002 10.75Z" fill="#040B29"/>
</svg>
