<svg width="36" height="36" viewBox="0 0 36 36" fill="none" xmlns="http://www.w3.org/2000/svg">
<path d="M31.8188 2.5L31.9122 2.73951C32.1267 3.28957 31.9371 3.91102 31.4627 4.24738L31.3483 4.31978L31.2271 4.37796L31.056 4.42725L30.7184 4.51611C29.9809 4.6926 29.2249 4.77143 28.4689 4.7511L28.091 4.73266L27.8691 4.71084L27.5811 5.15403L27.2958 5.61109L26.985 6.12295L26.4808 6.97509L25.9447 7.90322L25.3922 8.87896L25.0957 9.40873L26.1924 11.0648L26.8625 12.0902L27.3043 12.7758L27.9288 13.7678L28.3319 14.4335L28.5801 14.8624L28.7206 15.1164L28.8417 15.3459L28.9437 15.5517L29.0271 15.7346L29.0924 15.8954C29.1018 15.9204 29.1104 15.9445 29.1183 15.9678L29.1571 16.0971C29.1672 16.1368 29.1744 16.1732 29.1788 16.2064L29.1839 16.2956L29.1667 16.5865L29.133 16.9209L29.057 17.4794L28.9728 18.0165L28.6253 20.1131L28.5497 20.6354L28.5183 20.9161L28.5117 20.9971L29.722 21.9378L29.8434 22.0361C30.2438 22.3643 30.4574 22.89 30.3739 23.6229C30.2318 24.8619 29.2026 26.5851 28.3224 27.0222C28.2324 27.067 28.1209 27.1126 27.9887 27.1592L27.697 27.2535C27.6439 27.2694 27.5885 27.2854 27.531 27.3015L27.1594 27.3994C27.0931 27.4159 27.0247 27.4325 26.9542 27.4492L26.506 27.5505L26.0087 27.6542L25.1737 27.8138L24.5599 27.923C24.4539 27.9413 24.346 27.9598 24.2364 27.9784C23.3973 28.1204 22.528 28.2551 21.6714 28.3797L20.1805 28.5881L20.1783 28.6168C19.812 31.236 17.6483 33.2632 15.0003 33.4807L14.7582 33.4954L14.5274 33.5C11.732 33.5 9.36695 31.4811 8.90535 28.7808L8.87018 28.548L5.51195 28.5492C4.83247 28.5476 4.25887 28.0688 4.1265 27.4123L4.10601 27.2788L4.08582 26.8887L4.352 26.8894L5.55078 26.898L5.62542 26.8878L8.9065 26.8875L8.9087 26.8739C9.34553 24.337 11.4672 22.4013 14.0461 22.1852L14.2891 22.17L14.5274 22.1651C17.1861 22.1651 19.4537 23.9914 20.0665 26.4855L20.1176 26.7141L20.1533 26.9156L21.2378 26.7644L22.5297 26.5722L23.4476 26.4266L24.5803 26.2341L25.3452 26.0934L26.024 25.9579L26.6044 25.8294L26.9305 25.7486L27.2037 25.6723C27.2855 25.6477 27.358 25.6239 27.4203 25.6011L27.5063 25.5676L27.5748 25.5365C27.8616 25.3945 28.5295 24.3349 28.6866 23.5924L28.7281 23.3523C28.7358 23.3143 28.7444 23.2953 28.76 23.3011L28.192 22.8549L27.3947 22.2328L27.2212 22.0865L27.1434 22.0133L27.0855 21.9507L27.0387 21.8912L26.9785 21.802L26.9284 21.7088C26.921 21.6927 26.9139 21.6762 26.9073 21.6593L26.8729 21.5517C26.8632 21.5135 26.8552 21.4728 26.849 21.4289L26.8358 21.2866L26.8334 21.1203L26.8419 20.9257L26.8752 20.5708L26.9337 20.1272L27.0881 19.1501L27.289 17.9564L27.4041 17.2386L27.4767 16.7284L27.5144 16.3722C27.5163 16.3474 27.5179 16.3237 27.5193 16.3009L27.5071 16.2618L27.4534 16.1377C27.4412 16.1121 27.4275 16.084 27.4123 16.0536L27.2353 15.7197L27.0256 15.3492L26.9913 15.3633L26.9391 15.3775L26.8858 15.388L26.7762 15.3977L23.3351 15.4595L15.1196 15.5811L12.8378 15.5989L11.8774 15.5971L11.608 15.5933C10.7855 15.578 9.9061 15.6816 8.74836 15.9071L8.01982 16.0566L6.43686 16.4009L5.79013 16.5297L5.70639 16.5448C5.08211 16.6577 4.47276 16.3448 4.19092 15.7965L4.13565 15.6755L4.09109 15.5477L4 15.1674L5.5032 14.8969L6.50794 14.686L7.27845 14.518L7.98607 14.3697L8.62554 14.2448C9.74206 14.0364 10.5697 13.9407 11.4094 13.9328L12.1912 13.9383L14.054 13.9306L18.126 13.8814L26.0622 13.7499L25.5316 12.9057L24.9699 12.0284L24.3822 11.1251L23.8387 10.3016L23.8152 10.2952L23.7731 10.2745L23.6398 10.2474L23.2156 10.1692L22.7315 10.0886L21.9016 9.96431L20.959 9.83725L19.917 9.70892L18.7886 9.5808L17.5874 9.4544L16.3263 9.3312L15.0187 9.2127L14.1277 9.13705L12.7721 9.0297L11.4053 8.93103C10.0676 8.83927 8.73295 8.76211 7.4569 8.70581L6.51173 8.6676L5.54626 8.63526L5.47767 8.62712L5.45418 8.62107L5.35057 8.6066C4.8172 8.50403 4.39212 8.10878 4.25089 7.59035L4.2216 7.45827L4.20475 7.32165L4.19589 6.93699L5.73879 6.97979C6.9901 7.01689 8.32736 7.07673 9.7251 7.15699L10.5708 7.20758L11.947 7.29821L13.4048 7.40488L14.8598 7.52161L16.2944 7.64642L17.2308 7.73314L19.0318 7.9124L20.2994 8.04963L21.4762 8.18707L22.5444 8.32274L23.1876 8.41123L23.8609 8.51184L24.3298 7.69076L25.0557 6.44037L25.4 5.85897L25.8838 5.05827L26.1799 4.58072L26.451 4.15509L26.6938 3.7873L26.8036 3.62695L26.8999 3.49042C27.0622 3.25674 27.3417 3.13675 27.6149 3.18234C28.3939 3.29392 29.1839 3.28136 29.9539 3.14672L30.2825 3.08155L30.5851 3.01015L31.8188 2.5ZM14.5274 23.8258C12.3032 23.8258 10.4928 25.6238 10.4928 27.8326C10.4928 30.0414 12.3032 31.8393 14.5274 31.8393C16.751 31.8393 18.5612 30.0412 18.5612 27.8326C18.5612 25.6239 16.751 23.8258 14.5274 23.8258Z" fill="#009292"/>
</svg>
