<svg width="28" height="28" viewBox="0 0 28 28" fill="none" xmlns="http://www.w3.org/2000/svg">
<path d="M14.9722 2L14.9723 3.71976C19.1314 4.18155 22.3782 7.59926 22.4967 11.7842L22.5 12.035L22.484 20.666L26 20.6667L25.9931 20.8111C25.9204 21.5718 25.2797 22.1667 24.5 22.1667L18.6456 22.1667C18.1876 24.3127 16.2767 25.9205 13.9924 25.9167C11.713 25.9132 9.81088 24.3067 9.35428 22.1666L3.5 22.1667C2.67157 22.1667 2 21.4951 2 20.6667L5.503 20.666L5.51842 12.008C5.52563 7.65949 8.90766 4.09238 13.222 3.70209L13.2222 2H14.9722ZM17.0945 22.167L10.9054 22.1671C11.3252 23.4703 12.5488 24.4145 13.9948 24.4167C15.4442 24.4191 16.6734 23.474 17.0945 22.167ZM14.0232 5.16667H14.009C10.2281 5.16667 7.15512 8.10779 7.02284 11.7756L7.01841 12.0107L7.00233 20.641L20.9833 20.664L21 12.0325C21.0061 8.33085 18.0156 5.30131 14.2637 5.17102L14.0232 5.16667Z" fill="#040B29"/>
</svg>
