<svg width="36" height="36" viewBox="0 0 36 36" fill="none" xmlns="http://www.w3.org/2000/svg">
<path fill-rule="evenodd" clip-rule="evenodd" d="M12.3058 21.2687C13.728 21.2687 14.7142 22.1521 15.0881 23.0378L15.1396 23.1705L15.9856 25.3254C16.7182 25.7652 17.2096 26.5285 17.2718 27.3721L17.2785 27.554V29.4259C17.2785 30.249 16.7816 30.9619 16.0612 31.3025C16.051 32.2401 15.2534 33 14.274 33C13.4241 33 12.7097 32.4267 12.5309 31.6608L12.5037 31.515H7.7748C7.65672 32.3528 6.9075 33 6.00368 33C5.0251 33 4.22746 32.2401 4.21727 31.3025C3.54495 30.9846 3.06725 30.3417 3.00654 29.5888L3 29.4259V27.554C3 26.7002 3.4425 25.9092 4.13896 25.4245L4.29202 25.3254L5.12874 23.1956C5.44021 22.3051 6.38039 21.363 7.76143 21.2753L7.97187 21.2687H12.3058ZM12.3058 22.4852H7.97187C7.03694 22.4852 6.52756 23.1175 6.36045 23.5206L6.33157 23.5979L5.30627 26.2086C4.75492 26.3697 4.33759 26.8463 4.28079 27.42L4.27418 27.554V29.4259C4.27418 29.8683 4.61799 30.2375 5.05839 30.2917L5.17036 30.2985H5.49146V31.2847C5.49146 31.558 5.72336 31.7835 6.00368 31.7835C6.25285 31.7835 6.46444 31.6053 6.50838 31.3738L6.51675 31.2847V30.2985H13.7618V31.2847C13.7618 31.558 13.9945 31.7835 14.274 31.7835C14.5232 31.7835 14.7347 31.6053 14.7787 31.3738L14.7871 31.2847V30.2985H15.1082C15.5629 30.2985 15.9417 29.9634 15.9973 29.5348L16.0043 29.4259V27.554C16.0043 26.9666 15.6271 26.4596 15.0972 26.2513L14.9722 26.2086L13.9469 23.5979C13.8102 23.2119 13.3039 22.4852 12.3058 22.4852ZM30.4007 3C31.7789 3 32.9065 4.02439 32.9945 5.3193L33 5.48252V29.2817C33 30.597 31.9285 31.6726 30.5732 31.7565L30.4024 31.7618H17.7336L17.6316 31.6645C17.6316 30.9558 18.1974 30.3735 18.9212 30.3074L19.0587 30.3012H30.4007C30.9498 30.3012 31.4062 29.9005 31.4647 29.3909L31.471 29.2801V5.48008C31.471 4.95421 31.0549 4.52192 30.5196 4.46661L30.4032 4.46064H12.5016C11.953 4.46064 11.4968 4.86151 11.4384 5.37164L11.4321 5.48252V18.8488C11.4321 19.5577 10.8655 20.1399 10.1416 20.2059L10.0042 20.2122L9.90224 20.1148V5.48252C9.90224 4.16637 10.9747 3.08934 12.3307 3.00528L12.5016 3H30.4007ZM25.1095 22.1375L25.2115 22.2348C25.2115 22.9182 24.6647 23.4805 23.9663 23.5443L23.8337 23.5503H17.7133L17.6114 23.453C17.6114 22.7694 18.1577 22.2073 18.8565 22.1435L18.9892 22.1375H25.1095ZM22.0493 9.77911L22.1512 9.87643L22.1506 12.7007L25.1095 12.7008L25.2115 12.7981C25.2115 13.4815 24.6647 14.0438 23.9663 14.1076L23.8337 14.1136L22.1506 14.1128L22.1512 15.7198C22.1512 16.4032 21.6044 16.9654 20.906 17.0292L20.7734 17.0353L20.7733 16.9374L20.6715 16.9379V14.1128L17.7133 14.1136L17.6114 14.0163C17.6114 13.3326 18.1577 12.7706 18.8565 12.7068L18.9892 12.7008L20.6715 12.7007V11.0946C20.6715 10.411 21.2178 9.84889 21.9166 9.78513L22.0493 9.77911Z" fill="white"/>
</svg>
