<svg width="36" height="36" viewBox="0 0 36 36" fill="none" xmlns="http://www.w3.org/2000/svg">
<path d="M26.6129 3C28.6924 3 30.3908 4.60568 30.4949 6.62448L30.5 6.8211V20.3171H30.0026C29.5259 20.3171 29.1329 19.9642 29.0792 19.5098L29.073 19.4032V6.8211C29.073 5.53901 28.0579 4.48986 26.7747 4.40798L26.6129 4.40283H9.38678C8.08262 4.40283 7.01556 5.40063 6.93228 6.6621L6.92705 6.8211V29.1792C6.92705 30.4613 7.94168 31.5102 9.22476 31.592L9.38649 31.5972H15.3455C15.954 31.5972 16.248 32.0026 16.2829 32.5396C16.2873 32.6085 16.288 32.6709 16.2857 32.7445L16.2751 32.9727L15.7771 32.9726L15.7777 33H9.38678C7.30731 33 5.60916 31.3944 5.50506 29.3755L5.5 29.1789V6.8211C5.5 4.77685 7.13317 3.10732 9.18677 3.00497L9.38678 3H26.6129ZM28.0581 20.5699L28.1688 20.6711L29.9087 22.4342C30.4293 22.9626 30.4556 23.7841 29.9918 24.3419L29.8925 24.4498L22.3865 31.8284C22.2521 31.9611 22.0871 32.059 21.9071 32.1144L21.7695 32.1478L18.4494 32.7516C17.8463 32.8614 17.3285 32.3532 17.4114 31.7772L17.4341 31.6685L18.3006 28.5264C18.3434 28.3706 18.4188 28.2257 18.5218 28.1011L18.604 28.0116L26.0869 20.6557C26.6278 20.124 27.4851 20.0969 28.0581 20.5699ZM25.6691 22.7248L19.4512 28.8378L18.714 31.5087L21.5465 30.9943L27.8131 24.8334L25.6691 22.7248ZM26.9888 21.4424L26.931 21.4856L26.5138 21.8955L28.6578 24.0031L29.0484 23.6199C29.1172 23.5522 29.1408 23.4566 29.1187 23.3699L29.0937 23.3071L29.0515 23.2511L27.3119 21.4883C27.2252 21.4005 27.092 21.385 26.9888 21.4424ZM21.8494 20.6808C22.2431 20.6808 22.5295 21.0039 22.5745 21.3902L22.5807 21.4969V21.8881H11.4221C11.0284 21.8881 10.742 21.5652 10.697 21.1788L10.6908 21.072V20.6808H21.8494ZM24.7578 14.8566C25.1811 14.8566 25.5302 15.1679 25.5814 15.5703L25.5879 15.6726V16.0638H11.2419C10.8188 16.0638 10.4695 15.7524 10.4182 15.3501L10.4118 15.2478V14.8566H24.7578ZM24.7578 8.99796C25.2634 8.99796 25.5337 9.32457 25.6026 9.77863C25.616 9.86659 25.6213 9.94067 25.6227 10.0385L25.6229 10.1818L25.1896 10.1809L25.1899 10.2052H11.2419C10.8188 10.2052 10.4695 9.89397 10.4182 9.49154L10.4118 9.38916V8.99796H24.7578Z" fill="white"/>
</svg>
